<?xml version="1.0" encoding="UTF-8" standalone="no"?>
<!-- Created with Inkscape (http://www.inkscape.org/) -->

<svg
   viewBox="0 0 39.200001 39.200001"
   version="1.1"
   id="svg1"
   inkscape:version="1.3.2 (091e20e, 2023-11-25, custom)"
   sodipodi:docname="King Black.svg"
   xml:space="preserve"
   xmlns:inkscape="http://www.inkscape.org/namespaces/inkscape"
   xmlns:sodipodi="http://sodipodi.sourceforge.net/DTD/sodipodi-0.dtd"
   xmlns="http://www.w3.org/2000/svg"
   xmlns:svg="http://www.w3.org/2000/svg"><sodipodi:namedview
     id="namedview1"
     pagecolor="#ffffff"
     bordercolor="#111111"
     borderopacity="1"
     inkscape:showpageshadow="0"
     inkscape:pageopacity="0"
     inkscape:pagecheckerboard="1"
     inkscape:deskcolor="#d1d1d1"
     inkscape:document-units="mm"
     showguides="true"
     inkscape:zoom="14.005102"
     inkscape:cx="19.6"
     inkscape:cy="19.6"
     inkscape:window-width="1292"
     inkscape:window-height="745"
     inkscape:window-x="-8"
     inkscape:window-y="-8"
     inkscape:window-maximized="1"
     inkscape:current-layer="layer1"><inkscape:page
       x="0"
       y="0"
       width="39.200001"
       height="39.200001"
       id="page42"
       margin="0"
       bleed="0" /></sodipodi:namedview><defs
     id="defs1"><inkscape:path-effect
       effect="powerstroke"
       id="path-effect13"
       is_visible="true"
       lpeversion="1.3"
       scale_width="1"
       interpolator_type="CubicBezierJohan"
       interpolator_beta="0.2"
       start_linecap_type="zerowidth"
       end_linecap_type="zerowidth"
       offset_points="5,4.9921382"
       linejoin_type="extrp_arc"
       miter_limit="4"
       not_jump="false"
       sort_points="true"
       message="&lt;b&gt;Ctrl + click&lt;/b&gt; on existing node and move it" /></defs><g
     inkscape:label="Layer 1"
     inkscape:groupmode="layer"
     id="layer1"
     transform="translate(-85.400002,-166)"><path
       style="fill:#fff29e;fill-opacity:1;fill-rule:evenodd;stroke:none;stroke-width:0.385762;stroke-linecap:round;stroke-linejoin:round;paint-order:stroke fill markers"
       d="m 105,168 9.78527,3.17942 L 119.35,200 h -28.7 l 4.56473,-28.82058 z"
       id="path13" /><path
       style="display:inline;fill:#938e5e;fill-opacity:1;fill-rule:evenodd;stroke:none;stroke-width:0.386001;stroke-linecap:round;stroke-linejoin:round;stroke-dasharray:none;stroke-opacity:1;paint-order:stroke fill markers"
       d="m 90.649998,200 -3e-6,3.2 H 119.35 V 200 Z"
       id="path45" /><g
       id="g3792"
       transform="matrix(0.383893,0,0,0.383893,-155.72582,-88.564375)"><path
         id="path3010"
         style="display:inline;fill:#d0d0d0"
         d="m 691.0932,692.32883 c -1.46955,0.0244 -3.20347,0.30707 -5.1112,0.87363 -5.96374,1.771 -20.09871,2.13434 -22.98762,0.58825 -2.96188,-1.58515 -3.22895,0.49715 -0.42268,3.30337 2.51922,2.51923 9.38676,4.45932 11.39218,3.21991 0.64143,-0.39642 1.03381,0.71639 1.03381,2.91837 v 3.55779 h -6.49904 c -7.28233,0 -8.10747,1.02887 -3.24818,4.04642 2.29457,1.42489 4.20587,1.85124 6.50039,1.44304 l 3.24683,-0.57749 v 4.54449 4.54448 l -5.74791,-0.004 c -3.1625,-0.003 -7.4923,-0.48997 -9.62069,-1.08093 -2.32099,-0.64445 -4.235,-0.71063 -4.78005,-0.16558 -1.14019,1.14019 2.63573,6.09965 5.53657,7.27172 3.13275,1.26579 4.9007,1.14978 9.73914,-0.63537 3.36096,-1.24005 7.79484,-1.58802 19.12427,-1.49822 14.07144,0.11153 14.75208,0.0267 14.75208,-1.86168 0,-3.86466 -3.99445,-5.21484 -13.22963,-4.46507 l -8.39841,0.68114 0.42268,-3.62778 c 0.32553,-2.7884 0.9668,-3.76643 2.75819,-4.21604 1.28301,-0.32202 2.80078,-0.29971 3.37067,0.0525 1.22585,0.75762 5.07621,-1.10748 5.07621,-2.45935 0,-1.76316 -5.43552,-3.88513 -7.29057,-2.84704 -2.32892,1.30335 -3.39266,0.45805 -3.9145,-3.09741 -0.42085,-2.86742 -0.27119,-2.99966 4.13123,-3.57259 6.08926,-0.7924 9.07551,-2.10131 9.07551,-3.97642 0,-1.83595 -1.64389,-2.86282 -4.29546,-2.95607 v 10e-4 c -0.19885,-0.007 -0.40389,-0.009 -0.61382,-0.005 z" /><path
         id="path3008"
         style="display:inline;fill:#b0b0b0"
         d="m 691.43376,692.55498 c -1.56947,-0.0155 -3.3782,0.22291 -5.15023,0.76055 -5.61145,1.70265 -20.52241,1.95105 -23.43857,0.39037 -1.69325,-0.9064 -1.96664,-0.80203 -1.68264,0.64345 0.5745,2.92411 5.33429,5.7156 9.75664,5.7156 3.9634,0 4.07873,0.0915 4.07873,3.35991 v 3.36529 l -6.74807,0.0336 -6.74943,0.0283 2.80531,2.47147 c 2.78963,2.45418 4.14521,2.85352 8.44687,2.50512 2.0318,-0.16458 2.24532,0.26147 2.24532,4.38968 v 4.57275 l -4.24834,0.15615 c -4.5962,0.17037 -4.86349,0.15413 -12.11638,-0.81305 -4.78356,-0.63789 -4.84502,-0.61397 -3.68432,1.55476 0.64953,1.21368 2.61305,3.08157 4.36545,4.15008 3.90155,2.3789 5.36405,2.42035 10.31259,0.27326 3.13022,-1.35813 6.7963,-1.65337 19.12427,-1.52784 14.50484,0.14769 15.25014,0.064 15.25014,-1.79034 0,-3.52397 -4.83576,-5.02892 -13.91076,-4.3291 l -8.09823,0.62056 0.66229,-3.3976 c 0.80543,-4.1351 1.78036,-4.86401 6.53808,-4.88371 4.48187,-0.0186 5.40548,-1.16122 2.82415,-3.4972 -1.42954,-1.29372 -2.83245,-1.58392 -5.36292,-1.1092 -3.32204,0.62323 -3.4436,0.53539 -3.83912,-2.85242 -0.45906,-3.93217 0.35417,-4.55391 5.9404,-4.55391 3.37061,0 7.24749,-2.23435 7.24749,-4.17834 0,-1.28933 -1.95294,-2.03231 -4.56872,-2.05821 z" /><path
         id="path3006"
         style="display:inline;fill:#909090"
         d="m 692.60758,692.92516 c -0.66305,0.0153 -1.48361,0.0926 -2.50782,0.22211 -16.17547,2.04498 -20.61305,2.3162 -24.31354,1.48476 -5.20267,-1.16898 -6.00164,-0.28561 -2.48089,2.74473 2.05654,1.7701 3.99399,2.41628 7.25153,2.41628 4.38107,0 4.44083,0.0463 4.44083,3.37336 0,2.92292 -0.38652,3.45203 -2.89415,3.95355 -1.59247,0.31849 -4.62942,0.34243 -6.74942,0.0512 l -3.85393,-0.53037 2.80531,2.57512 c 2.02397,1.858 3.90425,2.57512 6.74942,2.57512 h 3.94277 v 4.36141 4.36141 l -5.04255,0.59768 c -2.77464,0.32861 -6.18037,0.16487 -7.56651,-0.3621 -1.38614,-0.52697 -3.85592,-0.95844 -5.48946,-0.95844 -2.68597,0 -2.86499,0.19707 -1.8711,2.05417 0.60445,1.12943 2.53363,2.92542 4.28603,3.99393 3.88117,2.36648 4.31428,2.38098 9.80914,0.2773 3.43768,-1.31609 7.53652,-1.65099 19.10946,-1.56419 8.10197,0.0608 14.96425,-0.26887 15.25149,-0.73363 0.90155,-1.45877 -0.49942,-3.71546 -3.02203,-4.86486 -1.53312,-0.69853 -5.3972,-0.8727 -10.4997,-0.47922 l -8.07939,0.62056 0.64479,-2.89953 c 1.17007,-5.29939 1.28297,-5.40466 5.88387,-5.40466 5.22438,0 6.30266,-1.04237 3.6049,-3.48374 -1.42954,-1.29372 -2.83244,-1.58392 -5.36292,-1.1092 -3.33071,0.62486 -3.44125,0.54123 -3.84451,-2.913 -0.22828,-1.95515 -0.20157,-3.76535 0.0565,-4.02354 0.25819,-0.25819 2.31719,-0.46979 4.57814,-0.46979 4.82805,0 8.75402,-2.31578 7.86266,-4.63872 -0.30105,-0.78447 -0.83726,-1.1631 -2.08648,-1.22227 -0.18738,-0.009 -0.39147,-0.0113 -0.61248,-0.005 z" /><path
         id="path3004"
         style="display:inline;fill:#6f6f6f"
         d="m 691.71106,692.98708 c -0.49744,0.003 -1.04612,0.0498 -1.65437,0.13596 -16.36177,2.31927 -20.38008,2.60478 -24.2745,1.72975 -5.35253,-1.20257 -6.019,-0.52479 -2.47686,2.52397 2.05654,1.7701 3.99399,2.41628 7.25153,2.41628 4.39577,0 4.44083,0.0346 4.44083,3.4299 0,4.13897 -1.97491,5.06533 -8.84398,4.13661 l -4.65352,-0.62998 2.80531,2.53339 c 1.97424,1.78031 3.94441,2.52801 6.64577,2.52801 3.78034,0 3.84446,0.0648 4.28199,4.24968 0.24437,2.3375 0.37353,4.35326 0.28673,4.48257 -0.42582,0.63464 -12.54075,0.47776 -16.2705,-0.21134 -6.00541,-1.10955 -5.2212,2.61724 1.24919,5.93233 3.73706,1.91466 3.76703,1.91125 8.28131,-0.15615 2.97468,-1.36231 6.81693,-1.70936 19.21849,-1.74726 12.55428,-0.0383 15.50052,-0.31557 15.50052,-1.44303 0,-0.76564 -1.16563,-2.26017 -2.58993,-3.32356 -2.36922,-1.76888 -3.25523,-1.83987 -10.40547,-0.84536 -4.29853,0.59787 -8.02049,0.88137 -8.27188,0.62998 -0.25138,-0.25138 -0.0547,-2.1707 0.43749,-4.26315 0.86502,-3.67753 1.05069,-3.81372 5.6106,-4.10834 3.09196,-0.19978 4.71949,-0.76314 4.71949,-1.63015 0,-2.4496 -2.69691,-3.71201 -6.42501,-3.01261 -3.058,0.57369 -3.57436,0.39775 -3.58606,-1.194 -0.008,-1.02371 -0.28894,-2.87085 -0.62055,-4.10835 -0.56518,-2.10895 -0.2959,-2.2507 4.29141,-2.2507 5.96569,0 10.11423,-2.36569 8.1965,-4.67641 -0.63733,-0.7679 -1.65221,-1.13741 -3.14453,-1.12804 z" /><path
         id="path3002"
         style="display:inline;fill:#4f4f4f"
         d="m 691.09993,693.43803 c -2.50868,-0.0349 -6.53824,0.42246 -12.82983,1.36765 -6.05654,0.90991 -9.35024,0.95588 -12.46907,0.16423 -2.33083,-0.59164 -4.37683,-0.93898 -4.54583,-0.76998 -0.169,0.169 0.52202,1.33036 1.53323,2.57916 1.34599,1.66223 3.22842,2.40412 7.02537,2.76896 l 5.18389,0.49806 v 4.00873 4.01008 l -6.73865,-0.54114 -6.73596,-0.54114 2.79184,2.40282 c 1.92984,1.65999 4.01655,2.40551 6.74,2.40551 3.69126,0 3.94277,0.18736 3.94277,2.91837 0,1.60498 0.2511,3.56647 0.5546,4.35738 0.79947,2.08338 -9.13065,3.09839 -14.98765,1.53188 -2.47524,-0.66208 -4.77368,-0.93653 -5.10447,-0.60575 -1.04954,1.0495 1.8954,4.71991 5.02505,6.26482 3.71266,1.83269 2.48756,1.9019 9.79434,-0.58287 5.58974,-1.90085 7.55325,-2.04461 19.38272,-1.44707 14.18333,0.71644 16.31266,0.092 12.54445,-3.67624 -2.27317,-2.27322 -4.76295,-2.50242 -14.09518,-1.29631 l -6.38732,0.82651 0.72825,-3.88623 c 0.99936,-5.32705 1.08254,-5.40466 6.10463,-5.40466 3.23342,0 4.44219,-0.40073 4.44219,-1.46726 0,-2.13826 -3.39223,-3.60382 -6.77231,-2.9278 -2.67993,0.53596 -2.99432,0.30692 -3.58201,-2.63166 -0.97816,-4.89071 -0.92565,-4.97255 3.2899,-4.97255 5.51646,0 9.2893,-1.60056 8.86417,-3.75566 -0.20428,-1.03559 -1.19047,-1.56294 -3.69912,-1.59784 z" /><path
         id="path3000"
         style="display:inline;fill:#2f2f2f"
         d="m 692.95487,692.97093 c -0.17251,-0.008 -0.3667,-0.007 -0.58556,0.001 -1.75087,0.0682 -5.09645,0.65272 -11.8162,1.82399 -6.78156,1.1821 -14.27736,0.97165 -17.8118,-0.49806 -1.36441,-0.56738 -1.62342,-0.36019 -1.13343,0.9167 0.89146,2.3231 5.67775,4.57814 9.7203,4.57814 3.04994,0 3.49214,0.34759 4.05989,3.18625 0.35062,1.75312 0.21575,3.60991 -0.30019,4.12585 -0.51595,0.51589 -3.67101,0.73973 -7.01191,0.49806 -3.3409,-0.24166 -6.07771,-0.29241 -6.07771,-0.11173 0,1.22748 7.13289,4.2935 10.00163,4.2995 3.46484,0.007 3.50218,0.0507 3.52548,4.40449 l 0.0229,4.3991 -4.92543,0.65287 c -2.89595,0.38417 -6.90928,0.14181 -9.75261,-0.58691 -2.65823,-0.68128 -5.13925,-0.93308 -5.51234,-0.55998 -0.99686,0.9969 2.69392,4.77379 6.07232,6.21367 2.48831,1.0605 3.76263,0.95296 8.49669,-0.71479 4.74092,-1.67023 7.66223,-1.91468 19.57521,-1.63553 11.92351,0.27939 13.99691,0.10237 13.99691,-1.17516 0,-2.67392 -5.9445,-4.83788 -10.73931,-3.91047 -2.34386,0.45336 -5.88593,0.8456 -7.87209,0.8696 l -3.61028,0.0431 1.02978,-4.49872 c 1.02299,-4.47047 1.05654,-4.50141 5.301,-4.50141 2.34988,0 4.59587,-0.51884 4.98736,-1.15227 1.1707,-1.8942 -2.65451,-3.92741 -6.15309,-3.27106 -2.9973,0.5623 -3.20519,0.39434 -4.1595,-3.36529 l -1.00555,-3.95758 5.9781,-0.54518 c 6.50352,-0.58968 8.35828,-1.65886 7.3646,-4.24834 -0.30095,-0.78433 -0.45756,-1.22739 -1.66515,-1.28015 z" /><path
         id="path2998"
         style="display:inline;fill:#020202"
         d="m 692.20509,693.07188 c -0.27716,-0.0114 -0.57577,-0.01 -0.89786,0.004 -1.54602,0.0679 -3.61843,0.42595 -6.29309,1.07151 -7.75493,1.87177 -17.55833,2.14122 -21.69938,0.59229 l -2.81608,-1.0567 2.76896,2.79588 c 2.25696,2.28164 3.64182,2.80065 7.53825,2.80665 l 4.77467,0.004 0.18846,4.20661 0.18307,4.20661 -6.72519,0.29211 -6.7252,0.29615 3.31818,1.81321 c 1.82644,0.99676 4.30436,1.73602 5.50292,1.64092 4.35997,-0.34609 4.6764,-0.0427 4.6764,4.47449 v 4.42737 l -5.53657,0.69056 c -3.49895,0.43717 -7.19087,0.23084 -10.02991,-0.56402 -2.47073,-0.6917 -4.75807,-0.98851 -5.08428,-0.66229 -0.32619,0.32621 0.77795,1.96256 2.45263,3.6372 3.50723,3.50726 6.08465,3.77473 13.3575,1.39592 4.05614,-1.32669 7.5085,-1.53689 17.76065,-1.08093 14.34167,0.63784 16.46634,0.11108 13.11251,-3.24279 -2.07889,-2.07885 -2.74913,-2.16318 -11.72601,-1.49015 -9.0164,0.67599 -9.49297,0.6172 -8.96244,-1.16035 0.30811,-1.03234 0.85615,-3.11679 1.21689,-4.62929 0.59053,-2.47592 1.08659,-2.75012 4.98736,-2.75012 2.38292,0 4.6329,-0.48087 4.99543,-1.06747 1.10854,-1.79361 -2.73233,-3.77474 -6.21771,-3.20914 -2.90991,0.47222 -3.28793,0.24121 -3.85931,-2.35031 -0.34836,-1.58001 -0.80721,-3.43431 -1.01901,-4.12181 -0.25267,-0.82015 0.72183,-1.25058 2.83358,-1.25458 5.01631,-0.009 10.72046,-1.9092 10.72046,-3.57259 0,-1.35691 -0.85581,-2.06351 -2.79588,-2.14302 z" /></g></g></svg>
