<?xml version="1.0" encoding="UTF-8" standalone="no"?>
<!-- Created with Inkscape (http://www.inkscape.org/) -->

<svg
   viewBox="0 0 39.200001 39.200001"
   version="1.1"
   id="svg1"
   inkscape:version="1.3.2 (091e20e, 2023-11-25, custom)"
   sodipodi:docname="Knight.svg"
   xml:space="preserve"
   xmlns:inkscape="http://www.inkscape.org/namespaces/inkscape"
   xmlns:sodipodi="http://sodipodi.sourceforge.net/DTD/sodipodi-0.dtd"
   xmlns="http://www.w3.org/2000/svg"
   xmlns:svg="http://www.w3.org/2000/svg"><sodipodi:namedview
     id="namedview1"
     pagecolor="#ffffff"
     bordercolor="#111111"
     borderopacity="1"
     inkscape:showpageshadow="0"
     inkscape:pageopacity="0"
     inkscape:pagecheckerboard="1"
     inkscape:deskcolor="#d1d1d1"
     inkscape:document-units="px"
     showguides="true"
     inkscape:zoom="3.7055165"
     inkscape:cx="74.078743"
     inkscape:cy="74.078743"
     inkscape:window-width="1292"
     inkscape:window-height="745"
     inkscape:window-x="-8"
     inkscape:window-y="-8"
     inkscape:window-maximized="1"
     inkscape:current-layer="layer1"><inkscape:page
       x="0"
       y="0"
       width="39.200001"
       height="39.200001"
       id="page42"
       margin="0"
       bleed="0" /></sodipodi:namedview><defs
     id="defs1"><inkscape:path-effect
       effect="powerstroke"
       id="path-effect13"
       is_visible="true"
       lpeversion="1.3"
       scale_width="1"
       interpolator_type="CubicBezierJohan"
       interpolator_beta="0.2"
       start_linecap_type="zerowidth"
       end_linecap_type="zerowidth"
       offset_points="5,4.9921382"
       linejoin_type="extrp_arc"
       miter_limit="4"
       not_jump="false"
       sort_points="true"
       message="&lt;b&gt;Ctrl + click&lt;/b&gt; on existing node and move it" /></defs><g
     inkscape:label="Layer 1"
     inkscape:groupmode="layer"
     id="layer1"
     transform="matrix(0.88850159,0,0,0.88850159,-73.692665,-145.76827)"><path
       style="fill:#fff29e;fill-opacity:1;fill-rule:evenodd;stroke:none;stroke-width:0.389596;stroke-linecap:round;stroke-linejoin:round;paint-order:stroke fill markers"
       d="m 105,168 c 3.3355,1.08396 4.27845,1.36904 9.67854,3.14475 L 119.35,200.63922 H 90.649999 l 4.671466,-29.49447 z"
       id="path13"
       sodipodi:nodetypes="cccccc" /><path
       style="display:inline;fill:#938e5e;fill-opacity:1;fill-rule:evenodd;stroke:none;stroke-width:0.409505;stroke-linecap:round;stroke-linejoin:round;stroke-dasharray:none;stroke-opacity:1;paint-order:stroke fill markers"
       d="m 90.65,200.63922 -4e-6,3.60157 H 119.35 v -3.60157 z"
       id="path45" /><g
       id="g3792"
       transform="matrix(0.39750165,0,0,0.39750165,-186.64519,-78.801316)"><path
         id="path3010"
         style="display:inline;fill:#d0d0d0"
         d="m 721.52157,642.0395 c -2.64518,0 -2.96813,1.20274 -0.80228,3.00019 1.96448,1.63038 1.9215,4.6267 -0.0794,5.3945 -0.86998,0.33384 -2.90935,0.60589 -4.53372,0.60589 -2.69711,0 -2.8556,0.18276 -1.82184,2.11434 0.92108,1.72106 1.76461,2.01632 4.53371,1.56695 1.87176,-0.30374 3.40134,-0.37839 3.40134,-0.16296 0,0.39195 -0.72407,1.20432 -8.84598,9.87807 -6.79672,7.25855 -3.6934,10.57759 4.11169,4.39582 l 4.05736,-3.21329 -0.69781,6.8152 c -0.48368,4.72098 -0.33465,7.24774 0.48888,8.24008 2.41013,2.90399 3.38804,0.70439 3.65205,-8.21501 0.17598,-5.94542 0.81761,-9.97167 1.92631,-12.07599 1.57611,-2.99154 1.78195,-3.07582 3.94454,-1.65888 1.50147,0.9838 3.32291,1.26671 5.32346,0.82736 2.37376,-0.52137 3.04198,-0.32811 3.04198,0.89002 0,1.76403 -4.02623,3.08836 -7.01577,2.30656 -1.09063,-0.2852 -2.21403,-0.14317 -2.49877,0.31757 -0.81753,1.32278 3.6757,3.97379 6.73581,3.97379 1.52762,0 2.77873,0.40384 2.77873,0.89421 0,1.24704 -4.78001,2.31164 -7.08681,1.57949 -1.05323,-0.33428 -1.91377,-0.13838 -1.91377,0.43456 0,1.58572 5.65055,4.16326 7.53809,3.43894 1.24992,-0.47965 1.57417,-0.16573 1.29535,1.25774 -0.30796,1.57231 -1.26457,1.89706 -5.60343,1.89706 -5.82389,0 -6.42166,0.67507 -2.73276,3.09212 1.91218,1.25291 3.61262,1.46418 7.24976,0.91092 2.6135,-0.39755 7.98149,-0.66425 11.92974,-0.59335 7.80649,0.14024 9.43621,-0.79707 6.49345,-3.73979 -1.54728,-1.54728 -2.8853,-1.80698 -7.1662,-1.39564 -4.19969,0.40354 -5.17079,0.22293 -4.80532,-0.88585 0.25194,-0.76434 2.12411,-1.6137 4.16183,-1.8887 2.03772,-0.275 3.69114,-0.83688 3.67294,-1.24938 -0.0182,-0.4125 -0.0334,-1.2475 -0.0334,-1.85527 0,-0.68607 -1.51526,-0.95974 -3.99887,-0.72289 -3.30864,0.31553 -4.00304,0.0738 -4.00304,-1.39563 0,-1.36655 0.81848,-1.77588 3.53505,-1.77588 2.31542,0 3.74231,-0.55068 4.14511,-1.60038 0.82812,-2.15805 -1.56109,-3.52748 -4.9265,-2.82052 -4.37569,0.91918 -3.44558,-2.05691 0.98614,-3.1548 2.40098,-0.5948 3.86643,-1.59433 4.09497,-2.79126 0.30948,-1.62116 -0.1741,-1.81049 -3.73562,-1.47085 -4.0025,0.3817 -4.09915,0.3179 -4.09915,-2.73276 0,-4.30365 -3.17913,-6.96373 -7.82223,-6.54778 -0.93538,0.0838 -0.71367,0.89018 0.75214,2.75366 2.72455,3.46372 2.75042,8.01405 0.0501,8.87104 -1.11236,0.35307 -3.39399,0.34282 -5.06857,-0.0251 -2.2016,-0.48356 -3.579,-0.18678 -4.97664,1.07807 -1.86434,1.68716 -1.93466,1.65414 -1.93466,-0.90675 0,-2.2974 0.41606,-2.65337 3.0754,-2.65337 2.38738,0 3.00022,-0.3914 2.74113,-1.75081 -0.18345,-0.9625 -1.34213,-1.89263 -2.57398,-2.06838 -1.55474,-0.22182 -2.2397,-1.00065 -2.2397,-2.54891 0,-2.86552 -1.79226,-4.634 -4.70086,-4.634 z m -0.76467,18.39812 c 0.10158,-0.0242 0.19463,-0.002 0.2716,0.0752 0.30789,0.30789 -0.002,1.11843 -0.68528,1.79677 -0.98762,0.98026 -1.09839,0.86528 -0.55575,-0.55992 0.28165,-0.73967 0.66467,-1.23963 0.96943,-1.31206 z" /><path
         id="path3006"
         style="display:inline;fill:#8f8f8f"
         d="m 722.07732,642.0395 c -1.59589,0 -1.89725,0.40281 -1.31207,1.75081 0.41782,0.9625 0.8031,2.87458 0.8566,4.24958 0.0852,2.188 -0.36999,2.54052 -3.65204,2.81215 -2.0625,0.17071 -3.74815,0.64203 -3.74815,1.04882 0,1.78666 2.50917,2.98809 5.14378,2.46116 1.5698,-0.31396 2.85395,-0.23632 2.85395,0.17132 0,0.40764 -2.7467,3.83802 -6.10485,7.62583 -3.81565,4.30385 -5.89135,7.45093 -5.53239,8.38634 0.87788,2.28769 2.26237,1.82943 6.75252,-2.22717 l 4.12004,-3.7189 -0.25907,6.96981 c -0.14257,3.83414 -0.1957,7.56658 -0.117,8.2944 0.0787,0.72783 0.93038,1.17388 1.89288,0.99032 1.47654,-0.28164 1.82619,-1.81715 2.24806,-9.82375 0.60237,-11.43234 2.40361,-15.22165 6.02963,-12.68187 1.44487,1.01199 3.37312,1.34006 5.68282,0.96524 3.04022,-0.49335 3.44747,-0.32216 3.1339,1.32877 -0.28693,1.51071 -1.48184,2.00038 -5.85413,2.39849 l -5.49061,0.50142 3.30105,1.80095 c 1.94355,1.06104 4.13756,1.53498 5.34018,1.15328 1.61227,-0.51172 1.96886,-0.2588 1.69231,1.19924 -0.25387,1.33848 -1.3997,1.93237 -4.16183,2.16031 -3.18179,0.26258 -3.6147,0.5522 -2.61995,1.7508 0.65526,0.78954 2.48725,1.43324 4.0699,1.43324 2.21089,0 2.87902,0.46489 2.87902,2.00153 0,1.74465 -0.66763,2.00152 -5.22318,2.00152 h -5.22317 l 2.17284,2.16866 c 2.04717,2.04719 2.48881,2.10017 7.74701,0.92346 3.51203,-0.78595 7.97147,-0.99262 12.05091,-0.55575 5.38796,0.577 6.47674,0.4449 6.47674,-0.7981 0,-2.92625 -2.6434,-3.9303 -8.44901,-3.20494 -5.20567,0.65041 -5.55328,0.56227 -5.55328,-1.42071 0,-1.83607 0.58684,-2.11434 4.44179,-2.11434 4.81908,0 6.3536,-1.09565 4.12422,-2.94587 -0.89082,-0.73932 -2.77344,-0.9192 -5.08946,-0.48471 -3.23313,0.60654 -3.62957,0.46655 -3.31359,-1.17417 0.2461,-1.27791 1.53715,-2.05592 4.10751,-2.47369 4.33571,-0.70476 5.21477,-1.32809 4.19943,-2.97095 -0.45577,-0.73749 -2.18342,-0.98441 -4.60057,-0.66021 -3.30907,0.44384 -3.86933,0.24593 -3.86933,-1.36638 0,-1.79047 1.12654,-2.33726 6.50181,-3.15062 1.1,-0.16645 1.99734,-0.97097 1.99734,-1.78841 0,-1.11755 -1.07825,-1.43648 -4.34568,-1.28699 -4.19425,0.19186 -4.32106,0.10905 -3.70219,-2.3567 0.96018,-3.82565 -1.74692,-7.3417 -5.64938,-7.3417 h -3.15062 l 2.24805,2.39013 c 1.61231,1.71622 2.15295,3.33791 1.92213,5.74967 -0.31862,3.32911 -0.3688,3.36079 -5.47807,3.40969 -2.8356,0.0271 -5.87147,0.64282 -6.74834,1.37056 -1.38835,1.15222 -1.5962,0.99316 -1.5962,-1.23267 0,-2.04502 0.55345,-2.6175 2.75366,-2.87066 3.37034,-0.3878 3.82585,-3.35583 0.49724,-3.23837 -1.56977,0.0554 -2.24805,-0.49129 -2.24805,-1.81348 0,-3.08807 -1.92584,-5.76639 -4.14511,-5.76639 z m -1.23267,18.36469 c 0.0556,0.008 0.10434,0.0333 0.14624,0.0752 0.3352,0.3352 -0.20105,1.3864 -1.19506,2.33581 -1.72775,1.65019 -1.75515,1.62279 -0.61007,-0.61007 0.57647,-1.12403 1.26965,-1.85927 1.65889,-1.80095 z" /><path
         id="path3008"
         style="display:inline;fill:#afafaf"
         d="m 721.56753,642.0395 c -2.19001,0 -2.20613,0.0812 -0.62678,2.83305 2.2843,3.98017 1.15229,6.16753 -3.18822,6.16753 -1.94227,0 -3.53087,0.39484 -3.53087,0.87749 0,1.82616 2.88102,3.19021 5.40285,2.55727 1.42761,-0.35831 2.58708,-0.26319 2.57398,0.20893 -0.0131,0.4721 -2.90384,3.95008 -6.42241,7.7303 -5.94031,6.38194 -7.31866,9.62735 -4.08662,9.62735 0.69053,0 2.95472,-1.35019 5.03097,-3.00019 2.07622,-1.65 4.00306,-3.00019 4.27882,-3.00019 0.27577,0 0.24695,2.79506 -0.0627,6.20931 -0.30959,3.41425 -0.11617,7.04332 0.43039,8.06458 0.79058,1.47722 1.2857,1.61291 2.42356,0.66857 1.03875,-0.86208 1.42906,-3.55463 1.42906,-9.84046 0,-8.12276 0.38951,-9.62515 3.58519,-13.93126 0.13466,-0.18145 1.35995,0.4013 2.7244,1.29535 1.63995,1.07454 3.39754,1.39729 5.18557,0.94853 2.2863,-0.57383 2.65067,-0.38842 2.34834,1.20342 -0.27653,1.45603 -1.48573,1.9952 -5.32346,2.38177 l -4.9641,0.50142 2.83305,1.84274 c 1.58816,1.03459 3.88359,1.64752 5.22317,1.39145 1.49212,-0.28524 2.39013,0.0148 2.39013,0.7981 0,1.50267 -2.23108,2.46534 -5.70371,2.46534 -2.14498,0 -2.34636,0.23371 -1.29535,1.5001 0.68469,0.825 2.53739,1.50009 4.12004,1.50009 2.21089,0 2.87902,0.46489 2.87902,2.00153 0,1.76551 -0.67378,2.00281 -5.74967,2.02241 l -5.74968,0.0209 2.49877,2.01406 c 2.10874,1.69823 3.28304,1.89548 7.50048,1.2661 2.75,-0.41043 8.25983,-0.62378 12.2473,-0.47636 6.77253,0.25038 7.25395,0.13019 7.25395,-1.82184 0,-2.85027 -3.36385,-3.89217 -8.64958,-2.68262 -4.6909,1.07341 -5.93596,0.62275 -5.00589,-1.80096 0.3962,-1.03245 1.90512,-1.54188 4.56297,-1.54188 4.43586,0 5.81484,-1.15321 3.58936,-3.00019 -0.94566,-0.78483 -2.77193,-0.9832 -5.07275,-0.55157 -3.11126,0.58369 -3.55016,0.43408 -3.2509,-1.11985 0.23141,-1.20159 1.58594,-1.99903 4.09497,-2.40683 2.06265,-0.33528 4.05531,-0.91306 4.42507,-1.28282 1.34555,-1.34555 -1.7893,-3.04172 -5.1981,-2.81215 -5.26686,0.35471 -4.66703,-2.4759 0.75214,-3.54759 5.86626,-1.16008 5.89437,-3.85157 0.0376,-3.59354 -4.16394,0.18344 -4.20437,0.15011 -3.61861,-2.77873 0.77051,-3.85252 -1.88111,-6.90713 -5.99621,-6.90713 h -3.02108 l 2.24805,2.39013 c 1.61231,1.71622 2.15295,3.33791 1.92213,5.74967 -0.3188,3.33102 -0.36282,3.35955 -5.41539,3.35955 -2.84879,0 -5.82768,0.60747 -6.75252,1.37474 -1.46741,1.21737 -1.6547,1.0768 -1.6547,-1.24939 0,-2.26106 0.42562,-2.62412 3.0754,-2.62412 2.38738,0 3.00022,-0.3914 2.74113,-1.75081 -0.18345,-0.9625 -1.34212,-1.89263 -2.57398,-2.06838 -1.55474,-0.22182 -2.2397,-1.00065 -2.2397,-2.54891 0,-2.85099 -1.78969,-4.634 -4.6549,-4.634 z m -0.72288,18.36469 c 0.0556,0.008 0.10434,0.0333 0.14624,0.0752 0.3352,0.3352 -0.20105,1.3864 -1.19506,2.33581 -1.72775,1.65019 -1.75515,1.62279 -0.61007,-0.61007 0.57647,-1.12403 1.26965,-1.85927 1.65889,-1.80095 z" /><path
         id="path3004"
         style="display:inline;fill:#6e6e6e"
         d="m 722.18596,642.0395 c -2.07999,0 -2.64465,1.46501 -0.96525,2.50295 0.55,0.33992 0.99868,1.9384 0.99868,3.55594 0,2.76446 -0.23893,2.94169 -3.99887,2.94169 -3.94247,0 -5.16628,1.16108 -2.77873,2.63666 0.67176,0.41517 2.47063,0.65966 3.99887,0.54321 1.52822,-0.11644 2.77873,0.0942 2.77873,0.46799 0,0.37384 -2.74285,3.76882 -6.0965,7.54227 -3.75343,4.22331 -5.88089,7.428 -5.53238,8.33619 0.83802,2.18385 1.82864,1.85402 6.54777,-2.18538 l 4.27883,-3.6604 -0.20893,6.91131 c -0.1145,3.8011 -0.15712,7.5039 -0.0961,8.23172 0.061,0.72783 0.89695,1.17389 1.85945,0.99032 1.47654,-0.28164 1.82619,-1.81714 2.24806,-9.82375 0.3573,-6.78131 0.99995,-10.18903 2.24387,-11.94645 1.36131,-1.92324 2.00436,-2.19925 2.95005,-1.25356 0.6651,0.6651 3.17723,1.21177 5.58253,1.21177 3.62515,0 4.31642,0.3002 4.04065,1.75081 -0.25829,1.35866 -1.53377,1.8181 -5.69117,2.05584 -4.85311,0.27753 -5.17865,0.43772 -3.48908,1.71738 1.02533,0.77658 3.58417,1.4241 5.68699,1.4416 3.09223,0.0257 3.76199,0.36888 3.49326,1.78424 -0.23911,1.25935 -1.59434,1.89179 -4.82621,2.25641 -4.17265,0.47076 -4.33594,0.59564 -2.30656,1.75081 1.20134,0.68383 3.11342,1.24102 4.24958,1.24102 1.13616,0 2.06838,0.18785 2.06838,0.41786 0,0.23002 0.26222,1.10609 0.58499,1.9472 0.47812,1.24597 -0.49278,1.58793 -5.24824,1.83438 l -5.83743,0.30085 2.73277,1.85527 c 2.43462,1.65147 3.28474,1.72183 7.79716,0.63932 3.16792,-0.75998 7.48527,-0.95859 11.52023,-0.5265 5.29997,0.56758 6.45167,0.43235 6.45167,-0.76467 0,-2.83064 -2.55698,-3.77258 -8.38215,-3.08794 -5.23724,0.61554 -5.62014,0.51778 -5.62014,-1.4207 0,-1.73237 0.71019,-2.12987 4.24958,-2.38595 2.97443,-0.21521 4.24957,-0.75951 4.24957,-1.80931 0,-1.14782 -0.99738,-1.42545 -4.24957,-1.18253 -3.6457,0.27234 -4.24958,0.0435 -4.24958,-1.61709 0,-1.50889 0.90023,-2.05523 4.08243,-2.48205 4.65857,-0.62485 5.41473,-1.10405 4.38747,-2.7662 -0.45855,-0.74189 -2.19069,-0.98293 -4.65907,-0.65185 -3.58615,0.48099 -3.89987,0.33618 -3.61862,-1.63799 0.22388,-1.57149 1.12945,-2.25279 3.30941,-2.49876 1.65,-0.18616 3.5556,-0.79856 4.23704,-1.36221 2.16019,-1.78679 0.17525,-3.04358 -3.80665,-2.40684 l -3.81501,0.61007 -0.30921,-4.23286 c -0.26043,-3.58438 -0.72627,-4.3815 -3.0378,-5.18975 -3.42662,-1.19815 -4.59412,-0.15062 -2.46116,2.20627 0.8958,0.98986 1.75461,3.35558 1.90959,5.2566 l 0.27996,3.45566 -4.99753,0.0501 c -2.75,0.0281 -6.01227,0.60822 -7.24977,1.28699 -2.0662,1.13332 -2.25223,1.02856 -2.25223,-1.29953 0,-2.02116 0.49838,-2.53637 2.44444,-2.53637 1.34254,0 2.68626,-0.39817 2.98766,-0.88585 0.86769,-1.40395 -1.99811,-3.21935 -3.91947,-2.48205 -1.41906,0.54452 -1.61611,0.27994 -1.06971,-1.4416 0.88794,-2.79766 -1.01772,-6.1926 -3.47654,-6.1926 z m -0.58082,16.95652 c 0.36879,-0.0666 0.61425,0.20499 0.61425,0.89003 0,0.46476 -0.9349,1.69562 -2.08092,2.73276 -2.07845,1.88097 -2.08095,1.87561 -0.83988,-0.84824 0.73674,-1.617 1.6919,-2.66348 2.30655,-2.77455 z" /><path
         id="path3002"
         style="display:inline;fill:#4e4e4e"
         d="m 721.68871,642.18157 c -1.65559,0.0873 -2.07689,1.36652 -0.468,2.36088 0.55,0.33992 0.99868,1.9384 0.99868,3.55594 0,2.51294 -0.39972,2.96163 -2.74948,3.06287 -1.5125,0.0652 -3.3575,0.0316 -4.10333,-0.071 -0.74584,-0.10267 -1.1618,0.40738 -0.92346,1.13238 0.23835,0.725 2.08334,1.45894 4.10333,1.62964 2.01999,0.17071 3.67294,0.5832 3.67294,0.9151 0,0.3319 -2.74286,3.68941 -6.0965,7.46287 -3.84814,4.32985 -5.88144,7.41645 -5.51567,8.36962 0.50865,1.32547 0.9157,1.33667 3.34701,0.0794 1.52368,-0.78793 3.62934,-2.37874 4.67579,-3.53505 1.04644,-1.15631 2.16733,-2.10498 2.49459,-2.10598 0.32726,-10e-4 0.45098,3.60062 0.2716,8.0019 -0.26945,6.61129 -0.064,8.00191 1.18253,8.00191 2.20529,0 2.91568,-3.35 2.13523,-10.07446 -0.57223,-4.9303 -0.34387,-6.60106 1.36639,-9.88225 1.55754,-2.98822 1.70619,-3.81263 0.60171,-3.3888 -1.0515,0.4035 -1.46249,-0.17632 -1.46249,-2.07255 0,-2.12754 0.57892,-2.74659 3.0169,-3.23419 2.44007,-0.48801 2.79568,-0.86926 1.85945,-1.99735 -0.63647,-0.76686 -1.96662,-1.1408 -2.95422,-0.82735 -1.48123,0.47013 -1.84764,-0.0934 -2.10599,-3.22583 -0.25241,-3.06037 -0.75228,-3.85833 -2.56562,-4.11586 -0.28461,-0.0404 -0.54488,-0.0542 -0.78139,-0.0418 z m 16.2211,1.9472 c -1.65178,-0.13011 -1.95593,0.7852 -0.38861,2.35252 1.77883,1.77884 3.14196,7.03632 2.21463,8.53676 -0.34821,0.56342 -2.91048,1.02374 -5.69535,1.02374 -4.53638,0 -4.9258,0.16545 -3.73144,1.60456 0.98616,1.18822 2.46549,1.48202 5.67864,1.11985 3.98642,-0.44933 4.3157,-0.3157 4.03647,1.64217 -0.25512,1.78872 -1.08183,2.18215 -5.12707,2.44026 -4.07175,0.25981 -4.63713,0.53365 -3.62698,1.75081 0.67299,0.81091 2.92644,1.4416 5.14797,1.4416 3.22264,0 3.88964,0.32337 3.61861,1.75081 -0.23911,1.25935 -1.59433,1.89179 -4.82621,2.25641 -4.17265,0.47076 -4.33595,0.59564 -2.30656,1.75081 1.20134,0.68383 3.33985,1.24102 4.751,1.24102 1.89907,0 2.56563,0.5212 2.56563,2.00153 0,1.76425 -0.67744,2.00554 -5.74967,2.03494 l -5.74968,0.0293 2.43609,2.03077 c 1.82783,1.5214 3.07904,1.83084 5.00172,1.23685 1.40978,-0.43553 6.47216,-0.81093 11.24863,-0.83153 9.30743,-0.0402 10.83901,-0.56177 8.80836,-3.00855 -1.02793,-1.23858 -2.49104,-1.42077 -7.1453,-0.8942 -5.46419,0.6182 -5.84996,0.52256 -5.84996,-1.41235 0,-1.72235 0.71619,-2.12194 4.24958,-2.37759 2.97444,-0.21521 4.24957,-0.75951 4.24957,-1.80931 0,-1.14782 -0.99737,-1.42546 -4.24957,-1.18253 -3.65826,0.27328 -4.24958,0.0481 -4.24958,-1.6338 0,-1.55294 0.93469,-2.09738 4.55879,-2.64084 5.82424,-0.8734 5.44864,-3.1211 -0.47636,-2.84559 -3.80533,0.17695 -4.17712,-0.0146 -3.8944,-2.00152 0.22866,-1.60696 1.11781,-2.28444 3.31359,-2.53219 1.65,-0.18616 3.58201,-0.82207 4.29554,-1.41235 1.97217,-1.63152 -0.58204,-2.84888 -4.48358,-2.13524 -3.14903,0.576 -3.19302,0.53045 -3.50161,-3.74815 -0.26603,-3.68859 -0.7165,-4.47272 -3.04198,-5.28585 -0.83062,-0.29043 -1.53032,-0.4497 -2.08091,-0.49307 z m -16.31303,14.8965 c 0.38729,-0.10192 0.62261,0.15601 0.62261,0.83989 0,0.45412 -1.19241,1.91752 -2.65338,3.2509 l -2.65755,2.42355 1.87199,-3.24672 c 1.10487,-1.91828 2.17085,-3.09776 2.81633,-3.26762 z" /><path
         id="path3000"
         style="display:inline;fill:#2f2f2f"
         d="m 721.50068,642.00607 c -1.11752,-0.15242 -1.03017,1.23033 0.3301,3.95708 1.95662,3.92213 1.07109,5.12895 -3.96543,5.39032 -4.71272,0.24457 -4.09318,2.18955 0.69781,2.18955 2.13015,0 3.66079,0.48724 3.6604,1.17 -3.6e-4,0.64473 -2.69307,4.02022 -5.97949,7.50048 -3.28642,3.48026 -5.9826,6.89237 -5.9962,7.57987 -0.0433,2.19417 3.43786,1.34146 7.01159,-1.7132 1.90423,-1.62765 3.7458,-2.9779 4.09497,-3.0002 0.34916,-0.0223 0.40529,2.85782 0.12118,6.39735 -0.28409,3.53954 -0.24662,7.13727 0.0836,7.99773 0.71702,1.8685 2.6077,2.08467 2.79126,0.31757 0.0714,-0.6875 0.0283,-4.90855 -0.0961,-9.38083 -0.14001,-5.03248 0.18975,-8.39106 0.86496,-8.80836 0.60004,-0.37085 1.57825,-1.58416 2.17284,-2.69516 0.9863,-1.84292 0.8952,-1.91926 -1.02792,-0.89003 -1.96159,1.04981 -2.06134,0.9323 -1.43742,-1.67559 0.9618,-4.02011 1.22787,-4.29972 4.07408,-4.29972 2.08102,0 2.34505,-0.2659 1.40399,-1.39981 -0.63757,-0.76822 -2.00942,-1.17059 -3.05033,-0.89839 -1.52963,0.40001 -1.95545,-0.12907 -2.21463,-2.75366 -0.17637,-1.78602 -1.08629,-3.72624 -2.02241,-4.31225 -0.63756,-0.39912 -1.14431,-0.62194 -1.51681,-0.67275 z m 16.3172,2.06838 c -1.83421,-0.0306 -1.83939,0.0398 -0.117,1.94302 0.98506,1.08848 1.84151,3.67185 1.90541,5.74967 l 0.11282,3.77323 -5.49896,0.50142 c -5.22981,0.47544 -5.3829,0.5676 -3.11301,1.85945 1.40402,0.79907 3.7718,1.1316 5.74967,0.81064 3.04652,-0.49438 3.36373,-0.315 3.36373,1.89288 0,2.26566 -0.36087,2.43609 -5.12289,2.43609 -4.43991,0 -4.9567,0.19996 -3.87769,1.50009 0.7149,0.8614 2.89613,1.5001 5.12289,1.5001 3.21089,0 3.87769,0.34538 3.87769,2.00152 0,1.71578 -0.66805,1.99734 -4.6925,1.99734 -4.33948,0 -4.5451,0.11271 -2.74948,1.47085 1.06762,0.8075 3.18,1.48259 4.6925,1.50009 2.07273,0.024 2.74948,0.52334 2.74948,2.03078 0,2.02138 -1.97579,2.47905 -9.00058,2.08091 l -2.49877,-0.14207 2.44445,2.09763 c 1.63368,1.40269 3.12009,1.87621 4.49611,1.42906 1.13157,-0.36772 6.44606,-0.89983 11.80856,-1.18253 5.36249,-0.2827 9.75271,-0.82321 9.75271,-1.19924 0,-2.17336 -2.72763,-2.97558 -8.16905,-2.40684 -5.48512,0.57331 -5.83324,0.48121 -5.83324,-1.53353 0,-1.74732 0.60031,-2.1478 3.2509,-2.1603 3.86055,-0.0182 6.27775,-1.32402 5.31929,-2.87484 -0.4314,-0.69803 -2.1612,-0.87946 -4.62983,-0.48471 -3.48909,0.55793 -3.94036,0.40225 -3.94036,-1.37892 0,-2.06801 2.4031,-3.20411 6.83191,-3.23001 1.43133,-0.008 2.16334,-0.49932 1.89288,-1.2661 -0.27256,-0.77275 -2.02299,-1.1784 -4.58386,-1.06135 -3.74878,0.17133 -4.14093,-0.0367 -4.14093,-2.18955 0,-2.02718 0.55685,-2.42232 3.75233,-2.6868 2.52873,-0.20928 3.74815,-0.79782 3.74815,-1.80931 0,-1.11882 -0.95114,-1.42635 -3.74815,-1.2076 -3.7076,0.28997 -3.75233,0.25263 -3.75233,-3.38879 0,-3.92295 -2.0273,-6.31588 -5.40285,-6.37228 z m -16.1626,15.01768 c 0.35916,0.0348 0.56411,0.46956 0.56411,1.33295 0,0.76174 -1.17364,2.1583 -2.61159,3.10048 l -2.61577,1.7132 1.8302,-3.10048 c 1.21039,-2.04902 2.23446,-3.1042 2.83305,-3.04615 z" /><path
         id="path2998"
         style="display:inline;fill:#030303"
         d="m 721.91853,642.28604 c -0.22649,0.0244 -0.44858,0.10062 -0.66439,0.23399 -0.70178,0.43373 -0.54992,1.3726 0.45546,2.80798 2.61537,3.73397 1.91986,5.46838 -2.49041,6.21349 -4.93514,0.83379 -5.37518,2.88021 -0.49724,2.31074 2.28656,-0.26695 3.49744,0.008 3.49744,0.79392 0,1.2587 -4.55345,6.92874 -9.24711,11.51188 -5.86751,5.72934 -1.73804,6.75272 4.99335,1.23685 l 4.45433,-3.65205 -0.71036,7.56734 c -0.38996,4.16134 -0.40545,8.05439 -0.0376,8.64958 1.7501,2.83174 2.54891,0.31544 2.54891,-8.01444 0,-7.68319 0.33417,-9.58695 2.1603,-12.25148 1.18901,-1.7349 1.55129,-2.58874 0.80228,-1.90124 -1.93863,1.77942 -2.96258,1.54822 -2.96258,-0.66857 0,-3.43565 1.16749,-5.0811 3.60608,-5.0811 1.31615,0 2.3943,-0.45285 2.3943,-1.00285 0,-0.55 -1.12377,-0.99867 -2.49877,-0.99867 -2.08746,0 -2.50294,-0.47629 -2.50294,-2.87902 0,-2.70176 -1.7156,-5.04706 -3.30105,-4.87635 z m 15.6361,1.70902 c -0.83194,0.0382 -0.74766,0.9778 0.59335,2.68262 1.16418,1.48002 2.07256,4.11016 2.07256,6.00039 v 3.36372 l -5.74967,0.0293 c -5.37729,0.0297 -5.61851,0.13274 -3.74815,1.57113 1.37658,1.05866 3.16856,1.35728 5.74967,0.95689 3.45344,-0.5357 3.74815,-0.39302 3.74815,1.81766 0,1.93349 -0.6528,2.52505 -3.36373,3.03362 -1.85117,0.34733 -4.21609,0.36022 -5.25242,0.0293 -1.79362,-0.57282 -1.78928,-0.52361 0.0585,0.98196 1.06762,0.8699 3.42837,1.57949 5.24824,1.57949 2.6422,0 3.30941,0.40448 3.30941,2.00152 0,1.67657 -0.66428,1.99734 -4.12004,1.99734 -3.55102,0 -3.95135,0.20802 -2.87902,1.5001 0.68469,0.825 2.5374,1.50009 4.12004,1.50009 2.18866,0 2.87902,0.46883 2.87902,1.95556 0,2.22901 -5.17783,3.69377 -9.16354,2.5907 -2.21749,-0.6137 -2.24253,-0.57191 -0.47218,0.84824 1.5239,1.22243 4.09126,1.39109 14.00229,0.9151 6.67385,-0.32052 12.35759,-0.78379 12.63173,-1.02792 0.27413,-0.24413 -0.32265,-1.04436 -1.32877,-1.78006 -1.2557,-0.91819 -3.52997,-1.1653 -7.24977,-0.78139 -5.04477,0.52067 -5.41957,0.4126 -5.41957,-1.57948 0,-1.65073 0.62811,-2.15625 2.74948,-2.21045 1.5125,-0.0386 3.62066,-0.41089 4.68414,-0.82735 2.81833,-1.10367 0.0342,-2.59357 -4.17018,-2.23134 -2.67615,0.23056 -3.26344,-0.0734 -3.26344,-1.68813 0,-2.13633 1.81803,-3.18405 5.52403,-3.18405 1.29756,0 2.6179,-0.41724 2.93334,-0.92764 0.82271,-1.33117 -2.83062,-2.26732 -5.87085,-1.50427 -2.28518,0.57355 -2.58652,0.3461 -2.58652,-1.95974 0,-2.17516 0.45625,-2.60714 2.74948,-2.61994 1.5125,-0.008 3.42458,-0.46128 4.24958,-1.00285 2.3542,-1.54545 -0.62966,-2.95183 -4.13258,-1.9472 -2.80298,0.80388 -2.86648,0.73785 -2.86648,-3.05034 0,-2.86913 -0.57674,-4.27485 -2.22298,-5.42792 -1.59498,-1.11717 -2.79606,-1.63427 -3.44312,-1.60456 z m -15.84921,14.39925 c 0.3657,0.0165 0.51772,0.55043 0.351,1.67142 -0.18376,1.23551 -1.40839,2.95638 -2.72023,3.82336 l -2.38594,1.57531 1.62963,-3.14644 c 1.31255,-2.53819 2.51605,-3.95114 3.12554,-3.92365 z" /></g></g></svg>
