<?xml version="1.0" encoding="UTF-8" standalone="no"?>
<!-- Created with Inkscape (http://www.inkscape.org/) -->

<svg
   viewBox="0 0 39.200001 39.200001"
   version="1.1"
   id="svg1"
   inkscape:version="1.3.2 (091e20e, 2023-11-25, custom)"
   sodipodi:docname="Queen.svg"
   xml:space="preserve"
   xmlns:inkscape="http://www.inkscape.org/namespaces/inkscape"
   xmlns:sodipodi="http://sodipodi.sourceforge.net/DTD/sodipodi-0.dtd"
   xmlns="http://www.w3.org/2000/svg"
   xmlns:svg="http://www.w3.org/2000/svg"><sodipodi:namedview
     id="namedview1"
     pagecolor="#ffffff"
     bordercolor="#111111"
     borderopacity="1"
     inkscape:showpageshadow="0"
     inkscape:pageopacity="0"
     inkscape:pagecheckerboard="1"
     inkscape:deskcolor="#d1d1d1"
     inkscape:document-units="mm"
     showguides="true"
     inkscape:zoom="14.005102"
     inkscape:cx="19.6"
     inkscape:cy="19.6"
     inkscape:window-width="1292"
     inkscape:window-height="745"
     inkscape:window-x="-8"
     inkscape:window-y="-8"
     inkscape:window-maximized="1"
     inkscape:current-layer="layer1"><inkscape:page
       x="0"
       y="0"
       width="39.200001"
       height="39.200001"
       id="page42"
       margin="0"
       bleed="0" /></sodipodi:namedview><defs
     id="defs1"><inkscape:path-effect
       effect="powerstroke"
       id="path-effect13"
       is_visible="true"
       lpeversion="1.3"
       scale_width="1"
       interpolator_type="CubicBezierJohan"
       interpolator_beta="0.2"
       start_linecap_type="zerowidth"
       end_linecap_type="zerowidth"
       offset_points="5,4.9921382"
       linejoin_type="extrp_arc"
       miter_limit="4"
       not_jump="false"
       sort_points="true"
       message="&lt;b&gt;Ctrl + click&lt;/b&gt; on existing node and move it" /><inkscape:path-effect
       effect="powerstroke"
       id="path-effect47"
       is_visible="true"
       lpeversion="1.3"
       scale_width="1"
       interpolator_type="CubicBezierJohan"
       interpolator_beta="0.2"
       start_linecap_type="zerowidth"
       end_linecap_type="zerowidth"
       offset_points="20,4.9921382"
       linejoin_type="extrp_arc"
       miter_limit="4"
       not_jump="false"
       sort_points="true"
       message="&lt;b&gt;Ctrl + click&lt;/b&gt; on existing node and move it" /><inkscape:path-effect
       effect="fill_between_many"
       method="bsplinespiro"
       autoreverse="false"
       close="false"
       join="false"
       linkedpaths="#path41,0,1"
       id="path-effect45" /><inkscape:path-effect
       effect="powerstroke"
       id="path-effect41"
       is_visible="true"
       lpeversion="1.3"
       scale_width="1"
       interpolator_type="CubicBezierJohan"
       interpolator_beta="0.2"
       start_linecap_type="zerowidth"
       end_linecap_type="zerowidth"
       offset_points="14,4.9921382"
       linejoin_type="extrp_arc"
       miter_limit="4"
       not_jump="false"
       sort_points="true"
       message="&lt;b&gt;Ctrl + click&lt;/b&gt; on existing node and move it" /><inkscape:path-effect
       effect="powerstroke"
       id="path-effect38"
       is_visible="true"
       lpeversion="1.3"
       scale_width="1"
       interpolator_type="CubicBezierJohan"
       interpolator_beta="0.2"
       start_linecap_type="zerowidth"
       end_linecap_type="zerowidth"
       offset_points="17,4.9921382"
       linejoin_type="extrp_arc"
       miter_limit="4"
       not_jump="false"
       sort_points="true"
       message="&lt;b&gt;Ctrl + click&lt;/b&gt; on existing node and move it" /><inkscape:path-effect
       effect="powerstroke"
       id="path-effect35"
       is_visible="true"
       lpeversion="1.3"
       scale_width="1"
       interpolator_type="CubicBezierJohan"
       interpolator_beta="0.2"
       start_linecap_type="zerowidth"
       end_linecap_type="zerowidth"
       offset_points="20,4.9921382"
       linejoin_type="extrp_arc"
       miter_limit="4"
       not_jump="false"
       sort_points="true"
       message="&lt;b&gt;Ctrl + click&lt;/b&gt; on existing node and move it" /><inkscape:path-effect
       effect="fill_between_many"
       method="bsplinespiro"
       autoreverse="false"
       close="false"
       join="false"
       linkedpaths="#path31,0,1"
       id="path-effect34"
       is_visible="true"
       lpeversion="0" /><inkscape:path-effect
       effect="powerstroke"
       id="path-effect31"
       is_visible="true"
       lpeversion="1.3"
       scale_width="1"
       interpolator_type="CubicBezierJohan"
       interpolator_beta="0.2"
       start_linecap_type="zerowidth"
       end_linecap_type="zerowidth"
       offset_points="15,4.9921382"
       linejoin_type="extrp_arc"
       miter_limit="4"
       not_jump="false"
       sort_points="true"
       message="&lt;b&gt;Ctrl + click&lt;/b&gt; on existing node and move it" /><inkscape:path-effect
       effect="fill_between_many"
       method="bsplinespiro"
       autoreverse="false"
       close="false"
       join="false"
       linkedpaths="#path31,0,1"
       id="path-effect32"
       is_visible="true"
       lpeversion="0" /><inkscape:path-effect
       effect="fill_between_many"
       method="bsplinespiro"
       autoreverse="false"
       close="false"
       join="false"
       linkedpaths="#path34,0,1"
       id="path-effect36"
       is_visible="true"
       lpeversion="0" /><inkscape:path-effect
       effect="fill_between_many"
       method="bsplinespiro"
       autoreverse="false"
       close="false"
       join="false"
       linkedpaths="#path38,0,1"
       id="path-effect39"
       is_visible="true"
       lpeversion="0" /><inkscape:path-effect
       effect="fill_between_many"
       method="bsplinespiro"
       autoreverse="false"
       close="false"
       join="false"
       linkedpaths="#path41,0,1"
       id="path-effect42" /><inkscape:path-effect
       effect="fill_between_many"
       method="bsplinespiro"
       autoreverse="false"
       close="false"
       join="false"
       linkedpaths="#path47,0,1"
       id="path-effect48" /></defs><g
     inkscape:label="Layer 1"
     inkscape:groupmode="layer"
     id="layer1"
     transform="matrix(0.96515663,0,0,1,-81.741444,-165.5)"><path
       style="fill:#fff29e;fill-opacity:1;fill-rule:evenodd;stroke:none;stroke-width:0.379687;stroke-linecap:round;stroke-linejoin:round;paint-order:stroke fill markers"
       d="m 105,168 9.76537,3.0624 L 119.35,199 H 90.649999 l 4.584644,-27.9376 z"
       id="path13"
       sodipodi:nodetypes="cccccc" /><path
       style="display:inline;fill:#938e5e;fill-opacity:1;fill-rule:evenodd;stroke:none;stroke-width:0.386001;stroke-linecap:round;stroke-linejoin:round;stroke-dasharray:none;stroke-opacity:1;paint-order:stroke fill markers"
       d="m 90.649999,199 -3e-6,3.2 H 119.35 V 199 Z"
       id="path45" /><g
       style="font-size:40px;white-space:pre;display:inline"
       id="g25"
       transform="matrix(0.36948473,0,0,0.35661064,86.367916,164.48693)"><path
         id="path25-0"
         style="font-size:40px;-inkscape-font-specification:'Yuji Boku';white-space:pre;display:inline;fill:#d0d0d0;fill-opacity:1;stroke:none;stroke-width:1.45787;stroke-opacity:1"
         d="m 43.557026,25.65 c -0.11663,0.311012 -0.331566,0.523995 -0.642578,0.640625 0,0.466518 0.116351,0.973308 0.349609,1.517578 0.233259,0.544272 0.467914,1.049108 0.701172,1.515625 0.11663,0.233259 0.213266,0.46596 0.291016,0.699219 0.116633,0.194383 0.193552,0.369885 0.232422,0.52539 0.155509,0.699777 0.254099,1.476749 0.292969,2.332032 0.07775,0.855283 0.03832,1.651971 -0.117188,2.390625 -0.11663,0.699776 -0.408482,1.167132 -0.875,1.40039 -0.349888,0.155506 -0.933594,0.291574 -1.75,0.408203 -0.77753,0.07775 -1.593935,0.117188 -2.449219,0.117188 -0.855282,0 -1.555338,-0.01971 -2.099609,-0.05859 -0.466518,-0.03888 -0.931919,-0.117745 -1.398438,-0.234375 l -1.283203,-0.464844 c -0.583147,-0.194382 -1.166852,-0.369884 -1.75,-0.52539 -0.544271,-0.15551 -1.088542,-0.175224 -1.632812,-0.05859 0,0.77753 0.214936,1.418434 0.642578,1.923828 0.427642,0.466519 0.873326,0.914156 1.339844,1.341797 0.427641,0.388765 0.81808,0.796969 1.167968,1.224609 0.349893,0.388765 0.503724,0.873884 0.464844,1.457032 0.505395,0.07776 1.069382,0.05999 1.691406,-0.05664 0.622025,-0.11663 1.264881,-0.272414 1.925782,-0.466797 0.699777,-0.194383 1.380115,-0.350168 2.041015,-0.466797 0.699778,-0.11663 1.28153,-0.07719 1.748047,0.117188 -0.349888,1.166295 -0.93164,2.292317 -1.748047,3.380859 -0.816406,1.088542 -1.575613,2.139602 -2.27539,3.150391 -0.699777,1.010789 -1.088266,2.020461 -1.166016,3.03125 -0.77753,0.505394 -1.497303,1.069382 -2.158203,1.691406 -0.622024,0.622025 -1.24321,1.262928 -1.865234,1.923828 0.155505,0.07776 0.271859,0.09747 0.349609,0.05859 0.116629,-0.03888 0.213266,-0.09608 0.291016,-0.173828 0.155508,-0.07775 0.234375,-0.04027 0.234375,0.115234 -0.07775,0.272129 -0.29269,0.38848 -0.642579,0.34961 -0.311011,-0.03888 -0.543713,0.03999 -0.699218,0.234375 0.03887,0 0.135509,0.01971 0.291015,0.05859 0.155507,0.03888 0.311292,0.09608 0.466797,0.173828 0.155505,0.07775 0.214651,0.213821 0.175781,0.408204 l -0.349609,-0.173829 c -0.155507,-0.07775 -0.311291,-0.117187 -0.466797,-0.117187 -0.116629,-0.03888 -0.232979,0.05776 -0.349609,0.291016 0.03888,0.155503 0.13551,0.214661 0.291015,0.175781 0.233256,-0.03888 0.369324,0.05776 0.408204,0.291015 -0.23326,0 -0.42848,0.05915 -0.583985,0.175782 -0.116629,0.07775 -0.232979,0.174385 -0.349609,0.291015 -0.155506,0.116629 -0.311291,0.213266 -0.466797,0.291016 -0.155506,0.07775 -0.368489,0.04027 -0.640625,-0.115234 l -0.175781,0.232421 c -0.07776,0.155507 -0.09747,0.350726 -0.05859,0.583985 -0.855283,0.03888 -1.456752,0.328776 -1.806641,0.873047 -0.311011,0.544271 -0.67978,1.031344 -1.107422,1.458984 -0.427641,0 -0.719494,-0.07887 -0.875,-0.234375 0,0.349889 -0.291852,0.604259 -0.875,0.759766 -0.54427,0.155506 -1.108258,0.309338 -1.691406,0.464843 -0.544271,0.116629 -0.816406,0.351284 -0.816406,0.701172 0.155507,0.03887 0.311291,0.05859 0.466797,0.05859 0.194383,-0.03887 0.369885,-0.07831 0.52539,-0.117187 0.194383,-0.03888 0.387649,-0.05859 0.582032,-0.05859 0.233259,-0.03888 0.448195,5.57e-4 0.642578,0.117187 0.155506,-0.03888 0.348772,-0.09803 0.582031,-0.175781 0.194383,-0.07775 0.350168,-0.09746 0.466797,-0.05859 0.155506,0 0.271859,0.155785 0.349609,0.466797 H 27.05312 c -0.116629,-0.03888 -0.213266,-0.05859 -0.291016,-0.05859 -0.155505,-0.03888 -0.291574,-0.05859 -0.408203,-0.05859 -0.11663,0 -0.23298,0.09859 -0.349609,0.292968 0.738653,0.03887 1.515625,0.01916 2.332031,-0.05859 0.816406,-0.07775 1.53618,-0.253255 2.158203,-0.525391 0.660901,-0.272135 1.086867,-0.640903 1.28125,-1.107422 0.466519,-0.311011 0.874721,-0.662016 1.22461,-1.050781 0.349888,-0.388765 0.72061,-0.737815 1.109375,-1.048828 0.07775,-0.07775 0.174386,-0.136901 0.291015,-0.175781 0.116629,-0.07775 0.213266,-0.134949 0.291016,-0.173829 0.194383,-0.07775 0.330453,-0.156625 0.408203,-0.234375 0.116624,-0.07775 0.175781,-0.231584 0.175781,-0.464843 0.388765,0.03888 0.641184,-0.02027 0.757813,-0.175782 1.707686,0.391245 1.8383,-0.131999 2.449218,1.10742 l 0.699219,1.050782 c 0.349889,0.583147 0.661463,1.164896 0.933594,1.748046 0.311014,0.583148 0.407646,1.245722 0.291016,1.984375 -0.272135,-0.03888 -0.581752,-0.03888 -0.931641,0 -0.349889,0 -0.72061,0.03748 -1.109375,0.115235 -0.6609,0.07775 -1.341238,0.136901 -2.041016,0.175781 -0.6609,0 -1.165736,-0.175502 -1.515625,-0.525391 -0.272135,0.427639 -0.603423,0.660339 -0.992187,0.699219 -0.349889,0.03887 -0.738374,0.05859 -1.166016,0.05859 H 31.83437 c -0.272136,0 -0.563988,0.03944 -0.875,0.117187 0.816406,0.971913 1.711682,1.884952 2.683594,2.740235 0.971912,0.855282 2.253721,1.41927 3.847656,1.691406 0.311013,-0.311013 0.681733,-0.583147 1.109375,-0.816406 0.466518,-0.233259 0.931919,-0.310172 1.398437,-0.232422 0.116629,1.477308 -0.07664,3.011532 -0.582031,4.605469 -0.466518,1.593935 -0.95359,3.053198 -1.458984,4.375 -0.194383,0.505394 -0.387649,0.990512 -0.582031,1.457031 -0.155506,0.466518 -0.27186,0.874721 -0.34961,1.224609 0.116629,0.194384 0.23298,0.291016 0.34961,0.291016 0.155505,0 0.311291,-0.01777 0.466796,-0.05664 0.194379,-0.03887 0.31073,-0.03887 0.34961,0 0.6609,-0.466518 1.205172,-0.87472 1.632812,-1.224609 0.427642,-0.349889 0.776693,-0.72061 1.048828,-1.109375 0.777531,-1.127419 1.554502,-2.507813 2.332032,-4.140625 0.77753,-1.632813 1.205453,-3.711309 1.283203,-6.238281 0.738654,0 1.478143,-0.03944 2.216797,-0.117188 l 2.332031,-0.232422 c 1.360678,-0.155505 2.68192,-0.273812 3.964844,-0.351562 1.3218,-0.11663 2.528645,-0.03776 3.617187,0.234375 0.07775,0.54427 0.115235,1.127975 0.115235,1.75 0,0.622024 -0.01972,1.282645 -0.05859,1.982422 -0.03888,0.466518 -0.05664,0.93192 -0.05664,1.398437 v 1.458985 c 0.03888,0.816406 0.09608,1.826078 0.173828,3.03125 0.07775,1.244047 0.272973,2.372023 0.583985,3.382812 0.311012,1.049666 0.815848,1.730004 1.515625,2.041016 0.971912,-0.816406 1.575335,-1.944383 1.808593,-3.382813 0.272135,-1.399553 0.408204,-2.896298 0.408204,-4.490234 0,-0.427642 -0.01972,-0.835845 -0.05859,-1.224609 V 69.96837 c -0.03888,-0.816406 -0.05859,-1.632812 -0.05859,-2.449218 0,-0.855283 0.03944,-1.651971 0.117188,-2.390625 0.816406,-0.116633 1.593378,-0.154115 2.332031,-0.115235 l 2.214844,0.115235 c 0.77753,0.07775 1.556454,0.136901 2.333984,0.175781 0.816406,0.03888 1.670294,-0.02028 2.564453,-0.175781 0.03888,-0.155506 0.137463,-0.291575 0.292969,-0.408203 0.116633,-0.07775 0.193552,-0.154672 0.232422,-0.232422 0.03888,-0.11663 0.01916,-0.272414 -0.05859,-0.466797 -1.321801,-1.127418 -2.818545,-1.963542 -4.490234,-2.507813 -1.67169,-0.544267 -3.24535,-0.83612 -4.722657,-0.875 0.194383,-1.166295 0.0386,-2.099051 -0.466797,-2.798828 -0.505394,-0.738653 -1.185733,-1.340123 -2.041015,-1.806641 -7.195731,-3.924944 0.12897,-1.874899 -2.739733,-2.831097 -0.678219,-0.367701 -2.130382,0.649307 -2.739472,0.519095 0.07775,0.427642 1.727627,2.368921 1.805377,2.83544 0.155506,0.77753 0.291573,1.613653 0.408203,2.507812 0.15551,0.855284 0.155875,1.742002 0.07813,2.519532 -2.099331,0.07775 -3.860491,0.360304 -5.726563,0.554687 -0.147777,0.01258 -0.868718,-0.0615 -1.014556,-0.05032 -1.65738,0.127018 -2.970088,0.0679 -4.649506,0.0679 0.388764,-1.43843 0.213264,-2.625557 -0.525391,-3.558593 -0.699776,-0.89416 -1.740308,-1.51994 -3.023232,-1.830952 -3.59881,-1.249356 -3.193613,-1.960952 -0.767783,-4.174908 0.388764,0.738655 0.933035,1.206008 1.632812,1.400391 0.699776,0.194384 1.41955,0.291015 2.158203,0.291015 h 0.291016 c 0.622024,0 1.225446,0.03944 1.808594,0.117188 0.583147,0.03888 1.1077,0.212426 1.574218,0.523437 v 0.992188 c -0.03888,0.738653 -0.03888,1.495907 0,2.273437 0.07889,1.577584 1.037931,3.703002 1.454448,3.971827 0.111406,0.0719 0.964128,-0.02711 1.070943,0.01062 0.407167,-0.706571 1.013206,-2.465122 1.324219,-3.748047 0.31101,-1.282923 0.36821,-2.586402 0.173828,-3.908203 0.816406,-0.388764 1.65253,-0.621468 2.507812,-0.699218 0.855284,-0.116624 1.730841,-0.175782 2.625,-0.175782 3.397693,-0.432088 5.676936,1.675584 7.929688,4.025391 0.89416,0.77753 2.118769,1.378999 3.673828,1.806641 1.593935,0.388764 3.2859,0.641183 5.074219,0.757812 0.272135,-0.311012 0.640905,-0.523995 1.107422,-0.640625 0.505395,-0.155506 0.893881,-0.370443 1.166015,-0.642578 0.03888,-0.233259 0.05859,-0.426525 0.05859,-0.582031 0.03887,-0.194383 0.05859,-0.350167 0.05859,-0.466797 v -0.408203 c 0,-0.155507 0.03944,-0.311291 0.117187,-0.466797 C 75.941155,56.59544 75.629585,56.226672 75.279697,55.91566 74.929794,55.604613 74.714854,55.137259 74.637104,54.515234 73.976204,54.00984 73.3353,53.465569 72.713276,52.882422 72.130129,52.299274 71.64501,51.638653 71.256245,50.9 c -0.816406,-0.699776 -1.76888,-1.244048 -2.857422,-1.632813 -1.088542,-0.427641 -2.177083,-0.835844 -3.265625,-1.224609 -1.088542,-0.427641 -2.060733,-0.952194 -2.916016,-1.574219 -0.583147,-0.42764 -1.050501,-0.952194 -1.40039,-1.574218 -0.349889,-0.660901 -0.931641,-1.069104 -1.748047,-1.22461 -0.311012,-0.583147 -0.719215,-1.050502 -1.224609,-1.40039 -0.505395,-0.349889 -1.031902,-0.69894 -1.576172,-1.048829 -0.544271,-0.349888 -1.02939,-0.797526 -1.457032,-1.341796 1.827196,-0.233259 3.692709,-0.34961 5.597657,-0.34961 1.943825,-0.03888 3.752139,5.58e-4 5.423828,0.117188 0.07775,-0.11663 0.154672,-0.215219 0.232422,-0.292969 0.116629,-0.07775 0.215219,-0.174387 0.292969,-0.291016 0.272135,-0.233258 0.485118,-0.485676 0.640625,-0.757812 0.155505,-0.311012 -2.8e-4,-0.778366 -0.466797,-1.400391 -0.971912,-0.6609 -2.001302,-1.106585 -3.089844,-1.339844 -1.088542,-0.233258 -2.196801,-0.349609 -3.324219,-0.349609 -0.77753,0 -1.554501,0.03749 -2.332031,0.115234 -0.77753,0.03888 -1.556454,0.117746 -2.333985,0.234375 l -2.798828,0.232422 c -0.933036,0.07775 -1.865792,0.09747 -2.798828,0.05859 0.07775,-0.427641 0.156625,-1.048828 0.234375,-1.865234 0.07775,-0.816406 0.310454,-1.478981 0.699219,-1.984375 -0.855283,-1.39955 -1.963541,-2.54529 -3.324219,-3.439449 C 46.102599,27.63298 44.801074,26.660789 43.557026,25.65 Z m 7.871094,14.462891 c 0.933036,1.477307 1.924944,2.934617 2.974609,4.373046 1.088542,1.399554 2.100167,2.681362 3.033203,3.847657 0.933037,1.166295 1.690291,2.101005 2.273438,2.800781 l 0.933594,1.048828 c -0.272136,-0.07775 -0.563989,-0.174387 -0.875,-0.291016 -0.311012,-0.116629 -0.662017,-0.252697 -1.050782,-0.408203 -0.971912,-0.388764 -2.021018,-0.759486 -3.148437,-1.109375 -1.127418,-0.388768 -2.196242,-0.562317 -3.207031,-0.523437 0.194383,-1.088542 0.0386,-2.041016 -0.466797,-2.857422 -0.466519,-0.816406 -1.107422,-1.496745 -1.923828,-2.041016 -0.816406,-0.544271 -1.593378,-0.972191 -2.332032,-1.283203 -0.116629,-0.388764 -0.03971,-0.85612 0.232422,-1.40039 0.272135,-0.544271 0.544271,-1.049107 0.816407,-1.515625 0.155502,-0.194383 0.252135,-0.350168 0.291015,-0.466797 0.349889,-0.07775 0.758091,-0.117188 1.22461,-0.117188 0.466517,0 0.87472,-0.01776 1.224609,-0.05664 z m -4.957031,4.197265 c 0.427641,0.971912 0.739211,2.080171 0.933593,3.324219 0.233259,1.205172 0.312125,2.157645 0.234375,2.857422 -1.088541,0.03888 -2.100167,0.155226 -3.033203,0.349609 -0.894159,0.194384 -1.905784,0.292969 -3.033203,0.292969 0.233259,-0.311012 0.48763,-0.662017 0.759766,-1.050781 0.272135,-0.427642 0.60147,-0.640625 0.990234,-0.640625 -0.03887,-0.194383 -0.03887,-0.350168 0,-0.466797 0.03887,-0.155506 0.07831,-0.27186 0.117188,-0.34961 0.03887,-0.116628 0.07831,-0.215218 0.117187,-0.292968 0.03887,-0.116629 0.03887,-0.252697 0,-0.408203 0.427638,0.07775 0.660339,0.02055 0.699219,-0.173829 0.07775,-0.233258 0.07775,-0.448195 0,-0.642578 h 0.875 c -0.194385,-0.272134 -0.253531,-0.445687 -0.175781,-0.523437 0.07775,-0.116629 0.194102,-0.215219 0.349609,-0.292969 0.116629,-0.03888 0.215219,-0.09608 0.292969,-0.173828 0.116626,-0.07775 0.193542,-0.174387 0.232422,-0.291016 -0.03888,-0.155509 -0.115793,-0.194937 -0.232422,-0.117187 -0.194383,0.07775 -0.350167,0.03832 -0.466797,-0.117188 0.23326,-0.194382 0.46596,-0.407366 0.699219,-0.640625 z"
         sodipodi:nodetypes="ccssccccccscccccccccscccssccccccccssccccccccsccccccccccccccccccscsccscccccccccccccccsscscccccccsccscscccccscscccccsccsccccccccsccscsccccsccccssscccsscsccsccccccsscsccccccccsscccccccssccccscccccsccsscccscsccsccccccccccccccccccccccc" /><path
         d="m 65.597,53.226 c -1.904141,3.105097 -7.839073,-2.185133 -10.2,-3.92 -0.48,0.106667 -0.96,0.186667 -1.44,0.24 -0.453333,0.02667 -0.906667,0.04 -1.36,0.04 -0.613333,0 -1.213333,0.04 -1.8,0.12 -0.586667,0.05333 -1.16,0.213333 -1.72,0.48 0.133333,0.906667 0.09333,1.8 -0.12,2.68 -0.213333,0.88 -0.64,1.533333 -1.28,1.96 -0.48,-0.08 -0.826667,-0.32 -1.04,-0.72 -0.186667,-0.4 -0.293333,-0.866667 -0.32,-1.4 -0.02667,-0.533333 -0.02667,-1.053333 0,-1.56 v -0.68 c -0.32,-0.213333 -0.68,-0.333333 -1.08,-0.36 -0.4,-0.05333 -0.813333,-0.08 -1.24,-0.08 h -0.2 c -0.506667,0 -1,-0.06667 -1.48,-0.2 -0.48,-0.133333 -0.853333,-0.453333 -1.12,-0.96 -2.346398,1.83928 -4.248581,4.276153 -6.8,5.84 -1.465991,0.611013 -3.067002,0.237923 -4.6,0.12 0,-0.24 0.186667,-0.4 0.56,-0.48 3.969293,-1.459663 7.051446,-5.652379 9.48,-9 0.48,-0.693333 1,-1.413333 1.56,-2.16 0.56,-0.746667 0.96,-1.52 1.2,-2.32 -0.32,-0.133333 -0.72,-0.16 -1.2,-0.08 -0.453333,0.08 -0.92,0.186667 -1.4,0.32 -0.453333,0.133333 -0.893333,0.24 -1.32,0.32 -0.426667,0.08 -0.813333,0.09333 -1.16,0.04 0.02667,-0.4 -0.08,-0.733333 -0.32,-1 -0.24,-0.293333 -0.506667,-0.573333 -0.8,-0.84 -0.32,-0.293333 -0.626667,-0.6 -0.92,-0.92 -0.293333,-0.346667 -0.44,-0.786667 -0.44,-1.32 0.373333,-0.08 0.746667,-0.06667 1.12,0.04 0.4,0.106667 0.8,0.226667 1.2,0.36 l 0.88,0.32 c 0.32,0.08 0.64,0.133333 0.96,0.16 0.373333,0.02667 0.853333,0.04 1.44,0.04 0.586667,0 1.146667,-0.02667 1.68,-0.08 0.56,-0.08 0.96,-0.173333 1.2,-0.28 0.32,-0.16 0.52,-0.48 0.6,-0.96 0.106667,-0.506667 0.133333,-1.053333 0.08,-1.64 -0.02667,-0.586667 -0.09333,-1.12 -0.2,-1.6 -0.02667,-0.106667 -0.08,-0.226667 -0.16,-0.36 -0.05333,-0.16 -0.12,-0.32 -0.2,-0.48 -0.16,-0.32 -0.32,-0.666667 -0.48,-1.04 -0.16,-0.373333 -0.24,-0.72 -0.24,-1.04 -3.18e-4,-0.19295 -0.01924,-0.314092 0.05625,-0.393563 1.062014,0.317084 2.097306,1.293197 3.063752,1.953563 0.933333,0.613333 1.693333,1.4 2.28,2.36 -0.266667,0.346667 -0.426667,0.8 -0.48,1.36 -0.05333,0.56 -0.106667,0.986667 -0.16,1.28 0.64,0.02667 1.28,0.01333 1.92,-0.04 l 1.92,-0.16 c 0.533333,-0.08 1.066667,-0.133333 1.6,-0.16 0.533333,-0.05333 1.066667,-0.08 1.6,-0.08 0.773333,0 1.533333,0.08 2.28,0.24 0.746667,0.16 1.453333,0.466667 2.12,0.92 0.32,0.426667 0.426667,0.746667 0.32,0.96 -0.106667,0.186667 -0.253333,0.36 -0.44,0.52 -0.05333,0.08 -0.137122,0.129749 -0.2,0.2 -0.05694,0.06361 -0.106667,0.12 -0.16,0.2 -1.146667,-0.08 -2.386667,-0.106667 -3.72,-0.08 -1.306667,0 -2.586667,0.08 -3.84,0.24 4.402004,5.602552 17.92541,7.52677 14.519998,13.08 z m -3.4,3.48 c 0.05333,0.133333 0.06667,0.24 0.04,0.32 -0.02667,0.05333 -0.08,0.106667 -0.16,0.16 -0.452989,0.530082 -1.274518,0.408046 -1.96,0.4 -0.533333,-0.02667 -1.066667,-0.06667 -1.6,-0.12 l -1.52,-0.08 c -0.506667,-0.02667 -1.04,0 -1.6,0.08 -0.05333,0.506667 -0.08,1.053333 -0.08,1.64 0,0.56 0.01333,1.12 0.04,1.68 v 0.88 c 0.02667,0.266667 0.04,0.546667 0.04,0.84 0,1.093333 -0.09333,2.12 -0.28,3.08 -0.16,0.986667 -0.573333,1.76 -1.24,2.32 -0.48,-0.213333 -0.826667,-0.68 -1.04,-1.4 -0.213333,-0.693333 -0.346667,-1.466667 -0.4,-2.32 -0.05333,-0.826667 -0.09333,-1.52 -0.12,-2.08 v -1 c 0,-0.32 0.01333,-0.64 0.04,-0.96 0.02667,-0.48 0.04,-0.933333 0.04,-1.36 0,-0.426667 -0.02667,-0.826667 -0.08,-1.2 -0.746667,-0.186667 -1.573333,-0.24 -2.48,-0.16 -0.88,0.05333 -1.786667,0.133333 -2.72,0.24 l -1.6,0.16 c -0.506667,0.05333 -1.013333,0.08 -1.52,0.08 -0.05333,1.733333 -0.346667,3.16 -0.88,4.28 -0.533333,1.12 -1.066667,2.066667 -1.6,2.84 -0.186667,0.266667 -0.426667,0.52 -0.72,0.76 -0.293333,0.24 -0.666667,0.52 -1.12,0.84 -0.02667,-0.02667 -0.106667,-0.02667 -0.24,0 -0.106667,0.02667 -0.213333,0.04 -0.32,0.04 -0.08,0 -0.16,-0.06667 -0.24,-0.2 0.05333,-0.24 0.133333,-0.52 0.24,-0.84 0.133333,-0.32 0.266667,-0.653333 0.4,-1 0.346667,-0.906667 0.68,-1.906667 1,-3 0.346667,-1.093333 0.48,-2.146667 0.4,-3.16 -0.32,-0.05333 -0.64,0 -0.96,0.16 -0.293333,0.16 -0.546667,0.346667 -0.76,0.56 -1.093333,-0.186667 -1.973333,-0.573333 -2.64,-1.16 -0.666667,-0.586667 -1.28,-1.213333 -1.84,-1.88 0.213333,-0.05333 0.413333,-0.08 0.6,-0.08 1.484928,-0.162463 2.982567,-0.184863 4.48,-0.28 0.266667,-0.05333 0.52,-0.08 0.76,-0.08 0.24,-0.02667 0.453333,-0.02667 0.64,0 0.08,-0.506667 0.01333,-0.96 -0.2,-1.36 -0.186667,-0.4 -0.4,-0.8 -0.64,-1.2 l -0.48,-0.72 c -0.133333,-0.266667 -1.437327,-1.12533 -1.543994,-1.391997 0.18004,-0.03751 0.299418,-0.850049 0.504877,-0.687507 0.524898,0.415257 2.305837,1.246186 2.919117,1.399504 0.88,0.213333 1.56,0.626667 2.04,1.24 0.506667,0.64 0.626667,1.453333 0.36,2.44 1.253333,0 2.506667,-0.05333 3.76,-0.16 1.28,-0.133333 2.64,-0.226667 4.08,-0.28 0.05333,-0.533333 0.02667,-1.093333 -0.08,-1.68 -0.08,-0.613333 -0.173333,-1.186667 -0.28,-1.72 -0.05333,-0.32 -0.106667,-0.626667 -0.16,-0.92 -0.05333,-0.293333 -0.08,-0.546667 -0.08,-0.76 l 0.48,0.24 c 0.16,0.05333 0.32,0.12 0.48,0.2 0.613333,0.266667 1.213333,0.56 1.8,0.88 0.586667,0.32 1.053333,0.733333 1.4,1.24 0.346667,0.48 0.453333,1.12 0.32,1.92 1.013333,0.02667 2.093333,0.226667 3.24,0.6 1.146667,0.373333 2.173333,0.946667 3.08,1.72 z m -7.12,-8.12 -0.64,-0.72 c -0.4,-0.48 -0.92,-1.12 -1.56,-1.92 -0.64,-0.8 -1.333333,-1.68 -2.08,-2.64 -0.72,-0.986667 -1.4,-1.986667 -2.04,-3 -0.24,0.02667 -0.52,0.04 -0.84,0.04 -0.32,0 -0.6,0.02667 -0.84,0.08 -0.02667,0.08 -0.09333,0.186667 -0.2,0.32 -0.186667,0.32 -0.373333,0.666667 -0.56,1.04 -0.186667,0.373333 -0.24,0.693333 -0.16,0.96 0.506667,0.213333 1.04,0.506667 1.6,0.88 0.56,0.373333 1,0.84 1.32,1.4 0.346667,0.56 0.453333,1.213333 0.32,1.96 0.693333,-0.02667 1.426667,0.09333 2.2,0.36 0.773333,0.24 1.493333,0.493333 2.16,0.76 0.266667,0.106667 0.506667,0.2 0.72,0.28 0.213333,0.08 0.413333,0.146667 0.6,0.2 z m -8.92,-1.16 c 0.05333,-0.48 0,-1.133333 -0.16,-1.96 -0.133333,-0.853333 -0.346667,-1.613333 -0.64,-2.28 l -2.84,3.96 c -0.186667,0.266667 -0.36,0.506667 -0.52,0.72 0.773333,0 1.466667,-0.06667 2.08,-0.2 0.64,-0.133333 1.333333,-0.213333 2.08,-0.24 z"
         aria-label="奔"
         style="-inkscape-font-specification:'Yuji Boku';display:inline;fill:#b0b0b0;fill-opacity:1;stroke:none;stroke-width:1.00009;stroke-dasharray:none;stroke-opacity:1"
         transform="matrix(1.45787,0,0,1.45787,-19.358,-18.55)"
         id="path25"
         sodipodi:nodetypes="accsccsccscccssscccccscccscccccccccsccccccsscsccscsccsscccacccaccccscsccscccccscscccccscsccscccccccscsscccccccsccccccscccsccscccsccsccscscccssccccccccc" /><path
         d="m 65.597,53.226 c -2.654776,4.329163 -7.778798,-2.320752 -10.139725,-4.055619 -0.48,0.106667 -1.020275,0.322286 -1.500275,0.375619 -0.453333,0.02667 -0.906667,0.04 -1.36,0.04 -0.613333,0 -1.213333,0.04 -1.8,0.12 -0.586667,0.05333 -1.349572,0.01407 -1.72,0.48 -0.556493,0.699971 0.09333,1.8 -0.12,2.68 -0.213333,0.88 -0.64,1.533333 -1.28,1.96 -0.48,-0.08 -0.826667,-0.32 -1.04,-0.72 -0.186667,-0.4 -0.293333,-0.866667 -0.32,-1.4 -0.02667,-0.533333 -0.02667,-1.053333 0,-1.56 0,0 0.16,-0.573334 0,-0.68 -0.16,-0.106667 -0.68,-0.333333 -1.08,-0.36 -0.4,-0.05333 -0.813333,-0.08 -1.24,-0.08 h -0.2 c -0.506667,0 -1,-0.06667 -1.48,-0.2 -0.48,-0.133333 -0.853333,-0.453333 -1.12,-0.96 -2.346398,1.83928 -4.248581,4.276153 -6.8,5.84 -1.465991,0.611013 -3.067002,0.237923 -4.6,0.12 0,-0.24 0.186667,-0.4 0.56,-0.48 3.969293,-1.459663 7.051446,-5.652379 9.48,-9 0.48,-0.693333 1,-1.413333 1.56,-2.16 0.56,-0.746667 0.96,-1.52 1.2,-2.32 -0.32,-0.133333 -0.72,-0.16 -1.2,-0.08 -0.453333,0.08 -0.92,0.186667 -1.4,0.32 -0.453333,0.133333 -0.893333,0.24 -1.32,0.32 -0.426667,0.08 -0.813333,0.09333 -1.16,0.04 0.02667,-0.4 -0.08,-0.733333 -0.32,-1 -0.24,-0.293333 -0.506667,-0.573333 -0.8,-0.84 -0.32,-0.293333 -0.626667,-0.6 -0.92,-0.92 -0.293333,-0.346667 -0.44,-0.786667 -0.44,-1.32 0.373333,-0.08 0.746667,-0.06667 1.12,0.04 0.4,0.106667 0.8,0.226667 1.2,0.36 l 0.88,0.32 c 0.32,0.08 0.64,0.133333 0.96,0.16 0.373333,0.02667 0.853333,0.04 1.44,0.04 0.586667,0 1.146667,-0.02667 1.68,-0.08 0.56,-0.08 0.96,-0.173333 1.2,-0.28 0.32,-0.16 0.52,-0.48 0.6,-0.96 0.106667,-0.506667 0.133333,-1.053333 0.08,-1.64 -0.02667,-0.586667 -0.09333,-1.12 -0.2,-1.6 -0.02667,-0.106667 -0.08,-0.226667 -0.16,-0.36 -0.05333,-0.16 -0.12,-0.32 -0.2,-0.48 -0.16,-0.32 -0.32,-0.666667 -0.48,-1.04 -0.16,-0.373333 -0.24,-0.72 -0.24,-1.04 -3.18e-4,-0.19295 -0.01613,-0.36256 0.117877,-0.412319 1.122466,-0.41679 2.035679,1.311953 3.002125,1.972319 0.933333,0.613333 1.60292,1.460275 2.189587,2.420275 -0.266667,0.346667 -0.336254,0.739725 -0.389587,1.299725 -0.05333,0.56 -0.106667,0.986667 -0.16,1.28 0.64,0.02667 1.28,0.01333 1.92,-0.04 l 1.92,-0.16 c 0.533333,-0.08 1.066667,-0.133333 1.6,-0.16 0.533333,-0.05333 1.066667,-0.08 1.6,-0.08 0.773333,0 1.533333,0.08 2.28,0.24 0.746667,0.16 1.453333,0.466667 2.12,0.92 0.32,0.426667 0.426667,0.746667 0.32,0.96 -0.106667,0.186667 -0.253333,0.36 -0.44,0.52 -0.05333,0.08 -0.137122,0.129749 -0.2,0.2 -0.05694,0.06361 -0.106667,0.12 -0.16,0.2 -1.146667,-0.08 -2.386667,-0.106667 -3.72,-0.08 -1.306667,0 -2.511323,0.09507 -3.764656,0.255069 C 55.55435,45.763621 68.251776,48.896837 65.597,53.226 Z m -3.4,3.48 c 0.06007,0.08915 0.06673,0.253172 0.04,0.32 -0.02674,0.06683 -0.09357,0.12428 -0.16,0.16 -0.587283,0.315787 -1.274518,0.408046 -1.96,0.4 -0.533333,-0.02667 -1.067859,-0.05586 -1.6,-0.12 l -1.370826,-0.165242 c -0.506667,-0.02667 -1.327692,-0.03197 -1.887692,0.04803 -0.05333,0.506667 0.05852,1.170541 0.05852,1.757208 0,0.56 0.01333,1.12 0.04,1.68 l 0.03714,0.88 c 0.0113,0.267759 0.0029,0.546667 0.0029,0.84 0,1.093333 -0.09333,2.12 -0.28,3.08 -0.16,0.986667 -0.512896,2.266073 -1.24,2.32 -0.727104,0.05393 -0.826667,-0.68 -1.04,-1.4 -0.213333,-0.693333 -0.346667,-1.466667 -0.4,-2.32 -0.05333,-0.826667 -0.09333,-1.52 -0.12,-2.08 0,0 -0.0069,-0.666739 0,-1 0.0067,-0.320208 0.01333,-0.64 0.04,-0.96 0.02667,-0.48 0.04,-0.933333 0.04,-1.36 0,-0.426667 0.124018,-0.932149 0.07069,-1.305482 -0.746667,-0.186667 -1.724021,-0.300275 -2.630688,-0.220275 -0.88,0.05333 -1.62091,0.389503 -2.72,0.405757 l -1.705482,-0.0058 c -0.506667,0.05333 -0.907851,0.245757 -1.414518,0.245757 0.02947,2.64289 -1.05765,4.96514 -2.48,7.12 -0.186667,0.266667 -0.426667,0.52 -0.72,0.76 -0.293333,0.24 -0.666667,0.52 -1.12,0.84 -0.02667,-0.02667 -0.106667,-0.02667 -0.24,0 -0.106667,0.02667 -0.213333,0.04 -0.32,0.04 -0.08,0 -0.16,-0.06667 -0.24,-0.2 0.05333,-0.24 0.133333,-0.52 0.24,-0.84 0.133333,-0.32 0.266667,-0.653333 0.4,-1 0.346667,-0.906667 0.68,-1.906667 1,-3 0.346667,-1.093333 0.442621,-3.191966 0.442621,-3.191966 0,0 -0.66131,0.0959 -0.98131,0.255898 -0.293333,0.16 -0.610599,0.202821 -0.823932,0.416154 -1.093333,-0.186667 -2.015954,-0.456126 -2.682621,-1.042793 -0.666667,-0.586667 -1.194758,-1.335868 -1.754758,-2.002535 0.213333,-0.05333 0.471937,-0.03205 0.658604,-0.03205 1.484928,-0.162463 2.923963,-0.14757 4.421396,-0.242707 0.500673,0.0011 1.104689,-0.04761 1.362707,-0.127949 0.01074,-0.464046 0.215779,-1.002621 -0.130741,-1.317379 -0.277237,-0.4 -0.431966,-0.794672 -0.671966,-1.194672 l -0.48,-0.72 c -0.133333,-0.266667 -1.18394,-1.299973 -1.290607,-1.56664 0.631662,-0.533556 0.656628,-0.224634 3.094179,0.488972 0.88,0.213333 1.753636,1.040318 2.233636,1.653651 0.506667,0.64 0.434872,1.362763 0.168205,2.34943 1.253333,0 2.76208,0.11167 4.015413,0.005 1.28,-0.133333 2.609862,-0.19653 4.049862,-0.249863 0.05333,-0.533333 -0.124018,-1.213883 -0.230688,-1.80055 -0.08,-0.613333 -0.173333,-1.186667 -0.28,-1.72 -0.05333,-0.32 -0.106667,-0.626667 -0.16,-0.92 -0.05333,-0.293333 -0.08,-0.546667 -0.08,-0.76 l 0.48,0.24 c 0.16,0.05333 0.32,0.12 0.48,0.2 0.613333,0.266667 1.213333,0.56 1.8,0.88 0.586667,0.32 1.053333,0.733333 1.4,1.24 0.346667,0.48 0.272507,1.361101 0.139174,2.161101 1.013333,0.02667 2.244021,0.106116 3.390688,0.479449 1.146667,0.373333 2.747771,0.491428 3.110138,1.59945 l -2e-6,4e-6 z m -7.12,-8.12 -0.64,-0.72 c -0.4,-0.48 -0.859725,-1.165206 -1.499725,-1.965206 -0.64,-0.8 -1.393608,-1.634794 -2.140275,-2.594794 -0.72,-0.986667 -1.4,-1.986667 -2.04,-3 -0.24,0.02667 -0.52,-0.05041 -0.84,-0.05041 -0.32,0 -0.6,0.117083 -0.84,0.170413 -0.02667,0.08 -0.09333,0.186667 -0.2,0.32 -0.186667,0.32 -0.373333,0.666667 -0.56,1.04 -0.186667,0.373333 -0.24,0.693333 -0.16,0.96 0.506667,0.213333 1.04,0.506667 1.6,0.88 0.56,0.373333 1,0.84 1.32,1.4 0.346667,0.56 0.212232,1.364021 0.0789,2.110688 0.693333,-0.02667 1.667768,-0.05736 2.441101,0.209312 0.773333,0.24 1.493333,0.493333 2.16,0.76 0.266667,0.106667 0.506667,0.2 0.72,0.28 0.213333,0.08 0.413333,0.146667 0.6,0.2 z m -8.92,-1.16 c 0.415854,-0.506709 0,-1.133333 -0.16,-1.96 -0.133333,-0.853333 -0.346667,-1.613333 -0.64,-2.28 l -2.84,3.96 c -0.186667,0.266667 -0.36,0.506667 -0.52,0.72 0.773333,0 1.466667,-0.06667 2.08,-0.2 0.64,-0.133333 1.63723,0.299505 2.08,-0.24 z"
         aria-label="奔"
         style="-inkscape-font-specification:'Yuji Boku';display:inline;fill:#909090;fill-opacity:1"
         transform="matrix(1.45787,0,0,1.45787,-19.358,-18.55)"
         id="path26"
         sodipodi:nodetypes="zccscasccsczcssscccccscccscccccccccsccccccsscaccscsccsscccaccczczacscsccsccsccsascccccssccscccccccscssccccccccccccscccsccscaccacsccscscccssccccacccccac" /><path
         d="m 74.414403,58.618547 c -2.637191,4.300486 -10.856932,-3.026358 -14.126761,-5.429108 -0.664788,0.147731 -1.329577,0.258529 -1.994366,0.332394 -0.627855,0.03694 -1.255712,0.0554 -1.883568,0.0554 -0.849452,0 -1.680437,0.0554 -2.492957,0.166196 -0.81252,0.07386 -1.606573,0.295462 -2.38216,0.664789 0.184663,1.255713 0.12926,2.492958 -0.166197,3.711737 -0.295461,1.218779 -0.886385,2.12363 -1.77277,2.714554 -0.664789,-0.110798 -1.144915,-0.443192 -1.440376,-0.997183 -0.258529,-0.553991 -0.406259,-1.200313 -0.443192,-1.938967 -0.03694,-0.738653 -0.03694,-1.458841 0,-2.160564 V 54.796011 C 47.268863,54.500549 46.770272,54.334353 46.216281,54.29742 45.662291,54.22356 45.089834,54.186622 44.49891,54.186622 h -0.276995 c -0.701722,0 -1.384976,-0.09234 -2.049765,-0.276995 -0.664789,-0.184664 -1.181846,-0.627856 -1.551174,-1.329578 -3.249706,2.54736 -5.884185,5.922371 -9.41784,8.088263 -2.030363,0.846238 -4.247726,0.329518 -6.370892,0.166196 0,-0.332394 0.258529,-0.553991 0.775587,-0.664788 5.497377,-2.0216 9.766087,-7.828412 13.129577,-12.464788 0.664789,-0.960251 1.384977,-1.957433 2.160563,-2.991549 0.775587,-1.034117 1.329578,-2.105165 1.661972,-3.213146 -0.443192,-0.184663 -0.997183,-0.221596 -1.661972,-0.110799 -0.627855,0.110799 -1.274178,0.25853 -1.938967,0.443193 -0.627855,0.184663 -1.237245,0.332394 -1.828169,0.443193 -0.590923,0.110798 -1.126447,0.12926 -1.606572,0.0554 0.03694,-0.553992 -0.110799,-1.01565 -0.443193,-1.384977 -0.332394,-0.406259 -0.701722,-0.794052 -1.107981,-1.163381 -0.443193,-0.406259 -0.867919,-0.830986 -1.274178,-1.274178 -0.40626,-0.480125 -0.60939,-1.089514 -0.60939,-1.828169 0.517057,-0.110798 1.034116,-0.09234 1.551174,0.0554 0.55399,0.147731 1.107981,0.313928 1.661971,0.498591 l 1.21878,0.443193 c 0.443192,0.110798 0.886385,0.184663 1.329577,0.221596 0.517058,0.03694 1.181846,0.0554 1.994366,0.0554 0.81252,0 1.588107,-0.03694 2.326761,-0.110798 0.775587,-0.110798 1.329577,-0.240062 1.661972,-0.387793 0.443192,-0.221597 0.720187,-0.664789 0.830985,-1.329578 0.147732,-0.701722 0.184664,-1.458841 0.110799,-2.271361 -0.03694,-0.81252 -0.12926,-1.551174 -0.276996,-2.215963 -0.03694,-0.147731 -0.110798,-0.313928 -0.221596,-0.498591 -0.07386,-0.221596 -0.166197,-0.443193 -0.276995,-0.664789 -0.221596,-0.443192 -0.443193,-0.923318 -0.664789,-1.440375 -0.221596,-0.517058 -0.332394,-0.997184 -0.332394,-1.440376 -4.41e-4,-0.267231 -0.02665,-0.43501 0.07791,-0.545075 1.470864,0.439153 2.904719,1.791047 4.243224,2.705638 1.292644,0.849452 2.345227,1.938967 3.157747,3.268545 -0.369328,0.480126 -0.590924,1.107981 -0.664789,1.883568 -0.07386,0.775587 -0.147731,1.366511 -0.221596,1.77277 0.886385,0.03694 1.77277,0.01846 2.659154,-0.0554 l 2.659155,-0.221596 c 0.738654,-0.110799 1.477309,-0.184664 2.215963,-0.221597 0.738653,-0.07386 1.477308,-0.110798 2.215962,-0.110798 1.071048,0 2.12363,0.110798 3.157747,0.332395 1.034116,0.221596 2.012832,0.646322 2.93615,1.274178 0.443192,0.590924 0.590924,1.034116 0.443192,1.329577 -0.147731,0.25853 -0.35086,0.498592 -0.609389,0.720188 -0.07386,0.110798 -0.189911,0.179699 -0.276996,0.276995 -0.07886,0.0881 -0.147731,0.166198 -0.221596,0.276996 -1.588107,-0.110798 -3.305478,-0.147732 -5.152113,-0.110798 -1.809703,0 -3.582473,0.110798 -5.318309,0.332394 6.096672,7.759403 24.826271,10.4244 20.109856,18.115493 z m -4.70892,4.819718 c 0.07386,0.184663 0.09234,0.332394 0.0554,0.443192 -0.03694,0.07386 -0.110798,0.147732 -0.221597,0.221597 -0.627379,0.73415 -1.765177,0.565134 -2.714554,0.55399 -0.738653,-0.03694 -1.477308,-0.09234 -2.215962,-0.166197 l -2.105164,-0.110798 c -0.701722,-0.03694 -1.440376,0 -2.215963,0.110798 -0.07386,0.701722 -0.110798,1.458841 -0.110798,2.271361 0,0.775587 0.01846,1.551174 0.0554,2.326761 v 1.218779 c 0.03694,0.369328 0.0554,0.757121 0.0554,1.163381 0,1.51424 -0.129259,2.93615 -0.387793,4.265727 -0.221596,1.366511 -0.794053,2.437558 -1.717371,3.213146 -0.664789,-0.295463 -1.144914,-0.941784 -1.440375,-1.938968 -0.295462,-0.96025 -0.480126,-2.0313 -0.553991,-3.213145 -0.07386,-1.144914 -0.12926,-2.105165 -0.166197,-2.880752 v -1.384976 c 0,-0.443192 0.01846,-0.886385 0.0554,-1.329577 0.03694,-0.664789 0.0554,-1.292644 0.0554,-1.883568 0,-0.590924 -0.03694,-1.144914 -0.110798,-1.661972 -1.034116,-0.258529 -2.179029,-0.332394 -3.434742,-0.221597 -1.218779,0.07386 -2.474492,0.184663 -3.767136,0.332394 l -2.215962,0.221597 c -0.701722,0.07386 -1.403443,0.110798 -2.105165,0.110798 -0.07386,2.400626 -0.480125,4.376525 -1.218779,5.927699 -0.738654,1.551175 -1.477309,2.862285 -2.215962,3.933334 -0.25853,0.369327 -0.590924,0.720187 -0.997183,1.052582 -0.40626,0.332395 -0.923319,0.720187 -1.551174,1.163381 -0.03694,-0.03694 -0.147731,-0.03694 -0.332395,0 -0.147731,0.03694 -0.295461,0.0554 -0.443192,0.0554 -0.110798,0 -0.221596,-0.09234 -0.332394,-0.276996 0.07386,-0.332394 0.184663,-0.720187 0.332394,-1.16338 0.184663,-0.443192 0.369328,-0.904851 0.553991,-1.384976 0.480125,-1.255713 0.941784,-2.640689 1.384976,-4.15493 0.480126,-1.51424 0.664789,-2.973083 0.553991,-4.376526 -0.443193,-0.07386 -0.886385,0 -1.329578,0.221597 -0.406259,0.221596 -0.757121,0.480125 -1.052582,0.775587 -1.51424,-0.25853 -2.73302,-0.794053 -3.656338,-1.606573 -0.923318,-0.81252 -1.77277,-1.680438 -2.548357,-2.603756 0.295462,-0.07386 0.572457,-0.110798 0.830986,-0.110798 2.056591,-0.225008 4.130785,-0.256031 6.204695,-0.387794 0.369328,-0.07386 0.720188,-0.110798 1.052582,-0.110798 0.332395,-0.03694 0.627856,-0.03694 0.886385,0 0.110798,-0.701722 0.01846,-1.329577 -0.276995,-1.883568 -0.25853,-0.55399 -0.553991,-1.107981 -0.886385,-1.661972 l -0.664789,-0.997183 c -0.184663,-0.369327 -0.35086,-0.738653 -0.498591,-1.107981 0.886385,-0.184663 1.920501,-0.12926 3.102347,0.166197 1.218779,0.295462 2.160563,0.867919 2.825352,1.717371 0.701722,0.886385 0.867919,2.012832 0.498592,3.379343 1.735836,0 3.471674,-0.07386 5.207511,-0.221596 1.77277,-0.184663 3.656338,-0.313929 5.650704,-0.387794 0.07386,-0.738653 0.03694,-1.51424 -0.110798,-2.32676 -0.110798,-0.849452 -0.240062,-1.643506 -0.387793,-2.38216 -0.07386,-0.443192 -0.147732,-0.867919 -0.221596,-1.274178 -0.07386,-0.40626 -0.110799,-0.757121 -0.110799,-1.052582 l 0.664789,0.332394 c 0.221596,0.07386 0.443193,0.166197 0.664789,0.276995 0.849452,0.369328 1.680438,0.775587 2.492958,1.21878 0.81252,0.443192 1.458841,1.015649 1.938967,1.71737 0.480125,0.664789 0.627855,1.551174 0.443192,2.659155 1.403443,0.03694 2.899217,0.313929 4.487324,0.830986 1.588107,0.517058 3.010015,1.311112 4.265728,2.38216 z M 59.84445,52.192256 58.958065,51.195073 c -0.553991,-0.664789 -1.274178,-1.551174 -2.160563,-2.659155 -0.886385,-1.107982 -1.846635,-2.326761 -2.880751,-3.656338 -0.997184,-1.366511 -1.938968,-2.751487 -2.825353,-4.15493 -0.332394,0.03694 -0.720187,0.0554 -1.16338,0.0554 -0.443192,0 -0.830986,0.03694 -1.16338,0.110798 -0.03694,0.110799 -0.12926,0.25853 -0.276995,0.443193 -0.25853,0.443192 -0.517058,0.923318 -0.775587,1.440375 -0.25853,0.517058 -0.332395,0.96025 -0.221596,1.329578 0.701721,0.295461 1.440375,0.701722 2.215962,1.218779 0.775587,0.517058 1.384976,1.16338 1.828169,1.938967 0.480126,0.775587 0.627855,1.680438 0.443192,2.714554 0.96025,-0.03694 1.975901,0.12926 3.046949,0.498592 1.071048,0.332394 2.068231,0.683254 2.991549,1.052582 0.369327,0.147731 0.701722,0.276995 0.997183,0.387793 0.295461,0.110798 0.572457,0.203131 0.830986,0.276995 z M 47.49046,50.585683 c 0.07386,-0.664789 0,-1.56964 -0.221597,-2.714554 -0.184663,-1.181846 -0.480125,-2.234428 -0.886385,-3.157746 l -3.933333,5.484506 c -0.258529,0.369328 -0.498591,0.701722 -0.720188,0.997184 1.071048,0 2.0313,-0.09234 2.880751,-0.276996 0.886385,-0.184663 1.846635,-0.295461 2.880752,-0.332394 z"
         aria-label="奔"
         style="-inkscape-font-specification:'Yuji Boku';display:inline;fill:#6f6f6f;fill-opacity:1;stroke-width:1.38498"
         id="path27"
         sodipodi:nodetypes="accsccsccscccssscccccscccscccccccccsccccccsscsccscsccsscccacccaccccscsccscccccscscccccscsccscccccccscsscccccccccccccscccsccscccsccsccscscccssccccccccc" /><path
         d="M 75.158022,58.396466 C 71.48122,64.392255 64.38457,55.182279 61.114741,52.779529 c -0.664788,0.147731 -1.413057,0.446358 -2.077845,0.520223 -0.627856,0.03694 -1.255713,0.0554 -1.883568,0.0554 -0.849452,0 -1.680438,0.0554 -2.492958,0.166197 -0.81252,0.07386 -1.869126,0.01949 -2.38216,0.664789 -0.770729,0.969444 0.12926,2.492958 -0.166197,3.711737 -0.295461,1.218779 -0.886385,2.12363 -1.77277,2.714554 -0.664788,-0.110798 -1.144914,-0.443192 -1.440375,-0.997183 -0.25853,-0.553991 -0.40626,-1.200313 -0.443193,-1.938967 -0.03694,-0.738654 -0.03694,-1.458842 0,-2.160563 0,0 0.221596,-0.794055 0,-0.941784 C 48.234079,54.4262 47.513891,54.112273 46.959901,54.07534 46.40591,54.00148 45.833454,53.964542 45.24253,53.964542 h -0.276996 c -0.701721,0 -1.384976,-0.09234 -2.049765,-0.276995 -0.664788,-0.184663 -1.181846,-0.627856 -1.551173,-1.329578 -3.249707,2.54736 -5.884185,5.922372 -9.417841,8.088263 -2.030363,0.846239 -4.247725,0.329518 -6.370892,0.166197 0,-0.332394 0.25853,-0.553991 0.775587,-0.664789 5.497378,-2.021599 9.766087,-7.828412 13.129578,-12.464788 0.664788,-0.96025 1.384976,-1.957433 2.160563,-2.991549 0.775587,-1.034117 1.329577,-2.105165 1.661972,-3.213146 -0.443193,-0.184663 -0.997183,-0.221596 -1.661972,-0.110798 -0.627856,0.110798 -1.274179,0.258529 -1.938967,0.443193 -0.627856,0.184663 -1.237245,0.332394 -1.828169,0.443192 -0.590924,0.110798 -1.126447,0.12926 -1.606573,0.0554 0.03694,-0.553991 -0.110798,-1.015649 -0.443192,-1.384976 -0.332395,-0.40626 -0.701722,-0.794053 -1.107982,-1.163381 -0.443192,-0.406259 -0.867919,-0.830986 -1.274178,-1.274178 -0.406259,-0.480126 -0.60939,-1.089515 -0.60939,-1.828169 0.517058,-0.110798 1.034117,-0.09234 1.551174,0.0554 0.553991,0.147731 1.107981,0.313928 1.661972,0.498592 l 1.218779,0.443192 c 0.443193,0.110798 0.886385,0.184663 1.329578,0.221596 0.517057,0.03694 1.181846,0.0554 1.994366,0.0554 0.81252,0 1.588107,-0.03694 2.32676,-0.110798 0.775587,-0.110798 1.329578,-0.240062 1.661972,-0.387793 0.443193,-0.221596 0.720188,-0.664789 0.830986,-1.329578 0.147731,-0.701722 0.184663,-1.458841 0.110798,-2.271361 -0.03694,-0.81252 -0.12926,-1.551174 -0.276995,-2.215963 -0.03694,-0.147731 -0.110798,-0.313928 -0.221596,-0.498591 -0.07386,-0.221596 -0.166198,-0.443193 -0.276996,-0.664789 -0.221596,-0.443192 -0.443192,-0.923318 -0.664788,-1.440375 -0.221597,-0.517058 -0.332395,-0.997183 -0.332395,-1.440376 -4.4e-4,-0.267231 -0.02234,-0.502137 0.163257,-0.571052 1.554589,-0.577244 2.819368,1.817024 4.157873,2.731615 1.292644,0.849452 2.220006,2.022447 3.032526,3.352024 -0.369327,0.480126 -0.465704,1.024502 -0.539569,1.800089 -0.07386,0.775587 -0.147731,1.366511 -0.221596,1.77277 0.886385,0.03694 1.77277,0.01846 2.659155,-0.0554 l 2.659155,-0.221596 c 0.738653,-0.110798 1.477309,-0.184663 2.215962,-0.221597 0.738654,-0.07386 1.477309,-0.110798 2.215963,-0.110798 1.071048,0 2.12363,0.110798 3.157746,0.332395 1.034116,0.221596 2.012832,0.646322 2.93615,1.274178 0.443193,0.590924 0.590924,1.034116 0.443193,1.329577 -0.147732,0.25853 -0.350861,0.498592 -0.60939,0.720188 -0.07386,0.110798 -0.189911,0.1797 -0.276995,0.276996 -0.07886,0.0881 -0.147732,0.166197 -0.221597,0.276995 -1.588106,-0.110798 -3.305477,-0.147731 -5.152112,-0.110798 -1.809703,0 -3.478123,0.131669 -5.21396,0.353264 6.096672,7.759403 23.682309,12.098834 20.005506,18.094623 z m -4.70892,4.819718 c 0.0832,0.123471 0.09242,0.350637 0.0554,0.443192 -0.03703,0.09256 -0.129592,0.172125 -0.221596,0.221597 -0.813373,0.437357 -1.765178,0.565134 -2.714554,0.55399 -0.738654,-0.03694 -1.47896,-0.07737 -2.215962,-0.166197 L 63.453827,64.03991 c -0.701722,-0.03694 -1.838822,-0.04428 -2.614409,0.06652 -0.07386,0.701722 0.08105,1.621172 0.08105,2.433692 0,0.775587 0.01846,1.551174 0.0554,2.32676 l 0.05144,1.21878 c 0.01565,0.37084 0.004,0.757121 0.004,1.16338 0,1.514241 -0.12926,2.93615 -0.387793,4.265728 -0.221597,1.36651 -0.710349,3.138458 -1.717371,3.213145 -1.007022,0.07469 -1.144915,-0.941784 -1.440376,-1.938967 -0.295461,-0.96025 -0.480125,-2.031299 -0.55399,-3.213145 -0.07386,-1.144915 -0.12926,-2.105165 -0.166198,-2.880752 0,0 -0.0096,-0.923417 0,-1.384976 0.0093,-0.443481 0.01846,-0.886385 0.0554,-1.329577 0.03694,-0.664789 0.0554,-1.292645 0.0554,-1.883569 0,-0.590923 0.171762,-1.291004 0.0979,-1.808061 -1.034117,-0.25853 -2.387729,-0.415874 -3.643442,-0.305076 -1.218779,0.07386 -2.244922,0.539452 -3.767136,0.561964 l -2.362052,-0.008 c -0.701722,0.07386 -1.257352,0.340368 -1.959074,0.340368 0.04081,3.66034 -1.464821,6.876602 -3.434742,9.861032 -0.258529,0.369328 -0.590924,0.720188 -0.997183,1.052582 -0.406259,0.332395 -0.923318,0.720188 -1.551174,1.163381 -0.03694,-0.03694 -0.147731,-0.03694 -0.332394,0 -0.147731,0.03694 -0.295461,0.0554 -0.443193,0.0554 -0.110798,0 -0.221596,-0.09234 -0.332394,-0.276996 0.07386,-0.332394 0.184663,-0.720187 0.332394,-1.16338 0.184663,-0.443192 0.369328,-0.904851 0.553991,-1.384976 0.480126,-1.255713 0.941784,-2.640689 1.384976,-4.15493 0.480126,-1.51424 0.61302,-4.420798 0.61302,-4.420798 0,0 -0.915899,0.13282 -1.359091,0.354413 -0.406259,0.221596 -0.845665,0.280902 -1.141127,0.576364 -1.51424,-0.25853 -2.792048,-0.631724 -3.715367,-1.444244 -0.923318,-0.81252 -1.654711,-1.850146 -2.430298,-2.773464 0.295461,-0.07386 0.653621,-0.04439 0.912151,-0.04439 2.05659,-0.225007 4.04962,-0.204381 6.123529,-0.336143 0.693421,0.0015 1.529969,-0.06594 1.887318,-0.177207 0.01487,-0.642692 0.298848,-1.388606 -0.181074,-1.824538 -0.383951,-0.554024 -0.598247,-1.100636 -0.930642,-1.654626 l -0.664788,-0.997183 c -0.184664,-0.369328 -0.277075,-0.841955 -0.424806,-1.211283 0.886385,-0.184663 1.890987,0.06997 3.072834,0.365421 1.218779,0.295461 2.278621,0.794133 2.94341,1.643585 0.701722,0.886385 0.602287,1.887394 0.23296,3.253905 1.735836,0 3.825416,0.15466 5.561252,0.0069 1.77277,-0.184663 3.614598,-0.27219 5.608964,-0.346054 0.07386,-0.738654 -0.171762,-1.6812 -0.319497,-2.49372 -0.110799,-0.849452 -0.240063,-1.643506 -0.387794,-2.382159 -0.07386,-0.443193 -0.147731,-0.86792 -0.221596,-1.274179 -0.07386,-0.406259 -0.110798,-0.757121 -0.110798,-1.052582 l 0.664789,0.332394 c 0.221596,0.07386 0.443192,0.166198 0.664788,0.276996 0.849452,0.369327 1.680438,0.775586 2.492958,1.218779 0.81252,0.443192 1.458841,1.015649 1.938967,1.717371 0.480126,0.664789 0.377416,1.885093 0.192753,2.993074 1.403442,0.03694 3.107916,0.146968 4.696023,0.664026 1.588107,0.517057 3.805598,0.680616 4.307468,2.2152 l -3e-6,6e-6 z M 60.588069,51.970175 59.701684,50.972992 c -0.55399,-0.664789 -1.190698,-1.613783 -2.077083,-2.721764 -0.886385,-1.107982 -1.930115,-2.264152 -2.964231,-3.593729 -0.997183,-1.366511 -1.938967,-2.751487 -2.825352,-4.15493 -0.332394,0.03694 -0.720188,-0.06982 -1.16338,-0.06982 -0.443193,0 -0.830986,0.162157 -1.163381,0.236018 -0.03694,0.110798 -0.129259,0.258529 -0.276995,0.443192 -0.258529,0.443193 -0.517057,0.923318 -0.775587,1.440376 -0.258529,0.517057 -0.332394,0.96025 -0.221596,1.329577 0.701722,0.295461 1.440376,0.701722 2.215962,1.218779 0.775587,0.517058 1.384977,1.163381 1.828169,1.938968 0.480126,0.775586 0.293937,1.889137 0.109275,2.923253 0.96025,-0.03694 2.30982,-0.07944 3.380868,0.289892 1.071048,0.332394 2.068231,0.683255 2.991549,1.052582 0.369327,0.147731 0.701722,0.276995 0.997183,0.387794 0.295461,0.110798 0.572456,0.20313 0.830986,0.276995 z m -12.35399,-1.606573 c 0.575948,-0.70178 0,-1.56964 -0.221596,-2.714554 -0.184663,-1.181846 -0.480126,-2.234428 -0.886385,-3.157746 l -3.933333,5.484507 c -0.25853,0.369327 -0.498592,0.701721 -0.720188,0.997183 1.071048,0 2.031299,-0.09234 2.880751,-0.276996 0.886385,-0.184663 2.267525,0.414808 2.880751,-0.332394 z"
         aria-label="奔"
         style="-inkscape-font-specification:'Yuji Boku';display:inline;fill:#4f4f4f;fill-opacity:1;stroke-width:1.38498"
         id="path28"
         sodipodi:nodetypes="zccscasccsczcssscccccscccscccccccccsccccccsscaccscsccsscccaccczczacscsccsccsccsascccccssccscccccccscssccccccccccccscccsccscaccacsccscscccssccccacccccac" /><path
         d="m 65.597,53.226 c -1.904141,3.105097 -8.030868,-2.376928 -10.391795,-4.111795 -0.48,0.106667 -0.768205,0.378462 -1.248205,0.431795 -0.453333,0.02667 -0.906667,0.04 -1.36,0.04 -0.613333,0 -1.213333,0.04 -1.8,0.12 -0.586667,0.05333 -1.16,0.213333 -1.72,0.48 0.133333,0.906667 0.09333,1.8 -0.12,2.68 -0.213333,0.88 -0.64,1.533333 -1.28,1.96 -0.48,-0.08 -0.826667,-0.32 -1.04,-0.72 -0.186667,-0.4 -0.293333,-0.866667 -0.32,-1.4 -0.02667,-0.533333 -0.02667,-1.053333 0,-1.56 v -0.68 c -0.32,-0.213333 -0.68,-0.333333 -1.08,-0.36 -0.4,-0.05333 -0.813333,-0.08 -1.24,-0.08 h -0.2 c -0.506667,0 -1,-0.06667 -1.48,-0.2 -0.48,-0.133333 -0.898539,-0.604021 -1.165206,-1.110688 -1.803921,2.683133 -2.99787,3.130923 -5.549289,4.69477 -1.465991,0.611013 -3.820443,1.29274 -5.805505,1.415918 1.555472,-0.457514 9.535545,-4.422671 12.8,-13.96 -0.32,-0.133333 -0.72,-0.16 -1.2,-0.08 -0.453333,0.08 -0.92,0.186667 -1.4,0.32 -0.453333,0.133333 -0.893333,0.24 -1.32,0.32 -0.426667,0.08 -0.813333,0.09333 -1.16,0.04 0.02667,-0.4 -0.08,-0.733333 -0.32,-1 -1.148165,-0.947569 -1.796359,-2.236593 -2.692763,-3.378347 2.474704,0.850261 -0.501062,0.05997 3.732763,1.018347 0.32,0.08 0.64,0.133333 0.96,0.16 0.373333,0.02667 0.853333,0.04 1.44,0.04 0.586667,0 1.146667,-0.02667 1.68,-0.08 0.56,-0.08 0.96,-0.173333 1.2,-0.28 0.32,-0.16 0.52,-0.48 0.6,-0.96 0.106667,-0.506667 0.133333,-1.053333 0.08,-1.64 -0.02667,-0.586667 -0.09333,-1.12 -0.2,-1.6 -0.02667,-0.106667 -0.08,-0.226667 -0.16,-0.36 -0.05333,-0.16 -0.12,-0.32 -0.2,-0.48 -0.16,-0.32 -0.32,-0.666667 -0.48,-1.04 -0.16,-0.373333 -0.24,-0.72 -0.24,-1.04 -3.18e-4,-0.19295 -0.01924,-0.314092 0.05625,-0.393563 1.062014,0.317084 2.097306,1.293197 3.063752,1.953563 0.933333,0.613333 1.693333,1.4 2.28,2.36 -0.266667,0.346667 -0.788946,1.055726 -0.842279,1.615726 -0.05333,0.56 0.08513,1.050599 0.0318,1.343932 0.64,0.02667 1.448367,-0.37105 2.090484,-0.359658 l 1.792137,0.0318 c 0.533333,-0.08 1.407635,-0.04809 1.940968,-0.07476 0.533333,-0.05333 1.087978,-0.05869 1.621311,-0.05869 0.773333,0 1.298917,-0.218347 2.045584,-0.05835 0.746667,0.16 1.453333,0.466667 2.12,0.92 0.32,0.426667 0.426667,0.746667 0.32,0.96 -0.106667,0.186667 -0.253333,0.36 -0.44,0.52 -0.05333,0.08 -0.137122,0.129749 -0.2,0.2 -0.05694,0.06361 -0.106667,0.12 -0.16,0.2 -1.146667,-0.08 -2.386667,-0.106667 -3.72,-0.08 -1.306667,0 -2.927635,0.165242 -4.180968,0.325242 1.937281,2.46563 5.382912,5.009615 8.765136,6.38493 4.315807,1.754939 8.002552,3.500522 6.09583,6.609828 z m -3.4,3.48 c 0.05333,0.133333 0.06667,0.24 0.04,0.32 -0.632589,0.615964 -1.044085,0.311746 -2.025666,0.218041 -3.128398,-0.298647 -2.747785,-0.898898 -5.044272,0.05688 -0.230206,0.465396 -0.363001,1.300959 -0.363001,1.887626 0.07353,2.908153 -0.07093,6.611846 -0.927061,8.717458 -0.48,-0.213333 -0.826667,-0.68 -1.04,-1.4 -0.213333,-0.693333 -0.346667,-1.466667 -0.4,-2.32 -0.05333,-0.826667 -0.09333,-1.52 -0.12,-2.08 v -1 c 0,-0.32 0.01333,-0.64 0.04,-0.96 0.02667,-0.48 0.04,-0.933333 0.04,-1.36 0,-0.426667 -0.02667,-0.826667 -0.08,-1.2 -3.137087,-0.773562 -5.620304,0.263155 -8.32,0.319995 -0.05333,1.733333 -0.346667,3.16 -0.88,4.28 -0.533333,1.12 -1.066667,2.066667 -1.6,2.84 -0.186667,0.266667 -0.426667,0.52 -0.72,0.76 -0.293333,0.24 -0.666667,0.52 -1.12,0.84 -0.02667,-0.02667 -0.106667,-0.02667 -0.24,0 -0.106667,0.02667 -0.213333,0.04 -0.32,0.04 -0.08,0 -0.16,-0.06667 -0.24,-0.2 0.05333,-0.24 0.133333,-0.52 0.24,-0.84 0.133333,-0.32 0.266667,-0.653333 0.4,-1 0.346667,-0.906667 0.68,-1.906667 1,-3 0.346667,-1.093333 0.48,-2.146667 0.4,-3.16 -0.32,-0.05333 -0.64,0 -0.96,0.16 -0.293333,0.16 -0.546667,0.346667 -0.76,0.56 C 38.103667,58.999333 37.494906,58.311291 36.828239,57.724624 36.161572,57.137957 35.277,56.812667 34.717,56.146 c 0.213333,-0.05333 0.413333,-0.08 0.6,-0.08 1.484928,-0.162463 2.982567,-0.184863 4.48,-0.28 0.266667,-0.05333 0.52,-0.08 0.76,-0.08 0.24,-0.02667 1.025948,0.365119 1.212615,0.391789 C 41.849615,55.591122 41.21033,54.746 40.997,54.346 c -0.186667,-0.4 -0.791789,-2.337019 -1.031789,-2.737019 l 2.123303,0.04661 c 0.88,0.213333 1.228486,0.71708 1.708486,1.330413 0.506667,0.64 0.626667,1.453333 0.36,2.44 1.253333,0 2.747768,0.248046 4.001101,0.141376 1.28,-0.133333 2.398899,-0.528043 3.838899,-0.581376 0.05333,-0.533333 0.02667,-1.093333 -0.08,-1.68 -0.08,-0.613333 -0.173333,-1.186667 -0.28,-1.72 -0.05333,-0.32 -0.106667,-0.626667 -0.16,-0.92 -0.05333,-0.293333 -0.08,-0.546667 -0.08,-0.76 l 0.48,0.24 c 0.16,0.05333 0.32,0.12 0.48,0.2 0.613333,0.266667 1.213333,0.56 1.8,0.88 0.586667,0.32 1.053333,0.733333 1.4,1.24 0.346667,0.48 0.453333,1.12 0.32,1.92 1.013333,0.02667 2.093333,0.226667 3.24,0.6 1.146667,0.373333 2.173333,0.946667 3.08,1.72 z m -9.32,-10.76 c -0.64,-0.8 -1.182645,-1.875895 -1.929312,-2.835895 -0.72,-0.986667 -1.294518,-1.851047 -1.934518,-2.86438 -0.24,0.02667 -0.77617,0.100275 -1.09617,0.100275 -0.32,0 -0.6,0.02667 -0.84,0.08 -0.02667,0.08 -0.09333,0.186667 -0.2,0.32 -0.186667,0.32 -0.373333,0.666667 -0.56,1.04 -0.186667,0.373333 -0.24,0.693333 -0.16,0.96 0.506667,0.213333 1.04,0.506667 1.6,0.88 0.681425,0.454283 1.576772,1.565972 1.64,3.36 1.273331,-0.0091 1.55453,0.327746 2.327863,0.594416 0.773333,0.24 1.36547,0.258917 2.032137,0.525584 0.266667,0.106667 0.805014,0.540968 1.018347,0.620968 C 54.440109,47.626083 53.583822,46.827232 52.877,45.946 Z m -5.96656,1.90193 c 0.0024,-0.02197 0.08973,-1.026344 -0.239956,-2.047759 C 46.331399,44.74963 45.572144,43.674965 45.357,43.186 c -0.260563,0.114069 -3.164487,4.356429 -3.36,4.68 0.773333,0 1.466667,-0.06667 2.08,-0.2 0.64,-0.133333 2.086773,0.208594 2.83344,0.181927 z"
         aria-label="奔"
         style="-inkscape-font-specification:'Yuji Boku';display:inline;fill:#2f2f2f;fill-opacity:1"
         transform="matrix(1.45787,0,0,1.45787,-19.358,-18.55)"
         id="path29"
         sodipodi:nodetypes="cccsccsccscccsssccccccscccccsccccccsscsccscsccsscccacccsscccsccccscsccccsccscccccccscsscccccccccccscccsccsccccsccscsccsccccscccccsc" /><path
         id="path49"
         style="font-size:40px;-inkscape-font-specification:'Yuji Boku';white-space:pre;display:inline;fill:#040404;fill-opacity:1;stroke-width:1.32091"
         d="m 46.885151,43.034766 -0.002,0.0078 0.0039,0.002 z m 0.414579,1.092818 0.544453,3.655263 c 0.203326,1.135015 0.272851,2.032364 0.205078,2.691407 -3.878014,0.785441 -4.973659,1.170612 -6.880859,1.433594 0.0793,0.713068 1.32969,1.660194 1.999995,1.861364 0.609985,0.183066 1.236989,0.27539 1.88086,0.27539 1.044359,0 1.43597,0.05261 1.830078,0.109375 0.508319,0.03664 0.966394,0.201232 1.373047,0.494141 -0.0073,2.386157 -0.03091,4.790648 1.595703,6.65039 2.314208,-1.666881 2.002426,-6.369662 1.912109,-7.033203 0.711648,-0.366137 1.440009,-0.586937 2.185547,-0.660156 0.745532,-0.109844 1.50769,-0.164062 2.287109,-0.164062 0.576099,0 1.152423,-0.01808 1.728516,-0.05469 0.609587,-0.07323 2.164862,-0.497803 2.703126,-0.632812 -0.707278,-0.707278 -4.825637,-2.785044 -8.500041,-2.882906 0.169437,-1.025179 0.03621,-1.922522 -0.404297,-2.691406 -0.406655,-0.768881 -0.966084,-1.409282 -1.677734,-1.921875 z m 8.351093,11.643545 -0.07813,0.0059 c 0.0031,0.25164 0.04108,0.544729 0.115235,0.884766 0.07758,0.356723 0.154705,0.728031 0.232421,1.117187 0.15546,0.648595 0.289655,1.347866 0.40625,2.09375 0.155447,0.713454 0.194904,1.392422 0.117188,2.041016 -2.098637,0.06482 -4.079845,0.179651 -5.945313,0.341797 -1.826598,0.129725 -3.653871,0.195312 -5.480468,0.195312 0.388646,-1.199895 0.213018,-2.188486 -0.525391,-2.966797 -0.699545,-0.74588 -1.688191,-1.248372 -2.970703,-1.507812 -1.243611,-0.259438 -2.33289,-0.310585 -3.265625,-0.148438 0.155476,0.324298 0.331082,0.650314 0.525391,0.97461 l 0.699218,0.875 c 0.349762,0.486443 0.659598,0.972536 0.931641,1.458984 0.310907,0.486445 0.409575,1.038135 0.292969,1.654297 -0.272044,-0.03241 -0.583813,-0.03241 -0.933594,0 -0.349779,0 -0.718773,0.03283 -1.107422,0.09766 -2.182359,0.115697 -4.363233,0.142269 -6.527344,0.339844 -0.272042,0 -0.564088,0.03282 -0.875,0.09766 0.816128,0.810736 1.710069,1.573657 2.681641,2.28711 0.971596,0.713454 2.252279,1.183148 3.845703,1.410156 0.310911,-0.259435 0.681858,-0.487066 1.109375,-0.681641 0.466348,-0.194578 0.932051,-0.260163 1.398438,-0.195312 -0.24423,4.424988 -1.797064,8.584607 -2.78711,12.978515 0.449812,-0.390303 5.235286,-7.123392 5.994141,-8.453125 0.777259,-1.36205 1.203539,-3.097151 1.28125,-5.205078 0.738411,0 1.476441,-0.03282 2.214844,-0.09766 l 2.332031,-0.193359 c 1.360248,-0.129715 2.682343,-0.228118 3.964844,-0.292969 1.321357,-0.09729 2.525107,-0.03174 3.613281,0.195312 0.07758,0.454016 0.117187,0.940113 0.117187,1.458985 0,0.518877 -0.0196,1.070561 -0.05859,1.654297 -0.03899,0.389155 -0.05859,0.778813 -0.05859,1.167968 v 1.214844 c 0.03899,0.681018 0.09792,1.523979 0.175781,2.529297 0.0016,0.02175 1.294909,7.626827 1.974609,7.878906 2.788198,-4.279402 2.075643,-9.357586 1.990235,-14.033203 0,-0.713452 0.08837,-1.463918 0.166015,-2.080078 0.816137,-0.09729 1.775276,-0.0676 2.513672,-0.03516 l 2.214844,0.0957 c 0.777261,0.06481 1.554765,0.116 2.332031,0.148437 0.99901,0.0099 2.197261,0.156355 2.857422,-0.488281 0.116606,-0.06482 0.193552,-0.12851 0.232422,-0.193359 0.039,-0.09728 0.01937,-0.226523 -0.05859,-0.388672 -1.321382,-0.940458 -2.81715,-1.639736 -4.488281,-2.09375 -1.671137,-0.454014 -3.243883,-0.696085 -4.720703,-0.728516 0.194321,-0.972889 0.03856,-1.752205 -0.466797,-2.335937 -0.505244,-0.616265 -1.186066,-1.11873 -2.041069,-1.507886 C 58.73718,56.952231 57.863,56.59539 56.969136,56.271094 56.735975,56.173814 56.503096,56.093756 56.269917,56.028906 Z M 43.752339,26.814062 c -0.0046,0.008 -0.0079,0.02743 -0.0078,0.06055 0,0.439364 0.288865,1.723741 0.492188,2.236328 0.20333,0.512587 0.40605,0.986419 0.609375,1.425782 0.101661,0.219682 0.186132,0.440475 0.253906,0.660156 0.101662,0.183065 0.171197,0.349645 0.205078,0.496094 0.135563,0.659044 0.218065,1.389815 0.251953,2.195312 0.06773,0.805497 0.03402,1.556298 -0.101562,2.251953 -0.101665,0.659044 -0.355057,1.098679 -0.761719,1.31836 -0.304986,0.14645 -0.813741,0.272971 -1.525391,0.382812 -0.677756,0.07327 -1.38728,0.111328 -2.132812,0.111328 -0.745529,0 -1.357598,-0.01813 -1.832031,-0.05469 -0.406649,-0.03664 -0.814049,-0.108911 -1.220704,-0.21875 l -1.1172,-0.439453 c -0.508325,-0.183072 -1.017078,-0.347681 -1.525391,-0.494141 -0.474434,-0.146456 -2.377131,-0.53958 -2.851562,-0.429687 0,0.732273 0.994422,2.082623 1.367187,2.558593 0.37276,0.439363 1.319914,0.923426 1.726563,1.326172 0.37277,0.366136 0.775082,0.314043 1.080078,0.716797 0.304987,0.36613 0.442097,0.825797 0.408203,1.375 0.440543,0.07328 0.930447,0.05312 1.472656,-0.05664 0.542207,-0.10984 1.101636,-0.256381 1.677735,-0.439453 0.60998,-0.183062 1.203197,-0.329612 1.779297,-0.439453 0.609978,-0.10984 1.116783,-0.07174 1.523437,0.111328 -1.013725,3.650892 -12.898643,16.640287 -14.112054,17.559255 -1.213411,0.918967 -1.995931,1.092805 -3.147712,1.731761 1.948131,0.161908 3.222966,0.799863 5.085938,-0.03906 7.525586,-5.488991 11.953547,-12.169181 17.576176,-20.841796 1.262969,-0.03462 1.329688,-0.07844 2.886719,0.03906 4.052859,9.318016 12.352794,16.005862 18.410155,18.949215 4.167013,1.860974 6.906344,0.896606 5.853516,-2.789063 -1.022226,-3.578533 -16.181334,-7.907275 -21.775391,-15.599609 4.25991,-0.07773 8.292567,-1.127212 12.425781,-2.095703 0.84675,-1.82969 -7.723762,-2.296875 -7.800781,-2.296875 -0.677762,0 -1.353493,0.03616 -2.03125,0.109375 -0.677757,0.03664 -1.355445,0.110863 -2.033203,0.220703 l -2.441407,0.21875 c -0.81331,0.07327 -1.626143,0.09133 -2.439453,0.05469 0.06773,-0.402747 0.133405,-0.988929 0.201172,-1.757812 0.06773,-0.768885 0.272449,-1.391215 0.611328,-1.867188 -0.74553,-1.318094 -1.710405,-2.398121 -2.896484,-3.240234 -1.228159,-0.906691 -2.544924,-2.246283 -3.894531,-2.681641 -0.08391,0.09548 -0.21782,-0.384159 -0.25,-0.328125 z m 11.898472,28.957073 -0.07813,0.0059 c 0.0031,0.25164 0.04108,0.544729 0.115235,0.884766 0.07758,0.356723 0.154705,0.728031 0.232421,1.117187 0.15546,0.648595 0.289655,1.347866 0.40625,2.09375 0.155447,0.713454 0.194904,1.392422 0.117188,2.041016 -2.098637,0.06482 -4.079845,0.179651 -5.945313,0.341797 -1.826598,0.129725 -3.653871,0.195312 -5.480468,0.195312 0.388646,-1.199895 0.213018,-2.188486 -0.525391,-2.966797 -0.699545,-0.74588 -1.688191,-1.248372 -2.970703,-1.507812 -1.243611,-0.259438 -2.33289,-0.310585 -3.265625,-0.148438 0.155476,0.324298 0.331082,0.650314 0.525391,0.97461 l 0.699218,0.875 c 0.349762,0.486443 0.659598,0.972536 0.931641,1.458984 0.310907,0.486445 0.409575,1.038135 0.292969,1.654297 -0.272044,-0.03241 -0.583813,-0.03241 -0.933594,0 -0.349779,0 -0.718773,0.03283 -1.107422,0.09766 -2.182359,0.115697 -4.363233,0.142269 -6.527344,0.339844 -0.272042,0 -0.564088,0.03282 -0.875,0.09766 0.816128,0.810736 1.710069,1.573657 2.681641,2.28711 0.971596,0.713454 2.252279,1.183148 3.845703,1.410156 0.310911,-0.259435 0.681858,-0.487066 1.109375,-0.681641 0.466348,-0.194578 0.932051,-0.260163 1.398438,-0.195312 -0.24423,4.424988 -1.797064,8.584607 -2.78711,12.978515 0.449812,-0.390303 5.235286,-7.123392 5.994141,-8.453125 0.777259,-1.36205 1.203539,-3.097151 1.28125,-5.205078 0.738411,0 1.476441,-0.03282 2.214844,-0.09766 l 2.332031,-0.193359 c 1.360248,-0.129715 2.682343,-0.228118 3.964844,-0.292969 1.321357,-0.09729 2.525107,-0.03174 3.613281,0.195312 0.07758,0.454016 0.117187,0.940113 0.117187,1.458985 0,0.518877 -0.0196,1.070561 -0.05859,1.654297 -0.03899,0.389155 -0.05859,0.778813 -0.05859,1.167968 v 1.214844 c 0.03899,0.681018 0.09792,1.523979 0.175781,2.529297 0.0016,0.02175 1.294909,7.626827 1.974609,7.878906 2.788198,-4.279402 2.075643,-9.357586 1.990235,-14.033203 0,-0.713452 0.08837,-1.463918 0.166015,-2.080078 0.816137,-0.09729 1.775276,-0.0676 2.513672,-0.03516 l 2.214844,0.0957 c 0.777261,0.06481 1.554765,0.116 2.332031,0.148437 0.99901,0.0099 2.197261,0.156355 2.857422,-0.488281 0.116606,-0.06482 0.193552,-0.12851 0.232422,-0.193359 0.039,-0.09728 0.01937,-0.226523 -0.05859,-0.388672 -1.321382,-0.940458 -2.81715,-1.639736 -4.488281,-2.09375 -1.671137,-0.454014 -3.243883,-0.696085 -4.720703,-0.728516 0.194321,-0.972889 0.03856,-1.752205 -0.466797,-2.335937 C 61.128007,58.233027 60.447185,57.730562 59.592182,57.341406 58.73718,56.952231 57.863,56.59539 56.969136,56.271094 c -0.233161,-0.09728 -0.46604,-0.177338 -0.699219,-0.242188 z"
         sodipodi:nodetypes="ccccccccsscccccsccccccccccccccccccccccccccccccccccccscscccccccccccsccccccsccsccccccsccccccccccccczcccccsccsccccccccssccccccccccccccccccccccccccccccscscccccccccccscccccc"
         inkscape:label="path30" /></g></g></svg>
