<?xml version="1.0" encoding="UTF-8" standalone="no"?>
<!-- Created with Inkscape (http://www.inkscape.org/) -->

<svg
   viewBox="0 0 39.200001 39.200001"
   version="1.1"
   id="svg1"
   inkscape:version="1.3.2 (091e20e, 2023-11-25, custom)"
   sodipodi:docname="Rook.svg"
   xml:space="preserve"
   xmlns:inkscape="http://www.inkscape.org/namespaces/inkscape"
   xmlns:sodipodi="http://sodipodi.sourceforge.net/DTD/sodipodi-0.dtd"
   xmlns="http://www.w3.org/2000/svg"
   xmlns:svg="http://www.w3.org/2000/svg"><sodipodi:namedview
     id="namedview1"
     pagecolor="#ffffff"
     bordercolor="#111111"
     borderopacity="1"
     inkscape:showpageshadow="0"
     inkscape:pageopacity="0"
     inkscape:pagecheckerboard="1"
     inkscape:deskcolor="#d1d1d1"
     inkscape:document-units="mm"
     showguides="true"
     inkscape:zoom="14.005102"
     inkscape:cx="19.564299"
     inkscape:cy="19.6"
     inkscape:window-width="1292"
     inkscape:window-height="745"
     inkscape:window-x="-8"
     inkscape:window-y="-8"
     inkscape:window-maximized="1"
     inkscape:current-layer="layer1"><inkscape:page
       x="0"
       y="0"
       width="39.200001"
       height="39.200001"
       id="page42"
       margin="0"
       bleed="0" /></sodipodi:namedview><defs
     id="defs1"><inkscape:path-effect
       effect="powerstroke"
       id="path-effect13"
       is_visible="true"
       lpeversion="1.3"
       scale_width="1"
       interpolator_type="CubicBezierJohan"
       interpolator_beta="0.2"
       start_linecap_type="zerowidth"
       end_linecap_type="zerowidth"
       offset_points="5,4.9921382"
       linejoin_type="extrp_arc"
       miter_limit="4"
       not_jump="false"
       sort_points="true"
       message="&lt;b&gt;Ctrl + click&lt;/b&gt; on existing node and move it" /><inkscape:path-effect
       effect="powerstroke"
       id="path-effect47"
       is_visible="true"
       lpeversion="1.3"
       scale_width="1"
       interpolator_type="CubicBezierJohan"
       interpolator_beta="0.2"
       start_linecap_type="zerowidth"
       end_linecap_type="zerowidth"
       offset_points="20,4.9921382"
       linejoin_type="extrp_arc"
       miter_limit="4"
       not_jump="false"
       sort_points="true"
       message="&lt;b&gt;Ctrl + click&lt;/b&gt; on existing node and move it" /><inkscape:path-effect
       effect="fill_between_many"
       method="bsplinespiro"
       autoreverse="false"
       close="false"
       join="false"
       linkedpaths="#path41,0,1"
       id="path-effect45" /><inkscape:path-effect
       effect="powerstroke"
       id="path-effect41"
       is_visible="true"
       lpeversion="1.3"
       scale_width="1"
       interpolator_type="CubicBezierJohan"
       interpolator_beta="0.2"
       start_linecap_type="zerowidth"
       end_linecap_type="zerowidth"
       offset_points="14,4.9921382"
       linejoin_type="extrp_arc"
       miter_limit="4"
       not_jump="false"
       sort_points="true"
       message="&lt;b&gt;Ctrl + click&lt;/b&gt; on existing node and move it" /><inkscape:path-effect
       effect="powerstroke"
       id="path-effect38"
       is_visible="true"
       lpeversion="1.3"
       scale_width="1"
       interpolator_type="CubicBezierJohan"
       interpolator_beta="0.2"
       start_linecap_type="zerowidth"
       end_linecap_type="zerowidth"
       offset_points="17,4.9921382"
       linejoin_type="extrp_arc"
       miter_limit="4"
       not_jump="false"
       sort_points="true"
       message="&lt;b&gt;Ctrl + click&lt;/b&gt; on existing node and move it" /><inkscape:path-effect
       effect="powerstroke"
       id="path-effect35"
       is_visible="true"
       lpeversion="1.3"
       scale_width="1"
       interpolator_type="CubicBezierJohan"
       interpolator_beta="0.2"
       start_linecap_type="zerowidth"
       end_linecap_type="zerowidth"
       offset_points="20,4.9921382"
       linejoin_type="extrp_arc"
       miter_limit="4"
       not_jump="false"
       sort_points="true"
       message="&lt;b&gt;Ctrl + click&lt;/b&gt; on existing node and move it" /><inkscape:path-effect
       effect="fill_between_many"
       method="bsplinespiro"
       autoreverse="false"
       close="false"
       join="false"
       linkedpaths="#path31,0,1"
       id="path-effect34"
       is_visible="true"
       lpeversion="0" /><inkscape:path-effect
       effect="powerstroke"
       id="path-effect31"
       is_visible="true"
       lpeversion="1.3"
       scale_width="1"
       interpolator_type="CubicBezierJohan"
       interpolator_beta="0.2"
       start_linecap_type="zerowidth"
       end_linecap_type="zerowidth"
       offset_points="15,4.9921382"
       linejoin_type="extrp_arc"
       miter_limit="4"
       not_jump="false"
       sort_points="true"
       message="&lt;b&gt;Ctrl + click&lt;/b&gt; on existing node and move it" /><inkscape:path-effect
       effect="fill_between_many"
       method="bsplinespiro"
       autoreverse="false"
       close="false"
       join="false"
       linkedpaths="#path31,0,1"
       id="path-effect32"
       is_visible="true"
       lpeversion="0" /><inkscape:path-effect
       effect="fill_between_many"
       method="bsplinespiro"
       autoreverse="false"
       close="false"
       join="false"
       linkedpaths="#path34,0,1"
       id="path-effect36"
       is_visible="true"
       lpeversion="0" /><inkscape:path-effect
       effect="fill_between_many"
       method="bsplinespiro"
       autoreverse="false"
       close="false"
       join="false"
       linkedpaths="#path38,0,1"
       id="path-effect39"
       is_visible="true"
       lpeversion="0" /><inkscape:path-effect
       effect="fill_between_many"
       method="bsplinespiro"
       autoreverse="false"
       close="false"
       join="false"
       linkedpaths="#path41,0,1"
       id="path-effect42" /><inkscape:path-effect
       effect="fill_between_many"
       method="bsplinespiro"
       autoreverse="false"
       close="false"
       join="false"
       linkedpaths="#path47,0,1"
       id="path-effect48" /></defs><g
     inkscape:label="Layer 1"
     inkscape:groupmode="layer"
     id="layer1"
     transform="matrix(0.96515663,0,0,1,-81.241443,-164.07177)"><path
       style="fill:#fff29e;fill-opacity:1;fill-rule:evenodd;stroke:none;stroke-width:0.366709;stroke-linecap:round;stroke-linejoin:round;paint-order:stroke fill markers"
       d="m 104.48195,167.07177 9.39222,2.94539 4.43973,27.05462 -27.663905,-4e-5 4.439742,-27.05462 z"
       id="path13"
       sodipodi:nodetypes="cccccc" /><path
       style="display:inline;fill:#938e5e;fill-opacity:1;fill-rule:evenodd;stroke:none;stroke-width:0.37897;stroke-linecap:round;stroke-linejoin:round;stroke-dasharray:none;stroke-opacity:1;paint-order:stroke fill markers"
       d="m 90.649997,197.07177 -3e-6,3.2 H 118.3139 v -3.2 z"
       id="path45" /><g
       id="g3792"
       transform="matrix(0.33688741,0,0,0.32514911,-131.77569,-59.039271)"
       style="display:inline"><path
         id="path3010"
         style="display:inline;fill:#cfcfcf"
         d="m 706.46726,717.4374 c -0.97412,0.0649 -2.05365,0.35925 -3.14305,0.92256 -1.74415,0.90193 -5.79776,1.8796 -9.00858,2.17075 -3.21082,0.29115 -5.83839,0.88232 -5.83839,1.31601 0,1.07432 4.99851,4.93392 6.39012,4.93392 1.95149,0 3.88377,5.92504 3.3149,10.16631 -0.58384,4.35283 -1.69686,6.13288 -2.46922,3.95708 -0.26846,-0.75625 -1.27676,-2.16316 -2.2431,-3.12949 -1.14469,-1.14474 -1.45556,-2.23362 -0.8909,-3.12496 2.37151,-3.74356 0.45698,-6.8695 -4.20582,-6.8695 -1.57527,0 -1.81636,0.47599 -1.29792,2.54158 0.71899,2.8647 -1.2046,5.57277 -6.10069,8.59704 l -2.99834,1.85418 h 2.99834 c 1.65,-10e-4 4.31701,-0.69043 5.92432,-1.52856 2.33965,-1.22011 3.08513,-1.2691 3.73548,-0.24421 1.964,3.09497 0.84444,4.70081 -4.34148,6.24088 -2.84983,0.84631 -6.13812,1.53761 -7.30817,1.53761 -1.17006,0 -3.00252,0.64515 -4.07014,1.42907 -1.87222,1.3747 -1.83783,1.4598 0.87734,2.49636 4.05538,1.54819 6.23741,1.34678 10.8718,-1.01754 l 4.10632,-2.09838 -1.89487,3.24254 c -2.68375,4.58311 -7.04754,7.69995 -8.60157,6.14592 -1.91826,-1.91826 -2.46309,-1.42471 -2.60489,2.34711 -0.16675,4.43556 1.87351,5.41805 6.16852,2.96668 5.26024,-3.00221 8.5188,-6.62481 10.2839,-11.42805 2.67312,-7.27423 3.3556,-7.01651 3.3556,1.28436 0,7.31226 -0.11607,7.72937 -1.99889,7.13179 -2.70561,-0.85873 -2.51767,0.46699 0.53816,3.76262 1.39726,1.50688 3.42203,2.74056 4.49977,2.74056 2.23826,0 2.44023,-1.46916 2.00794,-14.752 -0.22883,-7.03098 -0.0346,-8.24882 1.33862,-8.24882 1.26901,0 1.61449,1.07008 1.61449,5.04697 0,6.4601 2.22704,10.73158 6.53484,12.53152 6.46817,2.70257 15.51463,1.10997 16.28057,-2.86719 0.18429,-0.95697 -0.82165,-3.11886 -2.23858,-4.80277 -1.41692,-1.68392 -2.57775,-3.67707 -2.57775,-4.42741 0,-0.75034 -0.46929,-1.65061 -1.04015,-2.00341 -0.6802,-0.42037 -0.93487,1.19523 -0.74619,4.68971 0.26649,4.93544 0.10991,5.35844 -2.06673,5.66654 -6.77626,0.95916 -10.57758,-3.89126 -9.96733,-12.71694 l 0.32109,-4.61735 -3.80784,0.11759 -3.80332,0.1221 0.66931,-5.37259 c 0.66284,-5.3052 0.63276,-5.38285 -2.45113,-6.67955 l -3.12044,-1.31149 3.54102,-1.68685 c 1.94679,-0.92836 3.72496,-1.69137 3.95256,-1.69137 0.22759,0 0.5483,2.31918 0.71454,5.15099 0.24723,4.21143 0.78672,5.50514 2.94859,7.1137 3.37114,2.50844 12.28509,2.73825 14.64799,0.37536 1.45965,-1.4597 1.42376,-1.78834 -0.44772,-3.86663 -1.12457,-1.24883 -2.28483,-2.95817 -2.57776,-3.7988 -0.7968,-2.28664 -6.1261,-2.33743 -8.17194,-0.0769 -2.15719,2.38372 -0.67933,3.46724 2.88528,2.11195 3.49682,-1.32949 3.51841,-1.32573 3.51841,0.9904 0,1.65751 -0.66743,2.00341 -3.89377,2.00341 -4.22183,0 -5.10576,-1.05486 -5.10576,-6.0826 0,-2.70272 0.2759,-2.92082 3.74905,-2.93502 4.30558,-0.0176 6.81857,-1.25647 5.8203,-2.87171 -0.97302,-1.57438 -4.7431,-1.38006 -7.24937,0.37535 -1.95892,1.37208 -2.08671,1.34236 -1.62806,-0.41153 0.50963,-1.94884 -0.7801,-3.22041 -2.76317,-3.40988 -0.29747,-0.0284 -0.61142,-0.0307 -0.93614,-0.009 z m 11.26073,22.34508 c -2.1759,0 -6.25445,2.70048 -6.25445,4.1425 0,0.91642 7.78203,0.29022 8.87743,-0.71454 0.94953,-0.87097 -1.00803,-3.42796 -2.62298,-3.42796 z m -1.19391,7.22676 c -0.69702,-0.0164 -1.40886,0.0654 -2.05768,0.27135 -2.46691,0.78292 -2.59026,2.19107 -0.24873,2.82648 2.75232,0.74689 5.55486,0.28362 5.97406,-0.9904 0.36953,-1.12304 -1.57657,-2.05816 -3.66765,-2.10743 z" /><path
         id="path3008"
         style="display:inline;fill:#b0b0b0"
         d="m 706.38586,717.30173 c -0.86003,0.0461 -2.04368,0.535 -4.22842,1.50143 -2.54781,1.12702 -6.66946,2.08908 -9.15782,2.13908 -5.20026,0.10438 -5.58104,0.86402 -1.89036,3.76715 3.25816,2.56284 3.97125,2.56842 8.6287,0.0724 2.05237,-1.09995 4.18298,-1.99889 4.73493,-1.99889 0.55199,0 1.00397,2.04378 1.00397,4.54499 0,3.63334 0.53161,5.04146 2.6456,7.00065 2.09829,1.94467 3.71594,2.45113 7.81015,2.45113 2.92402,0 6.00074,-0.62359 7.10013,-1.43812 1.81847,-1.34729 1.83449,-1.52068 0.23064,-2.74961 -0.94163,-0.72146 -2.11724,-2.43736 -2.61393,-3.81236 -0.89891,-2.48848 -0.90542,-2.48279 -1.62806,0.80498 -0.69253,3.1508 -0.91715,3.28741 -4.82086,2.99834 -3.5413,-0.26225 -4.19215,-0.68557 -4.84346,-3.13853 -1.12913,-4.25217 -0.16497,-5.52448 4.44549,-5.86101 3.01334,-0.21995 4.24546,-0.78395 4.48621,-2.05316 0.40942,-2.15838 -2.2232,-2.30784 -5.99668,-0.33918 -1.93815,1.01117 -2.54935,1.06148 -2.21144,0.1809 0.25721,-0.6703 -0.37781,-1.98193 -1.41099,-2.91694 -0.88596,-0.80174 -1.42377,-1.19932 -2.2838,-1.1532 z m 9.68242,8.54277 c -1.0169,0.0597 -2.28269,0.69739 -3.73097,1.90393 l -2.36068,1.96723 2.99834,0.0181 c 3.61882,0.0217 6.0102,-1.31816 5.06959,-2.84005 -0.38387,-0.62111 -0.90814,-0.96749 -1.5557,-1.04015 -0.13491,-0.0151 -0.27531,-0.0179 -0.42058,-0.009 z m -17.74582,0.93614 c -1.94918,0 -2.54179,2.45207 -0.84569,3.50032 1.41098,0.87203 1.25132,10.22527 -0.18994,11.11601 -0.65504,0.40484 -1.37936,0.18077 -1.60544,-0.49746 -0.22608,-0.67824 -1.29832,-2.05989 -2.3833,-3.0707 -1.71064,-1.59375 -1.7982,-2.1142 -0.65574,-3.94351 1.72171,-2.75689 0.10641,-5.48808 -3.50485,-5.9198 -2.42434,-0.28983 -2.59224,-0.0815 -2.05768,2.59132 0.50205,2.51025 -5.7e-4,3.40826 -3.69026,6.5665 -3.70623,3.1724 -3.97785,3.6586 -2.04412,3.6586 1.22631,0 3.61813,-0.71954 5.3138,-1.5964 2.54758,-1.31736 3.23045,-1.35956 3.93447,-0.24873 2.52982,3.99166 -0.0139,5.97913 -10.03968,7.84633 -6.5089,1.21226 -7.17212,1.72234 -4.63544,3.57721 2.57671,1.88413 5.22993,1.74207 10.05325,-0.53817 2.19691,-1.03859 4.16076,-1.71832 4.36409,-1.51499 0.20333,0.20332 -0.57379,1.88956 -1.72302,3.74905 -2.22671,3.60285 -6.21704,6.01427 -8.50208,5.13742 -1.7767,-0.6818 -3.19812,4.42661 -1.65971,5.96502 0.78254,0.78254 2.35414,0.41455 5.60775,-1.31149 5.24083,-2.78025 9.17877,-7.08245 9.97637,-10.89441 0.73909,-3.53232 1.80853,-5.46139 3.30586,-5.9605 0.90886,-0.30296 1.15119,1.48676 0.93161,6.94185 -0.27663,6.87225 -0.44351,7.33957 -2.52801,7.26747 -2.35334,-0.0815 -2.26644,0.17895 1.62354,4.86608 0.81565,0.98287 2.18925,1.65231 3.04808,1.48786 1.28436,-0.24593 1.60805,-2.29324 1.84061,-11.53659 0.22852,-9.08268 0.56431,-11.23811 1.75016,-11.23811 1.08441,0 1.46977,1.24445 1.46977,4.76659 0,8.86861 4.81302,14.00584 13.28223,14.17766 4.49322,0.0912 9.7186,-2.53993 9.7186,-4.89322 0,-1.12807 -0.44253,-2.05316 -0.98136,-2.05316 -0.53882,0 -1.89859,-1.79778 -3.02095,-3.99778 -1.12236,-2.2 -2.17266,-4.00231 -2.33355,-4.00231 -0.16087,0 -0.26524,2.14052 -0.23064,4.75302 0.0627,4.73903 0.0552,4.7476 -3.51389,5.04698 -5.88394,0.49356 -8.38831,-2.32299 -8.58347,-9.65981 -0.20062,-7.54185 -0.76881,-8.50298 -4.59474,-7.73779 l -3.01643,0.606 0.64218,-4.67162 c 0.70297,-5.12868 -1.03669,-8.33474 -4.52238,-8.33474 z m 19.75375,13.50382 c -2.28304,0.0608 -6.60267,2.23422 -6.60267,3.56816 0,0.93544 6.29616,0.35178 8.25334,-0.76428 1.24993,-0.71275 0.8428,-2.05956 -0.81403,-2.69534 -0.22456,-0.0862 -0.51048,-0.11723 -0.83664,-0.10854 z m -1.04467,6.85141 c -0.6735,-0.0101 -1.40096,0.0691 -2.13456,0.25325 -2.83412,0.71132 -3.16124,2.04173 -0.66931,2.71795 2.72327,0.73901 5.55253,0.2862 5.9605,-0.95422 0.38105,-1.15875 -1.13611,-1.98656 -3.15663,-2.01698 z" /><path
         id="path3006"
         style="display:inline;fill:#8f8f8f"
         d="m 706.10547,717.62734 c -0.81138,0.0702 -1.81566,0.48669 -3.42796,1.28435 -2.06215,1.02027 -6.09839,1.97065 -8.96788,2.11196 -5.67297,0.27936 -6.03807,1.066 -1.91749,4.1425 l 2.69082,2.00793 4.52238,-2.19787 c 2.48787,-1.20872 4.96392,-2.19336 5.49921,-2.19336 0.53529,0 0.97231,1.93543 0.97231,4.30531 0,4.51215 1.15745,6.71014 4.49977,8.53825 2.87732,1.57377 10.78102,1.40069 13.05611,-0.28491 1.77601,-1.31583 1.80396,-1.54937 0.31657,-2.74961 -0.89412,-0.72146 -2.068,-2.15668 -2.60941,-3.18827 -0.90865,-1.73135 -1.03367,-1.68102 -1.61449,0.63313 -0.42917,1.70996 -1.50248,2.67594 -3.37822,3.03452 -5.61903,1.07414 -8.28901,-2.94349 -6.43083,-9.67337 0.86143,-3.11986 0.73257,-3.80401 -0.94517,-4.97914 -0.83629,-0.58576 -1.45433,-0.86165 -2.26572,-0.79142 z m 10.08943,2.38329 c -0.6515,0.0122 -1.48539,0.25814 -2.66368,0.7462 -1.6806,0.69613 -3.05713,1.66033 -3.05713,2.1436 0,1.16778 5.10391,1.09858 6.9916,-0.095 1.15039,-0.7273 1.22219,-1.21088 0.30752,-2.12551 -0.45734,-0.45733 -0.9268,-0.68156 -1.57831,-0.66932 z m -0.19446,6.23637 c -0.93358,0.0123 -2.09268,0.33254 -3.16566,1.03562 -1.29751,0.85015 -2.36069,1.75918 -2.36069,2.0215 0,1.12262 5.86006,0.35543 6.90568,-0.90447 1.11068,-1.33829 0.17664,-2.17316 -1.37933,-2.15265 z m -18.51914,0.68287 c -1.03286,0.10504 -1.14846,1.21804 -0.10854,3.16115 1.68415,3.14685 1.06071,11.08422 -0.89996,11.45519 -0.82598,0.15629 -1.9519,-0.7383 -2.50087,-1.98985 -1.28068,-2.91973 -3.08239,-2.05819 -2.70439,1.2934 0.34717,3.07777 -1.69472,4.22145 -10.71804,5.99668 -6.57412,1.29339 -7.43579,2.82525 -2.40138,4.26912 2.33455,0.66954 3.97509,0.37264 7.26747,-1.30696 2.33906,-1.19332 4.46814,-1.95363 4.7304,-1.69137 0.92198,0.92192 -2.59975,6.38502 -5.22334,8.1041 -1.45925,0.95614 -3.46717,1.52684 -4.46359,1.26627 -2.32046,-0.60681 -3.48134,3.22082 -1.56022,5.14194 1.14886,1.14891 2.08176,0.93977 5.96954,-1.33862 5.45638,-3.19768 8.75465,-7.48523 9.55579,-12.41393 0.37363,-2.29861 1.20061,-3.69263 2.31545,-3.90734 1.52194,-0.2931 1.7366,0.58492 1.7366,7.16797 0,6.85452 -0.18023,7.53181 -2.09839,7.82372 l -2.1029,0.32109 2.21596,2.79935 c 1.21713,1.54085 2.94827,2.65974 3.84855,2.48731 1.3784,-0.26401 1.68013,-2.07164 1.91749,-11.45519 0.21974,-8.68721 0.6056,-11.26924 1.75016,-11.70844 1.16783,-0.44815 1.46977,0.441 1.46977,4.34148 0,8.9182 3.21295,13.38979 10.39695,14.4671 5.06848,0.76007 11.93831,-1.22461 12.39133,-3.5772 0.17389,-0.90301 -0.83471,-2.88096 -2.23858,-4.39576 -1.40387,-1.5148 -2.61726,-3.47287 -2.69986,-4.35505 -0.0826,-0.88219 -0.42083,0.41937 -0.75072,2.89432 -0.57423,4.30812 -0.75384,4.51097 -4.17868,4.79825 -5.88394,0.49356 -8.38831,-2.32299 -8.58347,-9.65981 -0.19978,-7.5104 -0.77879,-8.50188 -4.53143,-7.75135 l -2.94859,0.59243 0.32109,-5.17813 c 0.29283,-4.73183 0.087,-5.31362 -2.37425,-6.71573 -1.2314,-0.70151 -2.17968,-0.99916 -2.79935,-0.93614 z m -8.70559,0.85021 c -2.35608,0 -3.08391,1.39535 -1.30244,2.49636 1.59311,0.9846 -1.53986,6.01639 -5.20978,8.3664 -2.11721,1.35572 -2.68609,2.1101 -1.60093,2.121 4.68758,0.0469 12.81191,-5.64435 12.81191,-8.97241 0,-2.29121 -2.01519,-4.01135 -4.69876,-4.01135 z m 29.2191,13.00184 c -3.11057,0 -6.79045,1.75352 -6.0826,2.89885 0.27128,0.43893 2.16031,0.52548 4.19677,0.19446 4.39283,-0.71404 5.84389,-3.09331 1.88583,-3.09331 z m -1.90392,6.41274 c -0.34094,0.0166 -0.68113,0.0648 -1.01754,0.14924 -3.193,0.8014 -3.36614,2.15024 -0.34822,2.73152 3.90908,0.75292 4.62079,0.72821 5.18265,-0.1809 0.85411,-1.38198 -1.43029,-2.8161 -3.81689,-2.69986 z" /><path
         id="path3004"
         style="display:inline;fill:#6f6f6f"
         d="m 707.15014,718.13385 c -1.33666,-0.0329 -3.40802,0.54767 -6.5077,1.59187 -3.3562,1.13063 -7.53638,2.05316 -9.28897,2.05316 -3.06747,0 -3.12527,0.0746 -1.46977,1.90393 2.56056,2.8294 4.93597,3.072 9.60553,0.98135 2.31174,-1.035 4.60679,-1.88131 5.09672,-1.88131 0.48994,0 0.90507,1.90902 0.92257,4.24652 0.0335,4.4772 1.17043,6.65156 4.46811,8.54277 2.96796,1.70213 11.06931,1.49838 12.89331,-0.32561 1.38095,-1.38096 1.3367,-1.73399 -0.42963,-3.50032 -1.08036,-1.08036 -2.0074,-2.52791 -2.0622,-3.21541 -0.0548,-0.6875 -0.41236,-0.13498 -0.79142,1.22556 -0.46869,1.68225 -1.76346,2.77872 -4.04301,3.43249 -2.94176,0.84369 -3.58382,0.67199 -5.25953,-1.39742 -1.57677,-1.94717 -1.79201,-3.28114 -1.24365,-7.66995 0.52115,-4.1712 0.33742,-5.93276 -1.89036,-5.98763 z m 8.88648,2.07125 c -2.21885,0.0894 -5.56253,1.52592 -5.56253,2.82648 0,0.60183 1.46654,0.77116 3.62695,0.42058 4.32571,-0.70192 5.12107,-1.32332 3.61338,-2.83101 -0.32513,-0.32513 -0.93818,-0.44585 -1.6778,-0.41605 z m -0.84116,6.27706 c -1.49973,-0.0321 -3.35058,0.88882 -4.22391,2.30189 -0.79405,1.28487 3.53975,1.27122 5.50374,-0.0181 1.3017,-0.8545 1.30907,-1.11025 0.0543,-1.91749 -0.37277,-0.23979 -0.83419,-0.35562 -1.3341,-0.36631 z m -17.62372,0.40249 c -1.00064,0.0274 -1.12077,0.98046 -0.17637,2.74509 0.59456,1.1109 1.08085,4.0566 1.08085,6.5484 0,3.4529 -0.45961,4.77955 -1.93106,5.56705 -1.61814,0.86601 -1.98453,0.66808 -2.25214,-1.20747 -0.17561,-1.23083 -1.02884,-2.37132 -1.8994,-2.53706 -1.23466,-0.23505 -1.4858,0.36402 -1.13964,2.72247 0.51276,3.49369 -1.18212,4.46128 -11.0527,6.32681 -6.18397,1.16879 -6.9381,2.66462 -2.05316,4.06562 2.33455,0.66954 3.97509,0.37264 7.26747,-1.30696 2.33906,-1.19332 4.46814,-1.95363 4.7304,-1.69137 1.03344,1.03339 -2.94175,6.85658 -5.91527,8.66488 -2.31769,1.40942 -3.49086,1.63267 -4.45002,0.83664 -1.0224,-0.84852 -1.30697,-0.42299 -1.30697,1.9808 0,4.53649 1.59172,4.76608 7.14988,1.03562 4.98728,-3.34723 8.8503,-8.92604 8.8503,-12.78024 0,-1.10256 0.90342,-2.48652 2.00342,-3.07522 1.92215,-1.02873 1.99889,-0.75907 1.99889,6.89663 0,7.33237 -0.16813,7.99085 -2.10743,8.285 -2.05073,0.31105 -2.03475,0.39246 0.5246,3.14305 4.26969,4.58889 5.0497,3.27141 5.36354,-9.05832 0.21956,-8.62608 0.60653,-11.20176 1.75016,-11.64061 1.15682,-0.44392 1.46977,0.39265 1.46977,3.93899 0,5.76035 2.12201,10.81569 5.45852,13.00185 3.06957,2.01124 12.00506,2.32744 15.33991,0.54268 2.53552,-1.35697 2.92802,-4.61541 0.66027,-5.48565 -0.848,-0.32541 -2.18169,-2.06165 -2.96216,-3.85759 l -1.42003,-3.26515 -0.0407,4.74849 -0.0362,4.75303 h -4.34601 c -5.99524,0 -7.90626,-2.32421 -8.47042,-10.28842 -0.47503,-6.70669 -1.36843,-7.95555 -5.02888,-7.03682 -2.29154,0.57514 -2.35116,0.43356 -2.00794,-4.73946 0.32614,-4.91555 0.14024,-5.44966 -2.34259,-6.85592 -1.19229,-0.67533 -2.10852,-0.99329 -2.70891,-0.97684 z m -8.71915,0.89543 c -2.5661,0 -3.02152,0.95817 -1.28435,2.69534 1.57871,1.57871 -0.35199,4.70885 -4.86608,7.89155 l -3.72644,2.62751 3.50032,-0.61957 c 6.67981,-1.18108 12.74084,-7.79278 10.08038,-10.99843 -0.72824,-0.87748 -2.39618,-1.5964 -3.70383,-1.5964 z m 28.42316,13.23701 c -1.48358,-0.007 -3.23422,0.40169 -4.30078,1.23009 -1.88371,1.46304 -1.73938,1.53869 2.50088,1.2934 2.47495,-0.14318 4.49976,-0.71175 4.49976,-1.26175 0,-0.8333 -1.21627,-1.25494 -2.69986,-1.26174 z m -0.57886,6.29515 c -0.33162,-0.004 -0.66003,0.0302 -0.97684,0.11306 -2.88591,0.75472 -2.88619,2.11479 0.005,2.58228 1.23745,0.20025 2.84703,0.16921 3.5772,-0.0678 2.08061,-0.67593 -0.2836,-2.60125 -2.60489,-2.6275 z" /><path
         id="path3002"
         style="display:inline;fill:#4f4f4f"
         d="m 707.10492,718.13385 c -1.33188,-0.0183 -3.39233,0.55761 -6.46248,1.59187 -3.3562,1.13063 -7.57909,2.07104 -9.38394,2.08934 l -3.28325,0.0317 2.36068,1.96723 c 2.76116,2.30027 6.62093,2.47703 10.13918,0.46581 4.14659,-2.3704 5.00175,-1.88731 5.00175,2.82649 0,4.3244 2.16676,7.56783 5.99668,8.96788 3.75261,1.37179 12.0024,0.34027 12.0024,-1.50143 0,-0.5366 -0.8989,-2.12004 -1.9989,-3.51841 -1.44015,-1.83092 -2.00341,-2.09711 -2.00341,-0.94518 0,0.87982 -0.86722,2.06719 -1.93106,2.63655 -5.77735,3.09192 -9.66629,-0.96464 -8.56991,-8.93623 0.54553,-3.96638 0.35206,-5.6451 -1.86774,-5.67558 z m 9.30706,2.15717 c -1.8281,-0.0146 -4.59999,1.13116 -5.48565,2.56419 -0.55532,0.89853 0.24075,1.01961 3.15662,0.47485 4.57201,-0.85416 5.11238,-1.23252 3.74001,-2.60489 -0.2952,-0.2952 -0.80162,-0.42927 -1.41098,-0.43415 z m -0.606,6.51223 c -1.16613,0.0494 -2.71695,0.56047 -3.88925,1.44716 -1.89944,1.4367 -1.89553,1.46581 0.22612,1.49691 2.8061,0.0412 5.33189,-0.9425 5.33189,-2.07577 0,-0.52484 -0.48053,-0.80186 -1.19391,-0.85926 -0.14862,-0.0119 -0.30826,-0.0161 -0.47485,-0.009 z m -17.23931,0.5065 c -1.54331,-0.14705 -2.5028,1.10068 -1.10799,1.96272 0.55897,0.34546 1.01754,3.24926 1.01754,6.45796 0,4.3973 -0.39061,5.98688 -1.58283,6.44439 -2.2337,0.85715 -2.24608,0.85065 -2.60037,-1.63258 -0.17575,-1.23189 -1.02884,-2.37584 -1.8994,-2.54158 -1.23357,-0.23485 -1.48425,0.36097 -1.13964,2.70891 0.52286,3.56241 -1.12062,4.58173 -10.35173,6.40369 -6.49543,1.28202 -7.52807,2.59398 -2.98929,3.80784 2.10973,0.56424 4.19534,0.22955 7.40313,-1.18938 2.45672,-1.08672 4.65814,-1.78626 4.8887,-1.5557 0.23056,0.23056 -0.31071,1.82916 -1.20296,3.55459 -2.07657,4.01558 -7.38848,7.40905 -9.22113,5.88814 -1.02331,-0.84928 -1.30697,-0.41268 -1.30697,2.03959 0,2.15332 0.4825,3.12044 1.55118,3.12044 5.42359,0 14.449,-9.30465 14.449,-14.89672 0,-1.1168 0.90342,-2.51365 2.00342,-3.10235 1.92215,-1.02873 1.99889,-0.75907 1.99889,6.89663 0,7.33237 -0.16813,7.99085 -2.10743,8.285 -2.05073,0.31105 -2.03475,0.39246 0.5246,3.14305 4.2481,4.56568 5.02558,3.26184 5.58061,-9.32514 0.34441,-7.81071 0.88913,-11.46868 1.75016,-11.75367 0.85398,-0.28265 1.25323,0.80455 1.25723,3.42344 0.0152,10.42739 3.98503,15.3397 12.37775,15.3173 9.38017,-0.025 12.48976,-2.28529 8.78246,-6.39012 -1.04044,-1.152 -2.38995,-2.99728 -2.99834,-4.09728 -0.9544,-1.72561 -1.10891,-1.43172 -1.13511,2.13457 -0.0333,4.52408 -1.49726,5.57383 -6.45344,4.62639 -4.31977,-0.82577 -6.58006,-4.70019 -6.58006,-11.28786 0,-6.30738 -1.40984,-7.8947 -5.20978,-5.861 -1.98655,1.06312 -2.04676,0.91101 -1.57379,-4.01136 0.50703,-5.27671 -0.33374,-7.34106 -3.43249,-8.41614 -0.23922,-0.083 -0.47145,-0.13276 -0.69192,-0.15377 z m -10.87181,0.52008 c -0.39968,0.0224 -0.71962,0.11813 -0.90899,0.30752 -0.32776,0.32776 -0.0287,1.27641 0.66479,2.11195 1.63472,1.96978 -0.71709,5.79372 -5.27762,8.57443 -4.07768,2.48629 -1.48718,2.49816 3.97517,0.0181 4.52215,-2.05315 7.88444,-6.16263 6.97803,-8.52468 -0.4501,-1.17296 -3.22126,-2.38227 -5.00627,-2.48731 -0.14875,-0.009 -0.29187,-0.007 -0.42511,0 z m 29.64873,13.01089 c -1.4275,0.0574 -3.12024,0.57002 -4.30983,1.46977 -1.84082,1.3923 -1.78185,1.46977 1.16677,1.46977 3.89643,0 6.43493,-0.93281 5.71177,-2.1029 -0.31653,-0.51216 -1.05993,-0.78159 -1.97628,-0.83212 -0.19091,-0.0105 -0.3885,-0.0117 -0.59243,-0.005 z m -0.58791,6.50318 c -1.57794,0.052 -3.27873,0.74455 -3.27873,1.55117 0,0.48585 1.34834,0.88639 2.99834,0.88639 2.99167,0 4.12217,-1.45858 1.75016,-2.25667 -0.43022,-0.14475 -0.94379,-0.19821 -1.46977,-0.18089 z" /><path
         id="path3000"
         style="display:inline;fill:#2e2e2e"
         d="m 706.89689,717.91677 c -0.93701,0.0343 -2.22282,0.49236 -3.92995,1.30245 -1.92085,0.91151 -5.74334,1.92196 -8.49303,2.24762 -5.31147,0.62907 -6.21426,1.59392 -3.06617,3.27873 2.64651,1.41632 5.05535,1.29073 8.37092,-0.43868 5.23525,-2.73063 6.1771,-2.44293 5.8384,1.7773 -0.34594,4.31052 1.80197,8.33066 5.16908,9.68694 3.35282,1.35055 9.09043,1.16686 11.1748,-0.35727 1.81231,-1.3252 1.80428,-1.44868 -0.30752,-4.13346 -1.5089,-1.91821 -2.17979,-2.27973 -2.17979,-1.17129 0,3.45929 -6.68053,4.8425 -9.54675,1.97628 -1.36769,-1.36774 -1.5785,-2.81628 -1.08537,-7.53429 0.49562,-4.74178 0.11681,-6.70979 -1.94462,-6.63433 z m 9.47439,2.88076 c -1.44231,0.0585 -3.29831,0.57715 -4.45455,1.45168 -2.14206,1.62017 -1.27761,1.8465 3.43249,0.90448 1.71875,-0.34375 3.12496,-1.01566 3.12496,-1.49691 0,-0.52798 -0.62222,-0.80348 -1.51499,-0.85473 -0.186,-0.0107 -0.38187,-0.0119 -0.58791,-0.005 z m -0.51103,6.03737 c -1.13268,0.0651 -2.64779,0.58773 -3.82594,1.47882 -1.37754,1.04196 -1.52473,1.46169 -0.50198,1.45169 2.61067,-0.0247 5.94241,-1.20355 5.94241,-2.10291 0,-0.51476 -0.46184,-0.7813 -1.15321,-0.8276 -0.14403,-0.01 -0.29947,-0.009 -0.46128,0 z m -17.12173,0.94518 c -2.07264,0 -2.39406,0.2651 -1.46073,1.19843 1.86895,1.86895 1.56018,12.45009 -0.3844,13.19631 -2.2337,0.85715 -2.24608,0.85065 -2.60037,-1.63258 -0.17575,-1.23189 -1.02884,-2.37584 -1.8994,-2.54158 -1.23661,-0.23543 -1.48422,0.36205 -1.13512,2.74056 0.39429,2.68643 0.0514,3.21009 -2.91693,4.43194 -1.8502,0.7616 -5.38947,1.71197 -7.86442,2.11195 -5.5069,0.88996 -6.62174,1.48672 -4.85704,2.60489 2.23641,1.41706 7.49424,1.00381 10.709,-0.84116 1.65902,-0.9523 3.36996,-1.37402 3.80332,-0.94066 2.39449,2.39448 -7.68021,11.73091 -10.30651,9.55127 -1.08731,-0.90239 -1.35219,-0.51167 -1.35219,1.99889 0,3.55169 1.46604,3.96706 5.90171,1.67328 4.43791,-2.29496 9.01711,-8.18885 9.70503,-12.49081 0.4224,-2.64185 1.22805,-4.04245 2.50992,-4.37767 1.72957,-0.45231 1.88583,0.15311 1.88583,7.33983 0,7.20139 -0.17147,7.86473 -2.10743,8.15837 -2.04868,0.31074 -2.03281,0.39794 0.53816,3.16114 2.26166,2.43077 2.87339,2.6516 4.23747,1.51952 1.33633,-1.10906 1.50823,-2.97659 1.07181,-11.52754 -0.42849,-8.39553 -0.25592,-10.30342 0.95422,-10.76779 2.63502,-1.01115 2.83537,-0.64227 2.97573,5.46303 0.22355,9.72461 3.54597,12.97019 13.28223,12.97019 3.26423,0 5.58861,-0.61713 7.18606,-1.91297 l 2.36068,-1.91749 -2.11195,-2.33354 c -1.16239,-1.28422 -2.61155,-3.23697 -3.21994,-4.33697 -0.9527,-1.72254 -1.10891,-1.41799 -1.13511,2.18431 -0.0359,4.9338 -2.06873,6.11997 -7.44384,4.34601 -4.13195,-1.36367 -6.14662,-5.54318 -5.87005,-12.18781 0.21176,-5.0876 -1.32359,-6.65771 -4.73041,-4.83443 -2.50812,1.3423 -3.03691,0.14723 -1.98985,-4.49524 1.10776,-4.91166 -0.18643,-7.51168 -3.73548,-7.51168 z m -10.12109,0.19899 c -1.5228,0.0555 -2.19126,1.03559 -1.12155,2.3245 1.46916,1.77024 0.0173,4.48451 -4.2646,7.97296 -3.00044,2.44437 -3.05888,2.60321 -0.75524,1.97628 8.77142,-2.38712 13.86425,-10.1094 7.91416,-11.99788 -0.66505,-0.21108 -1.26517,-0.29436 -1.77277,-0.27586 z m 29.05177,12.83903 c -1.10675,0.0557 -2.57845,0.56007 -3.75358,1.47882 -1.83197,1.43233 -1.7472,1.50529 1.48334,1.2527 1.88264,-0.1472 3.60929,-0.83202 3.83498,-1.51952 0.28693,-0.87403 -0.458,-1.26772 -1.56474,-1.212 z m -1.19391,6.96447 c -1.65,0 -2.99834,0.44945 -2.99834,0.99945 0,0.54995 1.34834,0.99944 2.99834,0.99944 1.65,0 2.99834,-0.44949 2.99834,-0.99944 0,-0.55 -1.34834,-0.99945 -2.99834,-0.99945 z" /><path
         id="path2998"
         style="display:inline;fill:#010101"
         d="m 706.66625,718.23786 c -1.15788,0.0502 -2.81116,0.50267 -4.19677,1.19391 -1.84749,0.92164 -5.54291,1.88708 -8.21264,2.14361 -4.66806,0.44854 -4.78793,0.54045 -3.16115,2.33807 2.00866,2.21954 4.49543,2.36727 8.18099,0.49294 1.48519,-0.75532 3.76865,-1.70268 5.07863,-2.10743 2.26664,-0.70032 2.3544,-0.56765 1.73207,2.7496 -0.90507,4.82472 0.77066,8.5488 4.63092,10.28842 1.84577,0.83179 4.93391,1.28163 7.12727,1.03562 4.26375,-0.47822 6.83317,-2.2021 5.03793,-3.38274 -0.59241,-0.3896 -1.58766,-1.6089 -2.21144,-2.7089 -1.11533,-1.96686 -1.13687,-1.96274 -1.16677,0.14471 -0.0508,3.58212 -6.53369,4.70444 -9.57841,1.65972 -1.36182,-1.36187 -1.57733,-2.81903 -1.09441,-7.43932 0.51931,-4.96847 0.35512,-5.82323 -1.20295,-6.31776 -0.24776,-0.0786 -0.57731,-0.10699 -0.96327,-0.0905 z m 9.71407,2.56419 c -1.43527,0.0454 -3.28443,0.5949 -4.46359,1.55118 -1.8735,1.51932 -1.85212,1.55405 0.56078,1.01301 1.375,-0.30831 3.28401,-0.56282 4.24651,-0.56982 0.9625,-0.008 1.75016,-0.46754 1.75016,-1.01754 0,-0.58494 -0.61833,-0.89474 -1.50595,-0.96326 -0.18492,-0.0143 -0.38287,-0.0201 -0.58791,-0.0136 z m -0.61052,5.99668 c -1.15328,0.0682 -2.60866,0.66173 -3.42344,1.65519 -1.23227,1.50251 -1.11403,1.60539 1.13059,1.01301 1.375,-0.36287 2.83457,-0.66683 3.24707,-0.67383 0.4125,-0.008 0.75072,-0.46302 0.75072,-1.01302 0,-0.60785 -0.51209,-0.91917 -1.23009,-0.97683 -0.14958,-0.012 -0.3101,-0.0133 -0.47485,-0.005 z m -17.74582,0.99944 c -1.51667,-0.0119 -1.67952,0.24701 -0.74619,1.18034 1.86895,1.86895 1.56018,12.45009 -0.3844,13.19631 -2.22912,0.8554 -2.24557,0.84645 -2.60037,-1.56475 -0.17575,-1.19437 -0.94434,-2.37973 -1.70946,-2.63202 -1.02673,-0.33855 -1.2339,0.16808 -0.79142,1.93106 0.9179,3.65717 -0.31683,4.67734 -7.8599,6.49413 -10.74468,2.58801 -10.13234,2.33764 -8.42971,3.4144 2.41762,1.52893 6.79833,1.09238 11.11149,-1.10798 2.23134,-1.13837 4.26916,-1.85414 4.53142,-1.59188 0.89556,0.89556 -2.59357,6.42098 -5.71177,9.04476 -3.52226,2.96383 -4.07544,3.10158 -5.75699,1.42003 -0.93328,-0.93333 -1.20295,-0.49 -1.20295,1.99889 0,4.16526 2.28235,4.2267 7.82372,0.21255 4.22174,-3.05825 8.17646,-9.33486 8.17646,-12.97471 0,-1.12191 0.19057,-2.03959 0.42058,-2.03959 0.23002,0 1.14627,-0.28129 2.0396,-0.62409 1.43273,-0.54979 1.59206,0.36533 1.3341,7.75136 -0.21112,6.04503 -0.63969,8.30268 -1.54213,8.12219 -1.71662,-0.34332 -1.56847,0.74358 0.40249,2.92146 4.18776,4.62743 5.66337,1.27106 5.17812,-11.80341 -0.31727,-8.5486 -0.25172,-8.87687 1.91749,-9.18495 2.11184,-0.29993 2.25267,0.037 2.25667,5.49921 0.005,7.66977 2.49819,11.94824 7.51167,12.88878 4.93161,0.92518 11.42134,-0.0711 13.37268,-2.05316 1.48363,-1.507 1.47307,-1.74046 -0.11758,-2.92145 -0.95079,-0.70597 -2.40923,-2.5898 -3.24255,-4.18773 l -1.51499,-2.90789 -0.009,4.23295 c -0.005,3.72244 -0.31704,4.30882 -2.60941,4.88417 -1.58697,0.3983 -3.91398,0.031 -5.95145,-0.94066 -3.85906,-1.84021 -5.95761,-7.42613 -4.90226,-13.05158 0.53112,-2.83113 0.30717,-3.42812 -1.45621,-3.88925 -1.14633,-0.29977 -2.33758,-0.1411 -2.64559,0.35727 -0.30801,0.49837 -1.23914,0.90899 -2.07125,0.90899 -1.25413,0 -1.39517,-0.96096 -0.81403,-5.61227 0.74586,-5.96959 3.5e-4,-7.33998 -4.00683,-7.37148 z m -9.67789,0.0724 c -0.58305,0.10142 -0.65405,0.92194 -0.2623,2.48279 0.51359,2.04627 -0.0336,3.27373 -2.67725,6.00119 -3.9128,4.03699 -2.1043,4.68562 3.17019,1.13964 3.93697,-2.64677 4.97874,-6.44974 2.30189,-8.4071 -1.00675,-0.73616 -1.75109,-1.14536 -2.25215,-1.21652 -0.10435,-0.0148 -0.19709,-0.0145 -0.28038,0 z m 29.45878,12.93853 c -1.16754,0.0507 -2.72064,0.55422 -3.88925,1.43812 -1.47336,1.11437 -1.57724,1.47406 -0.43867,1.48786 2.58191,0.0312 5.99668,-1.14875 5.99668,-2.07125 0,-0.52179 -0.4797,-0.7949 -1.19391,-0.85021 -0.14879,-0.0115 -0.30806,-0.0108 -0.47485,-0.005 z m -0.82759,6.97351 c -1.375,0 -2.50088,0.44945 -2.50088,0.99945 0,0.54995 1.12588,0.99944 2.50088,0.99944 1.37495,0 2.49635,-0.44949 2.49635,-0.99944 0,-0.55 -1.1214,-0.99945 -2.49635,-0.99945 z" /></g></g></svg>
