<?xml version="1.0" encoding="UTF-8" standalone="no"?>
<!-- Created with Inkscape (http://www.inkscape.org/) -->

<svg
   viewBox="0 0 39.200001 39.200001"
   version="1.1"
   id="svg1"
   inkscape:version="1.3.2 (091e20e, 2023-11-25, custom)"
   sodipodi:docname="Bishop.svg"
   xml:space="preserve"
   xmlns:inkscape="http://www.inkscape.org/namespaces/inkscape"
   xmlns:sodipodi="http://sodipodi.sourceforge.net/DTD/sodipodi-0.dtd"
   xmlns="http://www.w3.org/2000/svg"
   xmlns:svg="http://www.w3.org/2000/svg"><sodipodi:namedview
     id="namedview1"
     pagecolor="#ffffff"
     bordercolor="#111111"
     borderopacity="1"
     inkscape:showpageshadow="false"
     inkscape:pageopacity="0"
     inkscape:pagecheckerboard="1"
     inkscape:deskcolor="#d1d1d1"
     inkscape:document-units="mm"
     showguides="true"
     inkscape:zoom="14.005102"
     inkscape:cx="19.6"
     inkscape:cy="19.6"
     inkscape:window-width="1292"
     inkscape:window-height="745"
     inkscape:window-x="-8"
     inkscape:window-y="-8"
     inkscape:window-maximized="1"
     inkscape:current-layer="g12"
     labelstyle="default"><inkscape:page
       x="0"
       y="0"
       width="39.200001"
       height="39.200001"
       id="page42"
       margin="0"
       bleed="0" /></sodipodi:namedview><defs
     id="defs1"><inkscape:path-effect
       effect="powerstroke"
       id="path-effect12"
       is_visible="true"
       lpeversion="1.3"
       scale_width="1"
       interpolator_type="CubicBezierJohan"
       interpolator_beta="0.2"
       start_linecap_type="zerowidth"
       end_linecap_type="zerowidth"
       offset_points="7,4.9921382"
       linejoin_type="extrp_arc"
       miter_limit="4"
       not_jump="false"
       sort_points="true"
       message="&lt;b&gt;Ctrl + click&lt;/b&gt; on existing node and move it" /><inkscape:path-effect
       effect="powerstroke"
       id="path-effect13"
       is_visible="true"
       lpeversion="1.3"
       scale_width="1"
       interpolator_type="CubicBezierJohan"
       interpolator_beta="0.2"
       start_linecap_type="zerowidth"
       end_linecap_type="zerowidth"
       offset_points="5,4.9921382"
       linejoin_type="extrp_arc"
       miter_limit="4"
       not_jump="false"
       sort_points="true"
       message="&lt;b&gt;Ctrl + click&lt;/b&gt; on existing node and move it" /></defs><g
     id="g12"
     transform="matrix(0.92057761,0,0,0.93486581,1.4659198,1.1628361)"><path
       style="display:inline;fill:#938e5e;fill-opacity:1;fill-rule:evenodd;stroke:none;stroke-width:0.971808;stroke-linecap:round;stroke-linejoin:round;stroke-dasharray:none;stroke-opacity:1;paint-order:stroke fill markers"
       d="m 5.8485911,2.5 0,6.8459021 4.5086969,24.6087609 9.341301,2.988783 9.341303,-2.988783 4.508697,-24.6087609 0,-6.8459021 z"
       id="path12"
       sodipodi:nodetypes="cccccccc" /><path
       style="display:inline;fill:#fff29e;fill-opacity:1;fill-rule:evenodd;stroke:none;stroke-width:0.373137;stroke-linecap:round;stroke-linejoin:round;paint-order:stroke fill markers"
       d="M 19.698591,33.520495 10.357287,30.53171 5.8485898,2.5 H 33.54859 l -4.508698,28.03171 z"
       id="path13"
       sodipodi:nodetypes="cccccc" /><g
       transform="matrix(-0.25148444,0,0,-0.24764084,190.18958,194.65921)"
       id="g3022"><path
         id="path3010"
         style="display:inline;fill:#cfcfcf"
         d="m 674.02252,663.66686 c -1.3363,0.13745 -1.8721,1.14087 -1.43213,2.89389 0.43389,1.72872 -0.33216,3.13992 -3.17043,5.89641 -2.05197,1.99284 -4.1073,3.62476 -4.57293,3.62476 -0.46563,0 -0.8494,0.50353 -0.8494,1.12595 0,0.75263 1.43037,0.94561 4.25688,0.57285 3.28975,-0.43387 4.98073,-1.4031 7.49644,-4.29638 3.85294,-4.43121 4.24459,-8.10678 0.99755,-9.31377 -0.80938,-0.30086 -1.5091,-0.46189 -2.10374,-0.50371 -0.223,-0.0157 -0.43134,-0.0196 -0.62224,0 z m 9.75822,3.40748 c -3.23186,0 -3.63912,1.47391 -0.81977,2.98277 2.75188,1.47276 1.6378,3.4237 -3.52599,6.16309 -2.43794,1.29332 -4.43466,2.74472 -4.43466,3.22969 0,0.48498 2.02243,0.66377 4.49392,0.3852 5.16142,-0.58177 11.5064,-4.85957 11.5064,-7.75325 0,-2.45079 -3.68382,-5.0075 -7.2199,-5.0075 z m 7.92115,12.28666 c -1.43535,-0.042 -3.83487,0.50901 -8.70141,1.60991 -2.475,0.55989 -6.91065,1.04269 -9.85699,1.06669 -4.61425,0.0375 -5.2711,0.27925 -4.7112,1.73831 0.61087,1.5919 0.5442,1.5919 -1.21484,0 -3.1113,-2.81567 -3.81007,-1.98141 -3.79267,4.55317 0.009,3.4375 -0.36982,9.46407 -0.83952,13.39286 -0.80499,6.73326 -0.72696,7.20968 1.30373,8.29647 2.87169,1.53688 3.89967,0.72089 4.70132,-3.72354 0.88033,-4.88066 1.32826,-5.5348 2.90377,-4.22724 0.72343,0.60039 2.48358,0.80276 3.91119,0.44445 2.51294,-0.63071 2.59758,-0.501 2.59758,3.96058 0,2.53462 0.36002,4.60256 0.80001,4.60256 1.83633,0 3.20007,-2.64472 3.20007,-6.2026 0,-3.69028 0.099,-3.80254 3.5655,-3.80254 3.12977,0 3.52963,-0.26923 3.24945,-2.24202 -0.26188,-1.84394 -0.90204,-2.22459 -3.5655,-2.10375 -2.57658,0.11689 -3.24945,-0.24389 -3.24945,-1.74818 0,-1.44161 0.72324,-1.89633 3.00253,-1.89633 1.79487,0 2.99265,-0.52597 2.99265,-1.30373 0,-1.85506 -2.09188,-3.70378 -4.19761,-3.70378 -0.99,0 -1.79757,-0.66639 -1.79757,-1.49139 0,-1.07512 1.09589,-1.50126 3.87168,-1.50126 h 3.87168 l 0.47409,4.99763 c 0.26424,2.74999 0.26424,7.24527 0,9.99526 -0.42857,4.46018 -0.72791,5.00751 -2.8445,5.00751 -3.52487,0 -2.87773,2.2105 1.37286,4.66182 2.06102,1.18858 4.64828,2.0837 5.74827,1.9951 1.89652,-0.15273 2.00497,-0.88105 2.00497,-14.08423 0,-12.14913 -0.24273,-14.23559 -1.89633,-16.34601 -0.99693,-1.27234 -1.46841,-1.90376 -2.90376,-1.94572 z m -20.53375,7.21002 c 0.33016,0.009 0.69805,0.0514 1.08645,0.11852 5.70693,0.98605 6.4196,1.34565 4.72108,2.41981 -1.7097,1.08122 -6.33583,1.27913 -7.30879,0.30617 -1.62361,-1.6236 -0.80982,-2.91022 1.50126,-2.8445 z m -0.69137,5.93592 c 0.24722,-0.0186 0.61908,0.23959 1.17533,0.70125 0.9095,0.75481 2.48087,1.22885 3.49637,1.05681 1.2718,-0.21546 1.84695,0.29399 1.84695,1.63954 0,1.48802 -0.83029,2.04929 -3.49636,2.36054 -3.39768,0.39666 -3.49637,0.3092 -3.49637,-3.0124 0,-1.91835 0.0621,-2.71472 0.47408,-2.74574 z m -3.65439,23.13133 c -0.7475,-0.0152 -0.81977,0.54885 -0.81977,1.9556 0,3.4052 -5.04015,8.73991 -11.41751,12.07925 -2.98763,1.56423 -5.19158,3.24381 -4.88899,3.73341 0.7241,1.17162 7.74332,0.008 11.40764,-1.88646 2.57306,-1.33094 2.89388,-1.32541 2.89388,0.01 0,2.22384 -9.40659,9.25721 -15.07191,11.26936 -5.44994,1.93565 -6.04283,2.74241 -2.67659,3.64452 4.1922,1.12347 8.00783,0.6371 11.38788,-1.45189 l 3.36797,-2.08399 -0.0593,2.33091 c -0.0328,1.28236 -0.45118,4.58842 -0.91854,7.33842 -0.64399,3.78932 -0.49297,5.54434 0.59261,7.24953 4.77358,7.49827 8.65594,-4.61514 4.87911,-15.22006 l -1.41238,-3.98032 3.45686,-2.84451 c 3.97699,-3.27816 4.29444,-5.17799 1.39262,-8.26683 l -2.06424,-2.20251 3.56551,-2.19264 c 1.95899,-1.21073 3.5655,-2.64889 3.5655,-3.19019 0,-2.25123 -2.14728,-4.71212 -4.97788,-5.69887 -1.05668,-0.36835 -1.754,-0.5835 -2.20251,-0.59261 z m 33.14634,2.47906 c -0.852,-0.021 -1.76198,0.26826 -3.18031,0.85928 -1.80857,0.75363 -6.66041,1.93518 -10.7854,2.62721 -4.12499,0.69202 -7.69828,1.30509 -7.9409,1.36299 -0.24262,0.0579 0.43364,0.79786 1.50126,1.63954 1.44757,1.14122 3.33562,1.38528 7.43719,0.95805 3.025,-0.31509 8.56585,-0.83047 12.30642,-1.14571 5.51463,-0.46475 6.73886,-0.87559 6.48902,-2.17288 -0.16946,-0.87994 -1.52486,-2.28611 -3.01241,-3.12105 -1.16657,-0.65478 -1.96287,-0.98641 -2.81487,-1.00743 z m 4.55318,9.85699 c -0.2872,-0.008 -0.57673,-0.002 -0.87903,0.0197 -1.45102,0.10308 -3.09566,0.53614 -5.06677,1.29386 -2.95017,1.13409 -8.85865,2.13834 -14.7756,2.49881 -5.42649,0.3306 -10.06303,0.91795 -10.30144,1.30373 -0.23842,0.38577 0.65151,1.70948 1.97534,2.95315 2.36687,2.22357 2.51845,2.24345 9.70884,0.80989 6.60784,-1.31741 7.409,-1.31022 8.24708,0.1284 0.51007,0.87558 1.59531,2.10251 2.4198,2.7161 1.8568,1.38185 2.91121,12.7959 1.2741,13.80769 -0.60532,0.37409 -3.6615,0.20215 -6.78532,-0.37532 -3.12383,-0.57745 -5.86751,-0.85854 -6.09395,-0.63211 -1.2365,1.23651 2.35703,4.63341 6.49889,6.15321 2.61877,0.96094 5.41699,2.34459 6.22235,3.08154 2.08567,1.90854 3.69669,1.66226 5.44209,-0.82965 1.21257,-1.73119 1.40174,-4.09397 0.93829,-11.74344 -0.31928,-5.26984 -1.18675,-10.55687 -1.92597,-11.74345 -1.6594,-2.66365 -0.4072,-3.33833 6.16309,-3.33833 4.82728,0 5.5177,-1.08022 2.40005,-3.76304 -1.77052,-1.52357 -3.45145,-2.28721 -5.46184,-2.34079 z" /><path
         id="path3008"
         style="display:inline;fill:#afafaf"
         d="m 675.17078,664.0757 c -2.36102,0 -2.68733,0.39112 -2.67933,3.1817 0.008,2.56398 -0.80655,3.8069 -4.18192,6.39507 -2.30398,1.76668 -3.88274,3.52162 -3.50756,3.89679 0.95707,0.95707 6.15192,-0.21151 8.87526,-1.99591 3.00635,-1.96984 5.58344,-7.07904 4.8065,-9.52699 -0.41173,-1.29724 -1.52193,-1.95066 -3.31295,-1.95066 z m 8.89789,3.10023 c -0.61104,0.0303 -1.22073,0.15631 -1.81488,0.39828 -1.56947,0.63918 -1.51746,0.82273 0.49785,1.76057 3.47077,1.61515 2.70554,3.54122 -2.75174,6.93366 -2.75,1.70948 -5.00111,3.26498 -5.00111,3.45777 0,0.19278 1.36949,0.3485 3.0414,0.3485 3.36779,0 9.86352,-2.9689 11.92571,-5.4537 2.59313,-3.12452 -1.61993,-7.65749 -5.89723,-7.44508 z m 7.19163,12.28325 c -1.37164,0.0203 -3.16116,0.42863 -5.51253,1.01833 -3.50667,0.87944 -8.93413,1.59764 -12.06148,1.59764 -3.12736,0 -5.68452,0.30516 -5.68452,0.67435 0,1.7673 3.60756,4.32675 6.09637,4.32675 3.23861,0 4.75438,1.63315 2.1679,2.33536 -6.70426,1.82015 -7.26404,1.77498 -7.26404,-0.59289 0,-2.68897 -2.59037,-6.74257 -4.30865,-6.74357 -0.80581,-5e-4 -1.19336,2.19399 -1.19936,6.75262 -0.005,3.7129 -0.39215,9.47893 -0.85992,12.81731 -0.726,5.18127 -0.59457,6.32551 0.90066,7.82073 1.52108,1.52108 1.94109,1.56646 3.18622,0.32133 0.78862,-0.78861 1.68163,-3.29569 1.98686,-5.57136 0.59399,-4.42853 1.3219,-5.01399 3.2858,-2.64764 0.78269,0.94309 2.1111,1.27048 3.6207,0.8916 2.21993,-0.55717 2.38515,-0.31949 2.38515,3.44872 0,2.22717 0.42802,4.31617 0.95043,4.63903 1.33903,0.82757 3.05045,-2.76551 3.05045,-6.40413 0,-2.72603 0.32673,-3.06855 2.94182,-3.06855 3.48844,0 4.72056,-1.49662 2.96898,-3.60713 -0.79136,-0.95354 -2.13144,-1.30268 -3.58902,-0.93685 -1.85745,0.46618 -2.32178,0.17888 -2.32178,-1.43471 0,-1.57672 0.65789,-2.01855 3.00066,-2.01855 1.79487,0 3.00066,-0.52115 3.00066,-1.29892 0,-1.81924 -2.08345,-3.70218 -4.09592,-3.70218 -0.93116,0 -1.93152,-0.62917 -2.22674,-1.3985 -0.62932,-1.63998 6.19592,-2.91315 7.78905,-1.45281 1.17315,1.07537 2.00271,13.83124 1.12694,17.32057 -0.39066,1.55658 -1.57212,2.73929 -3.13643,3.13191 -2.0032,0.50277 -2.27895,0.90952 -1.3623,2.01402 0.63213,0.76167 1.71294,1.38492 2.40325,1.38492 0.69031,0 1.8136,0.67307 2.49829,1.49807 1.66836,2.01026 4.63417,1.90563 5.44011,-0.19462 0.3583,-0.93377 0.34257,-7.67342 -0.0362,-14.97615 -0.65179,-12.56636 -1.02648,-16.00553 -5.14141,-15.9447 z m -20.78739,13.05266 c 0.24185,-0.0299 0.60294,0.21463 1.14052,0.66078 0.88813,0.73708 2.57759,1.35354 3.75196,1.37134 1.20593,0.0182 2.13622,0.67857 2.13622,1.51617 0,0.9387 -1.37836,1.70514 -3.75196,2.09096 -3.7291,0.60615 -3.74743,0.58988 -3.74743,-2.85583 0,-1.92257 0.0676,-2.73365 0.47069,-2.78342 z m -2.5345,23.61607 c -1.15262,-0.1129 -1.93708,0.52297 -1.93708,1.94613 0,3.03617 -6.54954,9.63656 -12.25157,12.34662 -4.16909,1.98148 -4.72914,2.52583 -3.10476,3.04139 1.75107,0.55577 7.5098,-0.75685 12.60459,-2.87394 1.19282,-0.49566 1.75152,-0.26576 1.75152,0.71509 0,2.05896 -10.39302,9.47456 -16.13478,11.51386 -2.67579,0.95035 -4.86533,2.04771 -4.86533,2.43492 0,0.3872 1.9611,0.99827 4.35843,1.35777 3.39882,0.50969 5.28533,0.17868 8.57203,-1.49807 l 4.21812,-2.1498 -0.70603,8.05156 c -0.51121,5.86034 -0.35845,8.45694 0.55215,9.55414 1.76683,2.1289 3.73811,1.87222 5.09615,-0.66531 1.36879,-2.55758 0.59404,-13.67813 -1.18578,-17.00375 -1.04163,-1.94631 -0.76936,-2.50831 2.46208,-5.10067 4.18502,-3.35734 4.47599,-4.87902 1.49807,-7.85694 l -2.13622,-2.13622 3.88321,-3.27221 3.88774,-3.27222 -2.42588,-2.59333 c -1.46519,-1.56667 -2.98403,-2.42612 -4.13666,-2.53902 z m 31.44585,2.42587 c -1.37591,0.0487 -2.79594,0.37884 -4.07782,1.01833 -1.72118,0.85863 -6.09377,1.8386 -9.71707,2.17695 -6.80085,0.63507 -7.46873,1.03672 -5.34055,3.1998 0.82253,0.83601 2.7913,1.08103 5.7524,0.72414 2.475,-0.2983 7.77158,-0.83574 11.77183,-1.19936 7.59058,-0.68997 9.18302,-1.54463 7.24594,-3.87868 -1.17387,-1.41443 -3.34153,-2.12238 -5.63473,-2.04118 z m 4.43537,9.62204 c -1.48104,0.11052 -3.13948,0.55203 -4.99205,1.32608 -3.42644,1.43166 -12.85188,2.81465 -20.32575,2.98256 -5.03281,0.11307 -5.75296,1.31808 -2.31725,3.88321 2.35822,1.76067 3.2149,1.87226 7.00154,0.91423 9.15182,-2.31541 9.12165,-2.3204 12.06601,1.52522 2.21274,2.89007 2.74721,4.64009 2.74721,8.96126 0,6.37045 -0.89139,6.98983 -8.04249,5.57589 -4.41994,-0.87393 -4.95585,-0.79335 -4.95585,0.76035 0,1.63695 3.57976,3.87109 8.65802,5.39938 1.18784,0.35748 2.70477,1.30536 3.37178,2.10906 1.73684,2.09276 3.69764,1.80968 5.39939,-0.7875 2.10451,-3.21191 0.66913,-22.47286 -1.81036,-24.28591 -1.52696,-1.11654 -1.53502,-1.28357 -0.0679,-1.84656 0.88614,-0.34005 3.52268,-0.61552 5.86102,-0.61552 5.41123,0 6.14039,-0.78098 3.42157,-3.67502 -1.56859,-1.66969 -3.54649,-2.41094 -6.0149,-2.22673 z" /><path
         id="path3006"
         style="display:inline;fill:#8f8f8f"
         d="m 674.55073,664.0757 c -1.85942,0 -2.13928,0.45232 -1.7832,2.87846 0.35217,2.3995 -0.2516,3.41595 -3.64334,6.14163 -2.2361,1.79699 -3.85381,3.60519 -3.59808,4.01899 0.58386,0.94471 7.08324,-0.47005 8.83453,-1.92351 0.71838,-0.59619 2.14069,-2.63034 3.15907,-4.52136 1.54398,-2.86698 1.63426,-3.69993 0.54311,-5.01468 -0.71969,-0.86719 -2.29969,-1.57953 -3.51209,-1.57953 z m 9.37311,3.00066 c -2.63277,0 -3.28883,1.74728 -0.93686,2.49376 1.10799,0.35166 2.01402,1.25243 2.01402,2.00045 0,1.54134 -4.19769,5.11724 -7.08301,6.033 -1.05465,0.33473 -1.91898,1.02586 -1.91898,1.5388 0,0.51293 1.26373,0.93234 2.80605,0.93234 3.36626,0 12.19274,-5.36033 12.19274,-7.40435 0,-1.86064 -4.72068,-5.594 -7.07396,-5.594 z m 6.31814,12.51408 c -0.92244,0.0439 -1.94312,0.24703 -3.0414,0.62004 -2.03557,0.69133 -7.29942,1.50542 -11.69941,1.81036 l -8.00177,0.55668 2.34894,2.34893 c 1.58372,1.58373 3.12731,2.19705 4.74765,1.8873 1.32117,-0.25256 2.40324,-0.0709 2.40324,0.4028 0,0.47373 0.0883,1.19872 0.19462,1.61122 0.10632,0.4125 -1.13292,0.97779 -2.75174,1.25819 -4.0888,0.70824 -3.87064,3.39887 0.30776,3.80175 2.44002,0.23526 3.24959,0.7999 3.24959,2.25389 0,1.38162 -0.69166,1.93708 -2.41683,1.93708 -1.33002,0 -3.06958,0.24689 -3.8651,0.55216 -1.12765,0.43272 -1.60309,-0.83232 -2.1498,-5.74788 -0.71885,-6.46331 -2.66683,-10.81029 -4.8427,-10.80329 -0.86005,0.003 -1.30877,2.76966 -1.50712,9.25091 -0.15563,5.08541 -0.383,10.99191 -0.50237,13.12507 -0.15381,2.74864 0.28642,4.19959 1.50712,4.97847 2.39094,1.52557 3.80367,-0.12194 4.48968,-5.23644 0.53913,-4.01956 1.53972,-5.14254 2.78794,-3.12287 0.33992,0.55 1.93981,1.00022 3.55735,1.00022 2.75714,0 2.94183,0.24742 2.94183,3.94205 0,2.16754 0.44919,4.22153 1.00022,4.56209 1.1595,0.7166 3.00066,-3.55278 3.00066,-6.96081 0,-2.37889 1.66942,-3.54377 5.08257,-3.54377 1.05501,0 1.91897,-0.39083 1.91897,-0.87349 0,-1.68798 -2.62283,-3.03646 -4.80196,-2.46661 -1.7527,0.45834 -2.19958,0.14452 -2.19958,-1.54333 0,-1.57743 0.6203,-2.11359 2.43945,-2.11359 1.34254,0 2.73184,-0.47138 3.08665,-1.04548 0.88396,-1.43026 -1.37909,-3.95562 -3.54376,-3.95562 -0.97381,0 -2.00699,-0.62355 -2.29915,-1.38492 -0.3771,-0.98271 0.62441,-1.57072 3.45325,-2.02307 2.19168,-0.35049 4.40753,-0.37361 4.92416,-0.0543 0.51663,0.31929 0.93686,4.77293 0.93686,9.89811 0,9.58119 -0.51896,10.975 -4.38106,11.70847 -1.52517,0.28965 -1.14466,0.85842 2.00044,3.00518 4.61165,3.1478 6.92825,3.47905 7.83431,1.1179 0.65671,-1.71136 -0.13468,-22.68513 -1.01832,-26.98786 -0.52989,-2.58018 -2.42389,-3.89722 -5.19119,-3.76553 z m -22.24926,36.50126 c -1.16474,-0.0861 -1.99139,0.66203 -1.99139,2.28105 0,2.77581 -5.73166,8.56477 -12.00265,12.12485 l -4.49873,2.5526 3.78364,0.0136 c 2.08016,0.007 5.39817,-0.66401 7.37267,-1.48901 4.38356,-1.83161 4.34485,-1.82754 4.34485,-0.0815 0,2.00246 -10.78216,9.86239 -15.79986,11.51838 -2.31162,0.76291 -4.20003,1.7226 -4.20003,2.13622 0,0.41363 1.80659,1.05716 4.01446,1.43018 3.12865,0.52858 4.79254,0.21705 7.55371,-1.41208 1.94856,-1.14968 3.79059,-2.09096 4.0914,-2.09096 0.30081,0 0.22753,3.60889 -0.16293,8.01987 -0.51163,5.77986 -0.36473,8.43323 0.52047,9.49983 1.85158,2.23102 3.91503,1.78681 5.00563,-1.08168 1.35031,-3.55158 1.22353,-7.0813 -0.48879,-13.46904 l -1.46639,-5.46727 3.46683,-3.00066 c 4.07932,-3.53106 4.17724,-4.11014 1.23556,-7.24142 l -2.22673,-2.37609 3.81079,-3.1998 3.8108,-3.1998 -2.15432,-2.74268 c -1.35211,-1.71893 -2.85425,-2.63852 -4.01899,-2.72459 z m 30.85296,2.19958 c -0.85645,0.0624 -1.6927,0.44338 -2.94182,1.18126 -1.60019,0.94525 -6.05895,1.98558 -9.90716,2.3082 -7.13603,0.59826 -8.35594,1.35871 -5.24551,3.27222 1.01684,0.62555 3.63553,0.81585 6.25025,0.45258 2.475,-0.34386 7.65028,-0.91787 11.50028,-1.2763 3.84999,-0.35844 6.88559,-0.99052 6.74809,-1.40302 -0.1375,-0.4125 -0.24892,-1.14605 -0.24892,-1.62932 0,-0.48327 -1.3941,-1.45403 -3.09571,-2.15885 -1.32829,-0.5502 -2.20304,-0.80913 -3.0595,-0.74677 z m 6.65758,10.05652 c -1.92301,-0.15819 -4.69134,0.50451 -10.40953,2.14527 -2.97468,0.85355 -8.37734,1.62691 -12.00265,1.71531 -9.02297,0.22014 -10.52536,0.63907 -8.97483,2.50734 2.53734,3.05732 4.61132,3.39698 11.29661,1.84656 l 6.5399,-1.51617 3.02329,3.1636 c 2.71605,2.84207 3.02329,3.80896 3.02329,9.51341 0,6.26822 -0.0333,6.35531 -2.74721,6.33171 -1.5125,-0.0131 -4.4412,-0.41717 -6.5037,-0.89612 -2.97142,-0.69003 -3.74743,-0.57819 -3.74743,0.53858 0,1.68326 5.2773,5.05925 9.27807,5.93796 1.57186,0.34524 3.10546,1.28629 3.41251,2.08643 0.82241,2.14317 3.62592,1.20102 4.92869,-1.65647 1.74065,-3.81797 0.24679,-21.88011 -1.9416,-23.4803 -2.7803,-2.033 -1.96248,-2.50734 4.32222,-2.50734 6.71703,0 7.98161,-1.65931 3.50303,-4.59377 -0.99477,-0.6518 -1.84685,-1.04108 -3.00066,-1.136 z" /><path
         id="path3004"
         style="display:inline;fill:#6f6f6f"
         d="m 674.75892,664.0757 c -1.56469,0 -1.86981,0.47554 -1.4166,2.20863 0.4464,1.70702 -0.43565,3.18283 -3.89679,6.49917 l -4.48062,4.29507 h 3.37178 c 3.81864,0 8.07823,-3.33441 9.69445,-7.58539 1.19204,-3.13529 -0.18698,-5.41748 -3.27222,-5.41748 z m 9.06082,3.32653 c -0.56745,0.009 -1.01775,0.18122 -1.25819,0.57026 -0.33285,0.53857 0.19361,1.43243 1.16768,1.98686 2.37578,1.35227 0.81127,3.91942 -4.08235,6.69379 -2.01387,1.14172 -3.32294,2.41137 -2.91015,2.82415 2.0135,2.0135 14.26107,-3.79376 14.26107,-6.76167 0,-2.27156 -4.71907,-5.35075 -7.17806,-5.31339 z m 6.58517,11.89855 c -0.56617,0.0511 -1.21881,0.3132 -2.14527,0.7513 -1.51794,0.71778 -6.80826,1.57897 -11.75825,1.91445 l -9.00199,0.61099 2.34894,2.34893 c 1.56042,1.56043 3.13467,2.19517 4.69786,1.89635 1.45234,-0.27764 2.56594,0.0969 2.90562,0.98212 0.81347,2.11986 0.81388,2.11856 -2.70195,2.45755 -4.3005,0.41465 -4.51499,3.29853 -0.24892,3.34463 2.26273,0.0245 3.0718,0.54363 3.29937,2.11359 0.25225,1.74022 -0.37646,2.19225 -3.84701,2.74721 -3.50995,0.56126 -3.96138,0.89135 -2.92824,2.13622 0.67204,0.80975 2.51327,1.47091 4.09592,1.47091 2.69049,0 2.87847,0.26094 2.87847,4.00089 0,6.3498 2.84435,4.93812 3.95562,-1.96424 0.5009,-3.11122 0.95515,-3.57112 3.80627,-3.847 1.78117,-0.17235 3.24053,-0.67915 3.24053,-1.12694 0,-1.63196 -2.65866,-2.96373 -4.80196,-2.40325 -1.7527,0.45834 -2.19958,0.14452 -2.19958,-1.54333 0,-1.57743 0.6203,-2.11359 2.43945,-2.11359 1.34254,0 2.73184,-0.47138 3.08665,-1.04548 0.88396,-1.43026 -1.37909,-3.95562 -3.54376,-3.95562 -0.97381,0 -2.00699,-0.62355 -2.29915,-1.38492 -0.3771,-0.98271 0.62441,-1.57072 3.45325,-2.02307 2.19168,-0.35049 4.40753,-0.37361 4.92416,-0.0543 0.51663,0.31929 0.93686,4.77293 0.93686,9.89811 0,9.58119 -0.51896,10.975 -4.38106,11.70847 -1.52517,0.28965 -1.14466,0.85842 2.00044,3.00518 7.57909,5.17331 8.57138,3.43065 7.71211,-13.52334 -0.5799,-11.44172 -0.84507,-12.75935 -2.9735,-14.75891 -1.3077,-1.22852 -2.00727,-1.728 -2.95088,-1.6429 z m -25.9469,2.94182 c -0.848,-0.17734 -0.87194,1.05831 -0.59742,5.02374 0.19757,2.85398 -0.20552,8.46697 -0.8916,12.47786 -1.00141,5.85414 -0.99842,7.59253 0.0136,8.8119 3.53953,4.2649 6.02009,-0.58479 6.16878,-12.07053 0.1003,-7.74824 -0.99203,-11.93566 -3.55282,-13.64555 -0.48452,-0.32352 -0.85786,-0.5383 -1.14052,-0.59742 z m 2.75626,33.93509 c -0.80351,0.12364 -1.21294,0.85489 -1.21294,2.19053 0,2.77443 -6.82473,9.62781 -12.50049,12.55481 l -4.00089,2.0638 4.00089,0.009 c 2.19999,0.005 5.12417,-0.6351 6.49917,-1.42112 3.26008,-1.8637 5.0011,-1.86046 5.0011,0.005 0,2.04525 -11.26942,10.19961 -16.09405,11.64511 -4.87297,1.45997 -4.95724,2.42204 -0.27608,3.18169 3.26112,0.5292 5.31175,-0.0252 11.75825,-3.15906 0.51294,-0.24936 0.58797,3.04042 0.17651,7.75736 -0.5171,5.92788 -0.37128,8.59732 0.52048,9.67182 1.96534,2.36809 4.27171,1.18401 5.07804,-2.60691 0.73269,-3.44464 -0.40317,-13.95418 -1.74246,-16.1212 -0.38216,-0.61834 0.92741,-2.59031 2.94635,-4.4399 1.99837,-1.83075 3.62976,-3.77052 3.62976,-4.30864 0,-0.53812 -1.142,-1.87913 -2.53902,-2.97803 l -2.53902,-1.99592 3.53924,-2.82415 c 4.0798,-3.25528 4.47009,-5.55793 1.31703,-7.76642 -1.56345,-1.09508 -2.75836,-1.58097 -3.56187,-1.45734 z m 31.76267,2.27652 c -1.16433,0.0743 -2.32598,0.46028 -3.41252,1.17221 -1.56486,1.02533 -5.44227,1.92509 -9.59488,2.22221 -7.06172,0.50526 -8.38616,1.3004 -5.21835,3.14549 2.25861,1.31556 4.91241,1.33313 9.25544,0.0543 1.92137,-0.56575 6.0753,-1.05299 9.23281,-1.08169 6.28942,-0.0572 7.61139,-0.89728 5.20024,-3.30842 -1.58049,-1.58049 -3.5222,-2.32792 -5.46274,-2.20411 z m 5.30886,9.68993 c -1.60873,-0.0302 -3.31739,0.4056 -5.0871,1.30798 -2.97524,1.51709 -19.48164,4.10777 -21.45722,3.36726 -0.68363,-0.25624 -2.14054,-0.14131 -3.24053,0.25344 -1.81154,0.65012 -1.67212,0.91673 1.49806,2.86036 1.925,1.18022 4.17281,1.89065 4.99658,1.57954 0.82377,-0.31112 3.60423,-1.01402 6.17784,-1.56596 4.52458,-0.97035 4.7815,-0.90058 7.75284,2.20863 2.78459,2.91382 3.07307,3.8272 3.07307,9.70803 v 6.49012 l -6.49917,-0.66531 c -4.26935,-0.43741 -6.49917,-0.30912 -6.49917,0.37565 0,1.37538 5.67,4.77891 9.27807,5.57137 1.57186,0.34524 3.09773,1.26351 3.39441,2.03665 0.71283,1.8576 1.81403,1.77046 3.88321,-0.29871 1.48557,-1.48557 1.61403,-3.10001 1.01832,-12.74942 -0.60129,-9.7399 -0.94132,-11.25352 -2.87846,-12.77658 -2.1416,-1.6838 -2.02524,-1.72529 4.55304,-1.74699 7.35074,-0.0242 8.80985,-1.46644 4.52589,-4.46705 -1.37254,-0.96136 -2.88096,-1.45881 -4.48968,-1.48901 z" /><path
         id="path3002"
         style="display:inline;fill:#4f4f4f"
         d="m 674.83586,664.0757 c -1.63974,0 -1.95177,0.45635 -1.49354,2.20863 0.4464,1.70702 -0.43565,3.18283 -3.89679,6.49917 l -4.48062,4.29507 h 2.88298 c 5.35881,0 12.08771,-7.58073 10.01579,-11.28303 -0.52913,-0.94551 -1.891,-1.71984 -3.02782,-1.71984 z m 9.75781,4.03256 c -2.88936,0.0297 -2.96828,0.12702 -1.21746,1.45281 2.43435,1.8434 1.58459,3.87501 -2.8151,6.72547 -1.94384,1.25937 -3.5413,2.62889 -3.5483,3.04139 -0.0406,2.45984 12.26171,-2.91349 13.38757,-5.84744 0.95859,-2.49805 -2.1882,-5.40943 -5.80671,-5.37223 z m 6.25025,11.22873 c -0.83217,-0.0639 -1.89014,0.34214 -3.91942,1.1541 -2.29504,0.91829 -7.26574,1.76388 -11.04768,1.87824 -4.79875,0.14511 -6.87482,0.58988 -6.87482,1.47996 0,1.46277 3.79094,3.13615 6.55348,2.89204 1.06514,-0.0941 2.02523,0.58706 2.23126,1.58406 0.26148,1.26534 -0.28435,1.754 -1.96424,1.7651 -1.27781,0.008 -2.90717,0.3892 -3.6207,0.84181 -1.96622,1.24727 1.17909,3.47782 3.75196,2.66123 1.6881,-0.53578 2.0457,-0.21532 2.0457,1.82845 0,2.11788 -0.58791,2.5801 -4.04162,3.1636 -3.43696,0.58067 -3.85712,0.90596 -2.80605,2.17242 0.74881,0.90225 2.34184,1.32663 4.04162,1.07716 2.70683,-0.39728 2.80605,-0.25769 2.80605,3.91489 0,2.37975 0.46376,4.32675 1.02737,4.32675 1.27667,0 2.97351,-4.32112 2.97351,-7.56728 0,-2.12686 0.4545,-2.43493 3.5845,-2.43493 4.55246,0 4.15781,-2.3601 -0.47069,-2.8151 -2.67759,-0.26322 -3.18095,-0.69593 -2.92372,-2.50281 0.21914,-1.53929 1.11988,-2.27511 3.05949,-2.49829 2.4248,-0.27901 2.62259,-0.55614 1.66553,-2.34441 -0.68915,-1.28769 -1.76267,-1.8505 -2.9373,-1.54333 -1.08801,0.28452 -2.08901,-0.14855 -2.43493,-1.05 -0.80553,-2.09919 -0.41848,-2.31309 4.58925,-2.54355 l 4.36748,-0.19914 0.28513,10.2104 0.28513,10.21492 -3.25411,0.84182 -3.24958,0.84181 4.46704,2.59333 c 2.45709,1.42717 4.78899,2.64243 5.18214,2.69743 1.94805,0.27261 2.54896,-4.46377 2.0457,-16.11668 -0.50096,-11.59988 -0.74925,-12.89303 -2.85583,-14.87206 -1.12199,-1.05404 -1.72949,-1.58801 -2.56165,-1.65194 z m -26.39044,2.91014 c -0.84965,-0.15163 -0.8682,1.19221 -0.59289,5.57589 0.19866,3.16325 -0.18214,8.80696 -0.84634,12.5367 -0.9477,5.32153 -0.9429,7.09368 0.0136,8.24617 3.51699,4.2377 5.97417,-1.00319 5.97417,-12.7449 0,-7.56745 -1.01018,-11.42292 -3.40347,-13.02097 -0.488,-0.32584 -0.86183,-0.54235 -1.14505,-0.59289 z m 2.9554,33.88531 c -0.80828,-0.0584 -1.20092,0.33168 -0.87802,1.19483 1.04161,2.78434 -5.55305,9.6482 -13.03002,13.56408 l -4.00089,2.09548 3.49851,0.0226 c 1.925,0.0122 5.41535,-0.84437 7.75285,-1.9054 4.14016,-1.87924 4.2498,-1.87955 4.2498,-0.0498 0,2.50986 -6.03153,7.38104 -14.00309,11.31471 l -6.49917,3.20886 5.25908,0.30323 c 3.54679,0.20411 5.97657,-0.20606 7.47224,-1.25367 1.21905,-0.85386 2.62865,-1.55238 3.13191,-1.55238 0.53503,0 0.63051,3.50113 0.23082,8.4272 -0.60711,7.48223 -0.48632,8.54162 1.10884,9.46815 0.98782,0.57377 2.247,0.90601 2.797,0.74225 1.66749,-0.4965 1.7638,-14.07683 0.12672,-17.99492 -1.45348,-3.4787 -1.44401,-3.50899 1.94161,-5.82029 4.54962,-3.10595 4.88774,-4.45822 1.86919,-7.47676 -2.41961,-2.41961 -2.45822,-2.6127 -0.74225,-3.96015 0.99246,-0.77933 2.59485,-1.87487 3.55735,-2.43493 2.42032,-1.40835 2.18709,-4.5258 -0.47522,-6.39055 -1.33685,-0.93637 -2.55897,-1.44422 -3.36726,-1.50259 z m 32.22431,2.51186 c -1.17534,-0.0826 -2.44636,0.35305 -4.77028,1.40755 -2.69422,1.22253 -6.55898,1.98684 -10.11083,2.00044 -5.82381,0.0222 -7.18561,1.0457 -4.00089,3.00067 1.78741,1.09721 4.90033,0.87557 13.74964,-0.97307 2.75,-0.57449 6.27997,-0.76658 7.84336,-0.42543 2.38867,0.52124 2.78283,0.32604 2.48472,-1.22199 -0.19512,-1.01319 -1.53365,-2.40795 -2.97804,-3.10023 -0.83955,-0.40239 -1.51248,-0.63841 -2.21768,-0.68794 z m 4.64808,9.49984 c -1.60901,-0.0281 -3.31694,0.41293 -5.08257,1.32155 -3.15833,1.62534 -14.99796,3.59564 -21.8917,3.64334 l -4.8065,0.0362 2.36252,1.96423 c 2.72657,2.27147 5.01158,2.42039 12.06601,0.79203 l 5.08257,-1.1722 2.99613,3.35368 c 2.67052,2.99118 2.99161,4.05023 2.99161,9.81665 v 6.46749 l -6.49917,-0.60647 c -3.81752,-0.35649 -6.49917,-0.22128 -6.49917,0.33039 0,1.27408 3.71513,3.51317 8.16922,4.92416 2.0185,0.63943 4.19039,1.78843 4.8246,2.5526 1.46353,1.76344 3.73816,0.92209 4.56662,-1.68815 0.3512,-1.10643 0.32218,-6.47128 -0.0679,-11.92119 -0.64275,-8.98029 -0.94668,-10.09325 -3.23601,-11.89402 l -2.52544,-1.98687 h 7.13279 c 7.74212,0 9.2739,-1.3882 4.91059,-4.44442 -1.37547,-0.96341 -2.8852,-1.46095 -4.49421,-1.48901 z" /><path
         id="path3000"
         style="display:inline;fill:#2f2f2f"
         d="m 674.04836,664.17074 c -0.87175,0.0607 -0.91135,0.60595 -0.52501,2.14527 0.48505,1.9326 -0.26647,3.19226 -3.93752,6.57611 l -4.53946,4.18645 h 3.0776 c 4.31711,0 10.14014,-5.84127 9.69445,-9.7216 -0.23148,-2.01534 -0.9488,-2.86957 -2.60691,-3.10476 -0.49117,-0.0697 -0.87257,-0.10169 -1.16315,-0.0815 z m 10.70372,3.90584 c -2.96067,0 -3.02836,0.0777 -1.19484,1.43923 2.39234,1.77649 1.29922,4.08291 -3.35368,7.06039 -1.71897,1.09999 -3.14239,2.33923 -3.16359,2.75173 -0.11771,2.29186 8.9814,-1.4052 12.18821,-4.95131 1.56997,-1.7361 1.58915,-2.114 0.19461,-4.10498 -1.02598,-1.4648 -2.5777,-2.19506 -4.67071,-2.19506 z m 6.2955,11.4867 c -0.87165,-0.0776 -1.99768,0.29692 -4.1276,1.05453 -2.43057,0.86455 -7.45499,1.6587 -11.16536,1.7651 -4.71535,0.13521 -6.74962,0.57979 -6.75262,1.47544 -0.005,1.50371 2.17567,2.48143 5.84744,2.62048 4.25506,0.16114 3.97446,3.22185 -0.37112,4.03709 -2.99882,0.56258 -3.4225,0.92456 -2.43946,2.10907 0.73808,0.8893 2.09315,1.20479 3.57545,0.83276 2.05534,-0.51586 2.38515,-0.2367 2.38515,2.00044 0,2.25765 -0.52404,2.67787 -4.01446,3.23601 -3.369,0.53873 -3.81947,0.87439 -2.80605,2.09548 0.72142,0.86926 2.33759,1.29159 4.01446,1.04548 2.55446,-0.37492 2.81025,-0.13437 2.82415,2.66575 0.008,1.69225 0.43392,3.73894 0.94591,4.54851 1.09886,1.73759 1.47883,0.93848 2.50281,-5.22287 0.57863,-3.48167 0.86779,-3.75196 4.04615,-3.75196 2.63208,0 3.29386,-0.34476 2.8513,-1.49806 -0.32811,-0.85503 -1.82227,-1.49807 -3.47135,-1.49807 -2.39915,0 -2.89204,-0.41877 -2.89204,-2.43946 0,-1.9655 0.57541,-2.49444 2.97351,-2.74721 2.24111,-0.23623 2.75968,-0.65594 2.10906,-1.6972 -0.47468,-0.75969 -1.9183,-1.43277 -3.20886,-1.49807 -1.34557,-0.0681 -2.488,-0.84404 -2.67479,-1.81488 -0.23967,-1.24569 0.61588,-1.8673 3.23148,-2.35799 6.38275,-1.19741 6.67344,-0.70416 6.35434,10.77613 l -0.28513,10.26019 -3.00066,0.60647 -3.00066,0.60194 3.68407,1.63837 c 2.02489,0.90078 3.96357,2.09835 4.30864,2.65669 0.82078,1.32809 2.21706,1.28897 3.06403,-0.0815 0.37123,-0.6012 0.54083,-4.98746 0.37564,-9.74876 -0.16521,-4.7613 -0.22617,-10.72512 -0.13577,-13.25179 0.13014,-3.63824 -0.3148,-5.04656 -2.14527,-6.7662 -1.11399,-1.04654 -1.73073,-1.57431 -2.60239,-1.65195 z m -27.19604,2.01402 0.57026,4.15476 c 0.31366,2.28594 -0.12005,7.79803 -0.96401,12.24705 -1.12733,5.94282 -1.24982,8.62 -0.46165,10.09272 3.07986,5.75477 6.00586,-0.37694 6.00586,-12.59101 0,-7.51762 -0.24297,-8.55465 -2.57523,-11.09747 z m 4.50325,34.66376 c -0.82717,-3.5e-4 -1.39227,1.05083 -2.20863,3.30842 -1.38655,3.83444 -6.49866,8.50229 -12.64532,11.54553 l -4.00089,1.97781 3.53925,0.005 c 1.9462,4.4e-4 5.30107,-0.90044 7.45866,-2.00044 4.7634,-2.42851 4.50325,-2.42299 4.50325,-0.0769 0,2.61141 -6.96677,8.37998 -13.55955,11.23325 -2.97515,1.2876 -5.41754,2.67868 -5.42654,3.09118 -0.0372,1.63615 8.60931,0.66913 11.8895,-1.33061 l 3.40347,-2.07738 -0.60194,8.55844 c -0.48098,6.81548 -0.30421,8.86072 0.87349,10.03842 0.81332,0.81332 2.14179,1.22471 2.95088,0.91423 1.89302,-0.72642 1.94941,-12.26391 0.086,-17.47897 -1.26558,-3.54193 -1.21552,-3.68879 2.0457,-6.29098 3.78042,-3.01646 4.2869,-5.9711 1.33966,-7.81168 -2.72642,-1.70269 -2.55137,-2.26759 1.49807,-4.77028 3.99278,-2.46767 4.35077,-4.14433 1.49807,-6.99702 -1.19947,-1.19948 -1.99976,-1.83725 -2.64312,-1.83751 z m 30.74434,2.58428 c -1.14667,0.0587 -2.26657,0.38325 -3.14096,0.99569 -1.14498,0.80198 -4.86569,1.6729 -8.26879,1.93708 -8.6589,0.67217 -9.76395,1.14354 -6.68926,2.85583 3.11351,1.73392 2.1495,1.74383 10.9979,-0.10409 4.125,-0.86147 8.52528,-1.37416 9.77591,-1.136 2.70273,0.51469 3.84238,-0.84782 2.28105,-2.72911 -1.0597,-1.27686 -3.04472,-1.9172 -4.95585,-1.8194 z m 5.49443,9.4772 c -1.24273,0.0779 -2.95419,0.59464 -6.06469,1.61574 -3.66652,1.20364 -10.68425,2.4755 -15.5962,2.82416 -4.91195,0.34865 -8.9341,0.94233 -8.9341,1.31703 0,0.37471 1.09323,1.26461 2.42588,1.97781 1.96057,1.04928 3.67333,1.05917 8.97483,0.0588 l 6.54895,-1.23557 3.02782,2.85583 c 2.79851,2.64135 3.02329,3.37216 3.02329,9.75329 v 6.89745 l -6.49917,-0.60647 c -3.81752,-0.35649 -6.49917,-0.22128 -6.49917,0.33039 0,1.27408 3.71513,3.51317 8.16922,4.92416 2.0185,0.63943 4.21963,1.82785 4.89249,2.63859 1.07014,1.28944 1.46895,1.25303 3.16359,-0.2806 1.77094,-1.60268 1.87812,-2.65581 1.27177,-12.2742 -0.61656,-9.78053 -0.85163,-10.6807 -3.33105,-12.76753 l -2.66574,-2.24484 7.32288,-0.005 c 6.12076,-0.004 7.26726,-0.26414 6.99702,-1.57501 -0.17782,-0.86263 -1.51449,-2.29035 -2.97351,-3.17265 -1.23776,-0.74851 -2.01138,-1.10981 -3.25411,-1.0319 z" /><path
         id="path2998"
         style="display:inline;fill:#030303"
         d="m 674.03931,664.16622 c -0.87443,0.0624 -0.89617,0.63081 -0.4888,2.25389 0.50875,2.02702 -0.16001,3.24824 -3.5845,6.57158 -4.20393,4.07971 -4.20245,4.08688 -1.48449,4.08688 3.95885,0 9.75956,-6.04175 9.3369,-9.7216 -0.23148,-2.01534 -0.9488,-2.86957 -2.60691,-3.10476 -0.49692,-0.0705 -0.88073,-0.1068 -1.1722,-0.086 z m 7.51749,3.91036 2.22221,1.55691 c 2.82119,1.97603 1.77142,4.29234 -3.15001,6.94271 -1.92929,1.03898 -3.28353,2.24986 -3.00972,2.6929 0.66482,1.0757 0.86892,1.05082 5.12783,-0.72867 4.69404,-1.9613 7.25499,-4.28777 7.25499,-6.58516 0,-2.08816 -2.84642,-3.87869 -6.15973,-3.87869 z m 9.36858,11.58174 c -0.76354,-0.0916 -1.70175,0.26313 -3.44419,0.99117 -2.01021,0.83992 -6.98501,1.61873 -11.05674,1.72889 -4.76245,0.12884 -7.4074,0.60436 -7.4134,1.33966 -0.0126,1.44833 2.32555,2.35799 6.06921,2.35799 2.19423,0 2.9192,0.46716 2.9192,1.88729 0,1.37418 -0.971,2.07391 -3.57093,2.56165 -2.95601,0.55455 -3.37226,0.91605 -2.38967,2.10002 0.73808,0.8893 2.09315,1.20479 3.57545,0.83276 2.03789,-0.51148 2.38515,-0.23144 2.38515,1.9054 0,2.55711 -1.60916,3.71122 -5.16404,3.71122 -1.16918,0 -1.81838,0.5235 -1.56143,1.25367 0.24194,0.6875 1.83518,1.18272 3.53924,1.10432 2.93163,-0.13487 3.1316,0.0993 3.76554,4.32675 0.77986,5.20049 2.14599,4.58079 2.60238,-1.18126 0.30347,-3.8313 0.4861,-4.02435 4.23623,-4.50326 3.48057,-0.44449 3.72954,-0.64853 2.25389,-1.86466 -0.91297,-0.75242 -2.56304,-1.13477 -3.66596,-0.84634 -1.66741,0.43603 -2.00497,0.036 -2.00497,-2.38062 0,-2.59437 0.33825,-2.90562 3.15454,-2.90562 3.05494,0 3.10104,-0.0613 1.40755,-1.93255 -0.96192,-1.0629 -2.34646,-1.70169 -3.0776,-1.42113 -0.73115,0.28057 -1.8061,-0.37539 -2.38514,-1.45733 -0.8799,-1.64412 -0.68832,-2.06745 1.1722,-2.56618 1.22436,-0.3282 3.70642,-0.60299 5.51253,-0.61099 l 3.28127,-0.0136 -0.28061,10.70824 c -0.27362,10.32171 -0.36883,10.72533 -2.64311,11.26041 -2.26285,0.53239 -2.20355,0.66127 1.49806,3.18622 2.12253,1.44781 4.3108,2.53135 4.8608,2.40325 0.60758,-0.14152 1.00022,-5.69569 1.00022,-14.14792 0,-12.95075 -0.15018,-14.06118 -2.18147,-16.13479 -1.04023,-1.06188 -1.63065,-1.60107 -2.3942,-1.69268 z m -26.02384,3.59356 c -0.66476,-0.004 -0.74861,0.97619 -0.36659,3.4804 0.32237,2.11321 -0.10711,7.38286 -0.95044,11.70847 -1.07431,5.51027 -1.23191,8.42789 -0.525,9.74876 2.84457,5.31513 5.94878,-1.35535 5.92438,-12.73132 -0.0148,-6.91952 -1.39078,-11.36098 -3.76101,-12.14295 -0.11886,-0.0392 -0.22637,-0.0628 -0.32134,-0.0634 z m 2.86941,33.45987 c -0.66649,0.0327 -0.90935,0.7124 -1.27177,2.36251 -0.76445,3.4805 -7.16709,9.49335 -12.86257,12.07959 -3.61136,1.63987 -3.8046,1.88167 -1.53427,1.90087 4.25722,0.036 9.06328,-2.00448 14.89921,-6.32719 3.025,-2.24063 5.65068,-4.16902 5.8384,-4.28601 1.04583,-0.65182 -1.22914,-4.22037 -3.29032,-5.15951 -0.82603,-0.37636 -1.37878,-0.58991 -1.77868,-0.57026 z m 32.48681,2.56165 c -1.25109,-0.0776 -2.69867,0.28227 -5.05541,1.12695 -2.58752,0.92737 -6.81118,1.6821 -9.39122,1.6791 -5.09682,-0.005 -6.88976,1.27121 -4.08234,2.90562 0.97405,0.56708 1.76942,1.04235 1.76962,1.05905 2.1e-4,0.0167 3.15176,-0.63283 7.00154,-1.44828 3.8498,-0.81545 8.68648,-1.49259 10.74898,-1.50259 4.32648,-0.02 4.89391,-1.53662 1.20389,-3.21791 -0.76508,-0.34859 -1.4444,-0.55541 -2.19506,-0.60194 z m 4.09593,9.1785 c -1.52753,0.0526 -3.59236,0.73424 -7.21879,2.07738 -2.40005,0.88892 -8.61823,1.89426 -13.81753,2.23578 l -9.45005,0.62005 2.0457,2.05023 c 1.90469,1.90469 2.46058,1.96561 7.87957,0.84634 8.18091,-1.68974 9.38892,-1.49317 12.12485,1.96423 1.93348,2.44336 2.43801,4.28607 2.50281,9.19208 l 0.0815,6.1371 -6.65305,-0.0724 c -7.90566,-0.0883 -8.29219,1.51637 -1.00928,4.18192 2.56401,0.93842 5.5364,2.52544 6.6078,3.52567 1.82671,1.70536 2.06652,1.71475 3.80627,0.1403 1.66928,-1.51068 1.78686,-2.73936 1.20388,-12.22894 -0.60205,-9.80009 -0.83655,-10.70408 -3.3039,-12.79016 l -2.65216,-2.24484 5.99679,-0.0226 c 8.00118,-0.027 9.51823,-1.04362 5.8565,-3.92394 -1.48376,-1.16712 -2.47336,-1.74077 -4.00088,-1.68815 z m -37.55128,0.68793 c -1.02503,-0.1463 -1.8013,0.49636 -1.8013,1.83298 0,3.13949 -10.30527,11.15195 -16.25245,12.63628 -4.16331,1.0391 -3.29025,2.46608 1.50259,2.46208 2.53204,-0.002 5.62124,-0.83956 7.64422,-2.07286 l 3.39442,-2.06833 -0.52953,8.49056 c -0.34799,5.57779 -0.14759,8.86799 0.58384,9.59941 0.61231,0.61231 1.79761,0.98279 2.63406,0.82371 2.11442,-0.40212 2.56442,-11.16753 0.69246,-16.60095 l -1.42113,-4.11856 3.37632,-2.57522 c 3.49313,-2.66435 4.24799,-5.19753 2.17242,-7.2731 -0.67776,-0.67777 -1.3809,-1.04822 -1.99592,-1.136 z" /></g></g></svg>
