<?xml version="1.0" encoding="UTF-8" standalone="no"?>
<!-- Created with Inkscape (http://www.inkscape.org/) -->

<svg
   viewBox="0 0 39.200001 39.200001"
   version="1.1"
   id="svg1"
   inkscape:version="1.3.2 (091e20e, 2023-11-25, custom)"
   sodipodi:docname="King Black.svg"
   xml:space="preserve"
   xmlns:inkscape="http://www.inkscape.org/namespaces/inkscape"
   xmlns:sodipodi="http://sodipodi.sourceforge.net/DTD/sodipodi-0.dtd"
   xmlns="http://www.w3.org/2000/svg"
   xmlns:svg="http://www.w3.org/2000/svg"><sodipodi:namedview
     id="namedview1"
     pagecolor="#ffffff"
     bordercolor="#111111"
     borderopacity="1"
     inkscape:showpageshadow="false"
     inkscape:pageopacity="0"
     inkscape:pagecheckerboard="1"
     inkscape:deskcolor="#d1d1d1"
     inkscape:document-units="mm"
     showguides="false"
     inkscape:zoom="14.005102"
     inkscape:cx="19.6"
     inkscape:cy="19.6"
     inkscape:window-width="1292"
     inkscape:window-height="745"
     inkscape:window-x="-8"
     inkscape:window-y="-8"
     inkscape:window-maximized="1"
     inkscape:current-layer="layer1"
     labelstyle="default"><inkscape:page
       x="0"
       y="0"
       width="39.200001"
       height="39.200001"
       id="page42"
       margin="0"
       bleed="0" /></sodipodi:namedview><defs
     id="defs1"><inkscape:path-effect
       effect="powerstroke"
       id="path-effect12"
       is_visible="true"
       lpeversion="1.3"
       scale_width="1"
       interpolator_type="CubicBezierJohan"
       interpolator_beta="0.2"
       start_linecap_type="zerowidth"
       end_linecap_type="zerowidth"
       offset_points="7,4.9921382"
       linejoin_type="extrp_arc"
       miter_limit="4"
       not_jump="false"
       sort_points="true"
       message="&lt;b&gt;Ctrl + click&lt;/b&gt; on existing node and move it" /><inkscape:path-effect
       effect="powerstroke"
       id="path-effect13"
       is_visible="true"
       lpeversion="1.3"
       scale_width="1"
       interpolator_type="CubicBezierJohan"
       interpolator_beta="0.2"
       start_linecap_type="zerowidth"
       end_linecap_type="zerowidth"
       offset_points="5,4.9921382"
       linejoin_type="extrp_arc"
       miter_limit="4"
       not_jump="false"
       sort_points="true"
       message="&lt;b&gt;Ctrl + click&lt;/b&gt; on existing node and move it" /></defs><g
     inkscape:label="Layer 1"
     inkscape:groupmode="layer"
     id="layer1"
     transform="rotate(180,62.299999,101)"><path
       style="fill:#938e5e;fill-opacity:1;fill-rule:evenodd;stroke:none;stroke-width:1;stroke-linecap:round;stroke-linejoin:round;stroke-dasharray:none;stroke-opacity:1;paint-order:stroke fill markers"
       d="m 119.35,200 v -6.4 L 114.78527,167.97943 105,164.8 95.21473,167.97943 90.649996,193.6 l 2e-6,6.4 z"
       id="path12"
       sodipodi:nodetypes="cccccccc" /><path
       style="display:inline;fill:#fff29e;fill-opacity:1;fill-rule:evenodd;stroke:none;stroke-width:0.385762;stroke-linecap:round;stroke-linejoin:round;paint-order:stroke fill markers"
       d="m 105,168 9.78527,3.17942 L 119.35,200 h -28.7 l 4.56473,-28.82058 z"
       id="path13" /><g
       id="g3792"
       transform="matrix(0.2522463,0,0,0.2522463,-66.982538,-2.8004628)"><path
         id="path3010"
         style="display:inline;fill:#d0d0d0"
         d="m 706.02543,788.75535 c 1.01279,0.0342 1.95471,-0.34412 2.77196,-1.16144 1.44761,-1.44754 1.63474,-16.79753 0.26326,-21.57954 l -0.92915,-3.26751 6.43438,0.65814 c 5.97294,0.61196 6.43437,0.52404 6.43437,-1.31629 0,-3.71708 -3.22405,-5.46962 -8.73402,-4.73868 -4.04673,0.53682 -5.07966,0.3585 -5.58265,-0.95238 -0.3396,-0.88492 -1.34656,-1.60278 -2.23771,-1.60278 -1.28382,0 -1.08344,-0.64385 0.96787,-3.08169 1.42385,-1.69219 2.58613,-3.69283 2.58613,-4.44444 0,-3.89827 -10.38199,-6.01205 -14.44056,-2.94231 -2.32372,1.75758 -6.00524,1.99869 -4.97096,0.3252 0.3889,-0.62926 0.67752,-2.37365 0.63492,-3.87146 -0.0743,-2.6149 0.15789,-2.74121 5.96206,-3.26752 6.99588,-0.63437 8.4766,-1.61171 6.90669,-4.5451 -0.89971,-1.68123 -2.1038,-2.55343 -3.80952,-2.63259 -0.24369,-0.0113 -0.49413,-0.006 -0.75881,0.0155 -1.27048,0.0997 -2.79458,0.57212 -4.62253,1.40147 -2.63156,1.19396 -6.58304,2.00006 -9.82577,2.01316 l -5.4278,0.0232 2.3074,2.44677 c 1.26422,1.34564 3.25206,2.61203 4.42121,2.81068 1.87433,0.31848 1.50085,0.95504 -3.12814,5.36585 -5.60379,5.33952 -6.42277,7.67724 -3.29075,9.35346 1.58772,0.84971 2.57045,0.50595 5.24971,-1.83508 2.59434,-2.26674 3.64092,-2.65261 4.94773,-1.81958 1.27129,0.81038 2.87747,0.42453 6.84475,-1.63376 5.84083,-3.03039 6.9996,-3.25515 6.9996,-1.3705 0,1.9202 -6.665,5.31213 -13.00037,6.61246 -7.45986,1.53112 -9.28903,2.73407 -5.44328,3.58498 1.62132,0.35873 3.49196,0.82627 4.15795,1.02981 0.666,0.20355 3.58055,-0.25428 6.48083,-1.00658 2.90032,-0.75233 5.61831,-1.15075 6.03949,-0.89044 2.03068,1.25505 0.15089,2.17148 -6.48083,3.15911 -14.49483,2.15863 -18.8708,2.38977 -21.87378,1.14596 -3.62785,-1.50274 -4.55103,-0.72993 -3.05071,2.56291 1.6056,3.52386 4.85228,4.51202 10.56135,3.20557 3.9095,-0.89462 4.92604,-0.8301 5.68331,0.34843 1.64459,2.55942 0.51787,4.23613 -3.825,5.68331 -5.21226,1.73685 -4.63428,3.25203 1.24661,3.25203 5.53957,0 9.08088,-1.34285 10.48392,-3.96438 0.91204,-1.70416 0.67696,-2.47435 -1.38598,-4.53736 l -2.49322,-2.49322 2.20673,-0.45683 c 1.20914,-0.25423 4.07059,-0.60225 6.36469,-0.77429 3.89767,-0.29228 4.21336,-0.12571 4.75415,2.57839 0.31833,1.59165 0.57298,4.62146 0.57298,6.72861 v 3.825 l -7.24738,0.30198 -7.24738,0.28648 4.61479,2.13705 c 2.53801,1.17367 5.90834,3.76419 7.49515,5.753 1.84141,2.30777 3.72432,3.52031 5.41231,3.57723 z m -44.82382,-0.95238 c 1.03372,-0.11711 1.94973,-1.03907 2.741,-2.76422 0.69371,-1.5125 1.62862,-9.27636 2.08285,-17.25125 0.45423,-7.97489 1.30675,-16.06545 1.89702,-17.98682 2.67874,-8.71843 0.37049,-13.9888 -6.80604,-15.50909 -1.24648,-0.26405 -2.03274,-0.42343 -2.49322,-0.37166 h -0.008 c -0.76747,0.0863 -0.62535,0.76217 -0.20906,2.51645 0.37317,1.57261 1.56379,3.60097 2.64034,4.51413 2.39475,2.03134 2.63414,7.36256 0.37166,8.23073 -2.33341,0.89542 -2.4158,0.83273 -2.4158,-1.88927 0,-1.375 -0.90542,-3.39864 -2.00542,-4.49864 -1.09996,-1.1 -3.12364,-2.00542 -4.49864,-2.00542 -2.81757,0 -3.16402,0.75974 -1.09175,2.39257 0.77497,0.61059 1.72818,3.07965 2.11382,5.48973 l 0.69686,4.39024 -3.6082,-0.68138 c -4.1255,-0.77395 -4.66176,0.36348 -1.61053,3.41464 2.58211,2.58205 7.03248,2.54599 10.36778,-0.0774 2.55936,-2.01315 2.6326,-2.02059 2.6326,-0.13938 0,1.37957 -1.32299,2.44509 -4.59156,3.69338 -4.37655,1.67136 -7.26872,1.65523 -13.27138,-0.0852 -2.13218,-0.61816 -2.2901,-0.45028 -1.62601,1.71119 1.04018,3.38579 2.44413,4.89353 4.56058,4.89353 1.75572,0 1.7516,0.17027 -0.10066,4.25086 -2.56515,5.6515 -2.56292,8.74951 0.008,8.74951 2.66342,0 5.27669,-4.24425 5.4123,-8.78822 0.0986,-3.30452 0.54009,-3.89989 4.01084,-5.47425 2.14439,-0.97276 4.1147,-1.56085 4.37475,-1.30081 0.71997,0.71998 -0.86299,15.72265 -1.61827,15.33874 -4.95033,-2.51624 -6.24693,-3.02135 -6.6744,-2.59388 -0.27741,0.27741 0.96425,3.03338 2.75648,6.12465 2.11267,3.64405 3.9443,5.54115 5.51296,5.70654 0.15252,0.0161 0.30142,0.0167 0.44909,0 z m 3.41464,-60.16255 c 1.43813,-0.0937 3.08598,-0.57084 5.50522,-1.46342 3.3609,-1.24001 7.79562,-1.59192 19.12503,-1.50212 14.07144,0.11153 14.75802,0.0301 14.75802,-1.85831 0,-3.86462 -3.99754,-5.2174 -13.23266,-4.46767 l -8.40108,0.68138 0.42586,-3.62369 c 0.32553,-2.7884 0.96513,-3.77028 2.75648,-4.21989 1.28301,-0.32202 2.79829,-0.29801 3.36818,0.0542 1.22585,0.75762 5.07936,-1.10266 5.07936,-2.45451 0,-1.76316 -5.43879,-3.88747 -7.29384,-2.8494 -2.32896,1.30335 -3.38834,0.45827 -3.91018,-3.09717 -0.42085,-2.86742 -0.2754,-3.0043 4.12698,-3.57723 6.08928,-0.79238 9.08246,-2.09698 9.08246,-3.97213 0,-1.83591 -1.64576,-2.86454 -4.29733,-2.95779 -1.59087,-0.0559 -3.5495,0.21971 -5.72976,0.8672 -5.96372,1.77098 -20.09211,2.13452 -22.98102,0.58847 -2.96184,-1.58515 -3.23209,0.50003 -0.42586,3.30623 2.5192,2.51923 9.38445,4.4605 11.38985,3.22105 0.64143,-0.39642 1.03755,0.71707 1.03755,2.91909 v 3.554 h -6.50406 c -7.28229,0 -8.10359,1.03204 -3.24428,4.04955 2.29453,1.42489 4.20185,1.84839 6.49631,1.44019 l 3.25203,-0.57298 v 4.5451 4.53736 h -5.75299 c -3.1625,-0.003 -7.48835,-0.49301 -9.61672,-1.08401 -2.32099,-0.64445 -4.23234,-0.70765 -4.77739,-0.1626 -1.14019,1.14015 2.63536,6.09857 5.5362,7.2706 1.56636,0.6329 2.78947,0.9222 4.22764,0.8285 z" /><path
         id="path3006"
         style="display:inline;fill:#909090"
         d="m 706.40483,788.69341 c 1.12676,-0.094 2.06296,-0.97983 2.71777,-2.65583 1.13647,-2.90884 0.65677,-18.34924 -0.67364,-21.63374 -0.71763,-1.7717 -0.37073,-1.83991 5.89237,-1.16918 6.28363,0.67292 6.65892,0.60133 6.65892,-1.33953 0,-3.41716 -4.03721,-5.33419 -8.9276,-4.23538 -3.72614,0.83721 -4.41863,0.69165 -6.5118,-1.40147 -2.29379,-2.29379 -2.3101,-2.38781 -0.45683,-4.06504 2.86153,-2.58961 2.48945,-7.22945 -0.67364,-8.43205 -3.90477,-1.48454 -7.10682,-1.17643 -11.56793,1.0995 -2.23139,1.13837 -4.20385,1.91307 -4.39024,1.72667 -0.1864,-0.1864 -0.0944,-2.18908 0.20906,-4.45218 l 0.54975,-4.11149 6.12465,-0.68913 c 6.74098,-0.76263 8.37485,-2.07782 5.93883,-4.76964 -0.97986,-1.08273 -1.96851,-1.63821 -3.29849,-1.68021 -1.32998,-0.042 -3.00222,0.43133 -5.34262,1.40921 -1.9745,0.825 -5.88956,1.49438 -8.70305,1.49438 -5.80977,0 -6.29623,1.49907 -1.30856,4.04181 2.47276,1.26066 2.86438,1.90263 2.14479,3.51529 -0.48387,1.08439 -2.41683,3.02424 -4.29732,4.31281 -3.48054,2.3849 -5.11951,5.30462 -3.99535,7.1235 1.13321,1.83354 5.32978,1.05114 7.21641,-1.34727 1.42848,-1.81602 2.5644,-2.25228 4.93224,-1.90476 1.91877,0.28162 4.61837,-0.34357 7.1777,-1.64925 4.87634,-2.48773 6.17885,-2.6048 6.17885,-0.57297 0,1.96925 -5.24804,5.12631 -9.86449,5.93882 -6.77748,1.19287 -10.49679,2.7019 -9.00502,3.64692 1.93808,1.22774 8.98583,1.10476 12.79906,-0.22454 2.3588,-0.82232 3.51823,-0.82556 4.32829,-0.0155 0.60916,0.60916 0.82493,1.38955 0.48007,1.73442 -0.34487,0.34486 -5.83503,1.33972 -12.20286,2.21447 -9.08211,1.24761 -12.48562,1.34807 -15.79557,0.46458 -2.32075,-0.61945 -4.41828,-0.92438 -4.66124,-0.68138 -0.243,0.243 0.48142,1.6711 1.61052,3.1746 2.18503,2.90944 6.12029,3.50641 13.06232,1.98994 3.1621,-0.69078 3.25203,-0.61747 3.25203,2.64808 0,3.1685 -0.27028,3.42576 -4.74641,4.55284 -4.06915,1.02462 -4.47328,1.34199 -2.87263,2.2377 2.05912,1.15234 9.58531,0.42972 12.65969,-1.21563 1.07783,-0.57683 1.95896,-1.78696 1.95896,-2.6868 0,-2.15054 -2.88455,-5.28864 -4.90127,-5.32714 -3.76203,-0.0717 1.64565,-1.72227 7.5571,-2.30739 7.14132,-0.70686 7.34029,-0.48566 7.34029,7.92102 v 5.42005 l -7.24738,0.0542 -7.24738,0.0542 5.00193,2.33062 c 2.75,1.28065 6.25344,3.95891 7.78939,5.94657 1.89877,2.4572 3.66163,3.63616 5.11033,3.51529 z m -45.10256,-0.76655 c 2.1508,-0.1704 3.23555,-5.59933 3.83275,-17.04993 0.39312,-7.53769 1.41681,-16.44372 2.28417,-19.79092 2.16088,-8.33923 1.9966,-10.96503 -0.87495,-13.83662 -1.55484,-1.55484 -3.70929,-2.43243 -5.38134,-2.54742 -0.20902,-0.0144 -0.41225,-0.0179 -0.60395,-0.008 -1.34181,0.0661 -2.20342,0.72303 -1.86604,2.01316 0.27531,1.05279 1.4887,2.8475 2.70228,3.98761 2.85504,2.68207 2.50037,9.09794 -0.50329,9.09794 -1.27743,0 -1.88928,-0.71453 -1.88928,-2.19125 0,-3.00922 -3.82817,-6.81378 -6.85249,-6.81378 h -2.50096 l 2.04413,2.25319 c 1.12311,1.2375 2.31043,3.9836 2.63259,6.10143 l 0.58072,3.84824 -3.86372,-0.36392 c -3.47467,-0.33137 -3.76272,-0.18629 -2.88811,1.44793 1.84916,3.45511 5.48692,4.26762 9.62446,2.16027 2.04794,-1.04307 4.02102,-2.03896 4.39024,-2.22222 0.36923,-0.18325 0.44488,0.52184 0.17035,1.57182 -1.0521,4.02315 -11.70371,6.68981 -16.49244,4.12698 -2.56807,-1.37439 -3.25498,-0.6729 -2.45451,2.51645 0.39609,1.57828 1.57111,2.77026 3.1204,3.15911 1.36662,0.343 2.48548,0.73724 2.48548,0.8827 0,0.14546 -0.93164,2.37831 -2.07511,4.96321 -2.18378,4.93689 -2.00009,7.5571 0.52652,7.5571 2.3067,0 4.66259,-4.38254 4.72319,-8.77274 0.0505,-3.65934 0.38273,-4.09113 4.56833,-6.12465 2.4777,-1.20378 4.63718,-2.0527 4.80836,-1.88153 0.17117,0.17118 -0.0938,3.45235 -0.58847,7.29384 -0.49468,3.84145 -0.91115,7.7591 -0.92915,8.70305 -0.0297,1.55726 -0.35509,1.52525 -3.53077,-0.34843 -4.32198,-2.55003 -4.39626,-1.4477 -0.34843,5.06387 2.18541,3.51563 3.85856,5.30549 5.14904,5.20325 z m 2.31514,-60.27096 c 1.28018,0.0365 2.75778,-0.489 5.50522,-1.54084 3.43768,-1.31609 7.53663,-1.65087 19.10955,-1.56407 8.10195,0.0608 14.96633,-0.27082 15.25357,-0.73558 0.90154,-1.45876 -0.49715,-3.71316 -3.01975,-4.86256 -1.53308,-0.69853 -5.39689,-0.87354 -10.49941,-0.48006 l -8.08361,0.61944 0.64266,-2.89586 c 1.17007,-5.29935 1.28373,-5.40456 5.88462,-5.40456 5.22437,0 6.30597,-1.04293 3.60821,-3.48432 -1.42954,-1.29372 -2.83534,-1.58196 -5.36585,-1.10724 -3.3307,0.62486 -3.43723,0.53511 -3.84049,-2.91908 -0.22828,-1.95515 -0.20399,-3.76039 0.0542,-4.01858 0.25819,-0.25819 2.31512,-0.47232 4.57607,-0.47232 4.82804,0 8.75816,-2.31508 7.86681,-4.63802 -0.30105,-0.7845 -0.84137,-1.16421 -2.09059,-1.22338 -0.74952,-0.0355 -1.7548,0.0441 -3.1204,0.2168 -16.17544,2.045 -20.61234,2.31805 -24.31279,1.48665 -5.20269,-1.16898 -5.99852,-0.28935 -2.47774,2.74099 2.05653,1.7701 3.98988,2.4158 7.24738,2.4158 4.38109,0 4.44444,0.0489 4.44444,3.37591 0,2.92292 -0.38822,3.45512 -2.89585,3.95664 -1.5925,0.31849 -4.63184,0.33772 -6.75184,0.0465 l -3.84823,-0.52652 2.80294,2.57065 c 2.02397,1.858 3.90671,2.57839 6.75183,2.57839 h 3.94115 v 4.35927 4.36701 l -5.04064,0.59621 c -2.77467,0.32861 -6.18645,0.16308 -7.57259,-0.36392 -1.38614,-0.52696 -3.85623,-0.96012 -5.48973,-0.96012 -2.68596,0 -2.85994,0.19478 -1.86605,2.05188 0.60445,1.12939 2.52944,2.92684 4.28184,3.99535 1.94058,1.1832 3.02488,1.78311 4.30507,1.81958 z" /><path
         id="path3008"
         style="display:inline;fill:#b0b0b0"
         d="m 706.42806,788.75535 c 1.01841,-0.0865 1.90298,-0.70734 2.53968,-1.89702 1.25884,-2.35205 1.31412,-15.12576 0.0929,-20.38713 l -0.88269,-3.825 6.41115,0.68912 c 5.9351,0.63561 6.41114,0.5385 6.41114,-1.27759 0,-1.07879 -0.88566,-2.76223 -1.97445,-3.74757 -1.66352,-1.50547 -2.751,-1.64806 -6.75957,-0.89044 -4.25889,0.80491 -4.99546,0.66424 -6.91444,-1.30081 -2.1072,-2.15779 -2.10981,-2.23273 -0.24777,-3.91792 2.50491,-2.2669 2.48115,-7.02922 -0.0387,-8.37785 -3.03375,-1.6236 -7.78125,-1.21824 -12.20285,1.03755 -2.23139,1.13837 -4.20385,1.91307 -4.39024,1.72667 -0.1864,-0.1864 -0.0934,-2.18161 0.20906,-4.43669 l 0.54975,-4.10376 6.09368,-0.63492 c 6.70947,-0.70129 8.06263,-1.45651 7.10026,-3.96438 -0.60697,-1.58174 -2.39073,-2.38293 -4.73867,-2.32287 -1.4087,0.036 -3.02282,0.38662 -4.7077,1.06078 -2.21099,0.88466 -6.25841,1.60278 -8.99728,1.60278 -2.73887,0 -4.98645,0.38698 -4.98645,0.85173 0,1.3073 3.28023,3.89578 5.50523,4.35152 1.72584,0.35351 1.26955,1.14015 -3.30623,5.71428 -3.00204,3.00099 -5.16359,6.00763 -4.98645,6.93767 0.49551,2.60116 4.68369,2.60698 7.45644,0 1.64323,-1.54374 3.40469,-2.22012 5.30391,-2.02091 1.56651,0.16432 4.67938,-0.6291 6.90669,-1.76539 4.74936,-2.42296 6.12465,-2.57669 6.12465,-0.68137 0,2.08621 -4.01248,4.29963 -11.11884,6.14014 -3.50753,0.90841 -7.04956,2.03815 -7.87456,2.50096 -2.5383,1.42392 1.37879,2.29504 7.27835,1.61828 2.86765,-0.32895 6.29975,-0.72494 7.61904,-0.87495 1.31934,-0.15001 2.57651,0.24061 2.7952,0.8672 0.81532,2.336 -24.16013,5.24264 -28.74175,3.34495 -1.66254,-0.68862 -3.24507,-1.02127 -3.52303,-0.74332 -1.1105,1.11043 2.05405,5.84426 4.28184,6.4034 2.30712,0.57905 8.63171,-0.0745 11.54471,-1.19241 1.07694,-0.41327 1.41442,0.26166 1.33952,2.67131 -0.0895,2.87794 -0.55564,3.36755 -4.45992,4.66898 -3.12764,1.04254 -3.98141,1.69606 -3.00426,2.31514 2.08705,1.32224 7.54036,1.06193 11.39759,-0.54975 4.48984,-1.87599 4.84399,-5.76819 0.72009,-7.9365 l -2.75648,-1.44793 2.50096,-0.51877 c 1.375,-0.2868 4.5935,-0.76118 7.14673,-1.05304 5.32152,-0.60831 5.82141,0.12642 5.84591,8.64885 l 0.008,4.75416 h -7.20092 c -7.55379,0 -8.01796,0.88534 -1.55633,2.95005 2.42563,0.77505 4.70409,2.56865 6.49632,5.10259 1.91806,2.71196 3.99369,4.05443 5.69105,3.91018 z m -45.19547,-0.87495 c 2.14736,-0.0762 3.27646,-5.17684 3.89469,-15.9272 0.40042,-6.96283 1.52831,-16.63562 2.50871,-21.49437 1.59605,-7.90978 1.6237,-9.11132 0.28649,-11.49825 -1.16637,-2.08209 -6.78197,-5.07033 -8.93534,-5.01742 -0.30764,0.008 -0.54599,0.0737 -0.68912,0.2168 -0.73451,0.73457 2.56069,7.63453 3.64692,7.63453 0.578,0 1.05303,1.79535 1.05303,3.99535 0,3.33326 -0.331,4.0031 -1.99767,4.0031 -1.46667,0 -1.99768,-0.66764 -1.99768,-2.50097 0,-3.22076 -3.2917,-6.50406 -6.52729,-6.50406 h -2.53968 l 1.97445,2.74874 c 1.08255,1.5125 2.10501,4.103 2.27642,5.753 0.29837,2.8721 0.15222,2.99731 -3.43786,2.88811 -4.35672,-0.13252 -4.50997,0.17916 -1.57956,3.29849 2.66121,2.83268 5.31767,2.92278 9.57801,0.3252 3.16686,-1.93091 3.25203,-1.93138 3.25203,-0.0774 0,1.33029 -1.33517,2.41298 -4.44444,3.60046 -4.24749,1.62207 -8.14435,1.60543 -13.29461,-0.0465 -2.12862,-0.68274 -2.18047,-0.56732 -1.14596,2.40031 0.66729,1.91421 1.97443,3.35322 3.39141,3.70886 l 2.31513,0.57298 -2.02864,4.87805 c -2.12407,5.11098 -1.88789,7.95198 0.65814,7.95198 2.22567,0 4.53657,-4.13905 4.80836,-8.59465 0.20894,-3.42516 0.73711,-4.17664 4.24313,-6.10917 2.2,-1.21265 4.24929,-2.22829 4.55284,-2.25319 0.30355,-0.0249 0.21149,3.00062 -0.20132,6.71312 -0.4128,3.71246 -0.76932,7.78431 -0.79752,9.05922 l -0.0542,2.32288 -2.9036,-2.06736 c -5.18428,-3.69161 -5.44042,-2.36964 -0.94463,4.86256 2.13746,3.43849 3.79092,5.2025 5.07936,5.15679 z m 2.84165,-60.20901 c 1.47165,0.0392 3.0774,-0.48278 5.55168,-1.55633 3.13022,-1.35813 6.79714,-1.65863 19.12503,-1.5331 14.50486,0.14769 15.25357,0.0657 15.25357,-1.78861 0,-3.52401 -4.83906,-5.02812 -13.91404,-4.3283 l -8.0991,0.61943 0.66589,-3.39914 c 0.80543,-4.13508 1.77731,-4.85835 6.53503,-4.87805 4.48185,-0.0186 5.4075,-1.1638 2.82617,-3.4998 -1.42954,-1.29372 -2.83534,-1.58196 -5.36585,-1.10724 -3.32202,0.62323 -3.44497,0.53071 -3.84049,-2.85714 -0.45906,-3.93217 0.36032,-4.55284 5.94657,-4.55284 3.37057,0 7.24738,-2.22941 7.24738,-4.17344 0,-1.28933 -1.95255,-2.03372 -4.56833,-2.05962 -1.56947,-0.0155 -3.38472,0.22119 -5.15679,0.75881 -5.61141,1.70265 -20.52172,1.94782 -23.43784,0.38714 -1.69325,-0.90644 -1.96422,-0.79507 -1.68022,0.65041 0.5745,2.92415 5.33372,5.71428 9.75609,5.71428 3.9634,0 4.08052,0.092 4.08052,3.36043 v 3.36043 l -6.75183,0.031 -6.74409,0.031 2.80294,2.46999 c 2.78967,2.45422 4.14587,2.85709 8.44753,2.50871 2.0318,-0.16458 2.24545,0.26203 2.24545,4.39024 v 4.56833 l -4.25086,0.1626 c -4.59624,0.17037 -4.86478,0.15417 -12.11769,-0.81301 -4.78352,-0.63789 -4.84633,-0.62018 -3.68563,1.54859 0.64953,1.21368 2.61461,3.0817 4.36701,4.15021 1.95077,1.1894 3.29025,1.7959 4.7619,1.83507 z" /><path
         id="path3004"
         style="display:inline;fill:#6f6f6f"
         d="m 706.19577,788.63921 c 1.38504,-0.028 2.43891,-1.31219 3.10492,-3.84824 0.97449,-3.71074 0.39706,-17.20576 -0.87496,-20.41036 -0.71313,-1.79671 -0.37914,-1.85976 5.90786,-1.21564 5.61108,0.57488 6.66666,0.442 6.66666,-0.84398 0,-1.56898 -3.4131,-5.5307 -4.75416,-5.5207 -0.4125,0.003 -2.48019,0.48014 -4.5993,1.06852 -3.43983,0.95516 -4.00607,0.85407 -5.3039,-0.99884 -0.79953,-1.14149 -2.16888,-2.08285 -3.04297,-2.08285 -1.16515,0 -0.88672,-0.64898 1.05303,-2.44676 7.05695,-6.54007 -1.34711,-12.51691 -10.61555,-7.54936 -4.94483,2.65022 -7.16519,2.67197 -5.76848,0.0619 0.56935,-1.06384 1.02981,-3.02486 1.02981,-4.35927 0,-2.21458 0.54371,-2.50201 6.24854,-3.31397 5.14961,-0.73294 6.25629,-1.22163 6.25629,-2.77972 0,-2.04497 -1.27286,-3.25284 -3.21332,-3.38365 -0.27722,-0.0187 -0.56428,-0.0174 -0.86721,0.008 -0.80782,0.0688 -1.70202,0.30116 -2.64808,0.7046 -1.80149,0.76822 -6.11075,1.58871 -9.578,1.81959 -6.9631,0.46367 -7.69587,1.74985 -2.41579,4.24313 1.74711,0.82495 3.18593,1.82242 3.19783,2.21447 0.0119,0.3921 -2.25034,2.89102 -5.02517,5.55168 -3.59243,3.44472 -4.85461,5.32493 -4.39024,6.53504 0.92324,2.40589 4.11799,2.10732 6.86798,-0.64267 1.74686,-1.74692 3.13077,-2.22754 5.43554,-1.88927 2.01597,0.29588 4.33392,-0.28064 6.66666,-1.65699 4.17259,-2.46192 6.46534,-2.70473 6.46534,-0.67363 0,1.88665 -3.60953,4.37448 -7.99844,5.51296 -1.92495,0.49934 -5.48903,1.43369 -7.92102,2.06736 -3.24443,0.84536 -4.04749,1.3916 -3.00425,2.05188 2.05489,1.30058 8.82846,1.05107 13.11652,-0.48006 3.19119,-1.13943 3.77486,-1.10741 4.27409,0.19357 0.31796,0.82859 0.39271,1.69015 0.16261,1.92025 -0.23009,0.23009 -4.62631,1.09678 -9.77158,1.92799 -9.19641,1.48565 -17.72529,1.47221 -21.02979,-0.031 -1.33381,-0.60667 -1.57258,-0.34758 -1.1537,1.25436 0.9093,3.47719 3.91275,5.4206 7.53387,4.87804 1.81203,-0.2715 7.97941,-1.24369 13.70498,-2.16027 5.72556,-0.91657 11.03029,-1.42295 11.79248,-1.13047 1.0349,0.39713 1.31281,2.24287 1.09176,7.29384 l -0.30198,6.75957 -6.2408,-0.34068 c -3.43745,-0.18811 -6.25629,-0.0746 -6.25629,0.25551 0,0.33006 1.80931,1.32589 4.01084,2.20674 2.20158,0.8809 5.40577,3.37515 7.1235,5.54393 1.96699,2.48358 3.67883,3.71364 5.06387,3.68564 z m -45.28839,-0.9369 c 2.36917,0.21622 3.551,-5.44604 4.19667,-17.91713 0.38442,-7.42495 1.47257,-16.51876 2.41579,-20.21679 2.04971,-8.03594 1.44772,-11.22201 -2.48548,-13.25589 -1.90738,-0.98639 -3.42306,-1.39737 -4.46767,-1.34727 -2.29806,0.11024 -2.2988,2.45275 0.94464,5.83817 1.99274,2.07993 2.38033,3.25903 1.88928,5.71428 -0.79647,3.98229 -4.39799,5.3208 -4.39799,1.63376 0,-3.05704 -4.17061,-7.36353 -7.13123,-7.36353 h -2.22222 l 2.04413,2.25319 c 1.12311,1.2375 2.29619,3.93832 2.60937,6.00077 0.56433,3.7164 0.54142,3.74758 -2.86489,3.74758 -3.96286,0 -4.39331,1.21981 -1.21564,3.4456 3.06128,2.14415 4.90273,1.95952 9.13666,-0.91366 2.00175,-1.35843 3.63917,-2.068 3.63917,-1.57956 0,5.33508 -10.10815,8.85395 -17.42933,6.07046 -2.10974,-0.80212 -2.57065,-0.68059 -2.57065,0.67363 0,2.09304 2.86885,5.30391 4.73867,5.30391 0.78559,0 1.28284,0.34373 1.0995,0.7588 -3.10378,7.02722 -4.02525,10.45403 -3.05846,11.42082 2.69429,2.6943 6.20842,-2.10276 6.22532,-8.49399 0.007,-2.80568 0.61489,-3.50221 5.0871,-5.86914 l 5.07936,-2.69454 -0.63492,5.19551 c -0.35063,2.85272 -0.89229,7.09096 -1.20015,9.42314 l -0.55749,4.24312 -2.85714,-1.68795 c -1.57142,-0.92827 -3.11707,-1.43578 -3.43012,-1.12273 -0.31305,0.31305 0.86381,2.87827 2.61711,5.6988 1.98926,3.20001 3.55962,4.92739 4.80061,5.04064 z m 20.33293,-11.89313 c 3.93037,0.11741 10.61083,-1.98382 11.32791,-4.24313 0.74018,-2.33209 -2.09822,-5.77622 -4.7619,-5.77622 -1.44181,0 -1.81547,0.62257 -1.59505,2.64808 0.2514,2.31012 -0.24717,2.82262 -3.96438,4.08052 -2.34089,0.79216 -4.00426,1.85083 -3.69337,2.35385 0.37574,0.60795 1.37667,0.89776 2.68679,0.9369 z M 664.34524,727.6559 c 1.03891,-0.0197 2.17957,-0.53037 4.4367,-1.56407 2.97471,-1.36231 6.81642,-1.712 19.21795,-1.7499 12.55429,-0.0383 15.50134,-0.32045 15.50134,-1.44793 0,-0.76564 -1.16958,-2.25832 -2.59388,-3.32171 -2.36922,-1.76888 -3.25627,-1.83849 -10.40649,-0.84398 -4.29853,0.59787 -8.01806,0.87853 -8.26945,0.62718 -0.25138,-0.25138 -0.0586,-2.16617 0.4336,-4.25862 0.86505,-3.67749 1.05372,-3.81687 5.61362,-4.11149 3.09196,-0.19978 4.72319,-0.75901 4.72319,-1.62602 0,-2.44956 -2.6985,-3.71139 -6.42663,-3.01199 -3.05799,0.57365 -3.57328,0.39158 -3.58498,-1.20016 -0.008,-1.02371 -0.28779,-2.86625 -0.61943,-4.10375 -0.56518,-2.10898 -0.29771,-2.25319 4.28958,-2.25319 5.96569,0 10.10975,-2.36601 8.19202,-4.67673 -0.63733,-0.7679 -1.65131,-1.13984 -3.14363,-1.13047 -0.49744,0.003 -1.04099,0.0532 -1.64924,0.13937 -16.36175,2.31929 -20.37967,2.60171 -24.27408,1.72668 -5.35252,-1.20259 -6.01991,-0.52457 -2.47774,2.52419 2.05653,1.7701 3.98988,2.4158 7.24738,2.4158 4.39579,0 4.44444,0.0426 4.44444,3.43786 0,4.13893 -1.98114,5.06343 -8.85016,4.13472 l -4.64576,-0.63492 2.80294,2.53968 c 1.97424,1.78031 3.94208,2.52419 6.64343,2.52419 3.78034,0 3.84431,0.066 4.28184,4.25087 0.24437,2.3375 0.37329,4.35385 0.28649,4.48316 -0.42582,0.63464 -12.53815,0.48004 -16.26789,-0.20906 -6.0054,-1.10955 -5.2238,2.61599 1.24661,5.93108 1.86853,0.95733 2.80933,1.4289 3.84823,1.40921 z" /><path
         id="path3002"
         style="display:inline;fill:#4f4f4f"
         d="m 705.86283,788.66244 c 0.7634,-0.0492 1.47243,-0.56912 2.25319,-1.50987 1.52949,-1.84292 1.86021,-13.17896 0.5962,-20.25551 l -0.78203,-4.39024 6.03174,0.54975 c 6.09566,0.55274 7.47175,0.0346 6.51954,-2.44676 -1.1325,-2.95125 -4.31067,-3.94856 -8.54819,-2.67906 -3.68806,1.10499 -4.12848,1.03095 -5.52845,-0.96786 -0.83574,-1.19319 -2.23082,-2.16802 -3.10491,-2.16802 -1.16515,0 -0.88672,-0.65673 1.05303,-2.45451 6.70289,-6.21194 -1.25085,-12.19067 -10.16646,-7.64227 -2.25916,1.15254 -4.79769,2.09059 -5.6446,2.09059 -1.73065,0 -2.06886,-1.55729 -0.542,-2.50097 0.55,-0.33992 0.99884,-1.91736 0.99884,-3.50754 0,-2.79622 0.20147,-2.91149 6.08594,-3.57724 6.33785,-0.71702 8.1483,-2.22492 5.90785,-4.9245 -0.779,-0.93865 -1.77926,-1.41092 -3.02748,-1.41695 -1.24822,-0.006 -2.752,0.45198 -4.53736,1.37824 -1.53803,0.79793 -5.18203,1.74838 -8.10684,2.11382 -6.04023,0.75468 -6.63539,1.68814 -2.31514,3.60046 1.65,0.73036 2.99651,1.68119 2.99651,2.11382 0,0.43268 -2.26086,2.97371 -5.01741,5.64459 -3.40991,3.30397 -4.81135,5.36796 -4.39024,6.46535 0.90375,2.35513 4.16845,1.97267 6.7286,-0.78978 1.63121,-1.7601 2.94066,-2.26885 4.88579,-1.89702 1.63278,0.31213 4.38888,-0.35712 7.14672,-1.73441 2.55772,-1.27742 5.22422,-1.9548 6.20209,-1.57956 1.61417,0.61942 1.61576,0.77337 -0.0387,2.60162 -1.83361,2.02611 -6.59307,3.96896 -14.94385,6.10917 -3.87335,0.99274 -4.50782,1.41312 -2.99651,2.00542 3.08578,1.20934 7.86783,1.00064 12.21834,-0.53426 3.62038,-1.27736 4.10495,-1.25142 4.6535,0.17809 0.89463,2.33132 -0.70334,2.93223 -11.35888,4.28958 -9.36362,1.19283 -15.88419,1.04413 -19.2644,-0.44909 -1.32908,-0.58712 -1.5711,-0.32641 -1.1537,1.26984 0.2897,1.10783 1.38509,2.79305 2.43128,3.73983 1.79701,1.62628 2.40526,1.61599 11.14207,0.008 5.08648,-0.93672 11.72537,-1.78507 14.75028,-1.89702 l 5.49748,-0.20906 0.58846,6.00077 c 0.7678,7.91822 -0.0534,8.89954 -6.79829,8.10685 -6.02735,-0.70841 -6.92802,0.40103 -1.82733,2.24544 1.89974,0.68695 4.86002,3.02197 6.58149,5.19551 2.13213,2.69203 3.55145,3.907 4.82385,3.82501 z m -45.32711,-0.87495 c 2.72254,0 3.89018,-4.59851 4.55284,-18.00231 0.3671,-7.42495 1.44792,-16.53552 2.40806,-20.24776 2.01389,-7.78659 1.12092,-11.69084 -3.11266,-13.61981 -1.78118,-0.81156 -3.14049,-1.14333 -4.04181,-1.06853 -1.98292,0.16466 -1.7364,2.31689 1.16144,5.76074 3.53388,4.19973 3.22387,8.0002 -0.75881,9.4696 -1.37383,0.50688 -1.74216,0.10762 -1.74216,-1.86604 0,-2.78082 -4.03959,-7.42547 -6.4576,-7.42547 -1.90618,0 -1.95686,0.86899 -0.17809,2.92683 0.7506,0.86826 1.62092,3.26468 1.93574,5.32713 0.56738,3.717 0.54195,3.74758 -2.86489,3.74758 -4.04137,0 -4.40393,1.3205 -0.98335,3.56175 2.74142,1.79616 5.43433,1.31358 9.7948,-1.75765 2.7349,-1.92629 2.74874,-1.92544 2.74874,0.1084 0,2.28973 -2.7177,4.30499 -8.12233,6.01626 -2.87481,0.91027 -4.48392,0.85444 -7.75067,-0.271 -3.67068,-1.26467 -4.12698,-1.25242 -4.12698,0.13163 0,1.97493 2.88951,5.21099 4.6535,5.21099 1.71629,0 1.72737,-0.0471 -0.68912,5.59039 -2.15593,5.02959 -2.00356,7.40998 0.48006,7.40998 2.06307,0 4.56059,-5.1469 4.56059,-9.40766 0,-3.23665 0.39019,-3.7027 5.09484,-5.95431 l 5.11034,-2.43902 -0.63492,5.65234 c -0.34782,3.10928 -0.88809,7.35544 -1.20016,9.44637 -0.55806,3.73918 -0.60538,3.77937 -2.93457,2.25319 -3.68951,-2.41744 -4.90161,-1.90677 -2.85714,1.20016 0.99528,1.5125 2.43184,3.98498 3.19009,5.49748 0.75825,1.51246 1.9989,2.74874 2.76422,2.74874 z m 20.99882,-12.24157 c 4.28842,0.1401 11.46728,-2.56537 11.46728,-4.94774 0,-1.87552 -3.16888,-4.80835 -5.1955,-4.80835 -1.45583,0 -1.81761,0.62187 -1.59505,2.74099 0.25629,2.44025 -0.1891,2.89249 -4.06503,4.12698 -3.16769,1.00888 -3.98122,1.6392 -2.99652,2.29965 0.55802,0.3743 1.39522,0.55613 2.38482,0.58847 z m -17.49901,-47.9597 c 1.07123,-0.0642 2.5874,-0.67012 6.2408,-1.91251 5.58973,-1.90081 7.55884,-2.04546 19.38829,-1.44792 14.1833,0.71644 16.31178,0.0981 12.54354,-3.67015 -2.27312,-2.27322 -4.76766,-2.50692 -14.09987,-1.30081 l -6.38792,0.82849 0.73558,-3.88695 c 0.99936,-5.32701 1.07935,-5.40456 6.10143,-5.40456 3.23341,0 4.44444,-0.40463 4.44444,-1.47116 0,-2.13826 -3.39499,-3.60285 -6.77506,-2.92683 -2.67993,0.53599 -2.99726,0.30595 -3.58498,-2.63259 -0.97816,-4.8907 -0.92482,-4.97096 3.29075,-4.97096 5.51642,0 9.29078,-1.60019 8.86565,-3.75532 -0.20428,-1.03559 -1.19244,-1.56015 -3.70112,-1.59505 -2.50868,-0.0349 -6.53846,0.41758 -12.83003,1.36276 -6.05657,0.90991 -9.34729,0.96199 -12.46612,0.17034 -2.33078,-0.59164 -4.37609,-0.94329 -4.54509,-0.77429 -0.169,0.169 0.52192,1.3296 1.53309,2.5784 1.34602,1.66222 3.22586,2.40712 7.02284,2.77196 l 5.18776,0.49555 v 4.01084 4.01084 l -6.74409,-0.54201 -6.7286,-0.542 2.78745,2.4003 c 1.92984,1.65999 4.02069,2.40805 6.74409,2.40805 3.69126,0 3.94115,0.18805 3.94115,2.91909 0,1.60497 0.24625,3.56836 0.54975,4.35927 0.79947,2.08334 -9.12557,3.09957 -14.98257,1.5331 -2.47519,-0.66208 -4.7718,-0.94247 -5.10259,-0.61169 -1.0495,1.04945 1.88782,4.71915 5.01742,6.26402 1.85633,0.91635 2.48277,1.39598 3.55401,1.33179 z" /><path
         id="path3000"
         style="display:inline;fill:#2f2f2f"
         d="m 705.85508,788.67018 c 0.7271,-0.006 1.3895,-0.46062 2.10608,-1.32404 1.42091,-1.71215 1.85692,-12.94578 0.78203,-20.10839 l -0.7588,-5.05613 5.75299,0.67364 c 7.02158,0.82196 8.57317,-0.22012 5.22648,-3.52304 -2.28613,-2.2562 -2.76641,-2.35066 -6.69763,-1.28532 -3.87431,1.04989 -4.41034,0.96155 -6.28726,-1.05304 -1.12883,-1.21165 -2.57414,-2.19899 -3.20557,-2.19899 -0.63147,0 0.10509,-1.30803 1.63375,-2.9036 3.36625,-3.5136 3.07876,-6.10376 -0.89043,-8.00619 -2.61737,-1.25447 -3.48685,-1.215 -7.48741,0.3252 -2.48954,0.95846 -5.61786,1.99558 -6.94541,2.3074 -2.07148,0.48654 -2.30153,0.29692 -1.61053,-1.33179 0.44283,-1.04384 1.01994,-3.12365 1.27758,-4.62252 0.48095,-2.79801 1.70798,-3.30312 9.74835,-4.01084 2.18261,-0.19211 3.00426,-0.77676 3.00426,-2.15254 0,-2.08031 -1.1245,-3.20655 -3.04297,-3.26751 -1.1511,-0.0366 -2.58724,0.31408 -4.24313,1.06078 -2.17602,0.98125 -6.37925,2.11159 -9.33797,2.50871 l -5.38134,0.72009 3.24429,1.93573 c 1.78397,1.06399 3.24803,2.34169 3.25203,2.84166 0.003,0.49997 -2.06344,2.81254 -4.59156,5.13356 -2.98504,2.74064 -4.46792,4.86296 -4.23538,6.07046 0.53642,2.78575 3.23403,2.78611 5.9156,0 1.74463,-1.81267 3.07806,-2.32671 4.99419,-1.94348 1.6907,0.33815 4.47927,-0.42418 7.89004,-2.15253 3.81283,-1.93213 5.57525,-2.369 6.36469,-1.57956 2.07989,2.07989 -3.45571,6.03989 -11.25048,8.0449 -3.99393,1.02736 -7.49905,2.10225 -7.78938,2.39257 -1.47169,1.47166 5.79281,1.79877 10.82461,0.4878 5.22616,-1.36159 5.72758,-1.33655 6.73635,0.27875 1.32727,2.12526 0.84339,2.2983 -10.70073,3.9334 -4.59056,0.65025 -11.22841,0.95635 -14.75027,0.67364 -7.125,-0.57193 -8.52174,0.81677 -3.87147,3.86372 2.35221,1.54126 3.08921,1.54695 10.25164,0.0387 4.2437,-0.89358 10.68959,-1.91183 14.31667,-2.26093 l 6.58923,-0.63492 0.63492,6.09368 c 0.89782,8.58974 0.52671,9.14436 -6.17885,9.19086 -5.62981,0.039 -5.63708,0.0389 -2.5242,1.39373 1.71613,0.74691 4.60547,3.21003 6.41889,5.4665 2.20368,2.74219 3.60427,3.98925 4.8161,3.97987 z m -45.31936,-0.88269 c 2.70389,0 3.83163,-4.65275 4.59156,-18.99341 0.42261,-7.97491 1.46191,-16.98281 2.30739,-20.00772 1.85154,-6.62445 0.79658,-11.11021 -3.012,-12.84552 -1.79302,-0.81696 -3.16438,-1.16233 -4.07278,-1.09176 -1.99849,0.15535 -1.75326,2.30605 1.1537,5.76074 3.34261,3.97241 3.31012,7.92139 -0.0697,9.20634 -3.3528,1.27477 -3.32551,1.28409 -2.74874,-0.9214 0.69922,-2.67385 -1.34558,-6.02305 -4.38249,-7.1777 -3.22443,-1.22592 -4.09223,-0.47213 -2.0906,1.81959 0.84363,0.96587 1.83716,3.44277 2.20674,5.50522 l 0.67363,3.74758 h -3.63143 c -4.2421,0 -4.29267,1.77794 -0.1084,3.81726 2.41694,1.17799 3.18503,1.05467 7.17769,-1.17692 l 4.46767,-2.50097 v 2.30739 c 0,1.82859 -1.08747,2.77561 -5.2497,4.56833 -4.66221,2.00807 -5.73856,2.13093 -9.6322,1.09176 -2.41148,-0.64358 -4.61028,-0.94141 -4.88579,-0.6659 -0.87112,0.87111 2.74626,5.55943 4.28958,5.55943 1.81366,0 1.86163,-0.50102 -0.48006,5.66008 -1.54584,4.06709 -1.69382,5.3798 -0.71235,6.19434 2.50899,2.08232 5.67557,-2.88905 5.67557,-8.90437 0,-2.49718 0.72315,-3.28277 5.00193,-5.45102 l 4.99419,-2.53194 -0.0232,2.76423 c -0.0273,3.75156 -1.73737,15.35718 -2.35385,15.97366 -0.273,0.27299 -1.5218,-0.2184 -2.77971,-1.0995 -3.41273,-2.39036 -4.29439,-1.94422 -2.26094,1.14596 0.99528,1.5125 2.43184,3.98498 3.19009,5.49748 0.75825,1.51246 1.9989,2.74874 2.76422,2.74874 z m 21.9512,-12.47386 c 4.68869,-0.16812 10.5149,-2.5065 10.5149,-4.71545 0,-1.87552 -3.16888,-4.80835 -5.1955,-4.80835 -1.44969,0 -1.81668,0.61721 -1.59505,2.69454 0.25308,2.37208 -0.25626,2.9034 -4.20441,4.38249 -3.48281,1.3048 -4.03713,1.79508 -2.49322,2.18351 0.87603,0.2204 1.89131,0.30206 2.97328,0.26326 z m -18.52108,-48.32362 c 1.39715,0.081 3.0033,-0.35141 5.96205,-1.39372 4.74094,-1.67023 7.66118,-1.91291 19.57413,-1.63376 11.92349,0.27939 13.99921,0.1006 13.99921,-1.17693 0,-2.67392 -5.9446,-4.83762 -10.73944,-3.91018 -2.34386,0.45336 -5.88841,0.85095 -7.87456,0.87495 l -3.6082,0.0387 1.02981,-4.49864 c 1.02299,-4.4705 1.05167,-4.49864 5.29616,-4.49864 2.34988,0 4.59496,-0.52027 4.98645,-1.1537 1.17066,-1.89419 -2.64929,-3.92387 -6.14789,-3.26752 -2.9973,0.5623 -3.20364,0.39149 -4.15795,-3.36817 l -1.00658,-3.95664 5.97754,-0.54974 c 6.50351,-0.58967 8.3572,-1.65365 7.36352,-4.24313 -0.34393,-0.89638 -0.50234,-1.34573 -2.25319,-1.27758 -1.7509,0.0682 -5.09593,0.64833 -11.81571,1.81959 -6.78154,1.1821 -14.27433,0.97419 -17.80873,-0.49555 -1.3644,-0.56738 -1.62046,-0.36319 -1.13047,0.91366 0.89146,2.3231 5.67483,4.57608 9.71737,4.57608 3.04994,0 3.48955,0.3514 4.0573,3.19008 0.35062,1.75312 0.21393,3.61104 -0.30197,4.12698 -0.51595,0.51589 -3.66646,0.73722 -7.00735,0.49555 -3.34089,-0.24166 -6.0782,-0.28908 -6.0782,-0.1084 0,1.22748 7.13509,4.29132 10.00386,4.29732 3.46484,0.007 3.49973,0.0519 3.52303,4.40573 l 0.0232,4.39798 -4.9245,0.65041 c -2.89595,0.38417 -6.91276,0.14026 -9.75609,-0.58846 -2.65823,-0.68128 -5.13988,-0.93059 -5.51297,-0.55749 -0.99685,0.9969 2.69204,4.77769 6.07046,6.21757 0.93311,0.39768 1.70139,0.62507 2.53968,0.67363 z" /><path
         id="path2998"
         style="display:inline;fill:#020202"
         d="m 706.14931,788.63921 c 0.60397,-0.0135 1.11605,-0.46423 1.76539,-1.24661 1.28121,-1.54382 1.60804,-13.90039 0.55749,-20.90591 l -0.66589,-4.48316 6.82152,0.54975 6.82152,0.54975 -1.62602,-2.40805 c -1.46251,-2.1646 -2.23729,-2.37444 -7.72744,-2.11382 -4.83529,0.22948 -6.09368,-0.0177 -6.09368,-1.18467 0,-0.80969 -0.94666,-1.77152 -2.09834,-2.13705 -2.06079,-0.65409 -2.04955,-0.70354 0.50329,-3.36817 4.63858,-4.84163 2.86464,-8.0991 -4.41346,-8.0991 -2.53483,0 -5.4829,0.66369 -6.55052,1.47115 -1.06762,0.8075 -3.00099,1.47689 -4.29733,1.49439 -1.87216,0.0253 -2.19846,-0.3289 -1.59504,-1.71893 0.41782,-0.9625 0.79822,-2.87587 0.85172,-4.25087 0.1134,-2.91364 1.69722,-3.82846 6.76732,-3.92566 6.86613,-0.13156 9.31699,-2.97825 4.46767,-5.18777 -0.68917,-0.31401 -1.2911,-0.49645 -1.9125,-0.52652 -1.03565,-0.0501 -2.11197,0.31269 -3.69338,1.13047 -1.78812,0.92467 -5.68253,1.93156 -8.64885,2.23771 -4.39913,0.45403 -5.18665,0.8114 -4.26635,1.92024 0.62055,0.74773 2.19989,1.35502 3.50754,1.35502 3.53709,0 2.9308,1.59008 -2.69454,7.06929 -4.8667,4.74036 -5.9703,7.75155 -3.18234,8.67982 0.68486,0.22803 2.62351,-0.96653 4.30507,-2.64808 2.5228,-2.52281 3.36764,-2.85959 4.84707,-1.93573 1.42056,0.88719 2.98484,0.57204 7.54936,-1.51761 5.84863,-2.6776 7.54935,-2.69546 7.54935,-0.0774 0,2.20137 -5.47037,5.07987 -13.39526,7.04606 -6.85581,1.70093 -6.9932,1.7914 -3.97213,2.67905 2.24338,0.65914 4.65336,0.47298 8.50174,-0.66589 4.93638,-1.46079 5.46181,-1.45603 6.58149,0.0387 0.66988,0.89434 1.02989,1.94212 0.78978,2.33062 -1.06908,1.72981 -26.41145,3.92779 -30.25937,2.62485 -2.87662,-0.97407 -2.93945,0.68424 -0.13937,3.48432 1.64269,1.64269 2.7938,1.94802 5.24971,1.41696 9.17389,-1.98389 18.61726,-3.46117 22.31511,-3.49207 l 4.17344,-0.031 0.68138,6.41889 c 0.37821,3.5314 0.39018,6.9093 0.0232,7.5029 -0.36681,0.5936 -3.22694,1.09348 -6.35694,1.11498 -5.58134,0.0384 -5.63677,0.0686 -2.69454,1.3705 1.64991,0.7301 4.70591,3.18544 6.79054,5.45876 2.58726,2.82149 3.85596,4.00242 4.86256,3.97987 z m -45.69102,-1.48664 c 0.11091,0.0196 0.21829,0.0171 0.32521,-0.008 0.28511,-0.0648 0.56638,-0.2799 0.89043,-0.60395 2.17694,-2.1769 3.26915,-8.13303 3.34495,-18.25008 0.0371,-4.94991 0.52503,-11.02097 1.08401,-13.49592 0.55899,-2.475 1.25801,-6.97752 1.55633,-10.00387 0.60332,-6.12034 -0.70043,-8.2319 -5.90786,-9.53154 -0.45252,-0.11294 -0.84919,-0.16909 -1.19241,-0.17809 -2.40246,-0.063 -2.11933,2.27852 0.94464,5.11808 3.39388,3.14531 3.54048,9.08273 0.24777,9.96515 -3.36173,0.90092 -3.42237,0.85725 -3.42237,-2.32288 0,-3.57209 -1.87451,-6.04723 -4.57607,-6.04723 -1.48314,0 -1.73235,0.3197 -0.96787,1.24661 0.56699,0.6875 1.18264,3.27026 1.3705,5.74526 l 0.34843,4.50638 -3.25203,-0.25552 c -3.6849,-0.28777 -3.88821,-0.0245 -1.68021,2.18351 2.17721,2.17726 6.05439,1.96477 10.13549,-0.55749 l 3.45335,-2.12931 -0.33295,2.74874 c -0.2703,2.26331 -1.2193,3.1134 -5.32714,4.74642 -4.305,1.71135 -5.60936,1.8292 -9.38442,0.84398 -2.41149,-0.62936 -4.58601,-0.94244 -4.83159,-0.69687 -0.87642,0.87643 1.7513,4.49436 3.7166,5.11808 2.34439,0.7441 2.45927,2.06231 0.49555,5.49748 -2.05975,3.60311 -1.94034,7.23069 0.22455,6.81377 2.27892,-0.4389 4.24198,-4.46328 4.28958,-8.81145 0.0354,-3.23692 0.42257,-3.66649 5.13356,-5.73751 l 5.0871,-2.24545 -0.7046,8.74177 c -0.38923,4.80654 -1.06833,9.11429 -1.50987,9.578 -0.44154,0.4637 -1.99465,0.068 -3.44561,-0.88269 -1.45092,-0.95071 -2.78317,-1.55927 -2.96554,-1.34727 -0.18236,0.212 1.23058,2.80345 3.13589,5.75299 2.00164,3.09875 2.94026,4.36155 3.7166,4.49865 z m 21.72666,-12.46612 c 8.81248,0.19723 13.36158,-3.41947 8.8734,-7.05381 -1.63499,-1.32393 -2.94784,-1.92556 -3.75532,-1.82733 -0.80747,0.0982 -1.11417,0.89937 -0.74333,2.37708 0.66919,2.66618 -0.21783,3.502 -5.55942,5.24971 l -3.4998,1.15369 z m -18.343,-47.99067 c 1.8554,0.022 4.13519,-0.50789 7.31707,-1.54858 4.05614,-1.32669 7.51015,-1.53997 17.76228,-1.08401 14.34161,0.6378 16.46256,0.10958 13.10878,-3.24429 -2.07889,-2.07884 -2.74594,-2.15967 -11.7228,-1.48664 -9.01638,0.67599 -9.49684,0.61611 -8.96631,-1.16144 0.30811,-1.03234 0.86264,-3.11781 1.22338,-4.63027 0.59053,-2.47592 1.08568,-2.74874 4.98645,-2.74874 2.38292,0 4.63166,-0.48193 4.99419,-1.06853 1.10854,-1.7936 -2.73224,-3.77117 -6.21757,-3.20557 -2.90994,0.47222 -3.29234,0.2377 -3.86372,-2.35385 -0.34836,-1.58001 -0.80253,-3.43174 -1.01433,-4.11924 -0.25267,-0.82015 0.72221,-1.25035 2.83391,-1.25435 5.01634,-0.009 10.71622,-1.91385 10.71622,-3.57724 0,-1.35687 -0.85513,-2.06528 -2.7952,-2.14479 -0.27716,-0.0114 -0.57609,-0.006 -0.89818,0.008 -1.54602,0.0679 -3.62034,0.42296 -6.295,1.06852 -7.75491,1.87177 -17.55462,2.14509 -21.69569,0.59621 l -2.81842,-1.06079 2.77197,2.80294 c 2.25692,2.28164 3.63744,2.79694 7.53387,2.80294 l 4.77738,0.008 0.18583,4.20441 0.18583,4.20441 -6.7286,0.29423 -6.72086,0.29423 3.31397,1.81185 c 1.82644,0.99672 4.30666,1.7366 5.50522,1.6415 4.35999,-0.34609 4.67673,-0.0418 4.67673,4.47541 v 4.42895 l -5.53619,0.68912 c -3.49895,0.43717 -7.18807,0.22966 -10.0271,-0.56523 -2.47072,-0.69169 -4.76089,-0.98437 -5.0871,-0.65815 -0.32622,0.32621 0.77983,1.95681 2.45451,3.63144 1.97283,1.9728 3.65401,2.92177 6.03948,2.95005 z" /></g></g></svg>
