<?xml version="1.0" encoding="UTF-8" standalone="no"?>
<!-- Created with Inkscape (http://www.inkscape.org/) -->

<svg
   viewBox="0 0 39.200001 39.200001"
   version="1.1"
   id="svg1"
   inkscape:version="1.3.2 (091e20e, 2023-11-25, custom)"
   sodipodi:docname="Knight.svg"
   xml:space="preserve"
   xmlns:inkscape="http://www.inkscape.org/namespaces/inkscape"
   xmlns:sodipodi="http://sodipodi.sourceforge.net/DTD/sodipodi-0.dtd"
   xmlns="http://www.w3.org/2000/svg"
   xmlns:svg="http://www.w3.org/2000/svg"><sodipodi:namedview
     id="namedview1"
     pagecolor="#ffffff"
     bordercolor="#111111"
     borderopacity="1"
     inkscape:showpageshadow="false"
     inkscape:pageopacity="0"
     inkscape:pagecheckerboard="1"
     inkscape:deskcolor="#d1d1d1"
     inkscape:document-units="mm"
     showguides="true"
     inkscape:zoom="14.005102"
     inkscape:cx="19.6"
     inkscape:cy="19.6"
     inkscape:window-width="1292"
     inkscape:window-height="745"
     inkscape:window-x="-8"
     inkscape:window-y="-8"
     inkscape:window-maximized="1"
     inkscape:current-layer="g12"
     labelstyle="default"><inkscape:page
       x="0"
       y="0"
       width="39.200001"
       height="39.200001"
       id="page42"
       margin="0"
       bleed="0" /></sodipodi:namedview><defs
     id="defs1"><inkscape:path-effect
       effect="powerstroke"
       id="path-effect12"
       is_visible="true"
       lpeversion="1.3"
       scale_width="1"
       interpolator_type="CubicBezierJohan"
       interpolator_beta="0.2"
       start_linecap_type="zerowidth"
       end_linecap_type="zerowidth"
       offset_points="7,4.9921382"
       linejoin_type="extrp_arc"
       miter_limit="4"
       not_jump="false"
       sort_points="true"
       message="&lt;b&gt;Ctrl + click&lt;/b&gt; on existing node and move it" /><inkscape:path-effect
       effect="powerstroke"
       id="path-effect13"
       is_visible="true"
       lpeversion="1.3"
       scale_width="1"
       interpolator_type="CubicBezierJohan"
       interpolator_beta="0.2"
       start_linecap_type="zerowidth"
       end_linecap_type="zerowidth"
       offset_points="5,4.9921382"
       linejoin_type="extrp_arc"
       miter_limit="4"
       not_jump="false"
       sort_points="true"
       message="&lt;b&gt;Ctrl + click&lt;/b&gt; on existing node and move it" /></defs><g
     id="g12"
     transform="matrix(0.92057761,0,0,0.93486581,1.4659198,1.1628361)"><path
       style="display:inline;fill:#938e5e;fill-opacity:1;fill-rule:evenodd;stroke:none;stroke-width:0.971808;stroke-linecap:round;stroke-linejoin:round;stroke-dasharray:none;stroke-opacity:1;paint-order:stroke fill markers"
       d="m 5.8485911,2.5 0,6.8459021 4.5086969,24.6087609 9.341301,2.988783 9.341303,-2.988783 4.508697,-24.6087609 0,-6.8459021 z"
       id="path12"
       sodipodi:nodetypes="cccccccc" /><path
       style="display:inline;fill:#fff29e;fill-opacity:1;fill-rule:evenodd;stroke:none;stroke-width:0.373137;stroke-linecap:round;stroke-linejoin:round;paint-order:stroke fill markers"
       d="M 19.698591,33.520495 10.357287,30.53171 5.8485898,2.5 H 33.54859 l -4.508698,28.03171 z"
       id="path13"
       sodipodi:nodetypes="cccccc" /><g
       id="g3792"
       transform="matrix(-0.29404478,0,0,-0.28955069,235.77215,216.20149)"><path
         id="path3008"
         style="display:inline;fill:#afafaf"
         d="m 721.56753,642.0395 c -2.19002,0 -2.20613,0.0812 -0.62678,2.83305 2.2843,3.98017 1.1523,6.16753 -3.18822,6.16753 -1.94227,0 -3.53087,0.39484 -3.53087,0.87749 0,1.82616 2.88102,3.19021 5.40285,2.55727 1.42761,-0.35831 2.58708,-0.26319 2.57398,0.20893 -0.0131,0.47211 -2.90383,3.95008 -6.42241,7.7303 -5.94031,6.38195 -7.31867,9.62735 -4.08662,9.62735 0.69053,0 2.95472,-1.35019 5.03097,-3.00019 2.07623,-1.65 4.00306,-3.00019 4.27882,-3.00019 0.27577,0 0.24693,2.79506 -0.0627,6.20931 -0.30959,3.41425 -0.11617,7.04332 0.43039,8.06458 0.79058,1.47722 1.2857,1.61291 2.42356,0.66857 1.03875,-0.86208 1.42906,-3.55462 1.42906,-9.84046 0,-8.12276 0.38951,-9.62515 3.58519,-13.93126 0.13466,-0.18145 1.35994,0.4013 2.7244,1.29535 1.63995,1.07454 3.39754,1.39729 5.18557,0.94853 2.2863,-0.57383 2.65067,-0.38842 2.34834,1.20342 -0.27653,1.45603 -1.48573,1.9952 -5.32346,2.38177 l -4.9641,0.50142 2.83305,1.84274 c 1.58817,1.03459 3.88359,1.64752 5.22317,1.39145 1.49212,-0.28524 2.39013,0.0148 2.39013,0.7981 0,1.50267 -2.23108,2.46534 -5.70371,2.46534 -2.14498,0 -2.34636,0.23371 -1.29535,1.5001 0.68469,0.825 2.53739,1.50009 4.12004,1.50009 2.21089,0 2.87902,0.46489 2.87902,2.00153 0,1.76552 -0.67377,2.00281 -5.74967,2.02241 l -5.74968,0.0209 2.49877,2.01406 c 2.10874,1.69823 3.28303,1.89548 7.50048,1.2661 2.75,-0.41043 8.25982,-0.62378 12.2473,-0.47636 6.77253,0.25038 7.25395,0.13019 7.25395,-1.82184 0,-2.85027 -3.36385,-3.89217 -8.64958,-2.68262 -4.69091,1.07342 -5.93596,0.62275 -5.00589,-1.80096 0.3962,-1.03246 1.90512,-1.54188 4.56297,-1.54188 4.43587,0 5.81484,-1.15321 3.58936,-3.00019 -0.94566,-0.78483 -2.77193,-0.9832 -5.07275,-0.55157 -3.11127,0.58369 -3.55016,0.43408 -3.2509,-1.11985 0.23141,-1.2016 1.58594,-1.99902 4.09497,-2.40683 2.06265,-0.33528 4.05531,-0.91306 4.42507,-1.28282 1.34555,-1.34555 -1.7893,-3.04172 -5.1981,-2.81215 -5.26686,0.35471 -4.66703,-2.4759 0.75214,-3.54759 5.86627,-1.16009 5.89437,-3.85157 0.0376,-3.59354 -4.16395,0.18344 -4.20437,0.15011 -3.61861,-2.77873 0.77051,-3.85252 -1.88111,-6.90713 -5.99621,-6.90713 h -3.02108 l 2.24805,2.39013 c 1.61231,1.71622 2.15295,3.33791 1.92213,5.74967 -0.3188,3.33102 -0.36282,3.35955 -5.41539,3.35955 -2.84879,0 -5.82768,0.60747 -6.75252,1.37474 -1.46741,1.21738 -1.6547,1.0768 -1.6547,-1.24939 0,-2.26106 0.42561,-2.62412 3.0754,-2.62412 2.38738,0 3.00022,-0.3914 2.74113,-1.75081 -0.18345,-0.9625 -1.34211,-1.89263 -2.57398,-2.06838 -1.55474,-0.22182 -2.2397,-1.00065 -2.2397,-2.54891 0,-2.851 -1.78969,-4.634 -4.6549,-4.634 z m -0.72288,18.36469 c 0.0556,0.008 0.10434,0.0333 0.14624,0.0752 0.3352,0.3352 -0.20105,1.3864 -1.19506,2.33581 -1.72775,1.6502 -1.75516,1.62279 -0.61007,-0.61007 0.57647,-1.12403 1.26965,-1.85927 1.65889,-1.80095 z m -3.86098,25.99888 c -1.01427,0.14251 -0.80726,1.29349 0.53904,3.57265 1.1391,1.92838 1.69648,5.06503 1.69648,9.53543 0,3.6638 0.46693,7.53142 1.03628,8.59526 1.92421,3.5954 2.78442,1.96595 3.50162,-6.64388 0.81355,-9.76656 -0.0947,-12.92398 -4.16183,-14.47029 -0.88268,-0.3356 -1.58186,-0.53459 -2.1018,-0.58917 -0.19498,-0.0205 -0.36489,-0.0204 -0.50979,0 z m 25.01693,0.0376 c -1.50787,0.0463 -3.30712,0.37756 -5.19811,1.01957 -2.55826,0.86856 -5.8735,1.5882 -7.36676,1.5962 -1.49328,0.008 -3.37635,0.43435 -4.18272,0.94435 -1.17374,0.74235 -0.91035,1.13827 1.31624,1.98481 1.52965,0.58158 3.67941,1.05717 4.77607,1.05717 1.09665,0 1.71466,0.44867 1.37474,0.99867 -0.33992,0.55 -2.16484,0.99867 -4.05736,0.99867 -3.57264,0 -4.61158,1.33823 -1.85946,2.3943 0.86998,0.33385 2.66885,0.60589 3.99887,0.60589 3.89603,0 2.77899,1.689 -1.57949,2.38595 -5.87333,0.93919 -4.7047,3.61444 1.57949,3.61444 1.33001,0 2.41937,0.44867 2.41937,0.99867 0,0.55 -2.02529,1.00285 -4.50029,1.00285 -4.70728,0 -5.80905,1.22687 -2.6283,2.92915 1.30053,0.69602 5.4448,0.48145 13.58862,-0.70199 11.45082,-1.664 11.75164,-1.65796 13.12897,0.22564 1.97669,2.70329 1.76736,4.7304 -0.90256,8.64958 -2.19757,3.2258 -2.57789,3.38064 -7.50048,3.07541 -2.85185,-0.17682 -5.18557,-0.0746 -5.18557,0.22564 0,0.30021 1.4634,1.29263 3.2509,2.20627 1.7875,0.91364 3.60918,2.27477 4.04901,3.02526 0.96978,1.65474 0.96833,1.65413 4.19525,0.18386 1.72533,-0.78611 3.72177,-3.52216 5.98367,-8.1983 3.30498,-6.83255 3.352,-7.09834 1.71738,-9.86554 -2.94547,-4.9863 -5.04177,-5.76226 -11.22774,-4.15764 -6.35711,1.64902 -9.96999,1.79402 -9.96999,0.40114 0,-0.55 1.23698,-1.00739 2.74948,-1.01539 1.51248,-0.008 3.37043,-0.40576 4.12839,-0.88585 2.19935,-1.39304 0.31089,-3.0963 -3.43476,-3.0963 -1.89252,0 -3.44311,-0.45285 -3.44311,-1.00285 0,-0.55 0.86294,-0.99867 1.91795,-0.99867 3.0448,0 5.0811,-1.08848 5.0811,-2.71605 0,-1.12962 -0.86983,-1.3993 -3.51415,-1.0906 -4.94469,0.57727 -3.84207,-1.46035 1.34549,-2.48623 2.55348,-0.50498 4.17018,-1.37767 4.17018,-2.24806 0,-1.4178 -1.70723,-2.13713 -4.22032,-2.06002 z m -6.11321,24.59907 3.91529,3.45983 c 4.36958,3.85835 6.17559,4.33535 7.11606,1.88453 0.91966,-2.39658 -3.20342,-5.34436 -7.47541,-5.34436 z m -8.7624,0.17968 c -0.2428,-0.0213 -0.41972,0.006 -0.5056,0.0919 -0.21193,0.21194 1.05644,2.26351 2.82051,4.55879 1.76409,2.29526 3.8008,4.17018 4.52536,4.17018 1.98666,0 2.66177,-2.80816 1.11985,-4.66743 -1.22631,-1.4787 -6.26051,-4.00467 -7.96012,-4.15347 z m -7.15784,1.82184 c -1.07589,0 -0.0479,3.69072 1.88035,6.74835 1.6569,2.62738 3.19247,2.89308 4.03647,0.69363 0.59144,-1.54129 -4.09987,-7.44198 -5.91682,-7.44198 z m -10.02014,1.08225 c -0.0778,-0.0152 -0.13478,-0.007 -0.16714,0.0251 -0.39637,0.39637 0.4899,3.58578 2.97512,10.71795 0.77509,2.22439 3.94182,0.84979 4.25793,-1.84691 0.2091,-1.78378 -0.7198,-3.48396 -3.23419,-5.92099 -1.69805,-1.64583 -3.2873,-2.86882 -3.83172,-2.97512 z" /><path
         id="path3010"
         style="display:inline;fill:#d0d0d0"
         d="m 721.52157,642.0395 c -2.64518,0 -2.96813,1.20274 -0.80228,3.00019 1.96448,1.63038 1.9215,4.6267 -0.0794,5.3945 -0.86998,0.33384 -2.90935,0.60589 -4.53372,0.60589 -2.69711,0 -2.8556,0.18276 -1.82184,2.11434 0.92108,1.72106 1.76461,2.01632 4.53371,1.56695 1.87176,-0.30374 3.40134,-0.37839 3.40134,-0.16296 0,0.39195 -0.72407,1.20432 -8.84598,9.87807 -6.79672,7.25855 -3.6934,10.57759 4.11169,4.39582 l 4.05736,-3.21329 -0.69781,6.8152 c -0.48368,4.72098 -0.33465,7.24774 0.48888,8.24008 2.41013,2.90399 3.38804,0.70439 3.65205,-8.21501 0.17598,-5.94542 0.81761,-9.97167 1.92631,-12.07599 1.57611,-2.99154 1.78195,-3.07582 3.94454,-1.65888 1.50147,0.9838 3.32291,1.26671 5.32346,0.82736 2.37376,-0.52137 3.04198,-0.32811 3.04198,0.89002 0,1.76403 -4.02623,3.08836 -7.01577,2.30656 -1.09063,-0.2852 -2.21403,-0.14317 -2.49877,0.31757 -0.81753,1.32278 3.6757,3.97379 6.73581,3.97379 1.52762,0 2.77873,0.40384 2.77873,0.89421 0,1.24704 -4.78001,2.31164 -7.08681,1.57949 -1.05323,-0.33428 -1.91377,-0.13838 -1.91377,0.43456 0,1.58572 5.65055,4.16326 7.53809,3.43894 1.24992,-0.47965 1.57417,-0.16573 1.29535,1.25774 -0.30796,1.57231 -1.26457,1.89706 -5.60343,1.89706 -5.82389,0 -6.42166,0.67507 -2.73276,3.09212 1.91218,1.25291 3.61262,1.46418 7.24976,0.91092 2.6135,-0.39755 7.98149,-0.66425 11.92974,-0.59335 7.80649,0.14024 9.43621,-0.79707 6.49345,-3.73979 -1.54728,-1.54728 -2.8853,-1.80698 -7.1662,-1.39564 -4.19969,0.40354 -5.17079,0.22293 -4.80532,-0.88585 0.25194,-0.76434 2.12411,-1.6137 4.16183,-1.8887 2.03772,-0.275 3.69114,-0.83688 3.67294,-1.24938 -0.0182,-0.4125 -0.0334,-1.2475 -0.0334,-1.85527 0,-0.68607 -1.51526,-0.95974 -3.99887,-0.72289 -3.30864,0.31553 -4.00304,0.0738 -4.00304,-1.39563 0,-1.36655 0.81848,-1.77588 3.53505,-1.77588 2.31542,0 3.74231,-0.55068 4.14511,-1.60038 0.82812,-2.15805 -1.56109,-3.52748 -4.9265,-2.82052 -4.37569,0.91918 -3.44558,-2.05691 0.98614,-3.1548 2.40098,-0.5948 3.86643,-1.59433 4.09497,-2.79126 0.30948,-1.62116 -0.1741,-1.81049 -3.73562,-1.47085 -4.0025,0.3817 -4.09915,0.3179 -4.09915,-2.73276 0,-4.30365 -3.17913,-6.96373 -7.82223,-6.54778 -0.93538,0.0838 -0.71367,0.89018 0.75214,2.75366 2.72455,3.46372 2.75042,8.01405 0.0501,8.87104 -1.11236,0.35307 -3.39399,0.34282 -5.06857,-0.0251 -2.2016,-0.48356 -3.579,-0.18678 -4.97664,1.07807 -1.86434,1.68716 -1.93466,1.65414 -1.93466,-0.90675 0,-2.2974 0.41606,-2.65337 3.0754,-2.65337 2.38738,0 3.00022,-0.3914 2.74113,-1.75081 -0.18345,-0.9625 -1.34213,-1.89263 -2.57398,-2.06838 -1.55474,-0.22182 -2.2397,-1.00065 -2.2397,-2.54891 0,-2.86552 -1.79226,-4.634 -4.70086,-4.634 z m -0.76467,18.39812 c 0.10158,-0.0242 0.19463,-0.002 0.2716,0.0752 0.30789,0.30789 -0.002,1.11843 -0.68528,1.79677 -0.98762,0.98026 -1.09839,0.86528 -0.55575,-0.55992 0.28165,-0.73967 0.66467,-1.23963 0.96943,-1.31206 z m -3.31359,25.53506 c -1.43137,-10e-4 -1.50471,1.70616 0.41368,4.634 1.22394,1.86796 1.48246,3.7773 1.0321,7.57987 -0.62291,5.25948 1.20235,11.85452 3.28015,11.85452 0.57807,0 1.053,-1.62529 1.053,-3.61444 0,-3.26254 0.21832,-3.56084 2.24805,-3.0169 1.2375,0.33164 3.48921,0.61042 5.00171,0.61842 1.5125,0.008 2.74948,0.46121 2.74948,1.01121 0,0.55 -2.02529,1.00285 -4.50029,1.00285 -4.68863,0 -5.55883,0.87539 -2.98347,3.01273 1.228,1.01911 3.72701,0.91479 13.05376,-0.54739 11.5064,-1.80389 11.54027,-1.80181 13.59697,0.25489 1.82035,1.82035 1.92317,2.46928 0.90674,5.5491 -1.77743,5.38561 -3.80058,6.70893 -8.84597,5.77892 -2.34935,-0.43304 -4.46832,-0.46912 -4.70921,-0.0794 -0.24089,0.38977 1.45799,2.09604 3.77322,3.78994 2.31523,1.69387 4.81563,3.11427 5.55746,3.15897 2.21969,0.13358 6.49583,-5.22254 9.00475,-11.27788 l 2.35252,-5.67864 -2.60323,-3.41386 c -2.94708,-3.86381 -5.69869,-5.09509 -8.3153,-3.7189 -2.85276,1.50036 -12.28908,2.51744 -12.28908,1.32459 0,-0.56841 1.68983,-1.17479 3.75233,-1.34549 2.52869,-0.20929 3.74815,-0.79782 3.74815,-1.80931 0,-1.01145 -1.21946,-1.60001 -3.74815,-1.8093 -4.30655,-0.35642 -5.13731,-2.18327 -1.00285,-2.20627 1.51246,-0.008 3.37043,-0.40576 4.12839,-0.88585 2.21292,-1.40163 0.30219,-3.0963 -3.49326,-3.0963 -2.07865,0 -3.25025,-0.40894 -2.88319,-1.00285 0.33992,-0.55 1.82937,-1.00739 3.30941,-1.01539 3.5988,-0.0205 5.61959,-1.42182 4.86799,-3.38044 -0.6959,-1.81356 -4.28517,-2.08354 -8.16068,-0.61006 -1.43759,0.54657 -5.17402,1.39805 -8.30276,1.8887 -4.90862,0.76974 -6.01678,0.63274 -8.08548,-0.9945 -1.69876,-1.33621 -3.04811,-1.95475 -3.90694,-1.95555 z m 7.78045,6.22602 c 0.31032,-0.0206 0.71933,0.0711 1.24938,0.21311 1.2375,0.33164 3.28883,0.60624 4.55879,0.61424 1.28216,0.008 2.03131,0.4601 1.68813,1.01539 -0.33992,0.55 -2.16486,0.99867 -4.05736,0.99867 -3.57264,0 -4.61156,1.33825 -1.85946,2.3943 0.86998,0.33385 2.66885,0.60589 3.99887,0.60589 1.33001,0 2.41937,0.45285 2.41937,1.00285 0,0.55 -1.15446,0.99867 -2.56562,0.99867 -1.41116,0 -3.43645,0.46693 -4.50029,1.03628 -1.796,0.96119 -1.93466,0.66353 -1.93466,-4.12004 0,-3.64095 0.0719,-4.6977 1.00285,-4.75936 z m 11.80855,18.12233 c -0.29874,0.0259 -0.51973,0.0935 -0.63931,0.21311 -0.3441,0.3441 1.1641,2.15671 3.35118,4.02811 2.18711,1.8714 4.55184,3.42242 5.25661,3.44312 1.87481,0.0549 2.6396,-2.75565 1.21595,-4.47104 -1.21516,-1.46421 -7.0932,-3.39435 -9.18443,-3.2133 z m -9.80285,0.82735 c -1.2066,0.1091 -0.52542,1.60899 2.06002,4.82622 3.49038,4.34332 6.93219,5.40597 6.93219,2.13941 0,-2.03592 -3.80845,-5.55994 -7.15784,-6.62299 -0.82108,-0.26061 -1.43217,-0.379 -1.83437,-0.34264 z m -8.42394,1.08225 c -0.0696,9.5e-4 -0.12336,0.0147 -0.15461,0.046 -0.25001,0.25001 0.47215,2.55037 1.60456,5.11036 1.95665,4.4233 4.10415,5.85321 5.46971,3.64368 1.08054,-1.74835 -0.51332,-4.86011 -3.62279,-7.07427 -1.44299,-1.0275 -2.80943,-1.73241 -3.29687,-1.72573 z m -9.06744,1.78841 c -0.32698,0.0522 -0.51056,0.30214 -0.50142,0.77303 0.0179,0.924 2.92367,9.3422 3.60608,10.44635 0.27269,0.44122 1.36855,0.80228 2.43609,0.80228 3.09031,0 2.53725,-5.15149 -0.95689,-8.89193 -1.70798,-1.82844 -3.2813,-2.94523 -4.21197,-3.11719 -0.1396,-0.0258 -0.26289,-0.0299 -0.37189,-0.0125 z" /><path
         id="path3006"
         style="display:inline;fill:#8f8f8f"
         d="m 722.07732,642.0395 c -1.59589,0 -1.89725,0.40281 -1.31207,1.75081 0.41782,0.9625 0.8031,2.87458 0.8566,4.24958 0.0852,2.18801 -0.36999,2.54052 -3.65204,2.81215 -2.0625,0.17071 -3.74815,0.64203 -3.74815,1.04882 0,1.78666 2.50917,2.98809 5.14378,2.46116 1.5698,-0.31396 2.85395,-0.23632 2.85395,0.17132 0,0.40764 -2.74669,3.83801 -6.10485,7.62583 -3.81565,4.30385 -5.89135,7.45093 -5.53239,8.38634 0.87788,2.2877 2.26236,1.82943 6.75252,-2.22717 l 4.12004,-3.7189 -0.25907,6.96981 c -0.14257,3.83415 -0.1957,7.56658 -0.117,8.2944 0.0787,0.72783 0.93038,1.17389 1.89288,0.99032 1.47654,-0.28164 1.82619,-1.81714 2.24806,-9.82375 0.60237,-11.43235 2.4036,-15.22165 6.02963,-12.68187 1.44487,1.012 3.37312,1.34006 5.68282,0.96524 3.04023,-0.49335 3.44747,-0.32217 3.1339,1.32877 -0.28693,1.51071 -1.48183,2.00038 -5.85413,2.39849 l -5.49061,0.50142 3.30105,1.80095 c 1.94355,1.06104 4.13756,1.53498 5.34018,1.15328 1.61228,-0.51172 1.96886,-0.2588 1.69231,1.19924 -0.25387,1.33848 -1.3997,1.93237 -4.16183,2.16031 -3.18179,0.26258 -3.61471,0.55219 -2.61995,1.7508 0.65526,0.78954 2.48725,1.43324 4.0699,1.43324 2.21089,0 2.87902,0.46489 2.87902,2.00153 0,1.74466 -0.66763,2.00152 -5.22318,2.00152 h -5.22317 l 2.17284,2.16866 c 2.04718,2.04719 2.4888,2.10018 7.74701,0.92346 3.51203,-0.78595 7.97146,-0.99262 12.05091,-0.55575 5.38796,0.577 6.47674,0.4449 6.47674,-0.7981 0,-2.92625 -2.6434,-3.9303 -8.44901,-3.20494 -5.20568,0.65041 -5.55328,0.56227 -5.55328,-1.42071 0,-1.83608 0.58684,-2.11434 4.44179,-2.11434 4.81909,0 6.3536,-1.09565 4.12422,-2.94587 -0.89082,-0.73932 -2.77343,-0.9192 -5.08946,-0.48471 -3.23313,0.60654 -3.62957,0.46655 -3.31359,-1.17417 0.2461,-1.27791 1.53715,-2.05591 4.10751,-2.47369 4.33572,-0.70476 5.21477,-1.32809 4.19943,-2.97095 -0.45577,-0.73749 -2.18342,-0.98441 -4.60057,-0.66021 -3.30907,0.44384 -3.86933,0.24593 -3.86933,-1.36638 0,-1.79047 1.12654,-2.33726 6.50181,-3.15062 1.1,-0.16645 1.99734,-0.97096 1.99734,-1.78841 0,-1.11755 -1.07825,-1.43648 -4.34568,-1.28699 -4.19425,0.19187 -4.32106,0.10905 -3.70219,-2.3567 0.96018,-3.82565 -1.74691,-7.3417 -5.64938,-7.3417 h -3.15062 l 2.24805,2.39013 c 1.61231,1.71622 2.15295,3.33791 1.92213,5.74967 -0.31862,3.32911 -0.3688,3.36079 -5.47807,3.40969 -2.83561,0.0271 -5.87147,0.64282 -6.74834,1.37056 -1.38835,1.15222 -1.5962,0.99316 -1.5962,-1.23267 0,-2.04502 0.55345,-2.6175 2.75366,-2.87066 3.37035,-0.3878 3.82585,-3.35583 0.49724,-3.23837 -1.56977,0.0554 -2.24805,-0.49129 -2.24805,-1.81348 0,-3.08807 -1.92583,-5.76639 -4.14511,-5.76639 z m -1.23267,18.36469 c 0.0556,0.008 0.10434,0.0333 0.14624,0.0752 0.3352,0.3352 -0.20105,1.3864 -1.19506,2.33581 -1.72775,1.6502 -1.75516,1.62279 -0.61007,-0.61007 0.57647,-1.12403 1.26965,-1.85927 1.65889,-1.80095 z m 21.51948,26.08245 c -1.45807,0.0403 -3.27404,0.35953 -5.36525,0.96524 -2.90164,0.84045 -7.02522,1.7964 -9.15936,2.12688 -5.05881,0.78338 -3.29247,2.91662 2.4152,2.91662 4.83001,0 4.74289,1.91384 -0.10864,2.36923 -5.23588,0.49146 -5.83222,2.00731 -1.08642,2.7662 5.26694,0.8422 5.34035,2.19736 0.16296,3.02526 -2.2,0.35179 -4.00304,1.00313 -4.00304,1.44577 0,1.24335 3.76942,2.1455 6.00038,1.43742 1.41932,-0.45047 2.00152,-0.1763 2.00152,0.93599 0,1.19098 -1.08097,1.56696 -4.50029,1.56696 -4.75591,0 -5.804,1.23052 -2.53637,2.9793 1.43779,0.76948 4.85018,0.53751 12.74873,-0.86914 9.45087,-1.6831 11.06566,-1.74457 13.03704,-0.49307 2.79881,1.77678 2.84549,4.29781 0.17132,9.53961 l -2.08091,4.07826 -5.16885,-0.62678 -5.17304,-0.62679 2.50295,2.02242 c 1.375,1.11221 3.35155,2.6711 4.39582,3.46401 3.21877,2.44398 7.10018,-0.79818 10.52993,-8.80001 2.50046,-5.83377 2.54504,-7.52624 0.25071,-10.27085 -2.56245,-3.06534 -5.45245,-4.38424 -7.3208,-3.33865 -2.71351,1.51854 -12.85737,2.36927 -12.85737,1.07806 0,-1.1267 1.09791,-1.47308 3.99886,-1.25774 2.29041,0.17001 4.34779,-1.50669 3.50997,-2.8623 -0.43354,-0.70148 -2.15943,-1.0442 -4.12422,-0.81482 -4.61771,0.5391 -4.46083,-1.77862 0.17968,-2.64919 4.36197,-0.81831 4.06067,-3.05568 -0.4095,-3.04198 -4.77744,0.0146 -3.77453,-2.19061 1.34549,-2.95841 2.81763,-0.42253 4.50029,-1.18882 4.50029,-2.04748 0,-1.4238 -1.42667,-2.12711 -3.85679,-2.06002 z m -24.7286,0.65603 c -1.53476,0.0328 -1.6222,1.01085 -0.0752,2.72023 1.22305,1.35145 1.65888,3.72957 1.65888,9.02147 0,3.98447 0.55306,8.07029 1.24103,9.17189 0.6823,1.09254 1.53776,1.98481 1.89706,1.98481 0.35932,0 0.96709,-3.99713 1.35384,-8.88358 0.7864,-9.93604 -0.0356,-12.71501 -4.06572,-13.7265 -0.82646,-0.20743 -1.49829,-0.29926 -2.00987,-0.28832 z m 22.36772,24.0475 c -0.46388,-0.0276 -0.92239,-0.0173 -1.36638,0.0376 -2.45995,0.30405 -2.40447,0.42306 1.72156,3.58101 4.58138,3.50645 6.36392,3.6925 6.36392,0.66438 0,-2.01572 -3.4719,-4.09008 -6.7191,-4.283 z m -11.65812,0.93181 c -1.31622,0.135 -0.43327,2.20499 2.88319,5.7246 2.36617,2.51112 4.30975,2.4637 4.8095,-0.11282 0.19202,-0.98995 -0.99768,-2.4395 -3.00019,-3.6604 -2.32352,-1.4166 -3.90277,-2.03238 -4.6925,-1.95138 z m -8.34037,0.94018 c -0.089,-0.002 -0.15979,0.0219 -0.21311,0.0752 -0.62156,0.62156 1.68066,6.83289 3.02945,8.17322 0.98335,0.97721 2.66483,0.44198 3.14644,-1.00284 0.41536,-1.2461 -4.62815,-7.20825 -5.96278,-7.24559 z m -9.89479,0.91927 c -0.10738,2.4e-4 -0.19428,0.0313 -0.26324,0.10029 -0.65799,0.65799 2.12555,8.95578 3.6019,10.73467 1.46463,1.76478 3.2072,1.01155 3.58519,-1.55024 0.29247,-1.98213 -5.31308,-9.28831 -6.92385,-9.28472 z" /><path
         id="path3004"
         style="display:inline;fill:#6e6e6e"
         d="m 722.18596,642.0395 c -2.07999,0 -2.64465,1.46501 -0.96525,2.50295 0.55,0.33992 0.99868,1.9384 0.99868,3.55594 0,2.76446 -0.23893,2.94169 -3.99887,2.94169 -3.94247,0 -5.16628,1.16108 -2.77873,2.63666 0.67176,0.41517 2.47063,0.65966 3.99887,0.54321 1.52822,-0.11644 2.77873,0.0942 2.77873,0.46799 0,0.37384 -2.74285,3.76882 -6.0965,7.54227 -3.75343,4.22331 -5.88089,7.428 -5.53238,8.33619 0.83802,2.18385 1.82864,1.85402 6.54777,-2.18538 l 4.27883,-3.6604 -0.20893,6.91131 c -0.1145,3.8011 -0.15712,7.5039 -0.0961,8.23172 0.061,0.72783 0.89695,1.17389 1.85945,0.99032 1.47654,-0.28164 1.82619,-1.81714 2.24806,-9.82375 0.3573,-6.78131 0.99995,-10.18903 2.24387,-11.94645 1.36131,-1.92324 2.00436,-2.19925 2.95005,-1.25356 0.6651,0.6651 3.17723,1.21177 5.58253,1.21177 3.62515,0 4.31642,0.3002 4.04065,1.75081 -0.25829,1.35866 -1.53377,1.8181 -5.69117,2.05584 -4.85311,0.27753 -5.17865,0.43772 -3.48908,1.71738 1.02533,0.77658 3.58417,1.4241 5.68699,1.4416 3.09223,0.0257 3.76199,0.36888 3.49326,1.78424 -0.23911,1.25935 -1.59434,1.89179 -4.82621,2.25641 -4.17265,0.47076 -4.33594,0.59564 -2.30656,1.75081 1.20134,0.68383 3.11342,1.24102 4.24958,1.24102 1.13616,0 2.06838,0.18785 2.06838,0.41786 0,0.23002 0.26222,1.10609 0.58499,1.9472 0.47812,1.24597 -0.49278,1.58793 -5.24824,1.83438 l -5.83743,0.30085 2.73277,1.85527 c 2.43462,1.65147 3.28474,1.72183 7.79716,0.63932 3.16792,-0.75998 7.48527,-0.95859 11.52023,-0.5265 5.29997,0.56758 6.45167,0.43235 6.45167,-0.76467 0,-2.83064 -2.55698,-3.77258 -8.38215,-3.08794 -5.23724,0.61554 -5.62014,0.51778 -5.62014,-1.4207 0,-1.73237 0.71019,-2.12987 4.24958,-2.38595 2.97443,-0.21521 4.24957,-0.75951 4.24957,-1.80931 0,-1.14782 -0.99738,-1.42545 -4.24957,-1.18253 -3.6457,0.27234 -4.24958,0.0435 -4.24958,-1.61709 0,-1.50889 0.90023,-2.05523 4.08243,-2.48205 4.65857,-0.62485 5.41473,-1.10405 4.38747,-2.7662 -0.45855,-0.74189 -2.19069,-0.98293 -4.65907,-0.65185 -3.58615,0.48099 -3.89987,0.33618 -3.61862,-1.63799 0.22388,-1.57149 1.12945,-2.25279 3.30941,-2.49876 1.65,-0.18616 3.5556,-0.79856 4.23704,-1.36221 2.16019,-1.78679 0.17525,-3.04358 -3.80665,-2.40684 l -3.81501,0.61007 -0.30921,-4.23286 c -0.26043,-3.58438 -0.72627,-4.3815 -3.0378,-5.18975 -3.42662,-1.19815 -4.59412,-0.15062 -2.46116,2.20627 0.8958,0.98986 1.75461,3.35558 1.90959,5.2566 l 0.27996,3.45566 -4.99753,0.0501 c -2.75,0.0281 -6.01227,0.60822 -7.24977,1.28699 -2.0662,1.13332 -2.25223,1.02856 -2.25223,-1.29953 0,-2.02116 0.49838,-2.53637 2.44444,-2.53637 1.34254,0 2.68626,-0.39817 2.98766,-0.88585 0.86769,-1.40395 -1.99811,-3.21935 -3.91947,-2.48205 -1.41906,0.54452 -1.61611,0.27994 -1.06971,-1.4416 0.88794,-2.79766 -1.01772,-6.1926 -3.47654,-6.1926 z m -0.58082,16.95652 c 0.36879,-0.0666 0.61425,0.20499 0.61425,0.89003 0,0.46476 -0.9349,1.69562 -2.08092,2.73276 -2.07845,1.88097 -2.08095,1.87561 -0.83988,-0.84824 0.73674,-1.617 1.6919,-2.66348 2.30655,-2.77455 z m 20.74645,27.4948 c -1.42788,0.0391 -3.12202,0.34049 -4.79696,0.93181 -2.29164,0.80906 -6.26288,1.78443 -8.82508,2.16866 -5.66643,0.84974 -4.65747,2.72441 1.46667,2.72441 5.13912,0 4.8904,2.09769 -0.30086,2.53638 -2.01997,0.17071 -3.67293,0.72217 -3.67293,1.22849 0,1.05177 3.97564,2.23858 5.9377,1.7717 0.72079,-0.17151 1.497,0.19317 1.72574,0.81063 0.44135,1.19139 -2.67726,2.34236 -6.41406,2.36506 -1.2375,0.008 -2.25223,0.46538 -2.25223,1.01538 0,1.05238 1.99535,1.43833 5.74967,1.11567 1.44177,-0.12392 2.25223,0.36007 2.25223,1.34549 0,1.12365 -1.06083,1.53771 -3.94036,1.53771 -2.16754,0 -4.22241,0.45182 -4.56297,1.00285 -1.04961,1.69832 3.9277,2.86918 8.59108,2.02241 2.42691,-0.44068 7.32666,-1.3424 10.88928,-2.00152 6.40185,-1.18441 6.50492,-1.16775 8.72061,1.40817 1.95045,2.26753 2.08602,2.96104 1.05717,5.33599 -3.018,6.96668 -3.74009,7.50767 -9.19696,6.89042 l -5.06022,-0.57246 2.50295,1.95138 c 1.375,1.07213 2.94744,2.37813 3.49744,2.90408 3.28848,3.14467 7.77965,-0.25699 11.53277,-8.7415 2.61914,-5.92101 2.49508,-7.32164 -0.92346,-10.59678 l -2.89155,-2.77038 -7.58405,1.27446 c -4.17116,0.70084 -7.86323,0.99108 -8.20665,0.64767 -1.32987,-1.32988 0.85191,-2.75366 4.21614,-2.75366 2.38592,0 3.38388,-0.40732 3.08795,-1.25356 -0.25273,-0.72271 -1.97433,-1.19828 -4.08244,-1.13238 -4.81083,0.1505 -4.89123,-2.29023 -0.10446,-3.18823 4.31946,-0.81034 4.00524,-2.98542 -0.40114,-2.77873 -4.66868,0.21899 -3.90434,-2.1998 1.02792,-3.25508 2.29321,-0.49064 4.35046,-1.43877 4.57132,-2.10599 0.4111,-1.2419 -1.23043,-1.9038 -3.61026,-1.83855 z m -25.44731,0.55992 c -0.88655,-0.0103 -0.58966,0.48523 0.63932,2.36088 1.15332,1.76016 1.67559,4.68348 1.67559,9.37246 0,4.87969 0.49734,7.51375 1.75081,9.28472 1.73751,2.45486 1.75698,2.40822 2.59488,-6.41406 0.76134,-8.01633 0.65506,-9.14085 -1.09896,-11.49934 -1.06934,-1.43785 -2.99154,-2.77 -4.27047,-2.95841 -0.56849,-0.0838 -0.99565,-0.14281 -1.29117,-0.14625 z m 23.00287,24.14361 c -0.43927,-0.027 -0.86676,-0.0164 -1.27028,0.0334 -2.47014,0.30531 -2.42494,0.40732 1.61292,3.49743 4.2002,3.21439 7.32929,3.42033 6.7567,0.44711 -0.35595,-1.84831 -4.02449,-3.789 -7.09934,-3.97797 z m -11.31131,0.93599 c -1.01992,-0.002 -0.45931,1.27889 1.62545,3.91112 3.20661,4.04865 4.42501,4.74189 5.44464,3.09212 0.9835,-1.59134 -0.59667,-4.11763 -3.51833,-5.6285 -1.75968,-0.90996 -2.93981,-1.37356 -3.55176,-1.37474 z m -8.56183,0.90257 c -0.0967,0.007 -0.17689,0.039 -0.24236,0.10446 -0.61644,0.61644 1.67594,6.82829 3.00855,8.15233 1.16993,1.1624 2.15129,0.89638 2.78709,-0.76049 0.57564,-1.5001 -4.1031,-7.60248 -5.55328,-7.4963 z m -10.05775,1.53352 c -0.39277,0.12376 -0.056,1.2148 0.94435,4.22033 0.87018,2.61429 2.0361,5.33218 2.5907,6.03799 1.35973,1.73048 3.14471,1.00751 3.50579,-1.42071 0.32399,-2.17875 -2.89014,-6.80987 -5.81235,-8.37379 -0.44872,-0.24015 -0.78583,-0.40897 -1.01538,-0.45964 -0.0861,-0.019 -0.157,-0.0219 -0.21311,-0.004 z" /><path
         id="path3002"
         style="display:inline;fill:#4e4e4e"
         d="m 721.68871,642.18157 c -1.65559,0.0873 -2.07688,1.36652 -0.468,2.36088 0.55,0.33992 0.99868,1.9384 0.99868,3.55594 0,2.51293 -0.39973,2.96163 -2.74948,3.06287 -1.5125,0.0652 -3.3575,0.0316 -4.10333,-0.071 -0.74584,-0.10267 -1.1618,0.40739 -0.92346,1.13238 0.23835,0.725 2.08334,1.45894 4.10333,1.62964 2.01999,0.17071 3.67294,0.5832 3.67294,0.9151 0,0.3319 -2.74286,3.68941 -6.0965,7.46287 -3.84813,4.32985 -5.88144,7.41645 -5.51567,8.36962 0.50865,1.32547 0.9157,1.33666 3.34701,0.0794 1.52368,-0.78793 3.62934,-2.37874 4.67579,-3.53505 1.04644,-1.15631 2.16733,-2.10498 2.49459,-2.10598 0.32726,-10e-4 0.45098,3.60063 0.2716,8.0019 -0.26945,6.61129 -0.064,8.00191 1.18253,8.00191 2.20529,0 2.91568,-3.35001 2.13523,-10.07446 -0.57223,-4.9303 -0.34387,-6.60106 1.36639,-9.88225 1.55754,-2.98822 1.70619,-3.81263 0.60171,-3.3888 -1.0515,0.4035 -1.46249,-0.17632 -1.46249,-2.07255 0,-2.12754 0.57893,-2.74659 3.0169,-3.23419 2.44007,-0.48801 2.79568,-0.86926 1.85945,-1.99735 -0.63646,-0.76686 -1.96662,-1.1408 -2.95422,-0.82735 -1.48123,0.47013 -1.84764,-0.0934 -2.10599,-3.22583 -0.25241,-3.06037 -0.75228,-3.85833 -2.56562,-4.11586 -0.28461,-0.0404 -0.54488,-0.0542 -0.78139,-0.0418 z m 15.66535,1.9472 c -1.14335,0.10946 -1.20426,0.98112 0.16714,2.35252 1.77883,1.77884 3.14196,7.03632 2.21463,8.53676 -0.34821,0.56342 -2.91049,1.02374 -5.69535,1.02374 -4.53638,0 -4.9258,0.16545 -3.73144,1.60456 0.98616,1.18822 2.46549,1.48202 5.67864,1.11985 3.98641,-0.44933 4.3157,-0.3157 4.03647,1.64217 -0.25512,1.78871 -1.08184,2.18215 -5.12707,2.44026 -4.07175,0.25981 -4.63712,0.53365 -3.62698,1.75081 0.67299,0.81091 2.92644,1.4416 5.14797,1.4416 3.22263,0 3.88964,0.32337 3.61861,1.75081 -0.23911,1.25935 -1.59434,1.89179 -4.82621,2.25641 -4.17265,0.47076 -4.33594,0.59564 -2.30656,1.75081 1.20134,0.68383 3.33986,1.24102 4.751,1.24102 1.89907,0 2.56563,0.5212 2.56563,2.00153 0,1.76424 -0.67745,2.00554 -5.74967,2.03494 l -5.74968,0.0293 2.43609,2.03077 c 1.82783,1.5214 3.07904,1.83084 5.00172,1.23685 1.40978,-0.43553 6.47216,-0.81093 11.24863,-0.83153 9.30742,-0.0402 10.83901,-0.56177 8.80836,-3.00855 -1.02793,-1.23857 -2.49105,-1.42077 -7.1453,-0.8942 -5.46419,0.6182 -5.84996,0.52256 -5.84996,-1.41235 0,-1.72235 0.71619,-2.12194 4.24958,-2.37759 2.97443,-0.21521 4.24957,-0.75951 4.24957,-1.80931 0,-1.14782 -0.99738,-1.42545 -4.24957,-1.18253 -3.65826,0.27328 -4.24958,0.0481 -4.24958,-1.6338 0,-1.55294 0.93469,-2.09738 4.55879,-2.64084 5.82423,-0.8734 5.44864,-3.1211 -0.47636,-2.84559 -3.80532,0.17695 -4.17711,-0.0146 -3.8944,-2.00152 0.22866,-1.60696 1.11781,-2.28444 3.31359,-2.53219 1.65,-0.18616 3.58201,-0.82207 4.29554,-1.41235 1.97217,-1.63152 -0.58204,-2.84887 -4.48358,-2.13524 -3.14902,0.576 -3.19302,0.53045 -3.50161,-3.74815 -0.26603,-3.68858 -0.7165,-4.47272 -3.04198,-5.28585 -0.83062,-0.29043 -1.53033,-0.4497 -2.08091,-0.49307 -0.20648,-0.0163 -0.39241,-0.0156 -0.55575,0 z m -15.49821,14.88814 c 0.22957,0.0616 0.36354,0.33534 0.36354,0.84825 0,0.45412 -1.19241,1.91752 -2.65338,3.2509 l -2.65755,2.42355 1.87199,-3.24672 c 1.10487,-1.91828 2.17085,-3.09776 2.81633,-3.26762 0.0968,-0.0255 0.18255,-0.0289 0.25907,-0.008 z m 19.84807,27.42794 c -0.90951,0.0617 -1.98659,0.38246 -3.46401,0.9736 -2.10267,0.84132 -6.16934,1.83824 -9.03818,2.21881 -4.04687,0.53684 -4.83473,0.90915 -3.50998,1.65052 0.93913,0.52556 3.2658,0.95271 5.16886,0.95271 4.22247,0 4.04459,2.15157 -0.21729,2.6283 -4.82387,0.53959 -5.29181,2.17284 -0.6226,2.17284 2.9233,0 4.19943,0.42189 4.19943,1.39146 0,1.61229 -2.13043,2.6074 -5.58253,2.6074 -1.32999,0 -2.41519,0.45285 -2.41519,1.00285 0,0.55 1.8366,0.99868 4.08243,0.99868 5.35319,0 4.79634,2.37562 -0.66021,2.81633 -4.98108,0.40231 -6.57739,1.85586 -3.0169,2.74948 2.92659,0.73453 9.96807,0.0541 18.48168,-1.78424 5.27085,-1.13813 5.43892,-1.10315 7.74284,1.57531 2.24862,2.61419 2.28608,2.9027 0.83988,6.36392 -2.48082,5.93748 -3.35543,6.54356 -8.7039,6.02964 -2.64592,-0.25424 -4.67019,-0.32032 -4.49611,-0.14625 0.17408,0.17408 1.87271,1.42112 3.77323,2.77037 4.51643,3.20637 6.36089,3.19834 8.91282,-0.046 2.53111,-3.21777 6.04217,-10.9318 6.04217,-13.27105 0,-0.92718 -1.32142,-2.95198 -2.93751,-4.50029 l -2.93752,-2.81216 -7.76372,1.56278 c -8.22251,1.65537 -9.61369,1.52012 -8.70808,-0.83989 0.36178,-0.94278 1.9541,-1.46667 4.45432,-1.46667 2.14116,0 3.8944,-0.42306 3.8944,-0.93599 0,-1.35028 -3.66677,-2.30762 -6.00038,-1.56695 -1.37678,0.43697 -2.00152,0.18215 -2.00152,-0.82317 0,-1.6048 2.06529,-2.67427 5.16467,-2.67427 1.16918,0 1.81973,-0.52339 1.56278,-1.25356 -0.24247,-0.68902 -1.85248,-1.18026 -3.58519,-1.09896 -4.77968,0.2242 -4.0498,-2.47904 0.88167,-3.26762 4.82285,-0.7712 5.77494,-1.88444 2.92498,-3.40969 -0.81406,-0.43567 -1.55583,-0.62999 -2.46534,-0.56828 z m -24.68682,0.6226 c -0.85244,-0.01 -0.57481,0.44836 0.58918,2.11017 1.10588,1.57888 1.61291,4.46816 1.61291,9.151 0,3.76378 0.46693,7.71528 1.03628,8.77912 1.87827,3.50956 2.67095,2.03503 3.36373,-6.27199 0.5965,-7.15254 0.44042,-8.53518 -1.2076,-10.75139 -1.04005,-1.39862 -2.91149,-2.69489 -4.15765,-2.87901 -0.54397,-0.0804 -0.9527,-0.13464 -1.23685,-0.1379 z m 21.12253,23.97229 c -1.6391,0 -1.42791,0.47476 1.31624,2.97094 2.96892,2.70066 7.78869,4.12007 7.75119,2.28149 -0.0502,-2.46024 -4.86939,-5.25243 -9.06743,-5.25243 z m -9.54379,1.0906 c -1.01992,-0.002 -0.45931,1.27889 1.62545,3.91112 3.20661,4.04865 4.42501,4.74189 5.44464,3.09212 0.9835,-1.59134 -0.59667,-4.11763 -3.51833,-5.6285 -1.75968,-0.90996 -2.93981,-1.37356 -3.55176,-1.37474 z m -8.88776,1.19506 c -0.0843,0.0137 -0.15324,0.0488 -0.20892,0.10447 -0.22941,0.2294 0.53286,2.27771 1.6923,4.55043 2.09944,4.11522 4.02812,4.62921 4.02812,1.07388 0,-1.65617 -4.2466,-5.93468 -5.5115,-5.72878 z m -8.73733,1.77171 c -0.10452,0.0126 -0.19411,0.0562 -0.26742,0.12953 -0.76771,0.76771 1.23407,7.62797 2.79962,9.59811 1.39706,1.75812 3.15345,0.99639 3.52669,-1.52935 0.31115,-2.10562 -4.49099,-8.38793 -6.05889,-8.19829 z" /><path
         id="path3000"
         style="display:inline;fill:#2f2f2f"
         d="m 721.50068,642.00607 c -1.11752,-0.15242 -1.03017,1.23033 0.3301,3.95708 1.95662,3.92213 1.07108,5.12895 -3.96543,5.39032 -4.71272,0.24457 -4.09317,2.18955 0.69781,2.18955 2.13015,0 3.66079,0.48724 3.6604,1.17 -3.6e-4,0.64472 -2.69307,4.02022 -5.97949,7.50048 -3.28641,3.48025 -5.9826,6.89237 -5.9962,7.57987 -0.0433,2.19417 3.43786,1.34145 7.01159,-1.7132 1.90423,-1.62765 3.7458,-2.9779 4.09497,-3.0002 0.34916,-0.0223 0.40528,2.85782 0.12118,6.39735 -0.28409,3.53954 -0.24665,7.13727 0.0836,7.99773 0.71702,1.86849 2.6077,2.08466 2.79126,0.31757 0.0714,-0.6875 0.0283,-4.90855 -0.0961,-9.38083 -0.14001,-5.03247 0.18975,-8.39106 0.86496,-8.80836 0.60004,-0.37085 1.57825,-1.58416 2.17284,-2.69516 0.9863,-1.84292 0.8952,-1.91926 -1.02792,-0.89003 -1.96159,1.04981 -2.06133,0.93229 -1.43742,-1.67559 0.9618,-4.02011 1.22787,-4.29972 4.07408,-4.29972 2.08102,0 2.34505,-0.2659 1.40399,-1.39981 -0.63757,-0.76822 -2.00942,-1.17059 -3.05033,-0.89839 -1.52963,0.40001 -1.95545,-0.12907 -2.21463,-2.75366 -0.17637,-1.78602 -1.08629,-3.72624 -2.02241,-4.31225 -0.63756,-0.39912 -1.14431,-0.62194 -1.51681,-0.67275 z m 16.3172,2.06838 c -1.83421,-0.0306 -1.83939,0.0398 -0.117,1.94302 0.98506,1.08848 1.84151,3.67186 1.90541,5.74967 l 0.11282,3.77323 -5.49896,0.50142 c -5.2298,0.47544 -5.3829,0.5676 -3.11301,1.85945 1.40402,0.79907 3.77181,1.1316 5.74967,0.81064 3.04652,-0.49438 3.36373,-0.315 3.36373,1.89288 0,2.26566 -0.36088,2.43609 -5.12289,2.43609 -4.43991,0 -4.9567,0.19996 -3.87769,1.50009 0.7149,0.8614 2.89613,1.5001 5.12289,1.5001 3.21089,0 3.87769,0.34538 3.87769,2.00152 0,1.71578 -0.66806,1.99734 -4.6925,1.99734 -4.33948,0 -4.5451,0.11271 -2.74948,1.47085 1.06762,0.8075 3.18,1.48259 4.6925,1.50009 2.07273,0.024 2.74948,0.52334 2.74948,2.03078 0,2.02137 -1.9758,2.47905 -9.00058,2.08091 l -2.49877,-0.14207 2.44445,2.09763 c 1.63368,1.40268 3.12009,1.87621 4.49611,1.42906 1.13157,-0.36772 6.44606,-0.89983 11.80856,-1.18253 5.36248,-0.2827 9.75271,-0.82321 9.75271,-1.19924 0,-2.17336 -2.72763,-2.97558 -8.16905,-2.40684 -5.48511,0.57331 -5.83324,0.48121 -5.83324,-1.53353 0,-1.74731 0.60032,-2.1478 3.2509,-2.1603 3.86055,-0.0182 6.27775,-1.32402 5.31929,-2.87484 -0.4314,-0.69803 -2.1612,-0.87946 -4.62983,-0.48471 -3.48908,0.55793 -3.94036,0.40225 -3.94036,-1.37892 0,-2.068 2.40311,-3.20411 6.83191,-3.23001 1.43133,-0.008 2.16334,-0.49932 1.89288,-1.2661 -0.27256,-0.77275 -2.02299,-1.1784 -4.58386,-1.06135 -3.74877,0.17133 -4.14093,-0.0367 -4.14093,-2.18955 0,-2.02718 0.55685,-2.42232 3.75233,-2.6868 2.52873,-0.20928 3.74815,-0.79782 3.74815,-1.80931 0,-1.11882 -0.95114,-1.42635 -3.74815,-1.2076 -3.7076,0.28997 -3.75233,0.25262 -3.75233,-3.38879 0,-3.92295 -2.02731,-6.31588 -5.40285,-6.37228 z m -16.1626,15.01768 c 0.35916,0.0348 0.56411,0.46956 0.56411,1.33295 0,0.76174 -1.17364,2.1583 -2.61159,3.10048 l -2.61577,1.7132 1.8302,-3.10048 c 1.21039,-2.04902 2.23446,-3.1042 2.83305,-3.04615 z m 20.9512,27.5324 c -1.07979,-0.0626 -2.40346,0.21852 -4.21196,0.8566 -2.20341,0.77741 -6.06331,1.72044 -8.57855,2.09763 -5.44023,0.81581 -5.13065,2.46116 0.46382,2.46116 5.41179,0 5.21235,2.41202 -0.30921,3.73979 l -4.24958,1.01957 4.32479,0.12117 c 3.54307,0.0984 4.2623,0.43782 3.99051,1.87199 -0.23178,1.22302 -1.45913,1.84311 -4.07408,2.06002 -5.00771,0.41538 -4.79765,2.18956 0.25907,2.18956 2.88889,0 3.99886,0.41676 3.99886,1.50009 0,0.99066 -0.98932,1.5001 -2.91662,1.5001 -3.7238,0 -6.22616,0.9522 -5.51567,2.1018 0.79952,1.29365 4.83507,1.1103 15.38539,-0.70199 l 9.30561,-1.5962 2.61994,2.61576 2.61995,2.61995 -2.49877,4.73011 c -2.49577,4.72557 -2.50244,4.72872 -7.70523,4.68832 -2.86388,-0.0222 -5.09411,0.0747 -4.95575,0.2131 0.13836,0.13836 1.80585,1.35427 3.70637,2.70352 4.04494,2.87167 4.45328,2.96265 7.05337,1.57113 1.93842,-1.03742 7.90162,-12.06151 7.90162,-14.60818 0,-0.71885 -1.24157,-2.69833 -2.76201,-4.4 l -2.7662,-3.0963 -8.29858,1.68395 c -8.6151,1.74565 -9.82444,1.61145 -8.82925,-0.98195 0.39819,-1.03773 1.9146,-1.54189 4.62564,-1.54189 4.06624,0 5.37116,-1.27442 2.4528,-2.3943 -0.86871,-0.33339 -2.61892,-0.34412 -3.89022,-0.0251 -2.66216,0.66816 -4.49004,-1.36161 -2.41102,-2.67845 0.75796,-0.48007 2.65364,-0.88202 4.21197,-0.89002 1.83137,-0.01 2.67592,-0.45815 2.39013,-1.2661 -0.25529,-0.72174 -1.76731,-1.14104 -3.58101,-0.99449 -4.91473,0.39708 -4.139,-2.56924 0.88167,-3.37209 4.73644,-0.75738 5.78397,-1.87937 3.0963,-3.31776 -0.52504,-0.28099 -1.08621,-0.44296 -1.7341,-0.48053 z m -25.54341,0.4471 c -0.84233,-0.002 -0.53791,0.50594 0.71035,2.41102 1.2142,1.8531 1.66356,4.47388 1.56277,9.12176 -0.0778,3.58655 0.33029,7.40113 0.90675,8.47825 1.90222,3.55436 2.68622,2.05723 3.29269,-6.29288 0.50773,-6.99053 0.32323,-8.62887 -1.2076,-10.7472 -0.99365,-1.375 -2.8087,-2.64772 -4.03229,-2.82888 -0.54339,-0.0805 -0.9519,-0.1414 -1.23267,-0.14207 z m 21.66573,23.93051 c -1.28879,0.0204 -0.84532,1.07054 1.49174,3.03779 3.54472,2.98386 5.48043,3.65187 6.37645,2.2021 0.80339,-1.29991 -0.72444,-3.00144 -3.71054,-4.13676 -1.98674,-0.75535 -3.38438,-1.11541 -4.15765,-1.10313 z m -10.04939,1.12402 c -1.06342,-0.0588 -0.55361,1.27131 1.56695,3.94872 2.4745,3.12432 3.49368,3.7812 4.52536,2.92498 1.7922,-1.4874 0.97414,-3.21668 -2.48623,-5.26078 -1.76487,-1.04254 -2.96803,-1.57765 -3.60608,-1.61292 z m -8.26098,1.58785 c -0.6097,-0.0539 -0.36995,1.02081 0.53068,3.31358 0.86684,2.20675 2.18341,4.01558 2.92498,4.01558 1.92962,0 1.66579,-3.41887 -0.40114,-5.19393 -1.59113,-1.36644 -2.5803,-2.09328 -3.05452,-2.13523 z m -9.45185,1.38727 c -0.10617,0.0145 -0.19918,0.0571 -0.27579,0.13372 -0.26418,0.26419 0.0133,2.01772 0.61425,3.8944 0.60092,1.87667 1.26154,3.97575 1.47084,4.66325 0.45938,1.50896 4.44597,1.68881 4.44597,0.20057 0,-2.68993 -4.66277,-9.11005 -6.25527,-8.89194 z" /><path
         id="path2998"
         style="display:inline;fill:#030303"
         d="m 721.91853,642.28604 c -0.22649,0.0244 -0.44858,0.10062 -0.66439,0.23399 -0.70178,0.43373 -0.54992,1.3726 0.45546,2.80798 2.61537,3.73397 1.91986,5.46838 -2.49041,6.21349 -4.93513,0.83379 -5.37518,2.88021 -0.49724,2.31074 2.28655,-0.26695 3.49744,0.008 3.49744,0.79392 0,1.2587 -4.55346,6.92874 -9.24711,11.51188 -5.86751,5.72933 -1.73803,6.75271 4.99335,1.23685 l 4.45433,-3.65205 -0.71036,7.56734 c -0.38996,4.16133 -0.40545,8.05439 -0.0376,8.64958 1.75009,2.83173 2.54891,0.31543 2.54891,-8.01444 0,-7.68319 0.33417,-9.58696 2.1603,-12.25148 1.18901,-1.7349 1.55129,-2.58874 0.80228,-1.90124 -1.93863,1.77942 -2.96258,1.54822 -2.96258,-0.66857 0,-3.43564 1.16749,-5.0811 3.60608,-5.0811 1.31615,0 2.3943,-0.45285 2.3943,-1.00285 0,-0.55 -1.12377,-0.99867 -2.49877,-0.99867 -2.08745,0 -2.50294,-0.47629 -2.50294,-2.87902 0,-2.70176 -1.7156,-5.04706 -3.30105,-4.87635 z m 15.6361,1.70902 c -0.83194,0.0382 -0.74766,0.9778 0.59335,2.68262 1.16418,1.48002 2.07256,4.11016 2.07256,6.00039 v 3.36372 l -5.74967,0.0293 c -5.37729,0.0297 -5.61851,0.13274 -3.74815,1.57113 1.37657,1.05866 3.16856,1.35728 5.74967,0.95689 3.45343,-0.5357 3.74815,-0.39301 3.74815,1.81766 0,1.93349 -0.6528,2.52505 -3.36373,3.03362 -1.85117,0.34733 -4.21609,0.36017 -5.25242,0.0293 -1.79362,-0.57282 -1.78928,-0.52361 0.0585,0.98196 1.06762,0.8699 3.42838,1.57949 5.24824,1.57949 2.6422,0 3.30941,0.40448 3.30941,2.00152 0,1.67657 -0.66429,1.99734 -4.12004,1.99734 -3.55102,0 -3.95135,0.20802 -2.87902,1.5001 0.68469,0.825 2.53741,1.50009 4.12004,1.50009 2.18866,0 2.87902,0.46883 2.87902,1.95556 0,2.22901 -5.17784,3.69377 -9.16354,2.5907 -2.21749,-0.6137 -2.24252,-0.57191 -0.47218,0.84824 1.5239,1.22243 4.09127,1.39109 14.00229,0.9151 6.67385,-0.32052 12.35759,-0.78379 12.63173,-1.02792 0.27413,-0.24413 -0.32266,-1.04436 -1.32877,-1.78006 -1.2557,-0.91819 -3.52998,-1.1653 -7.24977,-0.78139 -5.04477,0.52067 -5.41957,0.41259 -5.41957,-1.57948 0,-1.65073 0.62811,-2.15625 2.74948,-2.21045 1.5125,-0.0386 3.62067,-0.41089 4.68414,-0.82735 2.81833,-1.10367 0.0342,-2.59357 -4.17018,-2.23134 -2.67615,0.23056 -3.26344,-0.0734 -3.26344,-1.68813 0,-2.13633 1.81803,-3.18405 5.52403,-3.18405 1.29756,0 2.6179,-0.41724 2.93334,-0.92764 0.82271,-1.33117 -2.83063,-2.26732 -5.87085,-1.50427 -2.28518,0.57355 -2.58652,0.3461 -2.58652,-1.95974 0,-2.17516 0.45625,-2.60714 2.74948,-2.61994 1.5125,-0.008 3.42458,-0.46128 4.24958,-1.00285 2.35419,-1.54545 -0.62966,-2.95183 -4.13258,-1.9472 -2.80298,0.80388 -2.86648,0.73785 -2.86648,-3.05034 0,-2.86912 -0.57674,-4.27485 -2.22298,-5.42792 -1.59498,-1.11717 -2.79606,-1.63427 -3.44312,-1.60456 z m -15.84921,14.39925 c 0.3657,0.0165 0.51772,0.55043 0.351,1.67142 -0.18376,1.2355 -1.40839,2.95638 -2.72023,3.82336 l -2.38594,1.57531 1.62963,-3.14644 c 1.31255,-2.53819 2.51606,-3.95114 3.12554,-3.92365 z m -4.24957,28.64807 c -1.27836,0 -1.21766,0.36225 0.35935,2.11017 1.51563,1.67985 1.86331,3.42553 1.69649,8.54093 -0.11532,3.53624 0.23731,7.60868 0.78557,9.05072 1.66217,4.37184 2.85736,1.34516 3.02108,-7.66344 0.13824,-7.60622 -0.0655,-8.59371 -2.08509,-10.22907 -1.22939,-0.9955 -2.92809,-1.80931 -3.7774,-1.80931 z m 26.10752,0.22564 c -2.02704,-0.01 -5.72897,0.62337 -12.33505,2.00988 -6.52631,1.36977 -6.48832,2.76202 0.0752,2.76202 4.25325,0 3.68445,2.59886 -0.83153,3.79829 l -3.75233,0.99449 3.82337,0.10447 c 3.07204,0.083 3.75992,0.44915 3.49326,1.85527 -0.20943,1.10437 -1.43413,1.8704 -3.32194,2.07673 -4.8755,0.53286 -5.39957,2.17285 -0.69364,2.17285 3.04265,0 4.19943,0.40634 4.19943,1.4792 0,1.41928 -1.54604,2.03999 -6.99905,2.81216 -2.21323,0.31341 -2.28856,0.45006 -0.64768,1.17835 1.0851,0.48158 6.18233,0.11821 12.29327,-0.8775 11.5698,-1.88517 13.44667,-1.65905 15.31853,1.83856 1.11704,2.0872 0.97006,2.95539 -1.11985,6.73163 -2.34776,4.24212 -2.5112,4.33732 -7.54226,4.33732 -2.82866,0 -5.04467,0.0928 -4.9265,0.20893 0.11818,0.11615 1.76824,1.31666 3.66876,2.66591 1.90049,1.34924 4.01753,2.49345 4.70503,2.54055 3.73503,0.25589 11.13497,-13.68089 9.3474,-17.60419 -1.74815,-3.83677 -5.53147,-5.64519 -9.30979,-4.45432 -1.80841,0.56999 -5.46921,1.34228 -8.13562,1.71738 -4.38979,0.61754 -4.81459,0.50565 -4.49193,-1.19507 0.26053,-1.37322 1.38086,-1.96411 4.16183,-2.19373 2.39435,-0.1977 3.653,-0.75356 3.39715,-1.5001 -0.24612,-0.71816 -1.88507,-1.05324 -4.15347,-0.84824 -3.18779,0.28807 -3.69389,0.0645 -3.39715,-1.5001 0.252,-1.3287 1.40453,-1.92497 4.15347,-2.15194 2.40229,-0.19835 3.64819,-0.75109 3.38461,-1.5001 -0.24079,-0.68423 -1.88779,-1.06813 -3.8944,-0.91092 -4.90516,0.38431 -4.81424,-2.5261 0.10447,-3.33866 5.34074,-0.88228 6.28177,-1.3113 5.53239,-2.52383 -0.27413,-0.44356 -0.88976,-0.67957 -2.10599,-0.68529 z m -6.84027,23.58369 3.49744,3.05451 c 3.7801,3.29892 6.00038,3.95038 6.00038,1.75917 0,-1.94868 -1.94619,-3.28024 -6.00038,-4.10333 z m -8.79583,1.19506 c -0.43595,-0.002 0.46557,1.56828 2.00152,3.49326 2.9266,3.66788 5.29421,4.55486 5.29421,1.98481 0,-1.3878 -5.43775,-5.46907 -7.29573,-5.47807 z m -8.03951,1.45831 c -0.25942,0.0932 0.0916,1.06135 1.0321,3.45565 0.88204,2.24543 2.21266,4.08244 2.95423,4.08244 2.75863,0 1.15993,-3.85507 -2.85395,-6.88206 -0.59889,-0.45164 -0.97673,-0.71196 -1.13238,-0.65603 z m -9.12175,1.81767 c -0.11266,0.008 -0.20884,0.05 -0.28832,0.12953 -0.13676,0.13676 0.46621,2.34989 1.34131,4.91814 1.45398,4.2672 3.5123,5.92032 4.79278,3.84844 0.95039,-1.53777 -4.15593,-9.01539 -5.84577,-8.89611 z" /></g></g></svg>
