<?xml version="1.0" encoding="UTF-8" standalone="no"?>
<!-- Created with Inkscape (http://www.inkscape.org/) -->

<svg
   viewBox="0 0 39.200001 39.200001"
   version="1.1"
   id="svg1"
   inkscape:version="1.3.2 (091e20e, 2023-11-25, custom)"
   sodipodi:docname="King White.svg"
   xml:space="preserve"
   xmlns:inkscape="http://www.inkscape.org/namespaces/inkscape"
   xmlns:sodipodi="http://sodipodi.sourceforge.net/DTD/sodipodi-0.dtd"
   xmlns="http://www.w3.org/2000/svg"
   xmlns:svg="http://www.w3.org/2000/svg"><sodipodi:namedview
     id="namedview1"
     pagecolor="#ffffff"
     bordercolor="#111111"
     borderopacity="1"
     inkscape:showpageshadow="0"
     inkscape:pageopacity="0"
     inkscape:pagecheckerboard="1"
     inkscape:deskcolor="#d1d1d1"
     inkscape:document-units="mm"
     showguides="true"
     inkscape:zoom="14.005102"
     inkscape:cx="19.6"
     inkscape:cy="19.6"
     inkscape:window-width="1292"
     inkscape:window-height="745"
     inkscape:window-x="-8"
     inkscape:window-y="-8"
     inkscape:window-maximized="1"
     inkscape:current-layer="layer1"
     showgrid="false"><inkscape:page
       x="0"
       y="0"
       width="39.200001"
       height="39.200001"
       id="page42"
       margin="0"
       bleed="0" /></sodipodi:namedview><defs
     id="defs1"><inkscape:path-effect
       effect="powerstroke"
       id="path-effect13"
       is_visible="true"
       lpeversion="1.3"
       scale_width="1"
       interpolator_type="CubicBezierJohan"
       interpolator_beta="0.2"
       start_linecap_type="zerowidth"
       end_linecap_type="zerowidth"
       offset_points="5,4.9921382"
       linejoin_type="extrp_arc"
       miter_limit="4"
       not_jump="false"
       sort_points="true"
       message="&lt;b&gt;Ctrl + click&lt;/b&gt; on existing node and move it" /></defs><g
     inkscape:label="Layer 1"
     inkscape:groupmode="layer"
     id="layer1"
     transform="translate(-85.400002,-166)"><path
       style="fill:#fff29e;fill-opacity:1;fill-rule:evenodd;stroke:none;stroke-width:0.385762;stroke-linecap:round;stroke-linejoin:round;paint-order:stroke fill markers"
       d="m 105,168 9.78527,3.17942 L 119.35,200 h -28.7 l 4.56473,-28.82058 z"
       id="path13" /><path
       style="display:inline;fill:#938e5e;fill-opacity:1;fill-rule:evenodd;stroke:none;stroke-width:0.386001;stroke-linecap:round;stroke-linejoin:round;stroke-dasharray:none;stroke-opacity:1;paint-order:stroke fill markers"
       d="m 90.649998,200 -3e-6,3.2 H 119.35 V 200 Z"
       id="path45" /><g
       id="g3792"
       transform="matrix(0.2522463,0,0,0.2522463,-66.982538,-2.8004628)"><path
         id="path3010"
         style="display:inline;fill:#d0d0d0"
         d="m 691.7066,692.33359 c -1.59087,-0.0559 -3.54422,0.222 -5.72452,0.86949 -5.96372,1.77098 -20.09848,2.13358 -22.98739,0.58749 -2.96188,-1.58515 -3.22926,0.49785 -0.42299,3.30405 2.5192,2.51927 9.38724,4.45891 11.39264,3.21946 0.64143,-0.39642 1.03399,0.71664 1.03399,2.91866 v 3.55785 h -6.50001 c -7.28233,0 -8.10697,1.0291 -3.24766,4.04665 2.29457,1.42489 4.20551,1.85108 6.50001,1.44288 l 3.24766,-0.57809 v 4.54484 4.54483 l -5.74802,-0.005 c -3.1625,-0.003 -7.4924,-0.48998 -9.62077,-1.08098 -2.32099,-0.64445 -4.23479,-0.70955 -4.77984,-0.1645 -1.14019,1.14019 2.63569,6.09873 5.53653,7.2708 3.13273,1.26579 4.89979,1.15066 9.73827,-0.63449 3.36094,-1.24005 7.79459,-1.58908 19.12404,-1.49928 14.07148,0.11153 14.7531,0.0272 14.7531,-1.86117 0,-3.86466 -3.99516,-5.21471 -13.23032,-4.46494 l -8.39879,0.68149 0.42299,-3.62835 c 0.32553,-2.7884 0.96748,-3.76624 2.75887,-4.21585 1.28301,-0.32202 2.79996,-0.30051 3.36985,0.0517 1.22585,0.75762 5.07593,-1.10621 5.07593,-2.45806 0,-1.76316 -5.43455,-3.88624 -7.2896,-2.84817 -2.32896,1.30335 -3.39321,0.45819 -3.91505,-3.09725 -0.42085,-2.86742 -0.27117,-2.99903 4.13125,-3.57196 6.08928,-0.79238 9.07558,-2.10099 9.07558,-3.97614 0,-1.83595 -1.64418,-2.86301 -4.29575,-2.95626 z m 2.13378,10.37746 2.58026,3.38395 c 1.4195,1.86106 2.58027,3.87934 2.58027,4.48374 0,0.60439 0.95183,1.76557 2.11497,2.58027 4.31335,3.02116 7.32913,-1.19112 3.66125,-5.11353 -2.64062,-2.82386 -4.19577,-3.72122 -8.10739,-4.65764 z m 4.44144,27.62623 c -0.24369,-0.0113 -0.49671,-0.007 -0.76139,0.0141 -1.27048,0.0997 -2.79209,0.57123 -4.62004,1.40058 -2.6316,1.19396 -6.5801,2.00317 -9.82287,2.01627 l -5.42843,0.0235 2.30297,2.44397 c 1.26422,1.34564 3.25349,2.61191 4.42264,2.81056 1.87433,0.31848 1.50358,0.95178 -3.12545,5.36263 -5.60379,5.33952 -6.42668,7.68135 -3.29466,9.35757 1.58772,0.84971 2.57057,0.50335 5.24983,-1.83768 2.59438,-2.26678 3.64692,-2.6519 4.95373,-1.81887 1.27129,0.81038 2.87583,0.42741 6.84311,-1.63088 5.84087,-3.03039 6.99821,-3.25703 6.99821,-1.37238 0,1.9202 -6.66462,5.30778 -13.00003,6.60811 -7.45986,1.53112 -9.29298,2.73984 -5.44723,3.59075 1.62132,0.35873 3.49346,0.82105 4.15945,1.02459 0.666,0.20355 3.58089,-0.24875 6.48121,-1.00109 2.90032,-0.75233 5.61824,-1.1533 6.03942,-0.89299 2.03072,1.25505 0.15055,2.17073 -6.48121,3.15836 -14.49487,2.15863 -18.87053,2.3906 -21.87351,1.14679 -3.62789,-1.50274 -4.55058,-0.72668 -3.05026,2.56616 1.6056,3.5239 4.85165,4.50711 10.56076,3.20066 3.9095,-0.89462 4.92965,-0.83074 5.68692,0.34779 1.64459,2.55942 0.51247,4.23975 -3.83044,5.68693 -5.21226,1.73685 -4.63071,3.24765 1.25018,3.24765 5.53961,0 9.08252,-1.33581 10.48556,-3.95734 0.91204,-1.70416 0.67176,-2.48183 -1.39118,-4.54484 l -2.48627,-2.48627 2.19957,-0.46059 c 1.20914,-0.25423 4.07431,-0.60345 6.36841,-0.77549 3.89771,-0.29228 4.21081,-0.12384 4.75164,2.58026 0.31833,1.59165 0.57809,4.61846 0.57809,6.72561 v 3.83045 l -7.252,0.2961 -7.2473,0.29139 4.61534,2.13377 c 2.53805,1.17367 5.90958,3.76392 7.49639,5.75273 2.94626,3.69244 6.00785,4.59527 8.18729,2.41576 1.44761,-1.44754 1.63468,-16.79539 0.2632,-21.5774 l -0.93529,-3.26646 6.43422,0.65799 c 5.97298,0.61196 6.43891,0.51969 6.43891,-1.32068 0,-3.71708 -3.22717,-5.46848 -8.73718,-4.73754 -4.04673,0.53682 -5.0805,0.36149 -5.58353,-0.94939 -0.3396,-0.88492 -1.34602,-1.60737 -2.23717,-1.60737 -1.28382,0 -1.08312,-0.64062 0.96819,-3.07846 1.42389,-1.69219 2.58966,-3.68983 2.58966,-4.44144 0,-3.89831 -10.38433,-6.0166 -14.4429,-2.94686 -2.32372,1.75758 -6.00211,1.99778 -4.96783,0.32429 0.3889,-0.62926 0.67239,-2.37023 0.62979,-3.86804 -0.0743,-2.6149 0.16005,-2.74485 5.96422,-3.27116 6.99592,-0.63437 8.47881,-1.61145 6.9089,-4.54484 -0.89971,-1.68123 -2.10592,-2.5481 -3.81164,-2.62726 z m -39.66277,3.58135 c -0.76747,0.0863 -0.62779,0.76014 -0.2115,2.51446 0.37317,1.57261 1.56012,3.60348 2.63667,4.51664 2.39479,2.03134 2.63851,7.36608 0.37599,8.23429 -2.33341,0.89542 -2.42047,0.82793 -2.42047,-1.89407 0,-1.375 -0.90217,-3.39784 -2.00217,-4.49784 -1.1,-1.1 -3.12284,-2.00218 -4.49784,-2.00218 -2.81761,0 -3.16265,0.75944 -1.09038,2.39227 0.77497,0.61063 1.72463,3.07945 2.11027,5.48953 l 0.70029,4.38504 -3.60955,-0.68149 c -4.1255,-0.77395 -4.66331,0.36569 -1.61208,3.41685 2.58211,2.58209 7.03276,2.54835 10.36806,-0.0752 2.55936,-2.01315 2.63196,-2.01754 2.63196,-0.13629 0,1.37957 -1.31856,2.44116 -4.58713,3.68945 -4.37655,1.67136 -7.27462,1.65571 -13.27732,-0.0846 -2.13218,-0.61816 -2.29027,-0.4507 -1.62618,1.71077 1.04022,3.38583 2.44719,4.89264 4.56364,4.89264 1.75572,0 1.75356,0.17281 -0.0987,4.25344 -2.56519,5.6515 -2.56492,8.74658 0.005,8.74658 2.66346,0 5.27401,-4.24017 5.40962,-8.78418 0.0986,-3.30452 0.543,-3.90576 4.01375,-5.48012 2.14439,-0.97276 4.11089,-1.55723 4.37094,-1.29719 0.71997,0.71998 -0.8568,15.71981 -1.61208,15.3359 -4.95037,-2.51624 -6.24644,-3.02184 -6.67391,-2.59437 -0.27741,0.27741 0.96194,3.03271 2.75417,6.12402 3.75586,6.47832 6.63259,7.45346 8.69958,2.94686 0.69371,-1.5125 1.63254,-9.27384 2.08677,-17.24877 0.45423,-7.97493 1.3085,-16.06999 1.89877,-17.99136 2.67878,-8.71847 0.36633,-13.9895 -6.8102,-15.50979 -1.24648,-0.26405 -2.03519,-0.42306 -2.49567,-0.37129 z" /><path
         id="path3006"
         style="display:inline;fill:#909090"
         d="m 693.21998,692.93048 c -0.74952,-0.0355 -1.75515,0.0435 -3.12075,0.2162 -16.17552,2.045 -20.61229,2.31662 -24.31278,1.48518 -5.20269,-1.16898 -6.00234,-0.28558 -2.48156,2.74476 2.05653,1.7701 3.99446,2.41577 7.252,2.41577 4.38109,0 4.44144,0.0475 4.44144,3.37455 0,2.92292 -0.38753,3.45113 -2.89516,3.95265 -1.5925,0.31849 -4.62911,0.34308 -6.74911,0.0517 l -3.85395,-0.53109 2.80586,2.57556 c 2.02397,1.858 3.90395,2.57557 6.74911,2.57557 h 3.94325 v 4.36154 4.36154 l -5.04303,0.59689 c -2.77467,0.32861 -6.18076,0.1651 -7.5669,-0.3619 -1.38614,-0.52696 -3.85599,-0.95878 -5.48953,-0.95878 -2.68596,0 -2.86446,0.19677 -1.87057,2.05387 0.60445,1.12943 2.53394,2.92644 4.28634,3.99495 3.88117,2.36647 4.31388,2.38097 9.80877,0.27729 3.43768,-1.31609 7.53698,-1.65188 19.10994,-1.56508 8.10199,0.0608 14.96406,-0.26843 15.2513,-0.73319 0.90154,-1.45876 -0.49946,-3.71503 -3.02206,-4.86443 -1.53312,-0.69853 -5.39714,-0.87287 -10.49966,-0.47939 l -8.07919,0.62039 0.64389,-2.89986 c 1.17007,-5.29939 1.28339,-5.40493 5.88432,-5.40493 5.22437,0 6.30261,-1.04126 3.60485,-3.48265 -1.42954,-1.29372 -2.83212,-1.58391 -5.36263,-1.10919 -3.3307,0.62486 -3.44129,0.54027 -3.84455,-2.91396 -0.22828,-1.95515 -0.20179,-3.76496 0.0564,-4.02315 0.25819,-0.25819 2.31679,-0.46999 4.57774,-0.46999 4.82808,0 8.75435,-2.3159 7.863,-4.63884 -0.30105,-0.7845 -0.83756,-1.16281 -2.08678,-1.22198 z m 3.47796,10.86155 c -1.82939,0 -1.87324,0.15333 -0.4747,1.74838 0.84392,0.9625 2.29169,3.24024 3.21476,5.06183 2.08062,4.10587 6.06292,4.25793 6.06292,0.2303 0,-2.74785 -5.36701,-7.04051 -8.80298,-7.04051 z m 1.29718,27.09044 c -1.32998,-0.042 -2.99873,0.4321 -5.33913,1.40998 -1.9745,0.825 -5.89549,1.49928 -8.70898,1.49928 -5.80977,0 -6.29429,1.4992 -1.30658,4.04194 2.47276,1.26066 2.86276,1.8982 2.14317,3.51086 -0.48387,1.08439 -2.41525,3.02597 -4.29574,4.31454 -3.48054,2.3849 -5.11911,5.30622 -3.99495,7.1251 1.13321,1.83358 5.33247,1.04487 7.2191,-1.35358 1.42848,-1.81602 2.5624,-2.25099 4.93024,-1.90347 1.91877,0.28162 4.61747,-0.3393 7.1768,-1.64498 4.87638,-2.48777 6.18042,-2.60992 6.18042,-0.57809 0,1.96929 -5.24872,5.13291 -9.86517,5.94542 -6.77752,1.19287 -10.49685,2.69743 -9.00508,3.64245 1.93808,1.22774 8.9847,1.1037 12.79793,-0.2256 2.3588,-0.82232 3.52324,-0.8242 4.33334,-0.0141 0.60916,0.60916 0.82425,1.38941 0.47939,1.73428 -0.34487,0.34486 -5.8379,1.33892 -12.20573,2.21367 -9.08215,1.24761 -12.4865,1.34878 -15.79649,0.46529 -2.32075,-0.61945 -4.41934,-0.92449 -4.66234,-0.68149 -0.243,0.243 0.48294,1.66896 1.61208,3.17246 2.18503,2.90944 6.11905,3.50928 13.06112,1.99277 3.1621,-0.69078 3.25236,-0.61948 3.25236,2.64607 0,3.16854 -0.26606,3.42715 -4.74223,4.55423 -4.06915,1.02462 -4.47702,1.34142 -2.87637,2.23717 2.05912,1.15234 9.58255,0.42811 12.65693,-1.21728 1.07783,-0.57683 1.95988,-1.78382 1.95988,-2.68366 0,-2.15054 -2.88532,-5.28653 -4.90204,-5.32503 -3.76203,-0.0717 1.64605,-1.72255 7.5575,-2.30767 7.14136,-0.70686 7.346,-0.48733 7.346,7.91939 v 5.41903 l -7.252,0.0564 -7.2473,0.0564 5.00073,2.33117 c 2.75,1.28065 6.25655,3.95306 7.7925,5.94072 3.3756,4.36836 6.33338,4.69564 7.83009,0.86479 1.13647,-2.90888 0.65362,-18.34931 -0.67679,-21.63381 -0.71763,-1.7717 -0.36942,-1.84102 5.89372,-1.17029 6.28363,0.67292 6.65981,0.59668 6.65981,-1.34418 0,-3.4172 -4.03479,-5.32875 -8.92518,-4.22994 -3.72618,0.83721 -4.42564,0.68784 -6.51881,-1.40528 -2.29379,-2.29379 -2.30447,-2.38352 -0.4512,-4.06075 2.86153,-2.58965 2.491,-7.22909 -0.67209,-8.43169 -3.90481,-1.48458 -7.11009,-1.18084 -11.57124,1.09509 -2.23139,1.13837 -4.20805,1.91598 -4.39444,1.72958 -0.1864,-0.1864 -0.092,-2.18774 0.2115,-4.45084 l 0.55459,-4.11715 6.11932,-0.69089 c 6.74102,-0.76267 8.37678,-2.07391 5.94072,-4.76573 -0.97986,-1.08273 -1.96938,-1.64058 -3.29936,-1.68258 z m -37.435,3.81165 c -1.34181,0.0661 -2.20795,0.72144 -1.87057,2.01157 0.27531,1.05279 1.49358,2.84544 2.70716,3.98555 2.85504,2.68211 2.49611,9.09907 -0.50759,9.09907 -1.27743,0 -1.88938,-0.70875 -1.88938,-2.18547 0,-3.00922 -3.82348,-6.81491 -6.8478,-6.81491 h -2.50037 l 2.03977,2.25127 c 1.12311,1.2375 2.30981,3.98269 2.63197,6.10052 l 0.58279,3.84925 -3.86335,-0.36659 c -3.47471,-0.33137 -3.76507,-0.18664 -2.89046,1.44758 1.84916,3.45515 5.48793,4.27402 9.62547,2.16667 2.04794,-1.04307 4.02522,-2.04451 4.39444,-2.22777 0.36923,-0.18325 0.44377,0.5245 0.1692,1.57448 -1.0521,4.02319 -11.70331,6.68941 -16.49208,4.12654 -2.56807,-1.37439 -3.25383,-0.67018 -2.45336,2.51917 0.39609,1.57828 1.57146,2.7648 3.12075,3.15365 1.36662,0.343 2.48157,0.74283 2.48157,0.88829 0,0.14546 -0.9339,2.37819 -2.07737,4.96313 -2.18382,4.93689 -2.00026,7.5528 0.52639,7.5528 2.3067,0 4.66754,-4.38458 4.72814,-8.77478 0.0505,-3.65938 0.37804,-4.0905 4.56364,-6.12402 2.4777,-1.20378 4.64155,-2.05114 4.81273,-1.87997 0.17117,0.17118 -0.0928,3.45281 -0.58749,7.2943 -0.49468,3.84149 -0.91259,7.76033 -0.93059,8.70428 -0.0297,1.55726 -0.35863,1.52123 -3.53435,-0.35249 -4.32198,-2.55003 -4.39563,-1.44508 -0.3478,5.06653 5.82785,9.37501 8.02606,6.47718 8.98158,-11.84384 0.39312,-7.53773 1.42151,-16.44419 2.28887,-19.79143 2.16092,-8.33923 1.9927,-10.96973 -0.87889,-13.84132 -1.55484,-1.55484 -3.70937,-2.42767 -5.38142,-2.54266 -0.20902,-0.0144 -0.4099,-0.0201 -0.6016,-0.009 z" /><path
         id="path3008"
         style="display:inline;fill:#b0b0b0"
         d="m 691.43401,692.55448 c -1.56947,-0.0155 -3.37906,0.22377 -5.15113,0.76139 -5.61145,1.70265 -20.52243,1.95078 -23.43859,0.3901 -1.69325,-0.90644 -1.96657,-0.80159 -1.68257,0.64389 0.5745,2.92415 5.33469,5.71512 9.75706,5.71512 3.9634,0 4.07955,0.092 4.07955,3.36046 v 3.36515 l -6.74911,0.0329 -6.74911,0.0282 2.80586,2.47217 c 2.78967,2.45422 4.14409,2.85345 8.44579,2.50507 2.0318,-0.16458 2.24657,0.26153 2.24657,4.38974 v 4.57303 l -4.24874,0.1551 c -4.59624,0.17037 -4.86353,0.15409 -12.11644,-0.81309 -4.78356,-0.63789 -4.84545,-0.61309 -3.68475,1.55568 0.64953,1.21368 2.61384,3.08154 4.36624,4.15005 3.90155,2.37888 5.3631,2.41968 10.31166,0.27259 3.13022,-1.35813 6.79607,-1.65301 19.12404,-1.52748 14.5049,0.14769 15.2513,0.0637 15.2513,-1.79067 0,-3.52401 -4.83679,-5.02846 -13.91181,-4.32864 l -8.09799,0.62039 0.66269,-3.39806 c 0.80543,-4.13508 1.77985,-4.86353 6.53761,-4.88323 4.48185,-0.0186 5.40599,-1.16075 2.82466,-3.49675 -1.42954,-1.29372 -2.83212,-1.58391 -5.36263,-1.10919 -3.32202,0.62323 -3.44433,0.53499 -3.83985,-2.85286 -0.45906,-3.93217 0.35447,-4.55424 5.94072,-4.55424 3.37061,0 7.24731,-2.23421 7.24731,-4.17824 0,-1.28933 -1.95256,-2.03268 -4.56834,-2.05858 z m 4.28634,11.04016 c -1.16811,0.0229 -1.3445,0.69213 0.2961,1.70607 0.55786,0.34478 1.91404,2.39625 3.01736,4.55894 1.52007,2.97971 2.60939,3.92915 4.48844,3.92915 1.93455,0 2.47686,-0.51572 2.47686,-2.34527 0,-2.81149 -2.27089,-5.03486 -7.2849,-7.1298 -1.23623,-0.51654 -2.293,-0.73282 -2.99386,-0.71909 z m 1.96457,27.53223 c -1.4087,0.036 -3.01975,0.38332 -4.70463,1.05748 -2.21099,0.88466 -6.26151,1.60738 -9.00038,1.60738 -2.73887,0 -4.98193,0.38124 -4.98193,0.84599 0,1.30734 3.27862,3.9011 5.50362,4.35684 1.72588,0.35351 1.27177,1.13625 -3.30405,5.71042 -3.00204,3.00099 -5.16848,6.01177 -4.99134,6.94181 0.49551,2.6012 4.68135,2.60202 7.4541,-0.005 1.64323,-1.54374 3.41171,-2.21548 5.31093,-2.01627 1.56655,0.16432 4.6722,-0.63089 6.89951,-1.76718 4.7494,-2.423 6.12872,-2.57681 6.12872,-0.68149 0,2.08625 -4.01365,4.30231 -11.12005,6.14282 -3.50753,0.90841 -7.0521,2.03285 -7.8771,2.49566 -2.5383,1.42392 1.3853,2.29354 7.2849,1.61678 2.86765,-0.32895 6.29457,-0.71948 7.6139,-0.86949 1.31934,-0.15001 2.57777,0.2382 2.79646,0.86479 0.81532,2.336 -24.15849,5.24405 -28.74011,3.34636 -1.66254,-0.68862 -3.24699,-1.02524 -3.52495,-0.74729 -1.1105,1.11043 2.05855,5.84687 4.28634,6.40601 2.30712,0.57905 8.63004,-0.0712 11.54304,-1.18908 1.07698,-0.41327 1.41439,0.25521 1.33949,2.66486 -0.0895,2.87794 -0.56062,3.37027 -4.46494,4.67174 -3.12764,1.04254 -3.97571,1.69799 -2.99856,2.31707 2.08705,1.32224 7.53541,1.05708 11.39264,-0.5546 4.48988,-1.87599 4.84299,-5.76518 0.71909,-7.93349 l -2.74946,-1.44758 2.50037,-0.52169 c 1.375,-0.2868 4.59067,-0.76093 7.1439,-1.05279 5.32156,-0.60831 5.81752,0.13011 5.84202,8.65258 l 0.0141,4.75164 h -7.2003 c -7.55383,0 -8.02205,0.88685 -1.56038,2.95156 2.42563,0.77505 4.70778,2.56545 6.50001,5.09943 3.06896,4.33913 6.52703,5.18873 8.22489,2.01627 1.25884,-2.35209 1.31988,-15.12695 0.0987,-20.38832 l -0.88359,-3.82105 6.41072,0.68619 c 5.93514,0.63561 6.41071,0.54241 6.41071,-1.27368 0,-1.07883 -0.88988,-2.76521 -1.97867,-3.75055 -1.66352,-1.50547 -2.7452,-1.65061 -6.75381,-0.89299 -4.25889,0.80491 -4.99933,0.66787 -6.91831,-1.29718 -2.1072,-2.15779 -2.11114,-2.23456 -0.2491,-3.91975 2.50491,-2.2669 2.48233,-7.02666 -0.0376,-8.37529 -3.03379,-1.6236 -7.77939,-1.2218 -12.20103,1.03399 -2.23139,1.13837 -4.20805,1.91598 -4.39444,1.72958 -0.1864,-0.1864 -0.091,-2.18162 0.2115,-4.43674 l 0.54989,-4.10305 6.09112,-0.63449 c 6.70951,-0.70129 8.06397,-1.45888 7.1016,-3.96675 -0.60701,-1.58178 -2.3896,-2.38182 -4.73754,-2.32176 z m -38.69927,2.81526 c -0.30764,0.008 -0.54777,0.0778 -0.6909,0.22089 -0.73451,0.73457 2.56563,7.628 3.65186,7.628 0.578,0 1.05278,1.79965 1.05278,3.99965 0,3.33326 -0.3308,3.99964 -1.99747,3.99964 -1.46667,0 -2.00218,-0.66703 -2.00218,-2.50036 0,-3.22076 -3.29262,-6.50002 -6.52821,-6.50002 h -2.53326 l 1.96927,2.74947 c 1.08255,1.5125 2.10806,4.10272 2.27947,5.75272 0.29837,2.87214 0.15443,2.99496 -3.43565,2.88576 -4.35676,-0.13252 -4.50963,0.18003 -1.57918,3.29936 2.66121,2.83272 5.31813,2.92187 9.57847,0.32429 3.1669,-1.93091 3.24765,-1.93376 3.24765,-0.0799 0,1.33029 -1.33683,2.41268 -4.44614,3.60016 -4.24749,1.62207 -8.14112,1.60947 -13.29142,-0.0423 -2.12862,-0.68274 -2.18133,-0.56597 -1.14678,2.40166 0.66729,1.91421 1.97637,3.34791 3.39335,3.70355 l 2.31237,0.5781 -2.03037,4.87853 c -2.12407,5.11102 -1.88808,7.94759 0.65799,7.94759 2.22567,0 4.54095,-4.13588 4.81274,-8.59148 0.20894,-3.4252 0.73332,-4.17739 4.23934,-6.10992 2.2,-1.21265 4.25069,-2.22637 4.55424,-2.25127 0.30355,-0.0249 0.21071,2.99431 -0.2021,6.70681 -0.4128,3.7125 -0.77079,7.79123 -0.79899,9.06618 l -0.0517,2.31707 -2.90456,-2.06797 c -5.18432,-3.69161 -5.44048,-2.36781 -0.94469,4.86443 5.7,9.16932 7.98302,6.42839 8.97218,-10.77225 0.40042,-6.96283 1.52937,-16.63403 2.50977,-21.49282 1.59605,-7.90982 1.6239,-9.11381 0.28669,-11.50074 -1.16637,-2.08209 -6.7812,-5.06774 -8.93457,-5.01483 z" /><path
         id="path3004"
         style="display:inline;fill:#6f6f6f"
         d="m 691.7113,692.98688 c -0.49744,0.003 -1.04612,0.0501 -1.65437,0.1363 -16.36179,2.31929 -20.38073,2.6046 -24.27518,1.72957 -5.35252,-1.20259 -6.01903,-0.52489 -2.47686,2.52387 2.05653,1.7701 3.99446,2.41577 7.252,2.41577 4.39579,0 4.44144,0.0357 4.44144,3.43095 0,4.13897 -1.97622,5.06466 -8.84528,4.13595 l -4.65294,-0.6298 2.80586,2.53327 c 1.97424,1.78031 3.94436,2.52857 6.64571,2.52857 3.78034,0 3.84412,0.0639 4.28165,4.24874 0.24437,2.3375 0.37349,4.35443 0.28669,4.48374 -0.42582,0.63464 -12.5414,0.4776 -16.27118,-0.2115 -6.0054,-1.10955 -5.22023,2.61623 1.25018,5.93132 3.73706,1.91466 3.76702,1.9123 8.28129,-0.1551 2.97471,-1.36231 6.81647,-1.71047 19.21804,-1.74837 12.55433,-0.0383 15.5004,-0.3154 15.5004,-1.44288 0,-0.76564 -1.16537,-2.25947 -2.58967,-3.32286 -2.36922,-1.76888 -3.2554,-1.8405 -10.40566,-0.84599 -4.29853,0.59787 -8.0205,0.88118 -8.27189,0.62979 -0.25138,-0.25138 -0.0551,-2.17039 0.4371,-4.26284 0.86505,-3.67753 1.05178,-3.81312 5.61172,-4.10774 3.09196,-0.19978 4.71874,-0.76387 4.71874,-1.63088 0,-2.4496 -2.69669,-3.71206 -6.42482,-3.01266 -3.05799,0.57369 -3.57435,0.39796 -3.58605,-1.19378 -0.008,-1.02371 -0.28875,-2.87025 -0.62039,-4.10775 -0.56518,-2.10898 -0.29629,-2.25127 4.29104,-2.25127 5.96569,0 10.11442,-2.36572 8.19669,-4.67644 -0.63733,-0.7679 -1.65194,-1.13735 -3.14426,-1.12798 z m 4.96784,10.80515 c -2.02255,0 -2.02193,9.7e-4 -0.0423,2.24657 1.09091,1.2375 2.52162,3.52123 3.18185,5.07123 1.57488,3.69712 5.68223,3.49697 5.68223,-0.27729 0,-2.75484 -5.36951,-7.04051 -8.82178,-7.04051 z m 1.61208,27.22674 c -0.27722,-0.0187 -0.56656,-0.0152 -0.86949,0.009 -0.80782,0.0688 -1.70001,0.29685 -2.64607,0.70029 -1.80149,0.76822 -6.11122,1.58799 -9.57847,1.81887 -6.96314,0.46367 -7.69585,1.75077 -2.41577,4.24405 1.74715,0.82495 3.18406,1.82158 3.19596,2.21367 0.0119,0.3921 -2.2494,2.88992 -5.02423,5.55062 -3.59247,3.44472 -4.85411,5.3275 -4.38974,6.53761 0.92324,2.40593 4.12132,2.1061 6.87131,-0.64389 1.74686,-1.74692 3.12835,-2.22764 5.43312,-1.88937 2.01597,0.29588 4.33647,-0.28273 6.66921,-1.65908 4.17263,-2.46192 6.46242,-2.69849 6.46242,-0.66739 0,1.88669 -3.61035,4.37454 -7.9993,5.51302 -1.92495,0.49934 -5.4921,1.42961 -7.92409,2.06328 -3.24447,0.84536 -4.0418,1.38889 -2.99856,2.04917 2.05489,1.30058 8.82946,1.05643 13.11752,-0.4747 3.19123,-1.13943 3.77302,-1.11298 4.27225,0.188 0.31796,0.82859 0.38989,1.69218 0.15979,1.92228 -0.23009,0.23009 -4.62585,1.10046 -9.77116,1.93167 -9.19645,1.48565 -17.72768,1.47023 -21.03222,-0.0329 -1.33381,-0.60671 -1.57037,-0.34706 -1.15149,1.25488 0.9093,3.47719 3.91288,5.4211 7.534,4.87854 1.81203,-0.2715 7.97941,-1.24539 13.70502,-2.16197 5.72556,-0.91657 11.03465,-1.42517 11.79684,-1.13269 1.0349,0.39713 1.30673,2.24333 1.08568,7.2943 l -0.29609,6.76321 -6.24622,-0.34309 c -3.43745,-0.18811 -6.25091,-0.0716 -6.25091,0.25849 0,0.33006 1.80281,1.32342 4.00434,2.20427 2.20158,0.8809 5.40738,3.37711 7.12511,5.54593 3.93405,4.96716 6.84117,4.9076 8.17319,-0.1645 0.97453,-3.71078 0.39313,-17.20252 -0.87889,-20.40712 -0.71317,-1.79671 -0.37918,-1.86611 5.90782,-1.22199 5.61112,0.57488 6.66921,0.44469 6.66921,-0.84129 0,-1.56902 -3.41058,-5.53242 -4.75164,-5.52242 -0.4125,0.003 -2.48212,0.4832 -4.60123,1.07158 -3.43987,0.95516 -4.0084,0.85183 -5.30623,-1.00108 -0.79953,-1.14149 -2.17143,-2.07737 -3.04556,-2.07737 -1.16515,0 -0.88231,-0.65559 1.05748,-2.45337 7.05695,-6.54011 -1.34867,-12.51569 -10.61715,-7.5481 -4.94483,2.65022 -7.16824,2.67567 -5.77153,0.0658 0.56935,-1.06384 1.03399,-3.02713 1.03399,-4.36154 0,-2.21458 0.54605,-2.5015 6.25092,-3.31346 5.14961,-0.73294 6.25091,-1.22427 6.25091,-2.78236 0,-2.04501 -1.26959,-3.2484 -3.21005,-3.37925 z m -37.7264,3.94324 c -2.2981,0.11024 -2.29879,2.4566 0.94469,5.84202 1.99274,2.07997 2.38513,3.25988 1.89408,5.71513 -0.79647,3.98233 -4.40385,5.31796 -4.40385,1.63088 0,-3.05704 -4.16914,-7.36011 -7.1298,-7.36011 h -2.21837 l 2.03977,2.25127 c 1.12311,1.2375 2.29999,3.93937 2.61317,6.00182 0.56433,3.7164 0.53935,3.74585 -2.86696,3.74585 -3.9629,0 -4.395,1.21927 -1.21729,3.44506 3.06128,2.14415 4.90745,1.96143 9.14138,-0.91179 2.00175,-1.35843 3.63775,-2.07232 3.63775,-1.58388 0,5.33512 -10.11088,8.86055 -17.43206,6.07702 -2.10974,-0.80212 -2.56617,-0.68213 -2.56617,0.67209 0,2.09304 2.86772,5.30153 4.73754,5.30153 0.78559,0 1.27842,0.34162 1.09508,0.75669 -3.10378,7.02722 -4.02175,10.45875 -3.05496,11.42554 2.69429,2.6943 6.21052,-2.10621 6.22742,-8.49748 0.007,-2.80568 0.61312,-3.50329 5.08533,-5.87022 l 5.08063,-2.68837 -0.63919,5.18873 c -0.35063,2.85276 -0.89062,7.0959 -1.19848,9.42808 l -0.5593,4.23934 -2.85756,-1.68728 c -1.57142,-0.92827 -3.1132,-1.43163 -3.42625,-1.11858 -0.31305,0.31305 0.86456,2.87579 2.61786,5.69632 5.78696,9.30923 8.0071,6.13055 8.99098,-12.87313 0.38442,-7.42495 1.47251,-16.52579 2.41577,-20.22382 2.04971,-8.03598 1.45163,-11.21994 -2.48157,-13.25382 -1.90742,-0.98639 -3.42503,-1.39899 -4.46964,-1.34889 z m 27.24084,30.82689 c -1.44181,0 -1.8137,0.62055 -1.59328,2.64606 0.2514,2.31012 -0.24954,2.82635 -3.96675,4.08425 -2.34093,0.79216 -4.00504,1.85165 -3.69415,2.35467 1.50296,2.4318 13.06381,-0.29634 14.01991,-3.30876 0.74018,-2.33209 -2.10201,-5.77622 -4.76573,-5.77622 z" /><path
         id="path3002"
         style="display:inline;fill:#4f4f4f"
         d="m 691.10031,693.43807 c -2.50868,-0.0349 -6.53921,0.4225 -12.83082,1.36768 -6.05657,0.90991 -9.35011,0.95615 -12.46894,0.1645 -2.33082,-0.59164 -4.37584,-0.93979 -4.54484,-0.77079 -0.169,0.169 0.52097,1.33147 1.53218,2.58027 1.34602,1.66226 3.22943,2.40342 7.02641,2.76826 l 5.18403,0.49819 v 4.00905 4.00905 l -6.73971,-0.5405 -6.73501,-0.54049 2.79176,2.40167 c 1.92984,1.65999 4.01627,2.40637 6.73971,2.40637 3.69126,0 3.94325,0.18762 3.94325,2.91866 0,1.60497 0.25109,3.56593 0.55459,4.35684 0.79947,2.08338 -9.1311,3.09869 -14.9881,1.53218 -2.47523,-0.66208 -4.77334,-0.93707 -5.10413,-0.60629 -1.04954,1.04949 1.89459,4.7201 5.02423,6.26501 3.71266,1.83269 2.48787,1.90198 9.79467,-0.58279 5.58977,-1.90085 7.55305,-2.04512 19.38254,-1.44758 14.18338,0.71644 16.31237,0.0929 12.54413,-3.67535 -2.27316,-2.27322 -4.76286,-2.50329 -14.09511,-1.29718 l -6.38721,0.82718 0.72849,-3.88684 c 0.99936,-5.32705 1.0831,-5.40493 6.10522,-5.40493 3.23341,0 4.44144,-0.39985 4.44144,-1.46638 0,-2.13826 -3.39254,-3.60408 -6.77261,-2.92806 -2.67993,0.53599 -2.99363,0.30661 -3.58135,-2.63197 -0.97816,-4.8907 -0.92562,-4.97253 3.28995,-4.97253 5.51646,0 9.28921,-1.60012 8.86408,-3.75525 -0.20428,-1.03559 -1.19017,-1.56308 -3.69885,-1.59798 z m 3.44506,10.02027 2.65546,3.16306 c 1.46257,1.73812 2.95792,4.08664 3.31816,5.22162 0.88124,2.77669 4.86714,2.25222 5.28742,-0.69559 0.3483,-2.44285 -3.65634,-5.77858 -8.34708,-6.9559 z m 3.42155,27.40063 c -1.24822,-0.006 -2.75008,0.45552 -4.53544,1.38178 -1.53803,0.79793 -5.18724,1.74953 -8.11209,2.11497 -6.04023,0.75468 -6.63736,1.68313 -2.31707,3.59545 1.65,0.73036 2.99856,1.68234 2.99856,2.11497 0,0.43268 -2.25824,2.97371 -5.01483,5.64463 -3.40991,3.30397 -4.81085,5.36972 -4.38974,6.46711 0.90375,2.35513 4.16546,1.97286 6.72561,-0.78959 1.63121,-1.7601 2.9428,-2.2706 4.88793,-1.89877 1.63278,0.31213 4.38607,-0.35695 7.14391,-1.73428 2.55772,-1.27742 5.22604,-1.95442 6.20391,-1.57918 1.61417,0.61942 1.61224,0.77082 -0.0423,2.59907 -1.83361,2.02611 -6.58558,3.96966 -14.9364,6.10991 -3.87335,0.99274 -4.50987,1.41928 -2.99856,2.01158 3.08582,1.20934 7.86463,0.99911 12.21514,-0.53579 3.62042,-1.27736 4.10909,-1.25562 4.65764,0.17389 0.89463,2.33136 -0.70887,2.93369 -11.36445,4.29104 -9.36366,1.19283 -15.88479,1.04203 -19.26504,-0.45119 -1.32908,-0.58712 -1.56889,-0.32257 -1.15149,1.27368 0.2897,1.10783 1.38368,2.78967 2.42987,3.73645 1.79701,1.62628 2.4114,1.62309 11.14825,0.0141 5.08648,-0.93672 11.72345,-1.79152 14.7484,-1.90347 l 5.49893,-0.2068 0.58279,6.00182 c 0.7678,7.91826 -0.0512,8.89542 -6.79611,8.10269 -6.02739,-0.70841 -6.929,0.40212 -1.82827,2.24657 1.89974,0.68695 4.85844,3.02459 6.57991,5.19813 3.41141,4.30725 4.99607,4.82583 7.0781,2.31707 1.52949,-1.84292 1.86561,-13.18018 0.6016,-20.25673 l -0.78489,-4.38974 6.03471,0.54519 c 6.0957,0.55274 7.47103,0.0374 6.51882,-2.44396 -1.1325,-2.95125 -4.31637,-3.94851 -8.55389,-2.67897 -3.68806,1.10499 -4.12245,1.03063 -5.52242,-0.96818 -0.83574,-1.19319 -2.23723,-2.17137 -3.11136,-2.17137 -1.16515,0 -0.88231,-0.65559 1.05748,-2.45337 6.70289,-6.21198 -1.25031,-12.1905 -10.16596,-7.6421 -2.25916,1.15254 -4.80241,2.09617 -5.64932,2.09617 -1.73069,0 -2.06736,-1.55668 -0.5405,-2.50036 0.55,-0.33992 1.00109,-1.92067 1.00109,-3.51085 0,-2.79622 0.20195,-2.91091 6.08642,-3.57666 6.33789,-0.71706 8.14357,-2.22595 5.90312,-4.92553 -0.779,-0.93865 -1.77384,-1.41335 -3.02206,-1.41938 z m -37.62769,3.99024 c -1.98292,0.16466 -1.73696,2.31354 1.16088,5.75743 3.53388,4.19973 3.23069,8.00563 -0.75199,9.47507 -1.37383,0.50688 -1.74838,0.10778 -1.74838,-1.86588 0,-2.78082 -4.035,-7.4259 -6.45301,-7.4259 -1.90618,0 -1.96211,0.86553 -0.1833,2.92337 0.7506,0.86826 1.62156,3.26727 1.93638,5.32972 0.56738,3.717 0.54458,3.74585 -2.86226,3.74585 -4.04141,0 -4.40757,1.32131 -0.98699,3.56256 2.74142,1.7962 5.43886,1.31345 9.79937,-1.75778 2.7349,-1.92629 2.74946,-1.92574 2.74946,0.1081 0,2.28973 -2.72156,4.30465 -8.12619,6.01592 -2.87485,0.91027 -4.48345,0.85288 -7.7502,-0.2726 -3.67068,-1.26467 -4.12184,-1.25245 -4.12184,0.1316 0,1.97497 2.88895,5.21223 4.65294,5.21223 1.71629,0 1.7209,-0.0446 -0.69559,5.59292 -2.15593,5.02959 -1.99953,7.4071 0.48409,7.4071 2.06307,0 4.55894,-5.14851 4.55894,-9.40927 0,-3.23669 0.39474,-3.70321 5.09943,-5.95482 l 5.10413,-2.43927 -0.62979,5.65403 c -0.34782,3.10932 -0.89111,7.36064 -1.20318,9.45157 -0.55806,3.73918 -0.60357,3.77745 -2.93276,2.25127 -3.68955,-2.41748 -4.90204,-1.90845 -2.85757,1.19848 0.99528,1.5125 2.42831,3.98643 3.18656,5.49893 0.75825,1.5125 2.00294,2.74946 2.76826,2.74946 2.72254,0 3.88684,-4.59688 4.54954,-18.00076 0.3671,-7.42495 1.45093,-16.53508 2.41107,-20.24732 2.01393,-7.78663 1.12226,-11.69145 -3.11136,-13.62042 -1.78118,-0.81156 -3.14532,-1.14639 -4.04664,-1.07159 z m 27.46643,30.93969 c -1.45583,0 -1.81584,0.62564 -1.59328,2.74476 0.25629,2.44025 -0.18948,2.89206 -4.06545,4.12655 -3.16769,1.00888 -3.98326,1.63311 -2.99856,2.29356 2.9761,1.99625 13.85072,-1.4247 13.85072,-4.35684 0,-1.87556 -3.16677,-4.80803 -5.19343,-4.80803 z" /><path
         id="path3000"
         style="display:inline;fill:#2f2f2f"
         d="m 692.3693,692.97278 c -1.7509,0.0682 -5.09587,0.65231 -11.81565,1.82357 -6.78158,1.1821 -14.27832,0.97155 -17.81276,-0.49819 -1.3644,-0.56738 -1.62267,-0.3604 -1.13268,0.91649 0.89146,2.3231 5.67689,4.57774 9.71947,4.57774 3.04994,0 3.49299,0.34787 4.06074,3.18655 0.35062,1.75312 0.21515,3.61061 -0.30079,4.12655 -0.51595,0.51589 -3.67138,0.73986 -7.01231,0.49819 -3.34089,-0.24166 -6.07702,-0.29348 -6.07702,-0.1128 0,1.22748 7.1327,4.29445 10.00147,4.30045 3.46484,0.007 3.50165,0.05 3.52495,4.40384 l 0.0235,4.39914 -4.92553,0.65329 c -2.89595,0.38417 -6.90904,0.14123 -9.75237,-0.58749 -2.65823,-0.68128 -5.13994,-0.9324 -5.51303,-0.5593 -0.99685,0.9969 2.6939,4.77344 6.07232,6.21332 2.48831,1.0605 3.76343,0.95336 8.49749,-0.71439 4.74094,-1.67023 7.66224,-1.91473 19.57523,-1.63558 11.92353,0.27939 13.99642,0.10255 13.99642,-1.17498 0,-2.67392 -5.94452,-4.83779 -10.73936,-3.91035 -2.34386,0.45336 -5.88624,0.84549 -7.87239,0.86949 l -3.60956,0.0423 1.02929,-4.49784 c 1.02299,-4.4705 1.05704,-4.50254 5.30153,-4.50254 2.34988,0 4.59514,-0.51806 4.98663,-1.15149 1.1707,-1.89419 -2.65361,-3.9275 -6.15221,-3.27115 -2.9973,0.5623 -3.20514,0.3945 -4.15945,-3.36516 l -1.00579,-3.95734 5.97832,-0.5452 c 6.50355,-0.58967 8.35848,-1.65926 7.3648,-4.24874 -0.34393,-0.89638 -0.50041,-1.34653 -2.25126,-1.27838 z m 4.16884,11.05425 c -0.0786,0.007 -0.13248,0.0244 -0.1645,0.0564 -0.25616,0.25616 0.93598,2.54449 2.65077,5.08533 3.1369,4.64807 5.57395,5.83439 6.58461,3.20066 0.87401,-2.27763 -1.25611,-5.18525 -5.15583,-7.03581 -1.7401,-0.82573 -3.3647,-1.35762 -3.91505,-1.30658 z m 1.92227,27.10923 c -1.1511,-0.0366 -2.58815,0.31079 -4.24404,1.05749 -2.17602,0.98125 -6.38005,2.10795 -9.33877,2.50507 l -5.37673,0.72379 3.24296,1.93167 c 1.78397,1.06399 3.24365,2.34349 3.24765,2.84346 0.003,0.49997 -2.05902,2.81131 -4.58714,5.13233 -2.98508,2.74064 -4.47188,4.86952 -4.23934,6.07702 0.53642,2.78579 3.23565,2.78615 5.91722,0 1.74463,-1.81267 3.0799,-2.3337 4.99603,-1.95047 1.6907,0.33815 4.48039,-0.41948 7.8912,-2.14787 3.81283,-1.93213 5.57427,-2.37332 6.36371,-1.58388 2.07989,2.07989 -3.45688,6.04128 -11.25165,8.04629 -3.99397,1.02736 -7.49746,2.10195 -7.78779,2.39227 -1.47169,1.4717 5.79211,1.79976 10.82395,0.48879 5.22616,-1.36159 5.72624,-1.338 6.73501,0.2773 1.32727,2.1253 0.84711,2.3034 -10.69705,3.93854 -4.5906,0.65025 -11.23121,0.95011 -14.75311,0.6674 -7.125,-0.57193 -8.51835,0.82109 -3.86804,3.86804 2.35221,1.54126 3.08809,1.54581 10.25056,0.0376 4.24374,-0.89362 10.68419,-1.91157 14.31131,-2.26067 l 6.59401,-0.63449 0.63449,6.09112 c 0.89782,8.58978 0.52518,9.14658 -6.18042,9.19308 -5.62981,0.039 -5.63679,0.041 -2.52387,1.39588 1.71613,0.74691 4.602,3.20481 6.41542,5.46132 3.52589,4.3875 5.01213,4.95794 6.92301,2.65547 1.42091,-1.71215 1.85977,-12.94372 0.78488,-20.10633 l -0.76139,-5.05243 5.75743,0.67209 c 7.02158,0.82196 8.56832,-0.22203 5.22163,-3.52495 -2.28613,-2.25624 -2.76615,-2.34843 -6.69741,-1.28309 -3.87431,1.04989 -4.4116,0.96181 -6.28852,-1.05278 -1.12883,-1.21165 -2.56922,-2.20427 -3.20065,-2.20427 -0.63147,0 0.10217,-1.30429 1.63087,-2.89986 3.36625,-3.5136 3.07625,-6.10157 -0.89298,-8.004 -2.61737,-1.25447 -3.4864,-1.21594 -7.487,0.3243 -2.48954,0.95846 -5.61426,1.99585 -6.94181,2.30767 -2.07148,0.48654 -2.29838,0.29863 -1.60738,-1.33008 0.44283,-1.04384 1.01604,-3.12583 1.27368,-4.62474 0.48095,-2.79801 1.70726,-3.30133 9.74767,-4.00905 2.18261,-0.19211 3.00326,-0.78149 3.00326,-2.15727 0,-2.08035 -1.12235,-3.2008 -3.04086,-3.26176 z m -38.10708,3.71295 c -1.99849,0.15535 -1.76018,2.3027 1.14678,5.75743 3.34261,3.97241 3.31398,7.92218 -0.0658,9.20717 -3.35284,1.27477 -3.32623,1.28435 -2.74946,-0.92118 0.69922,-2.67385 -1.34809,-6.02216 -4.38504,-7.17681 -3.22443,-1.22592 -4.08844,-0.47284 -2.08677,1.81888 0.84363,0.96587 1.83469,3.44587 2.20427,5.50832 l 0.67209,3.74585 h -3.62835 c -4.24214,0 -4.29237,1.78169 -0.1081,3.82105 2.41694,1.17799 3.1841,1.05191 7.1768,-1.17968 l 4.46964,-2.50037 v 2.30767 c 0,1.82859 -1.08756,2.77562 -5.24983,4.56834 -4.66221,2.00807 -5.74119,2.12959 -9.63487,1.09038 -2.41148,-0.64358 -4.60772,-0.9429 -4.88323,-0.66739 -0.87112,0.87111 2.74772,5.56003 4.29104,5.56003 1.81366,0 1.8576,-0.49768 -0.48409,5.66342 -1.54584,4.06713 -1.69586,5.37528 -0.71439,6.18982 2.50899,2.08232 5.67752,-2.88636 5.67752,-8.90168 0,-2.49718 0.72195,-3.28368 5.00073,-5.45193 l 4.99603,-2.53326 -0.0188,2.76826 c -0.0273,3.7516 -1.73818,15.3586 -2.35466,15.97508 -0.273,0.27299 -1.52442,-0.22338 -2.78237,-1.10448 -3.41273,-2.3904 -4.29412,-1.9434 -2.26067,1.14678 0.99528,1.5125 2.42831,3.98643 3.18656,5.49893 0.75825,1.5125 2.00294,2.74946 2.76826,2.74946 2.70389,0 3.83191,-4.65644 4.59184,-18.99714 0.42261,-7.97495 1.45749,-16.97798 2.30297,-20.00293 1.85154,-6.62445 0.80062,-11.11432 -3.00796,-12.84963 -1.79302,-0.81696 -3.16174,-1.16096 -4.07014,-1.09039 z m 27.45233,30.93969 c -1.44969,0 -1.81491,0.62043 -1.59328,2.69776 0.25308,2.37212 -0.2536,2.90125 -4.20175,4.38034 -3.48285,1.3048 -4.04427,1.79704 -2.50036,2.18547 4.67219,1.1755 13.48882,-1.73684 13.48882,-4.45554 0,-1.87556 -3.16677,-4.80803 -5.19343,-4.80803 z" /><path
         id="path2998"
         style="display:inline;fill:#020202"
         d="m 692.2048,693.07148 c -0.27716,-0.0114 -0.5756,-0.009 -0.89769,0.005 -1.54602,0.0679 -3.61856,0.42602 -6.29322,1.07158 -7.75495,1.87177 -17.55853,2.14112 -21.6996,0.5922 l -2.81527,-1.05749 2.76827,2.79646 c 2.25696,2.28164 3.64227,2.79986 7.5387,2.80586 l 4.77513,0.005 0.188,4.20645 0.1833,4.20644 -6.72561,0.2914 -6.72561,0.29609 3.31815,1.81418 c 1.82644,0.99676 4.30507,1.73538 5.50363,1.64028 4.35999,-0.34609 4.67644,-0.0429 4.67644,4.47434 v 4.42734 l -5.53653,0.69089 c -3.49895,0.43717 -7.19063,0.23089 -10.02966,-0.564 -2.47076,-0.69169 -4.75913,-0.98891 -5.08534,-0.66269 -0.32622,0.32621 0.77869,1.96312 2.45337,3.63775 3.50726,3.50726 6.08435,3.77469 13.35722,1.39589 4.05614,-1.32669 7.50889,-1.53695 17.76106,-1.08099 14.34169,0.63784 16.46665,0.11091 13.11283,-3.24296 -2.07889,-2.07884 -2.74945,-2.16291 -11.72635,-1.48988 -9.01642,0.67599 -9.49331,0.61667 -8.96278,-1.16088 0.30811,-1.03234 0.85655,-3.11694 1.21729,-4.62944 0.59053,-2.47592 1.08586,-2.74946 4.98663,-2.74946 2.38292,0 4.6335,-0.48029 4.99603,-1.06689 1.10854,-1.7936 -2.73264,-3.77565 -6.21801,-3.21005 -2.90994,0.47222 -3.28727,0.24158 -3.85865,-2.34997 -0.34836,-1.58001 -0.80809,-3.43435 -1.01989,-4.12185 -0.25267,-0.82015 0.72232,-1.25088 2.83406,-1.25488 5.01634,-0.009 10.72056,-1.90856 10.72056,-3.57195 0,-1.35691 -0.85639,-2.06366 -2.79646,-2.14317 z m 4.47904,10.84745 c -0.48293,0.0808 -0.091,0.91116 0.95878,2.62257 0.92778,1.51245 2.29797,3.76323 3.04556,5.00073 1.56557,2.59154 4.10231,2.95296 4.96314,0.70969 0.69248,-1.80457 -2.02678,-5.08619 -5.85142,-7.06401 -1.42098,-0.73477 -2.34777,-1.16964 -2.85287,-1.25958 -0.10523,-0.0187 -0.1942,-0.0221 -0.26319,-0.009 z m 1.03868,27.23143 c -1.03565,-0.0501 -2.11274,0.31021 -3.69415,1.12799 -1.78812,0.92467 -5.68156,1.93102 -8.64788,2.23717 -4.39913,0.45403 -5.18314,0.80869 -4.26284,1.91757 0.62055,0.74773 2.1985,1.35829 3.50615,1.35829 3.53709,0 2.92758,1.58945 -2.69776,7.0687 -4.86674,4.74036 -5.96982,7.75251 -3.18186,8.68078 0.68486,0.22803 2.62358,-0.96451 4.30514,-2.64606 2.5228,-2.52281 3.37091,-2.86024 4.85034,-1.93638 1.42056,0.88719 2.98827,0.57162 7.55279,-1.51807 5.84867,-2.6776 7.5481,-2.69314 7.5481,-0.0752 0,2.20141 -5.46989,5.07901 -13.39482,7.0452 -6.85581,1.70093 -6.99725,1.79128 -3.97614,2.67897 2.24338,0.65914 4.6538,0.47147 8.50218,-0.6674 4.93642,-1.46079 5.46493,-1.45721 6.58461,0.0376 0.66988,0.89434 1.025,1.94267 0.78489,2.33117 -1.06908,1.72981 -26.40557,3.93021 -30.25349,2.62727 -2.87666,-0.97407 -2.94578,0.67787 -0.1457,3.47795 1.64269,1.64269 2.79392,1.95518 5.24983,1.42408 9.17393,-1.98389 18.62211,-3.46115 22.32,-3.49205 l 4.16884,-0.0376 0.68619,6.42011 c 0.37821,3.5314 0.39036,6.9075 0.0235,7.5011 -0.36681,0.5936 -3.22897,1.09709 -6.35901,1.11859 -5.58134,0.0384 -5.63529,0.0658 -2.69306,1.36768 1.64995,0.7301 4.70674,3.188 6.79141,5.46132 4.13961,4.51439 4.89064,4.82173 6.62221,2.73537 1.28121,-1.54382 1.61454,-13.90446 0.56399,-20.91002 l -0.67209,-4.47904 6.82431,0.54989 6.8196,0.54519 -1.62147,-2.40636 c -1.46255,-2.1646 -2.23655,-2.37559 -7.7267,-2.11497 -4.83533,0.22948 -6.10052,-0.0127 -6.10052,-1.17969 0,-0.80969 -0.93979,-1.77294 -2.09147,-2.13847 -2.06083,-0.65409 -2.05469,-0.70522 0.49819,-3.36985 4.63858,-4.84163 2.8649,-8.1027 -4.41324,-8.1027 -2.53483,0 -5.48409,0.66362 -6.55171,1.47108 -1.06762,0.8075 -2.9994,1.48178 -4.29574,1.49928 -1.87216,0.0253 -2.2014,-0.33014 -1.59798,-1.72017 0.41782,-0.9625 0.80189,-2.87375 0.85539,-4.24875 0.1134,-2.91364 1.69777,-3.83194 6.76791,-3.92914 6.86617,-0.13156 9.31896,-2.97921 4.46964,-5.18873 -0.68917,-0.31401 -1.29618,-0.49163 -1.91758,-0.5217 z m -37.1671,3.92915 c -2.40246,-0.063 -2.11928,2.28337 0.94469,5.12293 3.39388,3.14535 3.54181,9.07675 0.2491,9.95917 -3.36177,0.90092 -3.41686,0.86306 -3.41686,-2.31707 0,-3.57209 -1.87613,-6.05352 -4.57773,-6.05352 -1.48314,0 -1.73267,0.32327 -0.96819,1.25018 0.56699,0.6875 1.18452,3.27303 1.37238,5.74803 l 0.3431,4.50254 -3.25236,-0.2538 c -3.68494,-0.28777 -3.88588,-0.0272 -1.67788,2.18077 2.17725,2.17726 6.05667,1.96297 10.13777,-0.55929 l 3.44975,-2.12907 -0.329,2.75416 c -0.2703,2.26331 -1.22188,3.10922 -5.32972,4.74224 -4.30504,1.71135 -5.61068,1.8312 -9.38578,0.84598 -2.41149,-0.62936 -4.58595,-0.94586 -4.83153,-0.70029 -0.87642,0.87643 1.75231,4.49451 3.71765,5.11823 2.34439,0.7441 2.46191,2.06376 0.49819,5.49893 -2.05975,3.60315 -1.93929,7.23183 0.2256,6.81491 2.27896,-0.4389 4.23874,-4.46421 4.28634,-8.81238 0.0354,-3.23696 0.42134,-3.66761 5.13233,-5.73863 l 5.09003,-2.24186 -0.70499,8.74188 c -0.38923,4.80658 -1.07184,9.11476 -1.51338,9.57847 -0.44154,0.4637 -1.98939,0.0671 -3.44035,-0.88359 -1.45096,-0.95071 -2.78799,-1.55618 -2.97036,-1.34418 -0.18236,0.212 1.22955,2.79844 3.13486,5.74802 3.05012,4.72191 3.63873,5.18775 4.93493,3.89155 2.17694,-2.17694 3.27055,-8.13747 3.34635,-18.25456 0.0371,-4.94995 0.52201,-11.02326 1.08099,-13.49821 0.55899,-2.475 1.26206,-6.97512 1.56038,-10.00147 0.60332,-6.12038 -0.70509,-8.23183 -5.91252,-9.53147 -0.45252,-0.11294 -0.85057,-0.1696 -1.19379,-0.1786 z m 26.74734,30.72819 c -0.80747,0.0982 -1.11347,0.89576 -0.74259,2.37347 0.66919,2.66618 -0.21843,3.50682 -5.56002,5.25453 l -3.50145,1.14678 4.68583,0.1034 c 8.81252,0.19723 13.3617,-3.41557 8.87348,-7.04991 -1.63499,-1.32393 -2.94777,-1.9265 -3.75525,-1.82827 z" /></g></g></svg>
