<?xml version="1.0" encoding="UTF-8" standalone="no"?>
<!-- Created with Inkscape (http://www.inkscape.org/) -->

<svg
   viewBox="0 0 39.200001 39.200001"
   version="1.1"
   id="svg1"
   inkscape:version="1.3.2 (091e20e, 2023-11-25, custom)"
   sodipodi:docname="King Black.svg"
   xml:space="preserve"
   xmlns:inkscape="http://www.inkscape.org/namespaces/inkscape"
   xmlns:sodipodi="http://sodipodi.sourceforge.net/DTD/sodipodi-0.dtd"
   xmlns="http://www.w3.org/2000/svg"
   xmlns:svg="http://www.w3.org/2000/svg"><sodipodi:namedview
     id="namedview1"
     pagecolor="#ffffff"
     bordercolor="#111111"
     borderopacity="1"
     inkscape:showpageshadow="0"
     inkscape:pageopacity="0"
     inkscape:pagecheckerboard="1"
     inkscape:deskcolor="#d1d1d1"
     inkscape:document-units="mm"
     showguides="true"
     inkscape:zoom="14.005102"
     inkscape:cx="19.6"
     inkscape:cy="19.6"
     inkscape:window-width="1292"
     inkscape:window-height="745"
     inkscape:window-x="-8"
     inkscape:window-y="-8"
     inkscape:window-maximized="1"
     inkscape:current-layer="layer1"
     showgrid="false"><inkscape:page
       x="0"
       y="0"
       width="39.200001"
       height="39.200001"
       id="page42"
       margin="0"
       bleed="0" /></sodipodi:namedview><defs
     id="defs1"><inkscape:path-effect
       effect="powerstroke"
       id="path-effect13"
       is_visible="true"
       lpeversion="1.3"
       scale_width="1"
       interpolator_type="CubicBezierJohan"
       interpolator_beta="0.2"
       start_linecap_type="zerowidth"
       end_linecap_type="zerowidth"
       offset_points="5,4.9921382"
       linejoin_type="extrp_arc"
       miter_limit="4"
       not_jump="false"
       sort_points="true"
       message="&lt;b&gt;Ctrl + click&lt;/b&gt; on existing node and move it" /></defs><g
     inkscape:label="Layer 1"
     inkscape:groupmode="layer"
     id="layer1"
     transform="translate(-85.400002,-166)"><path
       style="fill:#fff29e;fill-opacity:1;fill-rule:evenodd;stroke:none;stroke-width:0.385762;stroke-linecap:round;stroke-linejoin:round;paint-order:stroke fill markers"
       d="m 105,168 9.78527,3.17942 L 119.35,200 h -28.7 l 4.56473,-28.82058 z"
       id="path13" /><path
       style="display:inline;fill:#938e5e;fill-opacity:1;fill-rule:evenodd;stroke:none;stroke-width:0.386001;stroke-linecap:round;stroke-linejoin:round;stroke-dasharray:none;stroke-opacity:1;paint-order:stroke fill markers"
       d="m 90.649998,200 -3e-6,3.2 H 119.35 V 200 Z"
       id="path45" /><g
       id="g3792"
       transform="matrix(0.2522463,0,0,0.2522463,-66.982264,-2.800472)"><path
         id="path3010"
         style="display:inline;fill:#d0d0d0"
         d="m 691.70567,692.33267 c -1.59087,-0.0559 -3.54172,0.21971 -5.72202,0.8672 -5.96372,1.77098 -20.09985,2.13456 -22.98876,0.58847 -2.96186,-1.58515 -3.23211,0.50003 -0.42586,3.30623 2.5192,2.51925 9.39221,4.46049 11.39759,3.22106 0.64143,-0.39642 1.02981,0.71706 1.02981,2.91908 v 3.554 h -6.49631 c -7.28233,0 -8.11134,1.03202 -3.25203,4.04955 2.29455,1.42489 4.20956,1.84839 6.50406,1.44019 l 3.24428,-0.57298 v 4.5451 4.53736 h -5.74525 c -3.1625,-0.003 -7.49609,-0.49301 -9.62446,-1.08401 -2.32099,-0.64445 -4.23234,-0.70765 -4.77739,-0.1626 -1.14019,1.14019 2.63536,6.09854 5.5362,7.27061 3.13271,1.26577 4.90214,1.15021 9.7406,-0.63492 3.36094,-1.24005 7.7956,-1.59193 19.12503,-1.50213 14.07146,0.11153 14.75028,0.0301 14.75028,-1.8583 0,-3.86466 -3.99752,-5.21744 -13.23266,-4.46767 l -8.39334,0.68137 0.41812,-3.62369 c 0.32553,-2.78838 0.97284,-3.77028 2.76423,-4.21989 1.28301,-0.32202 2.79828,-0.29801 3.36817,0.0542 1.22585,0.75762 5.07162,-1.10266 5.07162,-2.45451 0,-1.76316 -5.43105,-3.88747 -7.2861,-2.8494 -2.32894,1.30335 -3.39608,0.45827 -3.91792,-3.09717 -0.42085,-2.86742 -0.26768,-3.0043 4.13472,-3.57723 6.08928,-0.79238 9.07472,-2.09698 9.07472,-3.97213 0,-1.83593 -1.64576,-2.86454 -4.29733,-2.95779 z m 9.91869,16.2524 c 0.0388,0.0387 0.0756,0.0795 0.11615,0.11615 -0.008,-0.009 -0.0148,-0.0158 -0.0155,-0.0232 -7.9e-4,-0.008 0.0165,0.003 0.0232,0.008 0.0494,0.0318 0.0908,0.0676 0.13937,0.10066 -0.088,-0.0666 -0.17228,-0.13892 -0.26326,-0.20132 z m 0.26326,0.20132 c -0.0267,-0.0115 -0.0367,-0.0118 -0.0465,-0.0155 0.0209,0.0115 0.0623,0.0341 0.10066,0.0542 -0.0175,-0.0136 -0.0365,-0.0253 -0.0542,-0.0387 z m 0.20906,4.93999 c 0.0613,0.0291 0.12537,0.0591 0.18583,0.0852 -0.015,-0.0111 -0.032,-0.0195 -0.0465,-0.031 -0.0472,-0.0176 -0.0932,-0.0355 -0.13937,-0.0542 z m -3.81726,16.60858 c -0.24369,-0.0113 -0.49413,-0.006 -0.75881,0.0155 -1.27048,0.0997 -2.79458,0.57214 -4.62253,1.40147 -2.63158,1.19396 -6.57526,2.00007 -9.81803,2.01317 l -5.42779,0.0232 2.29965,2.44677 c 1.26422,1.34564 3.25206,2.61203 4.42121,2.81068 1.87433,0.31848 1.50861,0.95502 -3.1204,5.36585 -5.60379,5.33952 -6.43051,7.67724 -3.29849,9.35346 1.58772,0.84971 2.57045,0.50594 5.24971,-1.83507 2.59436,-2.26678 3.64866,-2.65262 4.95547,-1.81959 1.27129,0.81038 2.87747,0.42453 6.84475,-1.63376 5.84085,-3.03039 6.99186,-3.25515 6.99186,-1.3705 0,1.9202 -6.66498,5.31213 -13.00037,6.61246 -7.45986,1.53112 -9.28903,2.73407 -5.44328,3.58498 1.62132,0.35873 3.49196,0.82627 4.15795,1.02981 0.666,0.20355 3.58051,-0.25424 6.48083,-1.00658 2.90032,-0.75233 5.61831,-1.15075 6.03949,-0.89044 2.0307,1.25505 0.15092,2.1715 -6.48084,3.15911 -14.49483,2.15863 -18.87079,2.38977 -21.87377,1.14596 -3.62787,-1.50274 -4.55103,-0.72993 -3.05071,2.56291 1.6056,3.52388 4.85226,4.51202 10.56135,3.20557 3.9095,-0.89462 4.93379,-0.8301 5.69106,0.34843 1.64457,2.55942 0.51014,4.23613 -3.83275,5.68331 -5.21226,1.73685 -4.63428,3.25203 1.24661,3.25203 5.53959,0 9.08864,-1.34285 10.49166,-3.96438 0.91204,-1.70416 0.66922,-2.47436 -1.39372,-4.53735 l -2.48548,-2.49323 2.19899,-0.45683 c 1.20914,-0.25423 4.07059,-0.60225 6.36469,-0.77429 3.89769,-0.29228 4.21334,-0.12571 4.75415,2.57839 0.31833,1.59165 0.58072,4.62146 0.58072,6.72861 v 3.825 l -7.25512,0.30198 -7.24738,0.28649 4.61478,2.13704 c 2.53805,1.17367 5.90835,3.76419 7.49516,5.753 2.94626,3.69244 6.01258,4.5953 8.19202,2.41579 1.44761,-1.44754 1.63474,-16.79753 0.26326,-21.57954 l -0.9369,-3.26751 6.43438,0.65815 c 5.97296,0.61194 6.44211,0.52407 6.44211,-1.3163 0,-3.71708 -3.23177,-5.46961 -8.74176,-4.73867 -4.04673,0.5368 -5.07964,0.35848 -5.58265,-0.95238 -0.3396,-0.88492 -1.34656,-1.60279 -2.23771,-1.60279 -1.28382,0 -1.08343,-0.64385 0.96786,-3.08169 1.42389,-1.69217 2.59389,-3.69283 2.59389,-4.44444 0,-3.89829 -10.38974,-6.01205 -14.44831,-2.94231 -2.32372,1.75758 -5.99748,1.99869 -4.96322,0.3252 0.3889,-0.62926 0.66978,-2.37365 0.62718,-3.87146 -0.0743,-2.6149 0.15789,-2.74121 5.96206,-3.26752 6.9959,-0.63437 8.48434,-1.61171 6.91443,-4.5451 -0.89971,-1.68121 -2.11154,-2.55343 -3.81726,-2.63259 z m -39.65928,3.58497 c -0.76747,0.0863 -0.62535,0.76214 -0.20906,2.51646 0.37317,1.57259 1.55605,3.60096 2.6326,4.51412 2.39477,2.03134 2.64192,7.36253 0.3794,8.23074 -2.33341,0.8954 -2.42354,0.83272 -2.42354,-1.88928 0,-1.375 -0.90542,-3.39864 -2.00542,-4.49864 -1.09998,-1.1 -3.11591,-2.00542 -4.49089,-2.00542 -2.81761,0 -3.16403,0.75974 -1.09176,2.39257 0.77497,0.61063 1.72044,3.07967 2.10608,5.48973 l 0.70461,4.39024 -3.60821,-0.68137 c -4.12548,-0.77395 -4.6695,0.36347 -1.61827,3.41463 2.58211,2.58207 7.03248,2.54607 10.36778,-0.0774 2.55936,-2.01315 2.6326,-2.02061 2.6326,-0.13938 0,1.37957 -1.31525,2.44509 -4.58382,3.69338 -4.37653,1.67136 -7.27644,1.65517 -13.27912,-0.0852 -2.13218,-0.61816 -2.2901,-0.45028 -1.62601,1.71119 1.0402,3.38581 2.44413,4.89353 4.56058,4.89353 1.75572,0 1.75932,0.17025 -0.0929,4.25086 -2.56519,5.6515 -2.56992,8.74951 0,8.74951 2.66344,0 5.27669,-4.24421 5.4123,-8.78822 0.0986,-3.30452 0.54009,-3.89989 4.01084,-5.47425 2.14439,-0.97276 4.1147,-1.56085 4.37475,-1.30081 0.71997,0.71998 -0.85525,15.72265 -1.61053,15.33874 -4.95035,-2.51624 -6.24693,-3.02135 -6.6744,-2.59388 -0.27741,0.27741 0.95651,3.03336 2.74874,6.12465 3.75586,6.47832 6.63606,7.4489 8.70305,2.94232 0.69371,-1.5125 1.63636,-9.27634 2.09059,-17.25125 0.45423,-7.97491 1.30675,-16.06545 1.89702,-17.98682 2.67878,-8.71845 0.36273,-13.9888 -6.81378,-15.50909 -1.24648,-0.26403 -2.03274,-0.42343 -2.49322,-0.37166 z" /><path
         id="path3006"
         style="display:inline;fill:#909090"
         d="m 693.22329,692.92887 c -0.74952,-0.0355 -1.75482,0.0441 -3.1204,0.2168 -16.1755,2.045 -20.61231,2.31809 -24.3128,1.48665 -5.20267,-1.16898 -6.00626,-0.28933 -2.48548,2.74099 2.05653,1.7701 3.9976,2.4158 7.25512,2.4158 4.38109,0 4.4367,0.0489 4.4367,3.37591 0,2.92292 -0.38824,3.45512 -2.89585,3.95664 -1.5925,0.31849 -4.62411,0.3378 -6.74409,0.0465 l -3.85598,-0.52652 2.80294,2.57065 c 2.02397,1.858 3.90667,2.5784 6.75183,2.5784 h 3.94115 v 4.35926 4.36702 l -5.04064,0.5962 c -2.77467,0.32861 -6.17872,0.16308 -7.56484,-0.36392 -1.38614,-0.52696 -3.8562,-0.96012 -5.48974,-0.96012 -2.68596,0 -2.86768,0.19478 -1.87379,2.05188 0.60445,1.12941 2.53718,2.92684 4.28958,3.99535 3.88117,2.36645 4.30768,2.38242 9.80255,0.27874 3.43768,-1.31609 7.54435,-1.65087 19.11729,-1.56407 8.10197,0.0608 14.95859,-0.27082 15.24583,-0.73558 0.90152,-1.45876 -0.49715,-3.71316 -3.01975,-4.86256 -1.5331,-0.69853 -5.39689,-0.87354 -10.49941,-0.48006 l -8.08361,0.61944 0.6504,-2.89586 c 1.17007,-5.29937 1.2837,-5.40456 5.88463,-5.40456 5.22435,0 6.29822,-1.04293 3.60046,-3.48432 -1.42954,-1.29372 -2.8276,-1.58196 -5.35811,-1.10724 -3.33068,0.62486 -3.44497,0.53513 -3.84823,-2.91908 -0.22828,-1.95515 -0.20399,-3.76039 0.0542,-4.01858 0.25819,-0.25819 2.32286,-0.47232 4.58381,-0.47232 4.82808,0 8.75042,-2.31508 7.85907,-4.63802 -0.30105,-0.78448 -0.83364,-1.16421 -2.08284,-1.22338 z m 8.40107,15.6562 c 0.0388,0.0387 0.0756,0.0795 0.11615,0.11615 -0.008,-0.009 -0.0148,-0.0158 -0.0155,-0.0232 -7.9e-4,-0.008 0.0165,0.003 0.0232,0.008 0.0494,0.0318 0.0908,0.0676 0.13937,0.10066 -0.088,-0.0666 -0.17228,-0.13892 -0.26326,-0.20132 z m 0.26326,0.20132 c -0.0267,-0.0115 -0.0367,-0.0118 -0.0465,-0.0155 0.0209,0.0115 0.0623,0.0341 0.10066,0.0542 -0.0175,-0.0136 -0.0365,-0.0253 -0.0542,-0.0387 z m -3.89469,22.09832 c -1.32998,-0.042 -2.99448,0.43133 -5.33488,1.40921 -1.9745,0.825 -5.89732,1.49438 -8.71079,1.49438 -5.80977,0 -6.29625,1.49909 -1.30856,4.04181 2.47276,1.26066 2.86438,1.90263 2.14479,3.51529 -0.48387,1.08439 -2.41683,3.02424 -4.29732,4.31281 -3.48054,2.3849 -5.11951,5.30462 -3.99535,7.1235 1.13321,1.83358 5.33752,1.05118 7.22415,-1.34727 1.42848,-1.81602 2.55666,-2.25228 4.9245,-1.90476 1.91877,0.28162 4.61837,-0.34357 7.1777,-1.64925 4.87636,-2.48775 6.17885,-2.6048 6.17885,-0.57297 0,1.96929 -5.24804,5.12631 -9.86449,5.93882 -6.7775,1.19287 -10.49679,2.7019 -9.00502,3.64692 1.93808,1.22774 8.98583,1.10476 12.79906,-0.22454 2.3588,-0.82232 3.52594,-0.82558 4.33604,-0.0155 0.60916,0.60916 0.82492,1.38955 0.48006,1.73442 -0.34487,0.34486 -5.84279,1.33973 -12.2106,2.21448 -9.08213,1.24759 -12.4856,1.34806 -15.79557,0.46457 -2.32075,-0.61945 -4.41825,-0.92438 -4.66125,-0.68138 -0.243,0.243 0.48139,1.67112 1.61053,3.1746 2.18503,2.90944 6.12027,3.50643 13.06232,1.98994 3.1621,-0.69078 3.25203,-0.61747 3.25203,2.64808 0,3.16852 -0.2625,3.42576 -4.73867,4.55284 -4.06913,1.02462 -4.48102,1.34196 -2.88037,2.23771 2.05912,1.15232 9.58531,0.42973 12.65969,-1.21564 1.07783,-0.57683 1.95896,-1.78696 1.95896,-2.6868 0,-2.15054 -2.88455,-5.28863 -4.90127,-5.32713 -3.76203,-0.0717 1.64565,-1.72228 7.5571,-2.3074 7.14134,-0.70686 7.34803,-0.48568 7.34803,7.92102 v 5.42005 l -7.25512,0.0542 -7.24738,0.0542 5.00193,2.33062 c 2.75,1.28065 6.25344,3.95891 7.78939,5.94657 3.37558,4.36836 6.33913,4.69031 7.83584,0.85946 1.13647,-2.90886 0.64903,-18.34924 -0.68138,-21.63374 -0.71763,-1.7717 -0.37075,-1.83991 5.89237,-1.16918 6.28361,0.67292 6.66666,0.60133 6.66666,-1.33953 0,-3.41718 -4.03722,-5.33419 -8.92759,-4.23538 -3.72618,0.83721 -4.42638,0.69165 -6.51955,-1.40147 -2.29379,-2.29379 -2.30236,-2.38781 -0.44909,-4.06504 2.86153,-2.58963 2.48944,-7.22946 -0.67363,-8.43204 -3.90481,-1.48458 -7.11455,-1.17644 -11.57568,1.09949 -2.23139,1.13837 -4.20385,1.91307 -4.39024,1.72667 -0.1864,-0.18638 -0.0944,-2.18908 0.20906,-4.45218 l 0.55749,-4.11149 6.11691,-0.68912 c 6.741,-0.76267 8.37487,-2.07783 5.93883,-4.76965 -0.97986,-1.08273 -1.96851,-1.63821 -3.29849,-1.68021 z m -37.42932,3.80952 c -1.34179,0.0661 -2.21116,0.72303 -1.87378,2.01316 0.27531,1.05279 1.49644,2.8475 2.71002,3.98761 2.85504,2.68209 2.49265,9.09794 -0.51103,9.09794 -1.27743,0 -1.88928,-0.71453 -1.88928,-2.19125 0,-3.00922 -3.82043,-6.81378 -6.84475,-6.81378 h -2.50096 l 2.03639,2.25319 c 1.12311,1.2375 2.31043,3.9836 2.63259,6.10143 l 0.58072,3.84824 -3.86372,-0.36392 c -3.47469,-0.33137 -3.76272,-0.18629 -2.88811,1.44793 1.84916,3.45513 5.48692,4.26762 9.62446,2.16027 2.04794,-1.04307 4.02876,-2.03896 4.39798,-2.22222 0.36923,-0.18325 0.44492,0.52184 0.17035,1.57182 -1.0521,4.02317 -11.70367,6.68985 -16.49244,4.12698 -2.56807,-1.37439 -3.25498,-0.6729 -2.45451,2.51645 0.39609,1.57828 1.57111,2.77028 3.1204,3.15911 1.36662,0.343 2.47774,0.73724 2.47774,0.8827 0,0.14546 -0.93164,2.37828 -2.07511,4.96322 -2.1838,4.93687 -2.00011,7.55709 0.52652,7.55709 2.3067,0 4.67033,-4.38255 4.73093,-8.77273 0.0505,-3.65938 0.37499,-4.09114 4.56059,-6.12466 2.4777,-1.20378 4.64492,-2.0527 4.8161,-1.88153 0.17117,0.17118 -0.0938,3.45235 -0.58846,7.29384 -0.49468,3.84147 -0.91115,7.7591 -0.92915,8.70305 -0.0297,1.55726 -0.36282,1.52527 -3.53852,-0.34843 -4.32198,-2.55003 -4.39626,-1.44772 -0.34843,5.06387 5.82783,9.37499 8.02627,6.4743 8.98179,-11.84668 0.39312,-7.53771 1.42455,-16.4437 2.29191,-19.79092 2.16092,-8.33923 1.98889,-10.96503 -0.8827,-13.83662 -1.55482,-1.55484 -3.70928,-2.43243 -5.38133,-2.54742 -0.20902,-0.0144 -0.40451,-0.0185 -0.59621,-0.008 z" /><path
         id="path3008"
         style="display:inline;fill:#b0b0b0"
         d="m 691.43467,692.55721 c -1.56947,-0.0155 -3.37698,0.22119 -5.14905,0.75881 -5.61143,1.70265 -20.52168,1.94782 -23.43784,0.38714 -1.69325,-0.90642 -1.97196,-0.79507 -1.68796,0.65041 0.5745,2.92415 5.33372,5.71428 9.75609,5.71428 3.9634,0 4.08052,0.092 4.08052,3.36043 v 3.36043 l -6.74409,0.031 -6.75183,0.031 2.80294,2.46999 c 2.78967,2.45422 4.14585,2.85709 8.44753,2.50871 2.0318,-0.16458 2.24545,0.26203 2.24545,4.39024 v 4.56833 l -4.24312,0.1626 c -4.59624,0.17037 -4.86479,0.15417 -12.11768,-0.81301 -4.78356,-0.63789 -4.84634,-0.62018 -3.68564,1.54859 0.64953,1.21368 2.61461,3.0817 4.36701,4.15021 3.90155,2.37886 5.3573,2.42583 10.30584,0.27874 3.13022,-1.35813 6.7971,-1.65863 19.12503,-1.5331 14.50488,0.14769 15.25357,0.0657 15.25357,-1.78861 0,-3.52401 -4.83904,-5.02812 -13.91404,-4.3283 l -8.0991,0.61943 0.66589,-3.39914 c 0.80543,-4.13508 1.77727,-4.85835 6.53503,-4.87805 4.48185,-0.0186 5.4075,-1.1638 2.82617,-3.4998 -1.42954,-1.29372 -2.8276,-1.58196 -5.35811,-1.10724 -3.322,0.62323 -3.44497,0.53071 -3.84049,-2.85714 -0.45906,-3.93217 0.35258,-4.55284 5.93883,-4.55284 3.37059,0 7.24738,-2.22941 7.24738,-4.17344 0,-1.28933 -1.95255,-2.03372 -4.56833,-2.05962 z m 10.18969,16.02786 c 0.0388,0.0387 0.0756,0.0795 0.11615,0.11615 -0.008,-0.009 -0.0148,-0.0158 -0.0155,-0.0232 -7.9e-4,-0.008 0.0165,0.003 0.0232,0.008 0.0494,0.0318 0.0908,0.0676 0.13937,0.10066 -0.088,-0.0666 -0.17228,-0.13892 -0.26326,-0.20132 z m 0.26326,0.20132 c -0.0267,-0.0115 -0.0367,-0.0118 -0.0465,-0.0155 0.0209,0.0115 0.0623,0.0341 0.10066,0.0542 -0.0175,-0.0136 -0.0365,-0.0253 -0.0542,-0.0387 z m -4.20441,22.33835 c -1.4087,0.036 -3.01508,0.38662 -4.69996,1.06078 -2.21097,0.88466 -6.26615,1.60278 -9.00502,1.60278 -2.73887,0 -4.9787,0.38698 -4.9787,0.85173 0,1.30734 3.28022,3.89578 5.50522,4.35152 1.72588,0.35351 1.26957,1.14013 -3.30623,5.71428 -3.00204,3.00099 -5.17133,6.00763 -4.99419,6.93767 0.49551,2.60118 4.68369,2.607 7.45644,0 1.64323,-1.54374 3.41243,-2.22012 5.31165,-2.02091 1.56655,0.16432 4.67164,-0.62911 6.89895,-1.76538 4.74938,-2.423 6.12465,-2.5767 6.12465,-0.68138 0,2.08625 -4.01246,4.29963 -11.11884,6.14014 -3.50753,0.90841 -7.04956,2.03816 -7.87456,2.50097 -2.5383,1.4239 1.3865,2.29503 7.2861,1.61827 2.86763,-0.32895 6.29198,-0.72494 7.61129,-0.87495 1.31934,-0.15001 2.57651,0.24063 2.7952,0.8672 0.81532,2.336 -24.15239,5.24264 -28.73401,3.34495 -1.66252,-0.68862 -3.25281,-1.02127 -3.53077,-0.74332 -1.1105,1.11043 2.06179,5.84426 4.28958,6.4034 2.30712,0.57905 8.63171,-0.0745 11.54471,-1.19241 1.07698,-0.41327 1.41442,0.26166 1.33952,2.67131 -0.0895,2.87794 -0.56335,3.36752 -4.46767,4.66899 -3.12762,1.04252 -3.97366,1.69605 -2.99651,2.31513 2.08705,1.32224 7.53262,1.06193 11.38985,-0.54975 4.48986,-1.87599 4.84399,-5.76819 0.72009,-7.9365 l -2.74874,-1.44793 2.50097,-0.51877 c 1.375,-0.2868 4.58575,-0.76118 7.13898,-1.05304 5.32154,-0.60831 5.82141,0.1264 5.84591,8.64885 l 0.0155,4.75416 h -7.20092 c -7.55381,0 -8.02572,0.88536 -1.56407,2.95005 2.42563,0.77505 4.71183,2.56863 6.50406,5.10259 3.06896,4.33913 6.52513,5.18562 8.22299,2.01316 1.25884,-2.35207 1.32184,-15.12576 0.10066,-20.38713 l -0.8827,-3.825 6.41115,0.68912 c 5.93512,0.63561 6.41114,0.53849 6.41114,-1.27758 0,-1.07883 -0.8934,-2.76224 -1.98219,-3.74758 -1.66352,-1.50547 -2.74322,-1.64806 -6.75183,-0.89044 -4.25889,0.80491 -5.0032,0.66424 -6.92218,-1.30081 -2.1072,-2.15779 -2.10981,-2.23273 -0.24777,-3.91792 2.50491,-2.2669 2.48119,-7.02922 -0.0387,-8.37785 -3.03377,-1.6236 -7.78123,-1.21824 -12.20285,1.03755 -2.23139,1.13837 -4.20385,1.91307 -4.39024,1.72667 -0.1864,-0.18638 -0.0934,-2.18159 0.20906,-4.43669 l 0.54974,-4.10376 6.09369,-0.63492 c 6.70949,-0.70127 8.06263,-1.45652 7.10026,-3.96437 -0.60699,-1.58178 -2.39073,-2.38294 -4.73867,-2.32288 z m -38.69915,2.81842 c -0.30764,0.008 -0.54599,0.0737 -0.68912,0.2168 -0.73451,0.73457 2.56843,7.63453 3.65466,7.63453 0.578,0 1.05304,1.79537 1.05304,3.99535 0,3.33326 -0.33101,4.0031 -1.99768,4.0031 -1.46667,0 -2.00542,-0.66764 -2.00542,-2.50097 0,-3.22076 -3.2917,-6.50406 -6.52729,-6.50406 h -2.53193 l 1.9667,2.74874 c 1.08255,1.5125 2.10501,4.103 2.27642,5.753 0.29837,2.87212 0.15996,2.99731 -3.43012,2.88811 -4.35674,-0.13252 -4.51,0.17916 -1.57955,3.29849 2.66119,2.8327 5.31766,2.92278 9.578,0.3252 3.1669,-1.93091 3.24429,-1.93132 3.24429,-0.0774 0,1.33029 -1.33515,2.41298 -4.44444,3.60046 -4.24749,1.62207 -8.14433,1.60535 -13.29461,-0.0465 -2.12862,-0.68272 -2.18051,-0.5673 -1.14596,2.40031 0.66729,1.91421 1.98217,3.35324 3.39915,3.70886 l 2.30739,0.57298 -2.02865,4.87805 c -2.12405,5.111 -1.8879,7.95198 0.65815,7.95198 2.22567,0 4.54432,-4.13905 4.81611,-8.59465 0.20892,-3.42518 0.72936,-4.17664 4.23538,-6.10917 2.19998,-1.21265 4.24929,-2.22829 4.55284,-2.25319 0.30355,-0.0249 0.21149,3.00062 -0.20132,6.71312 -0.4128,3.7125 -0.76932,7.78428 -0.79752,9.05923 l -0.0542,2.32287 -2.9036,-2.06736 c -5.1843,-3.69159 -5.44042,-2.36966 -0.94463,4.86256 5.69998,9.1693 7.98489,6.43019 8.97405,-10.77041 0.40042,-6.96283 1.52831,-16.6356 2.50871,-21.49437 1.59605,-7.9098 1.62368,-9.11132 0.28649,-11.49825 -1.16637,-2.08209 -6.78199,-5.07033 -8.93534,-5.01742 z" /><path
         id="path3004"
         style="display:inline;fill:#6f6f6f"
         d="m 691.71341,692.98307 c -0.49742,0.003 -1.04873,0.0532 -1.65698,0.13938 -16.36177,2.31927 -20.37965,2.6017 -24.27408,1.72667 -5.35252,-1.20259 -6.01991,-0.52455 -2.47774,2.52419 2.05653,1.7701 3.9976,2.4158 7.25512,2.4158 4.39579,0 4.4367,0.0426 4.4367,3.43786 0,4.13895 -1.97338,5.06343 -8.84242,4.13472 l -4.6535,-0.63492 2.80294,2.53968 c 1.97424,1.78031 3.94984,2.5242 6.65117,2.5242 3.78034,0 3.84431,0.066 4.28184,4.25086 0.24437,2.3375 0.37329,4.35385 0.28649,4.48316 -0.42582,0.63464 -12.54587,0.48004 -16.27563,-0.20906 -6.0054,-1.10955 -5.21604,2.61601 1.25435,5.93108 3.73706,1.91466 3.76294,1.91254 8.27719,-0.15486 2.97471,-1.36229 6.8164,-1.712 19.21795,-1.7499 12.55431,-0.0383 15.50134,-0.32045 15.50134,-1.44793 0,-0.76562 -1.16184,-2.25832 -2.58614,-3.32171 -2.3692,-1.76888 -3.25625,-1.83849 -10.40649,-0.84398 -4.29853,0.59787 -8.0258,0.87857 -8.27719,0.62718 -0.25138,-0.25138 -0.0509,-2.16618 0.44134,-4.25861 0.86505,-3.67753 1.05369,-3.81688 5.61363,-4.1115 3.09194,-0.19978 4.71544,-0.75902 4.71544,-1.62601 0,-2.4496 -2.6985,-3.7114 -6.42663,-3.012 -3.05799,0.57369 -3.57328,0.39158 -3.58498,-1.20016 -0.008,-1.02371 -0.28779,-2.86625 -0.61943,-4.10375 -0.56518,-2.10898 -0.29773,-2.25319 4.28958,-2.25319 5.96569,0 10.11749,-2.36601 8.19976,-4.67673 -0.63733,-0.7679 -1.65131,-1.13984 -3.14363,-1.13047 z m 9.91095,15.602 c 0.0388,0.0387 0.0756,0.0795 0.11615,0.11615 -0.008,-0.009 -0.0148,-0.0158 -0.0155,-0.0232 -7.9e-4,-0.008 0.0165,0.003 0.0232,0.008 0.0494,0.0318 0.0908,0.0676 0.13937,0.10066 -0.088,-0.0666 -0.17228,-0.13892 -0.26326,-0.20132 z m 0.26326,0.20132 c -0.0267,-0.0115 -0.0367,-0.0118 -0.0465,-0.0155 0.0209,0.0115 0.0623,0.0341 0.10066,0.0542 -0.0175,-0.0136 -0.0365,-0.0253 -0.0542,-0.0387 z m -3.59272,22.22995 c -0.27722,-0.0187 -0.57202,-0.0168 -0.87495,0.008 -0.80782,0.0688 -1.70202,0.30117 -2.64808,0.70461 -1.80149,0.7682 -6.11075,1.5887 -9.578,1.81958 -6.96312,0.46367 -7.69587,1.74985 -2.41579,4.24313 1.74713,0.82495 3.18592,1.82239 3.19782,2.21448 0.0119,0.3921 -2.25033,2.89098 -5.02516,5.55168 -3.59245,3.4447 -4.85461,5.32492 -4.39024,6.53503 0.92324,2.40591 4.12575,2.10732 6.87572,-0.64267 1.74686,-1.7469 3.12303,-2.22754 5.4278,-1.88927 2.01597,0.29588 4.34166,-0.28064 6.6744,-1.65699 4.17263,-2.4619 6.4576,-2.70473 6.4576,-0.67363 0,1.88669 -3.60951,4.37448 -7.99844,5.51296 -1.92495,0.49934 -5.48903,1.43371 -7.92102,2.06736 -3.24445,0.84536 -4.03975,1.3916 -2.99651,2.05188 2.05489,1.30058 8.82846,1.05107 13.11652,-0.48006 3.19123,-1.13943 3.77487,-1.10741 4.2741,0.19357 0.31796,0.82859 0.38494,1.69015 0.15486,1.92025 -0.23009,0.23009 -4.62629,1.09678 -9.77158,1.92799 -9.19643,1.48565 -17.72527,1.47217 -21.02979,-0.031 -1.33381,-0.60671 -1.57258,-0.34759 -1.1537,1.25435 0.9093,3.47719 3.91275,5.42059 7.53387,4.87805 1.81203,-0.2715 7.97939,-1.2437 13.70498,-2.16028 5.72556,-0.91657 11.03804,-1.42295 11.80023,-1.13047 1.03488,0.39713 1.30504,2.24287 1.08401,7.29384 l -0.29424,6.75958 -6.24854,-0.34069 c -3.43745,-0.18811 -6.24854,-0.0746 -6.24854,0.25551 0,0.33006 1.80156,1.32589 4.00309,2.20674 2.20158,0.8809 5.40577,3.37513 7.1235,5.54393 3.93403,4.96716 6.84451,4.9095 8.17653,-0.1626 0.97453,-3.71076 0.38932,-17.20576 -0.8827,-20.41036 -0.71317,-1.79669 -0.37914,-1.85976 5.90786,-1.21564 5.6111,0.57488 6.6744,0.44199 6.6744,-0.84397 0,-1.56902 -3.4131,-5.53071 -4.75416,-5.52071 -0.4125,0.003 -2.4802,0.48014 -4.59929,1.06852 -3.43987,0.95516 -4.01384,0.85407 -5.31165,-0.99884 -0.79953,-1.14149 -2.16886,-2.08284 -3.04297,-2.08284 -1.16515,0 -0.87901,-0.64899 1.06078,-2.44677 7.05693,-6.54009 -1.35484,-12.51694 -10.6233,-7.54935 -4.94483,2.6502 -7.16519,2.67185 -5.76848,0.0619 0.56935,-1.06384 1.02981,-3.02486 1.02981,-4.35927 0,-2.21458 0.55143,-2.50201 6.25628,-3.31397 5.14961,-0.73294 6.24855,-1.22164 6.24855,-2.77971 0,-2.04501 -1.26512,-3.25281 -3.20558,-3.38366 z m -37.73129,3.94889 c -2.29808,0.11024 -2.29884,2.45275 0.94464,5.83817 1.99274,2.07997 2.38807,3.25903 1.89702,5.71428 -0.79647,3.98231 -4.40573,5.32082 -4.40573,1.63376 0,-3.05704 -4.17059,-7.36353 -7.13123,-7.36353 h -2.21448 l 2.03639,2.25319 c 1.12311,1.2375 2.30393,3.93834 2.61711,6.00077 0.56433,3.7164 0.53368,3.74758 -2.87263,3.74758 -3.96288,0 -4.39333,1.21983 -1.21564,3.4456 3.06128,2.14415 4.91047,1.95956 9.1444,-0.91366 2.00175,-1.35843 3.63918,-2.068 3.63918,-1.57956 0,5.33512 -10.11592,8.85397 -17.43708,6.07046 -2.10974,-0.80212 -2.56291,-0.68059 -2.56291,0.67363 0,2.09304 2.86887,5.30391 4.73867,5.30391 0.78559,0 1.2751,0.34373 1.09176,0.7588 -3.10378,7.02722 -4.01749,10.45403 -3.05072,11.42082 2.69429,2.6943 6.20842,-2.10274 6.22532,-8.49399 0.007,-2.80568 0.61491,-3.50221 5.0871,-5.86914 l 5.07936,-2.69454 -0.64266,5.19551 c -0.35063,2.85274 -0.89229,7.09096 -1.20015,9.42314 l -0.55749,4.24313 -2.85715,-1.68796 c -1.5714,-0.92827 -3.10932,-1.43578 -3.42237,-1.12273 -0.31305,0.31305 0.86381,2.87827 2.61711,5.6988 5.78694,9.30921 8.00566,6.12715 8.98954,-12.87649 0.38442,-7.42493 1.47253,-16.51876 2.41579,-20.21679 2.04971,-8.03596 1.44772,-11.22201 -2.48548,-13.25589 -1.9074,-0.98639 -3.42306,-1.39737 -4.46767,-1.34727 z m 27.23963,30.8246 c -1.44181,0 -1.80772,0.62257 -1.5873,2.64808 0.2514,2.31012 -0.25492,2.82262 -3.97213,4.08052 -2.34091,0.79216 -4.00426,1.85083 -3.69337,2.35385 1.50296,2.4318 13.06634,-0.29381 14.02244,-3.30623 0.74018,-2.33209 -2.10594,-5.77622 -4.76964,-5.77622 z" /><path
         id="path3002"
         style="display:inline;fill:#4f4f4f"
         d="m 691.10172,693.43991 c -2.50866,-0.0349 -6.53844,0.41757 -12.83003,1.36275 -6.05655,0.90991 -9.35503,0.96199 -12.47386,0.17034 -2.3308,-0.59162 -4.3761,-0.94329 -4.5451,-0.77429 -0.169,0.169 0.52191,1.3296 1.5331,2.5784 1.34602,1.66226 3.23362,2.40713 7.03058,2.77197 l 5.18002,0.49554 v 4.01084 4.01084 l -6.73635,-0.54201 -6.73634,-0.542 2.79519,2.4003 c 1.92984,1.65999 4.01291,2.40806 6.73635,2.40806 3.69126,0 3.94115,0.18804 3.94115,2.91908 0,1.60497 0.25399,3.56836 0.55749,4.35927 0.79947,2.08338 -9.13331,3.09961 -14.99031,1.5331 -2.47521,-0.66208 -4.7718,-0.94247 -5.10259,-0.61169 -1.04952,1.04949 1.89554,4.71912 5.02516,6.26403 3.71266,1.83267 2.48803,1.90403 9.79481,-0.58072 5.58975,-1.90085 7.55108,-2.04547 19.38055,-1.44793 14.18334,0.71644 16.31178,0.0981 12.54354,-3.67015 -2.27316,-2.27322 -4.7599,-2.50692 -14.09213,-1.30081 l -6.38791,0.82849 0.72783,-3.88695 c 0.99936,-5.32703 1.07931,-5.40456 6.10143,-5.40456 3.23341,0 4.44444,-0.40463 4.44444,-1.47116 0,-2.13826 -3.39499,-3.60285 -6.77506,-2.92683 -2.67993,0.53599 -2.98951,0.30599 -3.57723,-2.63259 -0.97816,-4.8907 -0.92483,-4.97096 3.29074,-4.97096 5.51644,0 9.29078,-1.60019 8.86565,-3.75532 -0.20428,-1.03559 -1.19244,-1.56014 -3.70112,-1.59504 z m 10.52264,15.14516 c 0.0388,0.0387 0.0756,0.0795 0.11615,0.11615 -0.008,-0.009 -0.0148,-0.0158 -0.0155,-0.0232 -7.9e-4,-0.008 0.0165,0.003 0.0232,0.008 0.0494,0.0318 0.0908,0.0676 0.13937,0.10066 -0.088,-0.0666 -0.17228,-0.13892 -0.26326,-0.20132 z m 0.26326,0.20132 c -0.0267,-0.0115 -0.0367,-0.0118 -0.0465,-0.0155 0.0209,0.0115 0.0623,0.0341 0.10066,0.0542 -0.0175,-0.0136 -0.0365,-0.0253 -0.0542,-0.0387 z m -3.91792,22.07509 c -1.24822,-0.006 -2.752,0.45198 -4.53736,1.37824 -1.53801,0.79793 -5.18975,1.74838 -8.11458,2.11382 -6.04023,0.75468 -6.63543,1.68814 -2.31514,3.60046 1.65,0.73036 2.99651,1.68119 2.99651,2.11382 0,0.43268 -2.25308,2.97369 -5.00967,5.64459 -3.40991,3.30397 -4.81135,5.36796 -4.39024,6.46535 0.90375,2.35513 4.16071,1.97267 6.72086,-0.78978 1.63121,-1.7601 2.9484,-2.26885 4.89353,-1.89702 1.63278,0.31213 4.38114,-0.35708 7.13898,-1.73441 2.55772,-1.27742 5.22422,-1.9548 6.20209,-1.57956 1.61415,0.61942 1.6158,0.77339 -0.0387,2.60162 -1.83361,2.02611 -6.58531,3.96894 -14.93611,6.10917 -3.87333,0.99274 -4.50782,1.41312 -2.99651,2.00542 3.08582,1.20934 7.86009,1.00064 12.2106,-0.53426 3.6204,-1.27736 4.11269,-1.25142 4.66124,0.17809 0.89463,2.33136 -0.71106,2.93223 -11.36662,4.28958 -9.36364,1.19283 -15.88417,1.04413 -19.2644,-0.44909 -1.32908,-0.58712 -1.5711,-0.32641 -1.1537,1.26984 0.2897,1.10783 1.38509,2.79307 2.43128,3.73983 1.79701,1.62628 2.41299,1.61649 11.14982,0.008 5.08646,-0.93672 11.72534,-1.78507 14.75027,-1.89702 l 5.49748,-0.20906 0.58072,6.00077 c 0.7678,7.91824 -0.0534,8.89958 -6.79829,8.10685 -6.02737,-0.70841 -6.92804,0.401 -1.82733,2.24545 1.89974,0.68695 4.86002,3.02196 6.58149,5.1955 3.41141,4.30725 4.99501,4.82388 7.07704,2.31514 1.52949,-1.84292 1.86794,-13.17897 0.60395,-20.2555 l -0.78978,-4.39024 6.03948,0.54974 c 6.09568,0.55274 7.47176,0.0346 6.51955,-2.44676 -1.1325,-2.95125 -4.31842,-3.94858 -8.55594,-2.67906 -3.68806,1.10499 -4.12074,1.03095 -5.52071,-0.96786 -0.83574,-1.19319 -2.23854,-2.16802 -3.11265,-2.16802 -1.16515,0 -0.87901,-0.65673 1.06078,-2.45451 6.70287,-6.21196 -1.25084,-12.19067 -10.16647,-7.64227 -2.25916,1.15254 -4.80543,2.09059 -5.65234,2.09059 -1.73067,0 -2.06886,-1.5573 -0.542,-2.50096 0.55,-0.33992 0.99884,-1.91737 0.99884,-3.50755 0,-2.79622 0.20923,-2.91148 6.09368,-3.57723 6.33789,-0.71706 8.14056,-2.22493 5.90011,-4.92451 -0.779,-0.93865 -1.77152,-1.41092 -3.01974,-1.41695 z m -37.63063,3.98761 c -1.98292,0.16466 -1.7364,2.31686 1.16144,5.76073 3.53386,4.19973 3.23161,8.00017 -0.75107,9.46961 -1.37381,0.50688 -1.7499,0.10761 -1.7499,-1.86605 0,-2.78082 -4.03185,-7.42547 -6.44986,-7.42547 -1.90616,0 -1.96464,0.86899 -0.18583,2.92683 0.7506,0.86826 1.62092,3.2647 1.93574,5.32713 0.56736,3.717 0.54195,3.74758 -2.86489,3.74758 -4.04139,0 -4.40393,1.3205 -0.98335,3.56175 2.74142,1.7962 5.43431,1.31358 9.7948,-1.75765 2.7349,-1.92629 2.75649,-1.92542 2.75649,0.1084 0,2.28973 -2.72545,4.30499 -8.13008,6.01626 -2.87485,0.91027 -4.48392,0.85448 -7.75067,-0.271 -3.67068,-1.26467 -4.11924,-1.25242 -4.11924,0.13163 0,1.97495 2.88951,5.21099 4.6535,5.21099 1.71629,0 1.71963,-0.0471 -0.69686,5.59039 -2.15593,5.02959 -2.00356,7.40998 0.48006,7.40998 2.06307,0 4.56059,-5.14691 4.56059,-9.40765 0,-3.23669 0.3979,-3.70271 5.10259,-5.95432 l 5.10258,-2.43902 -0.62717,5.65234 c -0.34782,3.10932 -0.89583,7.35544 -1.2079,9.44637 -0.55806,3.73918 -0.59764,3.77937 -2.92683,2.25319 -3.68953,-2.41746 -4.90935,-1.90677 -2.86488,1.20016 0.99528,1.5125 2.43184,3.98498 3.19009,5.49748 0.75825,1.5125 2.00665,2.74874 2.77197,2.74874 2.72252,0 3.88239,-4.59847 4.54509,-18.00231 0.3671,-7.42493 1.44793,-16.53552 2.40805,-20.24776 2.01393,-7.78661 1.12871,-11.69084 -3.10491,-13.61981 -1.78118,-0.81156 -3.14823,-1.14332 -4.04955,-1.06852 z m 27.46417,30.94074 c -1.45583,0 -1.80986,0.62189 -1.5873,2.74099 0.25629,2.44025 -0.19683,2.89251 -4.07278,4.12698 -3.16769,1.00888 -3.98122,1.6392 -2.99652,2.29965 2.9761,1.99625 13.8521,-1.42714 13.8521,-4.35926 0,-1.87556 -3.16886,-4.80836 -5.1955,-4.80836 z" /><path
         id="path3000"
         style="display:inline;fill:#2f2f2f"
         d="m 692.37156,692.97533 c -1.75088,0.0682 -5.09593,0.64833 -11.81571,1.81959 -6.78156,1.1821 -14.28205,0.97419 -17.81647,-0.49555 -1.3644,-0.56738 -1.62046,-0.36322 -1.13047,0.91367 0.89146,2.32308 5.67481,4.57607 9.71737,4.57607 3.04994,0 3.49729,0.35142 4.06504,3.19008 0.35062,1.75312 0.21397,3.61104 -0.30197,4.12698 -0.51595,0.51589 -3.67417,0.73722 -7.0151,0.49555 -3.34087,-0.24166 -6.07819,-0.28908 -6.07819,-0.1084 0,1.22748 7.13509,4.29133 10.00386,4.29733 3.46484,0.007 3.49973,0.0519 3.52303,4.40572 l 0.0232,4.39798 -4.9245,0.65041 c -2.89595,0.38417 -6.90502,0.14026 -9.74835,-0.58846 -2.65823,-0.68128 -5.13987,-0.93059 -5.51296,-0.55749 -0.99685,0.9969 2.69205,4.77769 6.07045,6.21757 2.48831,1.0605 3.75995,0.94764 8.49399,-0.72009 4.74094,-1.67023 7.66116,-1.91291 19.57413,-1.63376 11.92351,0.27939 13.99921,0.1006 13.99921,-1.17693 0,-2.6739 -5.9446,-4.8376 -10.73944,-3.91018 -2.34386,0.45336 -5.88841,0.85096 -7.87456,0.87496 l -3.6082,0.0387 1.02981,-4.49864 c 1.02299,-4.4705 1.05943,-4.49864 5.3039,-4.49864 2.34988,0 4.59496,-0.52027 4.98645,-1.1537 1.1707,-1.89419 -2.65703,-3.92386 -6.15563,-3.26751 -2.9973,0.56228 -3.20364,0.39148 -4.15795,-3.36818 l -1.00658,-3.95663 5.97754,-0.54975 c 6.50353,-0.58967 8.3572,-1.65365 7.36352,-4.24313 -0.34393,-0.89638 -0.4946,-1.34573 -2.24545,-1.27758 z m 9.2528,15.60974 c 0.0388,0.0387 0.0756,0.0795 0.11615,0.11615 -0.008,-0.009 -0.0148,-0.0158 -0.0155,-0.0232 -7.9e-4,-0.008 0.0165,0.003 0.0232,0.008 0.0494,0.0318 0.0908,0.0676 0.13937,0.10066 -0.088,-0.0666 -0.17228,-0.13892 -0.26326,-0.20132 z m 0.26326,0.20132 c -0.0267,-0.0115 -0.0367,-0.0118 -0.0465,-0.0155 0.0209,0.0115 0.0623,0.0341 0.10066,0.0542 -0.0175,-0.0136 -0.0365,-0.0253 -0.0542,-0.0387 z m -3.43011,22.34609 c -1.1511,-0.0366 -2.58724,0.31408 -4.24313,1.06078 -2.17602,0.98125 -6.37925,2.11159 -9.33797,2.50871 l -5.37359,0.72009 3.24428,1.93573 c 1.78397,1.06399 3.24029,2.34169 3.24429,2.84166 0.003,0.49997 -2.05571,2.81254 -4.58381,5.13356 -2.98508,2.74064 -4.47567,4.86296 -4.24313,6.07046 0.53642,2.78577 3.23403,2.78613 5.9156,0 1.74463,-1.81267 3.0858,-2.32671 5.00193,-1.94348 1.6907,0.33815 4.47924,-0.42414 7.89005,-2.15253 3.81281,-1.93213 5.57524,-2.369 6.36468,-1.57956 2.07989,2.07989 -3.46345,6.03989 -11.25822,8.0449 -3.99395,1.02736 -7.49131,2.10225 -7.78164,2.39257 -1.47169,1.4717 5.79278,1.79877 10.82462,0.4878 5.22614,-1.36159 5.71983,-1.33655 6.7286,0.27875 1.32727,2.12528 0.85114,2.29828 -10.69298,3.9334 -4.5906,0.65025 -11.23613,0.95635 -14.75803,0.67364 -7.12498,-0.57193 -8.51401,0.81677 -3.86372,3.86372 2.35221,1.54126 3.08919,1.54693 10.25164,0.0387 4.24374,-0.89362 10.68183,-1.91184 14.30893,-2.26094 l 6.59698,-0.63492 0.63492,6.09368 c 0.89782,8.58978 0.51898,9.14436 -6.1866,9.19086 -5.62981,0.039 -5.6371,0.0389 -2.5242,1.39373 1.71613,0.74691 4.60547,3.21001 6.41889,5.4665 3.52589,4.3875 5.0113,4.9583 6.92218,2.65583 1.42091,-1.71215 1.85692,-12.94578 0.78203,-20.10839 l -0.7588,-5.05613 5.76074,0.67364 c 7.02156,0.82196 8.56542,-0.22012 5.21873,-3.52304 -2.28613,-2.25622 -2.76639,-2.35066 -6.69763,-1.28532 -3.87431,1.04989 -4.41034,0.96155 -6.28726,-1.05304 -1.12883,-1.21165 -2.5664,-2.19899 -3.19783,-2.19899 -0.63147,0 0.0973,-1.30803 1.62601,-2.9036 3.36625,-3.5136 3.07878,-6.10376 -0.89043,-8.00619 -2.61737,-1.25447 -3.48683,-1.21503 -7.48741,0.32521 -2.48954,0.95844 -5.61786,1.99557 -6.94541,2.30739 -2.07148,0.48654 -2.29379,0.29692 -1.60279,-1.33179 0.44283,-1.04382 1.0122,-3.12361 1.26984,-4.62252 0.48095,-2.79801 1.70796,-3.30312 9.74835,-4.01084 2.18261,-0.19211 3.00426,-0.77677 3.00426,-2.15253 0,-2.08035 -1.12448,-3.20656 -3.04297,-3.26752 z m -38.10295,3.71661 c -1.99849,0.15535 -1.76101,2.30602 1.14595,5.76073 3.34261,3.97241 3.3101,7.92136 -0.0697,9.20635 -3.35282,1.27475 -3.32551,1.28412 -2.74874,-0.92141 0.69922,-2.67385 -1.34556,-6.02305 -4.38249,-7.1777 -3.22443,-1.22592 -4.08452,-0.47213 -2.08285,1.81959 0.84363,0.96587 1.82941,3.44279 2.19899,5.50522 l 0.67363,3.74758 h -3.63143 c -4.24214,0 -4.29267,1.77792 -0.1084,3.81726 2.41694,1.17799 3.18501,1.05467 7.17769,-1.17692 l 4.47542,-2.50097 v 2.3074 c 0,1.82857 -1.08744,2.77562 -5.24971,4.56832 -4.66219,2.00807 -5.74628,2.13097 -9.63994,1.09176 -2.41148,-0.64358 -4.60254,-0.94141 -4.87805,-0.6659 -0.87112,0.87111 2.74626,5.55943 4.28958,5.55943 1.81366,0 1.85389,-0.50102 -0.4878,5.66008 -1.54584,4.06711 -1.69382,5.3798 -0.71235,6.19434 2.50899,2.08232 5.67557,-2.88905 5.67557,-8.90437 0,-2.49716 0.72315,-3.28277 5.00193,-5.45102 l 4.99419,-2.53194 -0.0155,2.76423 c -0.0273,3.7516 -1.73737,15.35718 -2.35385,15.97366 -0.273,0.27299 -1.52952,-0.2184 -2.78745,-1.0995 -3.41273,-2.39038 -4.29439,-1.94422 -2.26094,1.14596 0.99528,1.5125 2.43184,3.98498 3.19009,5.49748 0.75825,1.5125 2.00665,2.74874 2.77197,2.74874 2.70387,0 3.83162,-4.65273 4.59155,-18.99341 0.42261,-7.97493 1.45417,-16.98279 2.29965,-20.00772 1.85154,-6.62445 0.80431,-11.11021 -3.00425,-12.84552 -1.79302,-0.81696 -3.1644,-1.16232 -4.07278,-1.09175 z m 27.44868,30.94074 c -1.44969,0 -1.80893,0.61721 -1.5873,2.69454 0.25308,2.3721 -0.25628,2.9034 -4.20441,4.38249 -3.48285,1.3048 -4.04488,1.79508 -2.50097,2.18351 4.67219,1.1755 13.48818,-1.7335 13.48818,-4.45218 0,-1.87556 -3.16886,-4.80836 -5.1955,-4.80836 z" /><path
         id="path2998"
         style="display:inline;fill:#020202"
         d="m 692.20122,693.06824 c -0.27716,-0.0114 -0.56835,-0.006 -0.89044,0.008 -1.54602,0.0679 -3.62034,0.42296 -6.295,1.06852 -7.75493,1.87177 -17.56236,2.14513 -21.70343,0.59621 l -2.81068,-1.06078 2.76423,2.80294 c 2.25694,2.28162 3.64518,2.79694 7.54161,2.80294 l 4.77739,0.008 0.18583,4.20441 0.17808,4.20441 -6.72086,0.29423 -6.7286,0.29423 3.32171,1.81185 c 1.82644,0.99676 4.30668,1.7366 5.50522,1.6415 4.35999,-0.34609 4.67673,-0.0418 4.67673,4.47541 v 4.42896 l -5.54393,0.68912 c -3.49895,0.43717 -7.18807,0.22965 -10.0271,-0.56524 -2.47074,-0.69169 -4.76089,-0.98437 -5.0871,-0.65815 -0.32622,0.32621 0.77983,1.95681 2.45451,3.63144 3.50726,3.50724 6.0837,3.78025 13.35655,1.40147 4.05614,-1.32669 7.51013,-1.53997 17.76228,-1.08401 14.34165,0.63784 16.47032,0.10958 13.11652,-3.24429 -2.07889,-2.07884 -2.75366,-2.15967 -11.73054,-1.48664 -9.0164,0.67599 -9.4891,0.61611 -8.95857,-1.16144 0.30811,-1.03234 0.8549,-3.11777 1.21564,-4.63027 0.59053,-2.47592 1.08568,-2.74874 4.98645,-2.74874 2.38292,0 4.63166,-0.48193 4.99419,-1.06853 1.10854,-1.79358 -2.73222,-3.77117 -6.21757,-3.20557 -2.90994,0.47222 -3.2846,0.2377 -3.85598,-2.35385 -0.34836,-1.58001 -0.81027,-3.43174 -1.02207,-4.11924 -0.25267,-0.82015 0.72219,-1.25035 2.83391,-1.25435 5.01634,-0.009 10.72396,-1.91386 10.72396,-3.57723 0,-1.35691 -0.86287,-2.06529 -2.80294,-2.1448 z m 9.42314,15.51683 c 0.0388,0.0387 0.0756,0.0795 0.11615,0.11615 -0.008,-0.009 -0.0148,-0.0158 -0.0155,-0.0232 -7.9e-4,-0.008 0.0165,0.003 0.0232,0.008 0.0494,0.0318 0.0908,0.0676 0.13937,0.10066 -0.088,-0.0666 -0.17228,-0.13892 -0.26326,-0.20132 z m 0.26326,0.20132 c -0.0267,-0.0115 -0.0367,-0.0118 -0.0465,-0.0155 0.0209,0.0115 0.0623,0.0341 0.10066,0.0542 -0.0175,-0.0136 -0.0365,-0.0253 -0.0542,-0.0387 z m -4.16569,22.36158 c -1.03565,-0.0501 -2.11197,0.31268 -3.69338,1.13046 -1.78812,0.92467 -5.68253,1.93156 -8.64885,2.23771 -4.39913,0.45403 -5.17891,0.81137 -4.25861,1.92025 0.62055,0.74773 2.19215,1.35501 3.4998,1.35501 3.53709,0 2.9308,1.59006 -2.69454,7.06929 -4.86672,4.74036 -5.9703,7.75157 -3.18234,8.67982 0.68486,0.22803 2.62351,-0.96653 4.30507,-2.64808 2.5228,-2.52279 3.36764,-2.85959 4.84707,-1.93573 1.42056,0.88719 2.99258,0.57206 7.5571,-1.51761 5.84865,-2.6776 7.54935,-2.6954 7.54935,-0.0774 0,2.20141 -5.47035,5.07987 -13.39526,7.04606 -6.85579,1.70093 -7.00096,1.79137 -3.97987,2.67906 2.24338,0.65912 4.65336,0.47297 8.50174,-0.6659 4.9364,-1.46077 5.46955,-1.45607 6.58923,0.0387 0.66988,0.89434 1.02215,1.94212 0.78204,2.33062 -1.06908,1.72981 -26.40372,3.92779 -30.25162,2.62485 -2.87666,-0.97407 -2.9472,0.68424 -0.14712,3.48432 1.64269,1.64269 2.79381,1.94806 5.2497,1.41696 9.17393,-1.98389 18.62498,-3.46116 22.32287,-3.49206 l 4.16569,-0.031 0.68912,6.41889 c 0.37821,3.5314 0.39012,6.9093 0.0232,7.5029 -0.36681,0.5936 -3.23465,1.09348 -6.36469,1.11498 -5.58132,0.0384 -5.62902,0.0686 -2.68679,1.3705 1.64995,0.7301 4.70588,3.18546 6.79055,5.45876 4.13959,4.51439 4.88863,4.8196 6.6202,2.73326 1.28121,-1.54382 1.61578,-13.90037 0.56523,-20.90591 l -0.67363,-4.48315 6.82152,0.54974 6.82152,0.54975 -1.61827,-2.40805 c -1.46255,-2.1646 -2.2373,-2.37444 -7.72745,-2.11382 -4.83531,0.22948 -6.10142,-0.0177 -6.10142,-1.18467 0,-0.80969 -0.93891,-1.77152 -2.09059,-2.13705 -2.06083,-0.65407 -2.05732,-0.70354 0.49554,-3.36817 4.63858,-4.84161 2.86466,-8.0991 -4.41346,-8.0991 -2.53483,0 -5.4829,0.66369 -6.55052,1.47115 -1.06762,0.8075 -3.00099,1.47689 -4.29733,1.49439 -1.87216,0.0253 -2.19846,-0.3289 -1.59504,-1.71893 0.41782,-0.9625 0.79822,-2.87587 0.85172,-4.25087 0.1134,-2.91364 1.6972,-3.82846 6.76732,-3.92566 6.86615,-0.13156 9.32473,-2.97825 4.47541,-5.18777 -0.68917,-0.31399 -1.29884,-0.49644 -1.92024,-0.52651 z m -37.16606,3.9334 c -2.40246,-0.063 -2.11933,2.27852 0.94464,5.11808 3.39388,3.14535 3.54048,9.08273 0.24777,9.96515 -3.36175,0.90092 -3.41463,0.85725 -3.41463,-2.32288 0,-3.57209 -1.87447,-6.04723 -4.57607,-6.04723 -1.48314,0 -1.73235,0.3197 -0.96787,1.24661 0.56699,0.6875 1.18264,3.27026 1.3705,5.74526 l 0.34069,4.50638 -3.25203,-0.25552 c -3.68492,-0.28777 -3.88821,-0.0245 -1.68021,2.18351 2.17723,2.17726 6.06215,1.96477 10.14323,-0.55749 l 3.44561,-2.12931 -0.32521,2.74874 c -0.2703,2.26331 -1.22704,3.1134 -5.33488,4.74642 -4.30502,1.71135 -5.60934,1.8292 -9.38442,0.84398 -2.41149,-0.62936 -4.58601,-0.94244 -4.83159,-0.69687 -0.87642,0.87643 1.75128,4.49436 3.7166,5.11808 2.34439,0.7441 2.46701,2.06231 0.50329,5.49748 -2.05973,3.60315 -1.94034,7.2307 0.22455,6.81378 2.27896,-0.4389 4.23424,-4.46329 4.28184,-8.81146 0.0354,-3.23694 0.42257,-3.66649 5.13356,-5.73751 l 5.09485,-2.24545 -0.70461,8.74177 c -0.38923,4.80658 -1.07607,9.11429 -1.51761,9.578 -0.44154,0.4637 -1.98692,0.068 -3.43786,-0.88269 -1.45096,-0.95071 -2.79092,-1.55927 -2.97329,-1.34727 -0.18236,0.212 1.23058,2.80343 3.13589,5.75299 3.0501,4.72191 3.63604,5.18315 4.93224,3.88695 2.17694,-2.17692 3.27689,-8.13301 3.35269,-18.25008 0.0371,-4.94993 0.51729,-11.02097 1.07627,-13.49592 0.55899,-2.475 1.26575,-6.97753 1.56407,-10.00386 0.60332,-6.12038 -0.70817,-8.23191 -5.9156,-9.53155 -0.45252,-0.11294 -0.84919,-0.16909 -1.19241,-0.17809 z m 26.74408,30.72394 c -0.80747,0.0982 -1.11421,0.89937 -0.74333,2.37708 0.66919,2.66618 -0.21783,3.502 -5.55942,5.24971 l -3.4998,1.15369 4.68447,0.10066 c 8.8125,0.19723 13.3616,-3.41947 8.8734,-7.05381 -1.63499,-1.32391 -2.94786,-1.92556 -3.75532,-1.82733 z" /></g></g></svg>
