<?xml version="1.0" encoding="UTF-8" standalone="no"?>
<!-- Created with Inkscape (http://www.inkscape.org/) -->

<svg
   viewBox="0 0 39.200001 39.200001"
   version="1.1"
   id="svg1"
   inkscape:version="1.3.2 (091e20e, 2023-11-25, custom)"
   sodipodi:docname="Pawn.svg"
   xml:space="preserve"
   xmlns:inkscape="http://www.inkscape.org/namespaces/inkscape"
   xmlns:sodipodi="http://sodipodi.sourceforge.net/DTD/sodipodi-0.dtd"
   xmlns="http://www.w3.org/2000/svg"
   xmlns:svg="http://www.w3.org/2000/svg"><sodipodi:namedview
     id="namedview1"
     pagecolor="#ffffff"
     bordercolor="#111111"
     borderopacity="1"
     inkscape:showpageshadow="0"
     inkscape:pageopacity="0"
     inkscape:pagecheckerboard="1"
     inkscape:deskcolor="#d1d1d1"
     inkscape:document-units="mm"
     showguides="true"
     inkscape:zoom="3.7055165"
     inkscape:cx="74.34861"
     inkscape:cy="74.078742"
     inkscape:window-width="1292"
     inkscape:window-height="745"
     inkscape:window-x="-8"
     inkscape:window-y="-8"
     inkscape:window-maximized="1"
     inkscape:current-layer="layer1"><inkscape:page
       x="0"
       y="0"
       width="39.200001"
       height="39.200001"
       id="page42"
       margin="0"
       bleed="0" /></sodipodi:namedview><defs
     id="defs1"><inkscape:path-effect
       effect="powerstroke"
       id="path-effect13"
       is_visible="true"
       lpeversion="1.3"
       scale_width="1"
       interpolator_type="CubicBezierJohan"
       interpolator_beta="0.2"
       start_linecap_type="zerowidth"
       end_linecap_type="zerowidth"
       offset_points="5,4.9921382"
       linejoin_type="extrp_arc"
       miter_limit="4"
       not_jump="false"
       sort_points="true"
       message="&lt;b&gt;Ctrl + click&lt;/b&gt; on existing node and move it" /></defs><g
     inkscape:label="Layer 1"
     inkscape:groupmode="layer"
     id="layer1"
     transform="matrix(0.78397202,0,0,0.78397202,-62.717061,-125.76241)"><path
       style="fill:#fff29e;fill-opacity:1;fill-rule:evenodd;stroke:none;stroke-width:0.400199;stroke-linecap:round;stroke-linejoin:round;paint-order:stroke fill markers"
       d="m 105,166.1147 9.36373,3.04246 4.98627,31.48206 H 90.649998 l 4.986267,-31.48206 z"
       id="path13"
       sodipodi:nodetypes="cccccc" /><path
       style="display:inline;fill:#938e5e;fill-opacity:1;fill-rule:evenodd;stroke:none;stroke-width:0.435951;stroke-linecap:round;stroke-linejoin:round;stroke-dasharray:none;stroke-opacity:1;paint-order:stroke fill markers"
       d="M 90.649998,200.63922 V 204.721 H 119.35 v -4.08178 z"
       id="path45" /><g
       id="g6139"
       transform="matrix(0.34650481,0,0,0.34650481,-118.81457,-18.426437)"><path
         id="path5617"
         style="display:inline;fill:#d0d0d0"
         d="m 642.19161,542.09375 c -3.1506,0.10944 -3.98187,1.45207 -1.0141,2.54704 2.43987,0.90021 3.2172,2.30547 3.2349,5.84876 0.0122,2.43874 -0.54188,3.25596 -2.73571,4.03282 -2.52123,0.89278 -2.833,0.72351 -3.74981,-2.04392 -1.0144,-3.06199 -3.31519,-4.21224 -6.21038,-3.10126 -1.41756,0.54397 -1.39429,0.75807 0.20832,1.92993 0.99182,0.72523 2.30916,2.84857 2.92831,4.72067 1.12488,3.40132 1.89697,3.69679 6.23003,2.37803 1.64985,-0.50213 2.31153,-0.14912 2.83791,1.50936 0.85342,2.68885 -2.08399,5.28455 -4.99189,4.41015 -5.88083,-1.76838 -8.24774,-1.59199 -9.87764,0.73503 -1.91867,2.73925 -2.09962,5.99742 -0.42451,7.67256 2.04877,2.04877 5.58323,1.33308 9.23696,-1.8749 3.45876,-3.03686 5.56575,-3.17644 5.56575,-0.36555 0,1.95367 3.63147,1.8365 4.3905,-0.1415 0.33384,-0.86998 0.60925,-2.62017 0.60925,-3.89131 0,-2.09406 1.65529,-3.52577 4.07998,-3.52577 0.50501,0 0.91977,1.52329 0.91977,3.38426 0,4.0016 -4.61476,8.6899 -13.48203,13.69428 -3.03462,1.71265 -5.51858,3.33032 -5.51858,3.59651 0,0.2662 1.46312,0.16936 3.25062,-0.21618 12.41735,-2.67828 20.28379,-8.71575 20.01864,-15.36479 -0.13435,-3.36907 0.0967,-3.81075 1.77271,-3.37247 2.7908,0.72982 5.02421,-0.38903 4.3394,-2.17363 -0.83809,-2.18402 -7.18165,-3.6302 -11.54816,-2.63351 -3.14739,0.71842 -3.73259,0.5724 -4.15466,-1.04162 -0.58831,-2.24968 2.81468,-3.42425 7.31881,-2.52346 3.37345,0.67469 4.75275,-0.7432 2.89687,-2.9794 -0.88809,-1.07009 -2.59972,-1.43661 -5.58934,-1.19884 -2.97353,0.2365 -4.30403,-0.0478 -4.30403,-0.91584 0,-0.74858 1.31547,-1.26059 3.25062,-1.26959 3.94263,-0.0186 6.2696,-1.3327 5.25917,-2.96761 -0.44404,-0.71848 -2.29684,-1.05957 -4.58703,-0.84116 -3.24189,0.30916 -3.89059,0.0514 -4.13501,-1.65479 -0.23035,-1.6079 -1.16126,-2.0864 -4.53987,-2.33085 -0.54054,-0.0391 -1.03569,-0.0471 -1.48577,-0.0314 z m -8.26216,23.8392 c 2.9774,0 3.26752,1.51787 0.56601,2.96369 -2.81592,1.50703 -4.37432,1.2757 -3.67513,-0.54636 0.33384,-0.86998 0.60924,-1.76673 0.60924,-1.99675 0,-0.23001 1.12488,-0.42058 2.49988,-0.42058 z m 6.73708,19.0635 c -0.72933,0.10935 -1.23815,0.69086 -1.23815,1.70589 0,0.97335 -2.24977,3.55254 -4.99974,5.73084 -5.35807,4.24419 -6.38352,6.07501 -2.75144,4.91721 4.1631,-1.3271 5.06646,-0.95439 5.97454,2.45663 1.55832,5.85374 0.71684,6.48497 -7.74725,5.84483 -8.2867,-0.62673 -9.60579,0.46188 -4.97616,4.10357 2.06818,1.62683 3.14899,1.81139 6.24969,1.06519 11.45788,-2.75737 14.22734,-3.06945 22.64036,-2.56276 5.0099,0.30172 10.34122,0.85305 11.84688,1.22635 3.84939,0.95436 5.00747,-2.12733 1.78057,-4.74032 -1.94577,-1.57559 -3.28531,-1.76598 -8.33291,-1.19491 -5.64307,0.63844 -5.96343,0.56256 -5.21986,-1.21849 0.43574,-1.04372 1.00706,-2.88492 1.26959,-4.09177 0.27064,-1.24411 1.3719,-2.32658 2.54311,-2.49988 3.04792,-0.451 3.2468,-2.60817 0.36162,-3.92276 -2.00474,-0.91339 -3.35027,-0.81663 -6.59951,0.48347 -2.24451,0.89807 -5.48858,1.63514 -7.21269,1.63514 -2.97353,0 -3.05172,-0.097 -1.48184,-1.83167 1.95428,-2.15945 2.11897,-4.30759 0.45595,-5.97061 -0.88269,-0.88269 -1.83344,-1.24529 -2.56276,-1.13595 z m 10.2314,11.21799 c 0.6639,0.28357 -0.12628,6.35519 -1.12023,7.96343 -0.25753,0.41669 -2.01452,0.75468 -3.90703,0.75468 -2.60526,0 -3.44472,-0.42416 -3.45502,-1.74913 -0.008,-0.9625 -0.26304,-2.67305 -0.56601,-3.8009 -0.48547,-1.80725 -0.0481,-2.07881 3.69085,-2.29942 2.33339,-0.13768 4.67594,-0.51863 5.20414,-0.84508 0.0575,-0.0356 0.10904,-0.0425 0.1533,-0.0236 z m -0.39306,14.72016 c -2.26769,0 -1.85542,0.62004 3.94634,5.95096 3.56319,3.27405 6.7614,5.97615 7.10655,6.00205 1.44252,0.10845 2.98818,-3.00288 2.40554,-4.83859 -0.73777,-2.32452 -9.79795,-7.11442 -13.45843,-7.11442 z m -12.58584,0.0707 c -0.9067,0.0548 -1.47257,0.78386 -1.67052,2.17757 -0.21221,1.4942 -1.90045,3.1035 -5.02333,4.78749 -2.5863,1.39466 -5.06026,2.91828 -5.49893,3.38819 -1.29775,1.39013 9.3323,-0.18077 12.57798,-1.85918 3.81992,-1.97538 5.0365,-5.42561 2.5549,-7.2402 -0.99675,-0.72884 -1.84305,-1.13996 -2.53132,-1.23421 -0.14339,-0.0196 -0.27926,-0.0275 -0.40878,-0.0197 z" /><path
         id="path5615"
         style="display:inline;fill:#b0b0b0"
         d="m 641.82999,542.08982 c -2.7987,0.11823 -3.45016,1.51875 -0.65248,2.55097 2.43987,0.90021 3.2172,2.30547 3.2349,5.84876 0.0122,2.43874 -0.54188,3.25596 -2.73571,4.03282 -2.52295,0.89339 -2.83237,0.72087 -3.74981,-2.05965 -0.74324,-2.25255 -1.70593,-3.10977 -3.74981,-3.34495 -1.5125,-0.17403 -2.74751,0.16421 -2.74751,0.75075 0,0.58653 0.41167,1.06519 0.91584,1.06519 0.50416,0 1.56585,1.9115 2.35837,4.249 1.09952,3.24294 1.88923,4.17496 3.33316,3.93455 5.09269,-0.84791 5.89627,-0.65363 6.20252,1.49757 0.4663,3.27539 -2.86125,4.68309 -7.66864,3.24276 -4.62978,-1.38713 -7.80598,-0.10854 -8.71418,3.51004 -0.72127,2.87375 1.06115,6.56413 3.17201,6.56413 2.03183,0 5.35738,-1.76152 8.25823,-4.37478 l 2.35837,-2.12253 1.51329,2.24831 c 2.31134,3.43704 4.05528,2.73704 4.98795,-2.00068 0.65191,-3.31141 1.32662,-4.3184 3.05803,-4.56738 1.94638,-0.2799 2.22473,0.12969 2.22473,3.30565 0,4.23612 -3.06793,7.52385 -12.25174,13.14006 -3.1625,1.93394 -5.7505,3.68578 -5.7505,3.89131 0,0.20554 2.36381,-0.32709 5.25131,-1.18312 11.77505,-3.4908 17.08795,-8.07138 16.57935,-14.29566 -0.28092,-3.43787 -0.19687,-3.53189 2.9401,-3.22703 2.29205,0.22275 3.23097,-0.10147 3.23097,-1.12416 0,-2.83546 -2.81933,-3.94029 -8.93037,-3.49825 -5.09628,0.36863 -6.00493,0.17264 -6.41083,-1.37965 -0.63927,-2.44458 0.58525,-3.00732 5.83303,-2.68461 5.14077,0.31613 6.33962,-0.41648 4.43767,-2.7082 -1.03055,-1.24172 -2.37555,-1.48912 -5.64044,-1.04161 -3.76529,0.51609 -4.2883,0.35142 -4.2883,-1.33248 0,-1.59434 0.54906,-1.83604 3.25062,-1.44254 1.7875,0.26036 3.91993,0.0243 4.74033,-0.52277 2.31649,-1.54464 -0.14613,-3.28022 -4.11536,-2.9008 -2.57155,0.24583 -3.6194,-0.15547 -4.39836,-1.67837 -0.68928,-1.34756 -2.24094,-2.10208 -4.75212,-2.3112 -0.48379,-0.0403 -0.92481,-0.0485 -1.32462,-0.0314 z m -5.44784,23.85492 c 1.3718,-0.0397 1.02518,0.35617 -0.38127,1.91029 -2.34987,2.59658 -5.85892,2.8115 -5.38887,0.33017 0.22401,-1.18247 1.4566,-1.86002 3.8009,-2.08323 0.86397,-0.0823 1.51198,-0.14398 1.96924,-0.15723 z m 4.22935,19.01634 c -0.73839,0.0519 -1.17878,0.53516 -0.84115,1.41502 0.52766,1.37505 -2.5686,4.65121 -8.36436,8.85175 l -2.47629,1.79629 4.12715,-0.53849 c 3.97412,-0.51703 4.14781,-0.4195 4.74819,2.58242 1.44286,7.21425 1.48617,7.17159 -7.37777,6.65846 -4.4,-0.25471 -7.99881,-0.1873 -7.99881,0.14937 0,0.33666 0.70034,1.6116 1.55652,2.83397 1.84117,2.62864 4.72026,2.79645 12.44434,0.72324 6.11031,-1.64008 20.39603,-1.94038 26.37052,-0.55422 6.37004,1.47794 9.04559,-1.13862 4.45339,-4.35513 -1.64685,-1.15346 -3.6286,-1.37063 -8.16782,-0.89618 -5.43723,0.5683 -5.93227,0.46206 -5.32206,-1.12808 0.36997,-0.96413 0.93748,-2.79589 1.2578,-4.07213 0.33834,-1.34804 1.59309,-2.57249 2.99513,-2.92438 3.1074,-0.77988 3.07439,-2.30928 -0.0786,-3.74587 -1.96609,-0.89582 -3.28169,-0.80289 -6.24968,0.44809 -2.06774,0.87154 -5.78323,1.81076 -8.25823,2.08715 l -4.50056,0.50312 2.74751,-2.01247 c 2.92496,-2.14255 3.5194,-4.6838 1.55259,-6.65061 -0.84425,-0.84425 -1.8794,-1.22321 -2.61779,-1.17132 z m 10.11741,11.53243 c 0.30754,0.008 0.50226,0.0294 0.55029,0.0629 0.19211,0.13385 0.0399,2.07089 -0.33804,4.30796 -0.66672,3.94625 -0.8032,4.06819 -4.59882,4.06819 -3.28693,0 -3.9149,-0.32795 -3.9149,-2.06358 0,-1.13616 -0.4414,-2.89568 -0.98265,-3.90703 -0.88706,-1.65748 -0.46893,-1.87825 4.249,-2.24438 2.15906,-0.16758 4.11249,-0.24944 5.03512,-0.22405 z m -12.79023,14.4804 c -0.80424,-0.0365 -1.27601,0.4072 -0.9119,1.35606 0.52263,1.36203 -5.23327,6.60344 -7.252,6.60344 -0.53047,0 -1.8371,0.66254 -2.90472,1.47005 -1.84658,1.39672 -1.79651,1.46874 1.05733,1.49364 4.68219,0.0409 10.31982,-1.85396 12.50723,-4.20183 2.40417,-2.58058 2.45388,-3.15905 0.42451,-5.18842 -0.97669,-0.97668 -2.11621,-1.49641 -2.92045,-1.53294 z m 12.44434,0.22011 c -0.58907,0.005 -0.95514,0.10678 -0.95514,0.30659 0,0.39961 2.58799,3.11421 5.75049,6.0335 3.1625,2.91928 6.03424,5.3287 6.37939,5.3535 0.34516,0.0248 1.18465,-0.62816 1.86705,-1.4504 2.5273,-3.04518 -3.17691,-8.33402 -10.74631,-9.96411 -0.89375,-0.19247 -1.70642,-0.28392 -2.29548,-0.27908 z" /><path
         id="path5613"
         style="display:inline;fill:#8e8e8e"
         d="m 642.78513,542.04659 c -2.77393,0.0749 -4.05673,1.52971 -1.45826,2.35444 1.18718,0.3768 2.35315,1.83072 2.68461,3.34888 0.32222,1.47584 0.7568,3.24352 0.96694,3.92669 0.32197,1.04674 -5.4309,5.03034 -5.892,4.07998 -2.3677,-4.88004 -3.59313,-6.37649 -5.43998,-6.64274 -2.4169,-0.34843 -3.06331,1.28311 -0.84508,2.13432 0.75555,0.28994 1.67424,2.12254 2.03999,4.07212 0.84333,4.4953 1.81808,5.06298 5.45963,3.17987 2.63362,-1.36189 2.99299,-1.35933 3.5297,0.0393 1.86164,4.85142 -1.61048,7.30477 -7.55858,5.34171 -3.59071,-1.18504 -4.04483,-1.10981 -6.35581,1.06127 -2.86088,2.68763 -3.16609,5.17079 -0.91584,7.421 2.26389,2.26389 3.91499,1.95819 7.77477,-1.43074 4.03502,-3.54282 5.20469,-3.70724 6.68598,-0.93942 1.56062,2.91604 3.27042,1.92243 4.54379,-2.64137 0.87376,-3.13157 1.61911,-3.98063 3.70658,-4.22935 2.49202,-0.29691 2.58436,-0.13673 2.07143,3.49825 -0.62235,4.41041 -4.80268,8.70513 -13.09682,13.45058 -2.89209,1.65469 -5.25917,3.17534 -5.25917,3.38033 0,0.88853 10.87918,-2.90607 14.75948,-5.14911 5.33875,-3.08613 7.50043,-6.31281 7.07511,-10.5655 -0.31795,-3.17906 -0.21178,-3.29347 2.91652,-2.9912 2.38579,0.23053 3.25062,-0.0921 3.25062,-1.21456 0,-2.46998 -3.89199,-3.85459 -9.51603,-3.3882 -4.16718,0.34558 -5.44367,0.0848 -6.29685,-1.28138 -1.53695,-2.46105 -0.58131,-2.92831 5.97847,-2.92831 3.20833,0 5.83304,-0.43235 5.83304,-0.963 0,-1.7774 -3.6823,-2.96274 -7.35812,-2.36623 -3.23328,0.52469 -3.63975,0.35163 -3.63975,-1.54081 0,-1.86448 0.57262,-2.13039 4.5831,-2.13039 3.23182,0 4.45328,-0.36854 4.1468,-1.24994 -0.2562,-0.73679 -2.0718,-1.21905 -4.42194,-1.17525 -3.11714,0.0581 -4.18494,-0.37896 -4.89755,-2.00069 -0.55099,-1.25392 -2.0453,-2.20323 -3.78126,-2.40161 -0.45018,-0.0514 -0.87724,-0.0697 -1.27352,-0.0589 z m 1.20277,22.88799 c 0.24254,0 0.44023,0.44837 0.44023,0.99837 0,0.55 -0.47488,1.00231 -1.05734,1.00231 -0.58246,0 -0.78015,-0.45231 -0.44023,-1.00231 0.33992,-0.55 0.8148,-0.99837 1.05734,-0.99837 z m -8.5884,1.10843 c 2.48268,-0.0567 2.56619,0.76373 0.27907,2.49987 -2.58199,1.96004 -5.46706,1.75652 -5.06656,-0.35768 0.21834,-1.15255 1.43788,-1.8572 3.57293,-2.06358 0.45259,-0.0437 0.85989,-0.0705 1.21456,-0.0786 z m 5.0194,18.82766 c -0.5249,0.0231 -0.7792,0.44818 -0.41272,1.40323 0.47348,1.23385 -4.512,6.36516 -9.15834,9.42563 -1.66017,1.09349 -1.36083,1.18504 2.19329,0.68392 3.98664,-0.56211 4.12973,-0.48236 4.74819,2.60993 1.23371,6.16871 0.96741,6.69873 -3.61224,7.16159 -2.3375,0.23625 -5.75489,0.0219 -7.59396,-0.47167 -4.20776,-1.12929 -4.86432,-0.48067 -2.76715,2.71998 1.91069,2.91607 3.66675,3.08237 11.46954,1.08879 6.98929,-1.78575 17.36325,-2.22372 26.89329,-1.13202 6.3311,0.72524 7.24806,0.62986 7.24806,-0.7704 0,-2.81092 -4.91493,-4.52152 -10.49868,-3.65155 -2.75,0.42843 -5.20554,0.58643 -5.4557,0.34983 -0.25016,-0.2366 0.074,-1.82795 0.71931,-3.53756 0.64527,-1.7096 0.95816,-3.4588 0.69571,-3.88345 -0.26241,-0.42465 0.87652,-1.0673 2.53132,-1.43075 3.71966,-0.81695 3.85634,-2.23039 0.3459,-3.56507 -1.96633,-0.7476 -3.466,-0.64236 -5.74657,0.40486 -1.69823,0.77982 -5.28681,1.64889 -7.97129,1.92993 l -4.88183,0.51098 2.8497,-2.26797 c 2.57531,-2.05345 2.7315,-2.52188 1.65086,-4.89362 -0.74695,-1.63935 -2.37186,-2.72316 -3.24669,-2.68461 z m 9.90123,11.21799 c 0.89481,-0.0359 1.10519,0.50073 1.09664,1.9771 -0.008,1.30165 -0.28547,3.381 -0.61711,4.61847 -0.50818,1.89629 -1.28867,2.24832 -4.95651,2.24832 -3.2063,0 -4.21946,-0.34655 -3.84414,-1.32462 0.28018,-0.73015 0.0557,-2.53152 -0.50312,-4.00137 -0.97066,-2.55302 -0.87211,-2.67554 2.20901,-2.68854 1.77386,-0.008 4.23785,-0.28154 5.47535,-0.61318 0.46787,-0.12538 0.8416,-0.20423 1.13988,-0.21618 z m -11.62284,15.22721 c -0.64605,-0.0144 -1.23086,0.60018 -1.78057,1.83953 -0.5438,1.22606 -2.39811,3.13942 -4.11929,4.25293 -1.72118,1.11351 -3.97093,2.6056 -4.99975,3.31351 -1.61095,1.10846 -1.24884,1.20494 2.59028,0.70358 8.01637,-1.04688 12.66875,-4.68717 10.46331,-8.18354 -0.80078,-1.26949 -1.50793,-1.91159 -2.15398,-1.92601 z m 11.13544,0.0157 c -0.0977,0.009 -0.16165,0.028 -0.1926,0.059 -0.2476,0.2476 1.9636,2.71584 4.9172,5.48322 3.20147,2.99956 6.14569,4.93555 7.2913,4.79535 5.28338,-0.64658 0.67201,-7.03602 -6.64668,-9.20944 -2.46163,-0.73102 -4.68554,-1.19047 -5.36922,-1.12809 z" /><path
         id="path5611"
         style="display:inline;fill:#6f6f6f"
         d="m 643.06814,541.99156 c -1.18437,-0.0625 -2.29456,0.19953 -2.95976,0.86473 -0.77091,0.77091 -0.62878,1.07699 0.49919,1.07699 2.18164,0 3.52552,1.8809 4.29616,6.00599 0.61101,3.27049 0.43707,3.58827 -2.5942,4.73246 -1.78726,0.67462 -3.27722,1.12239 -3.31352,0.99445 -0.80583,-2.84263 -3.63254,-6.30481 -5.34957,-6.55234 -2.43544,-0.35111 -3.05647,1.28548 -0.81363,2.14611 0.77311,0.29668 1.71631,1.9508 2.09501,3.67513 0.80332,3.6575 2.7032,4.68179 5.93917,3.20739 1.99061,-0.90699 2.46424,-0.71569 3.41178,1.36392 0.95782,2.10219 0.77584,2.62618 -1.41896,4.06426 -2.19612,1.43895 -3.03516,1.48589 -6.48945,0.3459 -3.70821,-1.22383 -4.12679,-1.16051 -6.45407,1.02589 -2.86088,2.68763 -3.16609,5.17079 -0.91584,7.421 2.26389,2.26389 3.91499,1.95819 7.77477,-1.43074 4.03502,-3.54282 5.20469,-3.70723 6.68598,-0.93942 1.55634,2.90806 3.14064,1.97191 4.42194,-2.61779 0.89627,-3.21048 1.60207,-3.99911 3.82056,-4.25686 2.44383,-0.28393 2.72392,-9.8e-4 2.72392,2.76322 0,3.93058 -4.42615,8.75444 -12.49936,13.6196 -5.43146,3.27312 -5.6682,3.54662 -2.49988,2.90866 5.54044,-1.11563 13.75803,-5.35008 16.0723,-8.28575 1.61932,-2.0541 1.99549,-3.59883 1.60369,-6.53662 l -0.51098,-3.84414 3.41571,0.64069 c 2.66453,0.49987 3.41964,0.30866 3.41964,-0.86867 0,-2.50474 -3.92357,-3.87134 -9.48065,-3.29779 -4.32547,0.44643 -5.34252,0.23107 -6.33616,-1.35999 -0.65097,-1.04238 -1.18312,-2.12701 -1.18312,-2.40947 0,-0.28246 2.92625,-0.51491 6.50125,-0.51491 3.57497,0 6.49731,-0.42854 6.49731,-0.95121 0,-1.7582 -3.30285,-2.8175 -7.16552,-2.29941 -3.3784,0.45314 -3.83235,0.2672 -3.83235,-1.56046 0,-1.7253 0.71384,-2.12618 4.249,-2.38195 5.22021,-0.3777 5.13194,-2.37396 -0.0943,-2.13826 -2.98289,0.13453 -3.94794,-0.27639 -4.70495,-2.00068 -0.66142,-1.50654 -2.83715,-2.50571 -4.81107,-2.60993 z m 0.73895,23.33215 c 0.36444,0.0123 0.62104,0.40638 0.62104,1.04947 0,1.75653 -0.60102,2.01594 -1.45826,0.6289 -0.31643,-0.512 -0.11481,-1.21105 0.44416,-1.55652 0.13974,-0.0864 0.27158,-0.12594 0.39306,-0.12185 z m -9.33129,0.20439 c 0.33146,10e-4 0.66645,0.0429 0.99838,0.12971 1.07443,0.28098 1.95352,0.89615 1.95352,1.36785 0,0.47173 -1.35884,1.55898 -3.01872,2.41734 -2.77152,1.43319 -3.06751,1.42452 -3.6594,-0.11792 -0.71279,-1.8575 1.40602,-3.8045 3.72622,-3.79698 z m 5.72691,19.42512 c -0.0873,-0.005 -0.16524,0.003 -0.2319,0.0196 -0.31999,0.0803 -0.38265,0.40895 -0.004,1.02196 0.80361,1.30027 -1.72796,4.25276 -7.03974,8.21106 -4.02411,2.99872 -3.65813,3.23913 2.46057,1.61548 1.02401,-0.2717 1.83221,1.08388 2.71999,4.55952 0.69482,2.72034 1.14015,5.06629 0.99051,5.21593 -0.71126,0.71122 -11.48782,0.6661 -13.91832,-0.059 -3.28795,-0.98074 -3.54309,0.16798 -0.71144,3.20739 2.41918,2.59669 3.37086,2.65446 11.00573,0.67606 6.93801,-1.7978 19.03318,-2.26228 27.703,-1.06519 6.64437,0.91742 7.73717,0.20614 4.55559,-2.97548 -1.38789,-1.38788 -2.86912,-1.59023 -8.1128,-1.10057 l -6.41477,0.59745 0.67607,-2.71999 c 0.37169,-1.49752 0.74303,-3.54004 0.82543,-4.53986 0.0933,-1.1316 1.20208,-2.03121 2.93617,-2.37803 3.4455,-0.6891 3.57742,-2.05479 0.31838,-3.29385 -1.70097,-0.64671 -3.48703,-0.52345 -5.7505,0.39306 -1.80558,0.73112 -5.48621,1.61243 -8.17961,1.96138 l -4.89755,0.63676 2.64923,-2.45271 c 3.06345,-2.83912 3.23627,-3.81526 1.07306,-5.97847 -0.96688,-0.96688 -2.04214,-1.51961 -2.65317,-1.55259 z m 10.47117,11.03717 c 0.97032,-0.0342 0.9027,0.80072 0.49133,3.86773 -0.31273,2.33153 -0.7203,4.36631 -0.90404,4.52021 -0.18374,0.15391 -2.27942,0.52947 -4.65779,0.83329 -3.38583,0.43252 -4.20878,0.25711 -3.8009,-0.80577 0.28651,-0.74663 0.12456,-2.73258 -0.35769,-4.41409 -0.84638,-2.95116 -0.76642,-3.06054 2.30334,-3.07374 1.7491,-0.008 4.26001,-0.30282 5.58148,-0.65642 0.57944,-0.15504 1.02083,-0.2598 1.34427,-0.27121 z m -0.63676,15.49843 c -1.13055,0.0814 -1.03012,0.72279 0.88832,1.81201 1.09727,0.623 3.55296,2.81933 5.45963,4.88183 4.01541,4.3436 7.04367,4.94977 7.04367,1.40716 0,-3.06079 -2.37848,-5.07286 -8.38401,-7.0869 -1.89392,-0.63515 -3.44125,-0.95863 -4.44946,-1.0141 -0.21004,-0.0116 -0.39664,-0.0116 -0.55815,0 z m -11.85081,0.0354 c -0.55046,0.0282 -0.83252,0.56368 -1.13202,1.75698 -0.36166,1.44098 -2.46409,3.33562 -5.60113,5.04298 -2.76327,1.50396 -5.02333,2.93134 -5.02333,3.17201 0,1.44938 11.03008,-1.27933 13.23439,-3.2742 2.30825,-2.08894 2.24576,-4.96053 -0.13364,-6.23396 -0.58842,-0.31491 -1.014,-0.48073 -1.34427,-0.46381 z" /><path
         id="path5609"
         style="display:inline;fill:#4f4f4f"
         d="m 643.68131,541.90508 c -1.01284,-0.0229 -2.08295,0.26851 -3.08553,0.90405 -1.01565,0.64378 -0.84225,0.97504 0.73502,1.3875 2.06589,0.54024 4.09964,4.30956 4.09964,7.60182 0,1.05619 -1.29855,2.20471 -3.32138,2.93617 -4.46802,1.61567 -4.68136,1.56008 -4.68136,-1.17918 0,-2.95779 -2.39804,-5.06735 -4.7364,-4.16646 -1.63064,0.62823 -1.63695,0.75106 -0.0904,1.61942 0.91952,0.51626 1.97281,2.31357 2.34265,3.99743 0.79222,3.60695 2.5054,4.52015 5.48714,2.92438 1.78602,-0.95582 2.40318,-0.83623 3.54935,0.67607 2.00286,2.64264 1.77057,3.81675 -1.04948,5.32599 -1.96599,1.05218 -3.29252,1.09447 -6.21823,0.19653 -3.00177,-0.92127 -4.14144,-0.86102 -5.92345,0.30659 -3.07339,2.01379 -3.90994,5.2327 -1.926,7.42494 2.06315,2.27972 5.68092,1.6412 8.65915,-1.52902 2.78793,-2.96758 4.24897,-3.02222 6.10425,-0.22797 1.9144,2.88324 3.39611,1.76739 4.18218,-3.14843 0.58452,-3.65534 0.91623,-4.02102 3.63189,-4.02102 2.65677,0 2.98727,0.33446 2.98727,3.01479 0,3.85154 -4.47178,8.70759 -12.49936,13.57242 -4.54533,2.75454 -5.27171,3.47605 -2.99907,2.97155 1.65,-0.36628 5.77885,-1.9564 9.178,-3.5297 7.12592,-3.29823 9.89322,-7.15033 8.77707,-12.23208 -0.67063,-3.05336 -0.66599,-3.05772 2.93617,-2.38196 2.89976,0.544 3.60831,0.36556 3.60831,-0.89618 0,-2.22829 -4.74727,-3.77435 -9.86192,-3.21524 -3.37673,0.36913 -4.78637,0.0483 -6.24969,-1.41503 -1.03926,-1.03926 -1.88669,-2.11481 -1.88669,-2.38981 0,-0.275 3.18717,-0.49919 7.08297,-0.49919 5.21992,0 6.97412,-0.32878 6.67026,-1.24994 -0.24713,-0.74918 -2.64304,-1.36687 -5.97847,-1.54473 -4.96144,-0.26455 -5.51014,-0.51091 -5.05477,-2.25224 0.39607,-1.51466 1.38305,-1.95352 4.39443,-1.95352 2.88073,0 3.88345,-0.41004 3.88345,-1.58797 0,-1.28559 -0.72503,-1.46502 -3.8127,-0.94335 -3.41652,0.57721 -3.93664,0.37988 -4.9801,-1.91028 -0.74522,-1.63558 -2.26612,-2.54813 -3.9542,-2.58635 z m 0.9237,23.02557 c 0.12186,0.0248 0.23477,0.0815 0.3341,0.1808 0.2085,0.20851 0.0111,0.97953 -0.44023,1.70982 -0.53135,0.85973 -1.04695,0.95881 -1.46219,0.28694 -0.53418,-0.86431 0.71524,-2.35111 1.56832,-2.17756 z m -10.93105,0.58566 c 0.66859,-0.0447 1.42364,0.036 2.24438,0.25549 l 2.86935,0.7704 -3.0816,2.19328 c -3.77839,2.69046 -5.27882,2.78426 -5.27882,0.32231 0,-2.13106 1.24092,-3.40743 3.24669,-3.54148 z m 6.74101,19.49193 c -0.4885,-0.0123 -0.63222,0.55873 -0.33017,1.71375 0.33502,1.28113 -1.17951,3.01805 -5.34564,6.1357 -5.4311,4.06422 -5.09561,5.14712 0.81756,2.6453 1.287,-0.54449 1.76888,0.108 2.30335,3.12092 0.37172,2.09546 0.88808,4.53839 1.14774,5.42818 0.37242,1.27616 -0.53587,1.75238 -4.30403,2.25224 -2.62729,0.34852 -6.3233,0.18766 -8.21106,-0.35375 -4.42452,-1.26893 -4.9686,-0.60839 -2.05965,2.48808 2.72698,2.90274 2.83375,2.91308 9.77545,1.0652 8.64531,-2.30138 19.67129,-2.96081 26.23295,-1.56832 3.23819,0.6872 6.64707,0.95718 7.5743,0.60139 1.55192,-0.59552 1.53547,-0.80969 -0.20046,-2.72785 -1.68813,-1.86536 -2.59046,-2.01623 -8.61199,-1.42289 l -6.72528,0.66428 1.32461,-3.80877 c 0.72955,-2.09451 1.13074,-4.37121 0.89225,-5.05871 -0.28727,-0.82813 0.63388,-1.24993 2.73178,-1.24993 2.05078,0 3.02319,-0.4308 2.7593,-1.22243 -0.63117,-1.89352 -4.98519,-2.59269 -7.75904,-1.246 -1.375,0.66755 -5.198,1.51202 -8.498,1.8749 -5.99359,0.65907 -5.99769,0.65511 -3.2742,-1.09271 3.57485,-2.29419 4.20132,-4.18268 2.14218,-6.45801 -1.06264,-1.17419 -1.89345,-1.76824 -2.38195,-1.78057 z m 11.01359,10.85637 -0.0157,3.286 c -0.008,1.80644 -0.34668,3.77864 -0.75075,4.38264 -0.40408,0.604 -2.59791,1.38938 -4.8779,1.74519 l -4.1468,0.64462 -0.44416,-4.24506 c -0.24413,-2.33481 -0.40283,-4.29606 -0.35376,-4.35906 0.0491,-0.063 2.45031,-0.41767 5.33778,-0.78612 z m -2.1697,15.11323 5.33385,5.4046 c 5.92448,5.99992 8.83603,7.01156 8.83603,3.07374 0,-2.92455 -2.91677,-5.09096 -9.53568,-7.08297 z m -11.104,0.49919 c -0.53866,-10e-4 -0.73836,0.51564 -0.90797,1.70982 -0.21414,1.50771 -1.88286,3.07155 -5.06657,4.74818 -2.61087,1.375 -4.74618,2.82436 -4.74818,3.22311 -0.004,1.05483 5.93146,-0.18489 9.99556,-2.08716 4.12389,-1.93028 5.18074,-5.43475 2.13039,-7.06725 -0.63469,-0.33968 -1.08003,-0.52597 -1.40323,-0.5267 z" /><path
         id="path5607"
         style="display:inline;fill:#2f2f2f"
         d="m 644.32986,542.30994 c -0.24978,-0.0163 -0.5059,-0.0149 -0.7704,0.004 -0.70531,0.0499 -1.46059,0.22418 -2.23652,0.53456 -1.64249,0.65702 -1.86095,0.97846 -0.69965,1.02196 2.25505,0.0844 4.80715,3.87151 4.80715,7.13407 0,2.12871 -0.74879,2.91827 -3.94634,4.17432 l -3.94241,1.54866 -0.30659,-3.04622 c -0.16815,-1.67574 -1.07243,-3.52542 -2.00855,-4.11143 -2.47213,-1.54757 -3.25764,-0.12969 -1.3993,2.52346 0.8811,1.25791 1.59976,3.10082 1.59976,4.0957 0,2.38099 2.30943,3.18318 5.00368,1.74126 1.78602,-0.95582 2.40318,-0.83623 3.54935,0.67607 2.02088,2.66641 1.77238,3.70236 -1.3089,5.52252 -2.42484,1.4324 -3.15331,1.46048 -6.08459,0.22798 -3.87725,-1.63026 -6.7801,-0.59267 -8.09708,2.89293 -2.15109,5.69319 3.75602,7.51864 9.15441,2.83005 1.80664,-1.5691 3.90945,-2.63562 4.67351,-2.37017 0.80238,0.27876 1.11363,0.0348 0.73502,-0.5778 -0.36053,-0.58335 -0.17105,-1.36139 0.42451,-1.72947 1.64144,-1.01447 2.3923,0.29399 1.07699,1.87884 -1.34869,1.62503 -0.4115,4.91181 1.24601,4.36691 0.6197,-0.20374 1.35227,-2.13525 1.62727,-4.29223 0.45524,-3.57073 0.79076,-3.9519 3.74981,-4.23721 3.01116,-0.29033 3.25062,-0.0904 3.25062,2.67675 0,3.72643 -3.54889,8.05473 -10.06238,12.27532 -2.71523,1.7594 -4.93686,3.34733 -4.93686,3.5297 0,1.01462 3.37873,-0.0165 8.6002,-2.62566 7.01114,-3.5035 9.89885,-7.48867 8.85961,-12.22029 l -0.68393,-3.12091 3.67513,0.59746 c 3.06993,0.49816 3.62408,0.32296 3.35675,-1.0652 -0.47782,-2.48109 -6.24711,-3.79519 -11.04111,-2.5156 -3.59265,0.95894 -4.06083,0.87508 -4.50449,-0.8215 -0.27234,-1.04142 -1.20847,-1.89456 -2.07929,-1.89456 -1.15489,0 -1.28468,-0.29937 -0.47954,-1.1045 0.60713,-0.60713 3.84805,-1.12793 7.20089,-1.15953 4.39713,-0.0414 6.09639,-0.43368 6.09639,-1.3993 0,-0.95602 -1.57122,-1.33641 -5.49893,-1.33641 -3.025,0 -5.50287,-0.19057 -5.50287,-0.42058 0,-2.44031 1.65614,-3.58079 5.19235,-3.58079 2.74257,0 3.84441,-0.38779 3.54935,-1.24994 -0.26458,-0.7731 -1.79159,-1.12826 -3.99744,-0.93155 -2.85712,0.25478 -3.69295,-0.0823 -4.20576,-1.69803 -0.52876,-1.66594 -1.88734,-2.62922 -3.63583,-2.74357 z m -10.4122,23.03735 c 0.29823,-0.0248 0.61144,-0.0261 0.93548,0 0.37034,0.0299 0.75734,0.0966 1.15561,0.19653 l 2.76715,0.69572 -2.72785,2.34658 c -3.29033,2.83023 -5.62078,3.02641 -5.62078,0.47167 0,-2.14867 1.40278,-3.53673 3.49039,-3.7105 z m 6.34008,19.6413 c -0.41095,0.0724 -0.51912,0.5883 -0.16115,1.52115 0.57912,1.50914 -3.71077,5.86822 -9.07973,9.22909 -1.98956,1.24543 -1.96188,1.28141 0.56994,0.75468 1.4614,-0.30403 3.3284,-0.8086 4.15073,-1.12416 1.13456,-0.43537 1.76119,0.65956 2.59421,4.5438 0.60377,2.81528 1.09664,5.27904 1.09664,5.47535 0,1.02556 -10.27652,1.56195 -13.39947,0.69965 -3.84277,-1.06104 -3.94902,-0.57609 -0.71931,3.17594 1.0661,1.2385 2.38786,1.6522 4.09571,1.28531 1.38761,-0.29809 5.67391,-1.22351 9.52388,-2.05964 8.31906,-1.80671 15.53436,-1.95572 22.491,-0.46382 2.79925,0.60034 5.80832,0.81634 6.68598,0.47954 1.41861,-0.54437 1.38555,-0.84402 -0.29086,-2.6964 -1.68117,-1.85767 -2.59893,-2.01325 -8.47048,-1.43468 l -6.58772,0.64855 1.03375,-5.04691 c 0.94504,-4.6134 1.27321,-5.04298 3.83629,-5.04298 1.54136,0 2.80253,-0.43921 2.80253,-0.97873 0,-1.64132 -5.11366,-2.38081 -8.40367,-1.21456 -1.70444,0.6042 -5.57126,1.37265 -8.59626,1.70982 l -5.50286,0.61318 2.75143,-2.14612 c 2.92985,-2.28922 3.5076,-4.82531 1.54866,-6.78425 -0.84674,-0.84674 -1.55828,-1.2162 -1.96924,-1.14381 z m 11.17082,10.7581 -0.0157,3.34496 c -0.008,1.83911 -0.3577,3.88214 -0.77826,4.54379 -0.42056,0.66165 -2.61252,1.4982 -4.87004,1.85919 l -4.10357,0.65641 -0.45595,-4.35906 c -0.25012,-2.3976 -0.41462,-4.42132 -0.36555,-4.49662 0.0491,-0.0753 2.45031,-0.45236 5.33778,-0.84116 z m -2.1697,15.23115 5.33385,5.4046 c 5.4467,5.51606 8.84811,6.98093 8.82031,3.80091 -0.0295,-3.3735 -3.07411,-5.86903 -9.52389,-7.81014 z m -10.16065,1.22242 c -0.76073,0.0132 -1.59511,0.62312 -2.1697,1.89849 -0.54896,1.2185 -2.98453,3.25359 -5.40853,4.52414 l -4.40622,2.31121 3.40784,-0.004 c 5.23024,-0.002 10.40828,-2.97712 10.40828,-5.9824 0,-1.79653 -0.85359,-2.76449 -1.83167,-2.7475 z" /><path
         id="path5605"
         style="display:inline;fill:#040404"
         d="m 644.75044,543.03317 c -0.31936,-0.002 -0.67657,0.003 -1.07306,0.0157 -2.06253,0.0638 -3.02412,0.30959 -2.13825,0.54636 1.88801,0.50463 3.89131,4.46713 3.89131,7.70008 0,1.61127 -1.02664,2.75682 -3.53756,3.9542 -4.55234,2.17085 -4.46518,2.1938 -4.46518,-1.28138 0,-1.87181 -0.68737,-3.33465 -1.86705,-3.96599 -2.42556,-1.29814 -3.45228,-0.24491 -1.58403,1.62334 0.79878,0.79881 1.45039,2.558 1.45039,3.91097 0,3.00208 2.08042,3.95946 5.09408,2.34658 1.89356,-1.0134 2.45777,-0.9173 3.57687,0.61317 1.96965,2.69364 1.63408,4.21525 -1.27352,5.73871 -1.96114,1.02751 -3.53109,1.11741 -6.34795,0.36554 -4.67692,-1.24834 -6.808,-0.46992 -7.6254,2.78681 -1.54239,6.1454 3.29889,7.48831 8.98932,2.49201 l 3.4786,-3.05409 2.05571,2.05179 c 2.94287,2.94284 3.89261,2.56451 4.24507,-1.6941 0.29066,-3.51189 0.53471,-3.76714 3.89131,-4.04854 3.52564,-0.29557 3.57971,-0.24746 3.13664,2.99906 -0.53264,3.90285 -3.8584,7.75395 -10.70701,12.40897 -5.78262,3.93045 -5.54122,4.12106 1.76485,1.3875 7.45389,-2.78884 11.21775,-6.91559 11.08041,-12.15347 l -0.10612,-4.06426 3.43929,0.55815 c 4.1819,0.67863 4.08131,-1.14541 -0.17688,-3.21917 -2.18393,-1.0636 -3.86062,-1.14757 -7.29523,-0.36162 -4.00984,0.91759 -4.51247,0.83324 -4.95651,-0.86474 -0.27173,-1.03913 -1.11798,-1.89063 -1.87883,-1.89063 -0.76085,0 -1.38358,-0.38948 -1.38358,-0.86473 0,-1.18084 8.60465,-2.27384 11.72896,-1.48971 1.89803,0.47638 2.4155,0.28812 2.07144,-0.75467 -0.29578,-0.89649 -2.32719,-1.50132 -5.71512,-1.69803 -4.23142,-0.24568 -5.14107,-0.60297 -4.66957,-1.83167 0.32218,-0.83961 0.58566,-1.83875 0.58566,-2.2208 0,-0.38202 1.85599,-0.51495 4.12322,-0.29873 3.16103,0.30145 4.01067,0.0732 3.65547,-0.97479 -0.31868,-0.9403 -1.76104,-1.26098 -4.6224,-1.02982 -3.65689,0.29542 -4.1586,0.0811 -4.1586,-1.75306 0,-1.54387 -0.4412,-1.96858 -2.67675,-1.98496 z m -0.8215,21.90141 c 0.825,0 1.5015,0.67256 1.5015,1.49756 0,1.56157 -1.18416,1.98393 -2.33479,0.83329 -1.15064,-1.15063 -0.72828,-2.33085 0.83329,-2.33085 z m -10.29036,0.12578 c 0.89211,0.0183 1.94445,0.27223 3.1838,0.75861 1.74995,0.68673 1.6829,0.90888 -0.88439,2.92831 -4.40608,3.46581 -7.75125,2.3794 -5.51858,-1.79237 0.6961,-1.30066 1.73233,-1.92502 3.21917,-1.89455 z m 7.97523,21.18996 c -0.0997,-0.008 -0.20068,-10e-4 -0.29873,0.0236 -0.47066,0.11972 -0.90649,0.62681 -1.15167,1.56439 -0.28553,1.09189 -2.58365,3.43926 -5.10981,5.21986 -4.55868,3.21328 -5.65067,5.02913 -1.77663,2.95583 1.11092,-0.59456 2.45597,-1.08092 2.98727,-1.08092 1.20046,0 3.65119,9.84989 2.68854,10.80526 -0.38573,0.38281 -4.03655,0.66673 -8.1128,0.63283 -4.07623,-0.0339 -7.41314,0.15495 -7.41314,0.42058 0,0.26563 0.7714,1.3332 1.70981,2.37016 1.21829,1.3462 2.43272,1.69827 4.249,1.23422 14.04293,-3.58789 24.63001,-4.34864 32.5809,-2.34658 2.4334,0.61274 5.17065,0.8248 6.08067,0.4756 1.5086,-0.57892 1.48979,-0.81606 -0.20833,-2.69247 -1.6726,-1.8482 -2.56913,-1.98462 -8.78886,-1.35999 -6.49705,0.65247 -6.87806,0.57993 -6.18679,-1.17133 0.40528,-1.0267 0.98121,-3.33019 1.28138,-5.11766 0.44246,-2.63485 1.01076,-3.25062 2.99906,-3.25062 1.52386,0 2.29052,-0.47325 2.02427,-1.24994 -0.52088,-1.51943 -4.07107,-1.36891 -13.00249,0.55422 -7.29622,1.57101 -9.24174,0.91173 -5.16876,-1.75699 1.66732,-1.09247 2.44769,-2.40409 2.24438,-3.78126 -0.22598,-1.53076 -0.92916,-2.39099 -1.62727,-2.44877 z m 10.38862,9.45707 -0.39699,4.18217 c -0.31733,3.32754 -0.90026,4.36714 -2.85363,5.10981 -1.34951,0.51308 -3.50214,0.93549 -4.78356,0.93549 -2.00466,0 -2.3927,-0.5962 -2.77502,-4.25293 -0.2444,-2.3375 -0.37996,-4.34535 -0.30266,-4.46519 0.0773,-0.11985 2.60745,-0.51011 5.62472,-0.86473 z m -12.75092,16.3042 c -0.82111,0.0963 -1.7219,0.76886 -2.33479,2.15398 -0.54292,1.22698 -2.78796,3.28456 -4.98796,4.57524 l -4.00137,2.34658 4.29617,-0.59352 c 4.99224,-0.6934 8.00014,-2.33902 8.781,-4.79929 0.76337,-2.40516 -0.38457,-3.84342 -1.75305,-3.68299 z m 12.34607,0.10613 c -0.85875,0.15166 0.47349,1.47809 4.01316,4.77963 5.82397,5.43218 6.59198,5.79032 7.47603,3.48646 0.8394,-2.18746 -3.30403,-6.25616 -7.58216,-7.44459 -2.08627,-0.57955 -3.39178,-0.9125 -3.90703,-0.8215 z" /></g></g></svg>
