<?xml version="1.0" encoding="UTF-8" standalone="no"?>
<!-- Created with Inkscape (http://www.inkscape.org/) -->

<svg
   viewBox="0 0 39.200001 39.200001"
   version="1.1"
   id="svg1"
   inkscape:version="1.3.2 (091e20e, 2023-11-25, custom)"
   sodipodi:docname="Queen.svg"
   xml:space="preserve"
   xmlns:inkscape="http://www.inkscape.org/namespaces/inkscape"
   xmlns:sodipodi="http://sodipodi.sourceforge.net/DTD/sodipodi-0.dtd"
   xmlns="http://www.w3.org/2000/svg"
   xmlns:svg="http://www.w3.org/2000/svg"><sodipodi:namedview
     id="namedview1"
     pagecolor="#ffffff"
     bordercolor="#111111"
     borderopacity="1"
     inkscape:showpageshadow="0"
     inkscape:pageopacity="0"
     inkscape:pagecheckerboard="1"
     inkscape:deskcolor="#d1d1d1"
     inkscape:document-units="mm"
     showguides="true"
     inkscape:zoom="14.005102"
     inkscape:cx="19.6"
     inkscape:cy="19.6"
     inkscape:window-width="1292"
     inkscape:window-height="745"
     inkscape:window-x="-8"
     inkscape:window-y="-8"
     inkscape:window-maximized="1"
     inkscape:current-layer="svg1"><inkscape:page
       x="0"
       y="0"
       width="39.200001"
       height="39.200001"
       id="page42"
       margin="0"
       bleed="0" /></sodipodi:namedview><defs
     id="defs1"><inkscape:path-effect
       effect="powerstroke"
       id="path-effect13"
       is_visible="true"
       lpeversion="1.3"
       scale_width="1"
       interpolator_type="CubicBezierJohan"
       interpolator_beta="0.2"
       start_linecap_type="zerowidth"
       end_linecap_type="zerowidth"
       offset_points="5,4.9921382"
       linejoin_type="extrp_arc"
       miter_limit="4"
       not_jump="false"
       sort_points="true"
       message="&lt;b&gt;Ctrl + click&lt;/b&gt; on existing node and move it" /><inkscape:path-effect
       effect="powerstroke"
       id="path-effect47"
       is_visible="true"
       lpeversion="1.3"
       scale_width="1"
       interpolator_type="CubicBezierJohan"
       interpolator_beta="0.2"
       start_linecap_type="zerowidth"
       end_linecap_type="zerowidth"
       offset_points="20,4.9921382"
       linejoin_type="extrp_arc"
       miter_limit="4"
       not_jump="false"
       sort_points="true"
       message="&lt;b&gt;Ctrl + click&lt;/b&gt; on existing node and move it" /><inkscape:path-effect
       effect="fill_between_many"
       method="bsplinespiro"
       autoreverse="false"
       close="false"
       join="false"
       linkedpaths="#path41,0,1"
       id="path-effect45" /><inkscape:path-effect
       effect="powerstroke"
       id="path-effect41"
       is_visible="true"
       lpeversion="1.3"
       scale_width="1"
       interpolator_type="CubicBezierJohan"
       interpolator_beta="0.2"
       start_linecap_type="zerowidth"
       end_linecap_type="zerowidth"
       offset_points="14,4.9921382"
       linejoin_type="extrp_arc"
       miter_limit="4"
       not_jump="false"
       sort_points="true"
       message="&lt;b&gt;Ctrl + click&lt;/b&gt; on existing node and move it" /><inkscape:path-effect
       effect="powerstroke"
       id="path-effect38"
       is_visible="true"
       lpeversion="1.3"
       scale_width="1"
       interpolator_type="CubicBezierJohan"
       interpolator_beta="0.2"
       start_linecap_type="zerowidth"
       end_linecap_type="zerowidth"
       offset_points="17,4.9921382"
       linejoin_type="extrp_arc"
       miter_limit="4"
       not_jump="false"
       sort_points="true"
       message="&lt;b&gt;Ctrl + click&lt;/b&gt; on existing node and move it" /><inkscape:path-effect
       effect="powerstroke"
       id="path-effect35"
       is_visible="true"
       lpeversion="1.3"
       scale_width="1"
       interpolator_type="CubicBezierJohan"
       interpolator_beta="0.2"
       start_linecap_type="zerowidth"
       end_linecap_type="zerowidth"
       offset_points="20,4.9921382"
       linejoin_type="extrp_arc"
       miter_limit="4"
       not_jump="false"
       sort_points="true"
       message="&lt;b&gt;Ctrl + click&lt;/b&gt; on existing node and move it" /><inkscape:path-effect
       effect="fill_between_many"
       method="bsplinespiro"
       autoreverse="false"
       close="false"
       join="false"
       linkedpaths="#path31,0,1"
       id="path-effect34"
       is_visible="true"
       lpeversion="0" /><inkscape:path-effect
       effect="powerstroke"
       id="path-effect31"
       is_visible="true"
       lpeversion="1.3"
       scale_width="1"
       interpolator_type="CubicBezierJohan"
       interpolator_beta="0.2"
       start_linecap_type="zerowidth"
       end_linecap_type="zerowidth"
       offset_points="15,4.9921382"
       linejoin_type="extrp_arc"
       miter_limit="4"
       not_jump="false"
       sort_points="true"
       message="&lt;b&gt;Ctrl + click&lt;/b&gt; on existing node and move it" /><inkscape:path-effect
       effect="fill_between_many"
       method="bsplinespiro"
       autoreverse="false"
       close="false"
       join="false"
       linkedpaths="#path31,0,1"
       id="path-effect32"
       is_visible="true"
       lpeversion="0" /><inkscape:path-effect
       effect="fill_between_many"
       method="bsplinespiro"
       autoreverse="false"
       close="false"
       join="false"
       linkedpaths="#path34,0,1"
       id="path-effect36"
       is_visible="true"
       lpeversion="0" /><inkscape:path-effect
       effect="fill_between_many"
       method="bsplinespiro"
       autoreverse="false"
       close="false"
       join="false"
       linkedpaths="#path38,0,1"
       id="path-effect39"
       is_visible="true"
       lpeversion="0" /><inkscape:path-effect
       effect="fill_between_many"
       method="bsplinespiro"
       autoreverse="false"
       close="false"
       join="false"
       linkedpaths="#path41,0,1"
       id="path-effect42" /><inkscape:path-effect
       effect="fill_between_many"
       method="bsplinespiro"
       autoreverse="false"
       close="false"
       join="false"
       linkedpaths="#path47,0,1"
       id="path-effect48" /></defs><path
     style="fill:#fff29e;fill-opacity:1;fill-rule:evenodd;stroke:none;stroke-width:0.379687;stroke-linecap:round;stroke-linejoin:round;paint-order:stroke fill markers"
     d="m 105,168 9.76537,3.0624 L 119.35,199 H 90.649999 l 4.584644,-27.9376 z"
     id="path13"
     sodipodi:nodetypes="cccccc"
     transform="matrix(0.96515662,0,0,0.99999999,-81.741444,-165.5)" /><path
     style="display:inline;fill:#938e5e;fill-opacity:1;fill-rule:evenodd;stroke:none;stroke-width:0.386001;stroke-linecap:round;stroke-linejoin:round;stroke-dasharray:none;stroke-opacity:1;paint-order:stroke fill markers"
     d="m 90.649999,199 -3e-6,3.2 H 119.35 V 199 Z"
     id="path45"
     transform="matrix(0.96515662,0,0,0.99999999,-81.741444,-165.5)" /><g
     style="font-size:40px;white-space:pre;display:inline"
     id="g25"
     transform="matrix(0.28152303,0,0,0.28152303,5.4036642,-2.0400341)"><path
       id="path25-0"
       style="font-size:40px;-inkscape-font-specification:'Yuji Boku';white-space:pre;display:inline;fill:#d0d0d0;fill-opacity:1;stroke:none;stroke-width:1.45787;stroke-opacity:1"
       d="m 43.557758,25.648205 c -0.11663,0.311012 -0.334169,0.528551 -0.645181,0.64518 0,0.466518 0.120551,0.968089 0.353809,1.512358 0.233259,0.544272 0.467422,1.052779 0.700679,1.519296 0.11663,0.233259 0.213622,0.467421 0.291372,0.700679 0.116633,0.194383 0.190065,0.364802 0.228935,0.520307 0.155509,0.699776 0.252502,1.482629 0.291372,2.337911 0.07775,0.855282 0.04451,1.64782 -0.110999,2.386473 -0.11663,0.699775 -0.414535,1.168102 -0.881053,1.401359 -0.349887,0.155506 -0.931825,0.292679 -1.74823,0.409308 -0.777529,0.07775 -1.593626,0.117936 -2.44891,0.117936 -0.855281,0 -1.557768,-0.02356 -2.102038,-0.06244 -0.466518,-0.03888 -0.927904,-0.119243 -1.394422,-0.235873 l -1.283423,-0.464807 c -0.583147,-0.194382 -1.165083,-0.364801 -1.74823,-0.520307 -0.544271,-0.155509 -1.092962,-0.17907 -1.637232,-0.06244 0,0.777529 0.217539,1.423209 0.64518,1.928603 0.427642,0.466518 0.872405,0.911282 1.338923,1.338922 0.42764,0.388765 0.815599,0.800284 1.165487,1.227924 0.349892,0.388765 0.503687,0.873711 0.464807,1.456858 0.505394,0.07776 1.070707,0.05419 1.692731,-0.06244 0.622024,-0.11663 1.267703,-0.270425 1.928603,-0.464808 0.699776,-0.194382 1.378702,-0.348178 2.039602,-0.464807 0.699777,-0.11663 1.281714,-0.07644 1.74823,0.117936 -0.349888,1.166294 -0.931824,2.289984 -1.74823,3.378525 -0.816405,1.088541 -1.575698,2.138801 -2.275474,3.149589 -0.699777,1.010788 -1.087737,2.020865 -1.165487,3.031653 -0.77753,0.505394 -1.496639,1.070708 -2.157538,1.692731 -0.622024,0.622025 -1.244143,1.260767 -1.866167,1.921666 0.155505,0.07776 0.269121,0.101317 0.346871,0.06244 0.116629,-0.03888 0.213622,-0.09569 0.291372,-0.173436 0.155508,-0.07775 0.235872,-0.04451 0.235872,0.110999 -0.07775,0.272129 -0.295291,0.392679 -0.64518,0.353809 -0.311011,-0.03888 -0.538237,0.03455 -0.693742,0.228935 0.03887,0 0.135866,0.02356 0.291372,0.06244 0.155506,0.03888 0.309302,0.09569 0.464807,0.173436 0.155505,0.07775 0.212305,0.214925 0.173435,0.409308 L 33.35281,55.159997 c -0.155507,-0.07775 -0.309301,-0.117936 -0.464807,-0.117936 -0.116629,-0.03888 -0.237179,0.05812 -0.353808,0.291372 0.03888,0.155503 0.135866,0.212315 0.291371,0.173435 0.233256,-0.03888 0.370428,0.05812 0.409308,0.291372 -0.23326,0 -0.427238,0.0568 -0.582743,0.173436 -0.116629,0.07775 -0.237179,0.174741 -0.353809,0.291371 -0.155506,0.116629 -0.309301,0.213622 -0.464807,0.291372 -0.155506,0.07775 -0.366107,0.0445 -0.638243,-0.110999 l -0.180373,0.228935 c -0.07776,0.155507 -0.09438,0.349485 -0.0555,0.582744 -0.855282,0.03888 -1.453841,0.329844 -1.80373,0.874115 -0.311011,0.54427 -0.682346,1.029219 -1.109987,1.456858 -0.427641,0 -0.71861,-0.07343 -0.874115,-0.228935 0,0.349889 -0.290968,0.600673 -0.874116,0.756179 -0.544269,0.155506 -1.109583,0.309303 -1.69273,0.464808 -0.544271,0.116629 -0.818616,0.350792 -0.818616,0.700679 0.155507,0.03887 0.309301,0.06244 0.464807,0.06244 0.194383,-0.03887 0.371739,-0.07906 0.527244,-0.117936 0.194383,-0.03888 0.388361,-0.06244 0.582744,-0.06244 0.233258,-0.03888 0.450797,0.0013 0.64518,0.117936 0.155506,-0.03888 0.349484,-0.09568 0.582743,-0.173435 0.194383,-0.07775 0.348179,-0.09437 0.464807,-0.0555 0.155506,0 0.269122,0.153796 0.346872,0.464808 H 27.05363 c -0.116628,-0.03888 -0.213621,-0.06244 -0.291371,-0.06244 -0.155505,-0.03888 -0.292679,-0.0555 -0.409308,-0.0555 -0.11663,0 -0.230242,0.09699 -0.346871,0.291372 0.738652,0.03887 1.514568,0.02225 2.330973,-0.0555 0.816406,-0.07775 1.535516,-0.255109 2.157539,-0.527244 0.6609,-0.272135 1.08904,-0.643469 1.283423,-1.109988 0.466518,-0.31101 0.871097,-0.658786 1.220986,-1.04755 0.349887,-0.388765 0.721223,-0.736538 1.109987,-1.047551 0.07775,-0.07775 0.174743,-0.141493 0.291372,-0.180373 0.116629,-0.07775 0.213622,-0.134556 0.291372,-0.173436 0.194382,-0.07775 0.331558,-0.151185 0.409308,-0.228935 0.116623,-0.07775 0.173435,-0.238485 0.173435,-0.471744 0.388765,0.03888 0.63955,-0.01792 0.756179,-0.173436 1.707684,0.391245 1.837993,-0.12943 2.44891,1.109988 l 0.700679,1.04755 c 0.349889,0.583147 0.664422,1.165081 0.936552,1.748231 0.311014,0.583147 0.408002,1.24545 0.291372,1.984102 -0.272135,-0.03888 -0.586663,-0.03888 -0.936552,0 -0.349888,0 -0.714285,0.04018 -1.10305,0.117936 -0.660899,0.07775 -1.346762,0.134556 -2.046539,0.173436 -0.6609,0 -1.16247,-0.177355 -1.512358,-0.527244 -0.272135,0.427638 -0.603288,0.6618 -0.992051,0.700679 -0.349889,0.03887 -0.737846,0.06244 -1.165487,0.06244 h -0.818616 c -0.272136,0 -0.563103,0.04019 -0.874115,0.117936 0.816405,0.971912 1.712871,1.885 2.684782,2.740282 0.971911,0.855281 2.249398,1.413658 3.843332,1.685794 0.311012,-0.311013 0.682345,-0.57842 1.109987,-0.811679 0.466518,-0.233259 0.934842,-0.313622 1.401359,-0.235872 0.116629,1.477306 -0.07735,3.012512 -0.582743,4.606448 -0.466518,1.593933 -0.951465,3.055712 -1.456859,4.377513 -0.194383,0.505393 -0.388361,0.99034 -0.582743,1.456859 -0.155506,0.466517 -0.276059,0.871098 -0.353809,1.220986 0.116629,0.194384 0.237179,0.291371 0.353809,0.291371 0.155505,0 0.309302,-0.01663 0.464807,-0.0555 0.194379,-0.03887 0.314929,-0.03887 0.353809,0 0.660899,-0.466517 1.202654,-0.871097 1.630294,-1.220986 0.427641,-0.349889 0.775416,-0.721223 1.04755,-1.109988 0.777531,-1.127417 1.553445,-2.50883 2.330974,-4.14164 0.777529,-1.632812 1.205673,-3.709773 1.283423,-6.236743 0.738653,0 1.481322,-0.04019 2.219975,-0.117936 l 2.330974,-0.235872 c 1.360676,-0.155505 2.678345,-0.276059 3.961267,-0.353809 1.321799,-0.116629 2.532794,-0.03626 3.621335,0.235873 0.07775,0.544269 0.110998,1.133143 0.110998,1.755168 0,0.622023 -0.01663,1.277388 -0.0555,1.977165 -0.03888,0.466517 -0.0555,0.934842 -0.0555,1.401359 v 1.456858 c 0.03888,0.816406 0.09569,1.826483 0.173435,3.031654 0.07775,1.244045 0.271732,2.374674 0.582744,3.385462 0.311011,1.049664 0.819519,1.72859 1.519295,2.039602 0.971911,-0.816406 1.570472,-1.947034 1.803729,-3.385462 0.272135,-1.399552 0.409308,-2.894578 0.409308,-4.488512 0,-0.427642 -0.01663,-0.832223 -0.0555,-1.220986 v -1.283423 c -0.03888,-0.816406 -0.06244,-1.632505 -0.06244,-2.44891 0,-0.855282 0.04019,-1.654757 0.117936,-2.393411 0.816406,-0.116633 1.592322,-0.156816 2.330974,-0.117936 l 2.213038,0.117936 c 0.777529,0.07775 1.560381,0.134556 2.337911,0.173436 0.816405,0.03888 1.672688,-0.01794 2.566846,-0.173436 0.03888,-0.155506 0.135866,-0.29268 0.291371,-0.409308 0.116633,-0.07775 0.190065,-0.151185 0.228935,-0.228935 0.03888,-0.116629 0.02225,-0.277361 -0.0555,-0.471744 -1.3218,-1.127417 -2.816825,-1.960139 -4.488512,-2.504409 -1.671688,-0.544267 -3.247079,-0.835236 -4.724384,-0.874116 0.194383,-1.166293 0.04059,-2.102942 -0.464807,-2.802718 -0.505394,-0.738652 -1.191259,-1.337212 -2.04654,-1.80373 -2.679946,-1.461788 -3.339074,-2.097463 -3.267525,-2.36566 0.329954,-0.01655 0.663715,-0.02775 0.998988,-0.02775 3.39769,-0.432088 5.676724,1.6739 7.929473,4.023705 0.894159,0.777529 2.114839,1.383025 3.669896,1.810667 1.593934,0.388763 3.289876,0.63955 5.078193,0.756179 0.272135,-0.311012 0.636534,-0.528551 1.10305,-0.645181 0.505395,-0.155506 0.893353,-0.366108 1.165487,-0.638242 0.03888,-0.233259 0.06244,-0.427238 0.06244,-0.582744 0.03887,-0.194383 0.0555,-0.348177 0.0555,-0.464807 v -0.409308 c 0,-0.155507 0.04019,-0.309301 0.117936,-0.464807 -0.272134,-0.427645 -0.579727,-0.798976 -0.929614,-1.109988 -0.349903,-0.311046 -0.56743,-0.779335 -0.64518,-1.401359 -0.6609,-0.505393 -1.299643,-1.047148 -1.921666,-1.630294 -0.583147,-0.583147 -1.068094,-1.24545 -1.456859,-1.984103 -0.816405,-0.699775 -1.769677,-1.241529 -2.858217,-1.630294 -1.088541,-0.42764 -2.178985,-0.839159 -3.267526,-1.227923 -1.088541,-0.427641 -2.058435,-0.952771 -2.913717,-1.574795 -0.583147,-0.42764 -1.051471,-0.952772 -1.401359,-1.574795 -0.349889,-0.6609 -0.931825,-1.06548 -1.748231,-1.220986 -0.311011,-0.583147 -0.72253,-1.051472 -1.227923,-1.401359 -0.505395,-0.349889 -1.030526,-0.697662 -1.574795,-1.047551 -0.54427,-0.349888 -1.029217,-0.80159 -1.456859,-1.34586 1.827195,-0.233259 3.693554,-0.346871 5.5985,-0.346871 1.943823,-0.03888 3.753376,0.0013 5.425064,0.117936 0.07775,-0.11663 0.151185,-0.213621 0.228934,-0.291371 0.116629,-0.07775 0.22056,-0.174743 0.29831,-0.291372 0.272134,-0.233258 0.482736,-0.490981 0.638242,-0.763117 0.155505,-0.311011 0.0017,-0.779334 -0.464807,-1.401359 -0.971911,-0.660899 -2.005549,-1.105663 -3.09409,-1.338922 -1.088541,-0.233258 -2.195608,-0.346871 -3.323025,-0.346871 -0.777529,0 -1.553444,0.04019 -2.330974,0.117936 -0.777529,0.03888 -1.56038,0.112306 -2.337911,0.228935 l -2.795781,0.235872 c -0.933035,0.07775 -1.862746,0.09438 -2.795781,0.0555 0.07775,-0.427641 0.151185,-1.049762 0.228935,-1.866167 0.07775,-0.816405 0.311915,-1.478709 0.70068,-1.984102 -0.855282,-1.399549 -1.962348,-2.539866 -3.323025,-3.434024 -1.360676,-0.933035 -2.661722,-1.909867 -3.905768,-2.920655 z m 7.867036,14.464525 c 0.933035,1.477305 1.92649,2.932148 2.976154,4.370575 1.088541,1.399553 2.098618,2.683975 3.031653,3.850269 0.933036,1.166294 1.692328,2.102943 2.275474,2.802719 l 0.936552,1.04755 C 60.372491,52.106093 60.081523,52.009101 59.770512,51.892472 59.4595,51.775843 59.104789,51.63867 58.716024,51.483164 57.744113,51.0944 56.693852,50.723065 55.566434,50.373176 54.439018,49.984409 53.372134,49.81399 52.361346,49.85287 52.555728,48.764329 52.401935,47.811057 51.896538,46.994652 51.43002,46.178247 50.78434,45.49932 49.967935,44.95505 c -0.816405,-0.544271 -1.59232,-0.972411 -2.330974,-1.283423 -0.116628,-0.388764 -0.03626,-0.85709 0.235873,-1.401359 0.272135,-0.544271 0.539542,-1.052778 0.811678,-1.519296 0.155502,-0.194382 0.252492,-0.348178 0.291372,-0.464807 0.349889,-0.07775 0.761405,-0.117936 1.227924,-0.117936 0.466516,0 0.871097,-0.01662 1.220986,-0.0555 z m -4.953319,4.19714 c 0.42764,0.971911 0.74217,2.078978 0.936552,3.323025 0.233258,1.20517 0.306684,2.158441 0.228934,2.858217 -1.088539,0.03888 -2.098618,0.152489 -3.031653,0.346872 -0.894158,0.194383 -1.904235,0.298309 -3.031653,0.298309 0.233259,-0.311012 0.484043,-0.665725 0.756179,-1.054488 0.272135,-0.427642 0.603288,-0.638243 0.992051,-0.638243 -0.03887,-0.194383 -0.03887,-0.348179 0,-0.464807 0.03887,-0.155506 0.07906,-0.276059 0.117936,-0.353809 0.03887,-0.116628 0.07906,-0.213622 0.117937,-0.291372 0.03887,-0.116629 0.03887,-0.253802 0,-0.409308 0.427637,0.07775 0.661799,0.02094 0.700679,-0.173435 0.07775,-0.233258 0.07775,-0.450798 0,-0.64518 h 0.874115 c -0.194385,-0.272134 -0.258123,-0.442557 -0.180373,-0.520307 0.07775,-0.116629 0.198302,-0.213622 0.353809,-0.291372 0.116629,-0.03888 0.213622,-0.09569 0.291372,-0.173435 0.116625,-0.07775 0.196992,-0.174743 0.235872,-0.291372 -0.03888,-0.155509 -0.119244,-0.195686 -0.235872,-0.117936 -0.194383,0.07775 -0.348178,0.03757 -0.464808,-0.117936 0.23326,-0.194382 0.467421,-0.404984 0.70068,-0.638243 z m -6.063307,8.283281 c 0.388764,0.738654 0.930518,1.206977 1.630294,1.401359 0.699776,0.194384 1.418886,0.291372 2.157538,0.291372 h 0.291372 c 0.622023,0 1.22752,0.03325 1.810667,0.110999 0.583147,0.03888 1.108277,0.216233 1.574795,0.527244 v 0.992051 c -0.03888,0.738652 -0.03888,1.497945 0,2.275475 0.07541,1.508009 0.94624,3.496736 1.387484,3.905768 -1.603214,0.115668 -2.896962,0.0555 -4.537074,0.0555 0.388764,-1.438428 0.211411,-2.625862 -0.527244,-3.558897 -0.699775,-0.894159 -1.741793,-1.51353 -3.024715,-1.824542 -3.598807,-1.249355 -3.188944,-1.962374 -0.763117,-4.176328 z m 13.486348,1.290361 c 0.306571,0.616229 1.66366,2.246719 1.734355,2.670907 0.155506,0.777529 0.292678,1.617189 0.409308,2.511347 0.15551,0.855283 0.154057,1.740755 0.07631,2.518284 -2.086115,0.07726 -3.842594,0.353805 -5.695623,0.548056 0.40683,-0.726555 0.997848,-2.447677 1.304235,-3.711521 0.31101,-1.282921 0.367817,-2.583968 0.173435,-3.905768 0.654553,-0.311691 1.318365,-0.519676 1.997978,-0.631305 z m 8.477529,27.451377 c -1.471049,0.02442 -3.210141,0.306978 -5.119817,0.874116 -5.969823,1.772806 -20.119571,2.137347 -23.011428,0.58968 -2.964901,-1.586766 -3.232315,0.500068 -0.423182,3.309151 2.521789,2.521799 9.397655,4.466575 11.405121,3.225901 0.642084,-0.396825 1.033676,0.716428 1.033676,2.920654 v 3.558898 h -6.507302 c -7.289758,0 -8.11096,1.030826 -3.246713,4.051454 2.29691,1.426347 4.210441,1.851597 6.507301,1.442987 l 3.246714,-0.57581 v 4.55095 4.54401 h -5.751123 c -3.165726,-0.003 -7.49858,-0.49067 -9.629141,-1.08224 -2.323358,-0.6451 -4.241215,-0.7121 -4.786821,-0.1665 -1.141353,1.14136 2.639201,6.10409 5.543,7.27736 3.135945,1.26708 4.903702,1.14873 9.747077,-0.63824 3.364388,-1.24132 7.806298,-1.58838 19.147284,-1.49849 14.085793,0.11165 14.762833,0.0311 14.762833,-1.85923 0,-3.8686 -3.998938,-5.22517 -13.243538,-4.47463 l -8.408155,0.6868 0.423183,-3.63521 c 0.325862,-2.79124 0.967877,-3.76788 2.761094,-4.21795 1.284318,-0.322347 2.808053,-0.304006 3.378524,0.0486 1.227101,0.7584 5.078193,-1.102595 5.078193,-2.455844 0,-1.764958 -5.441226,-3.890429 -7.298168,-2.85128 -2.331295,1.304679 -3.397271,0.458059 -3.919643,-3.101028 -0.421279,-2.870345 -0.26527,-3.006195 4.141641,-3.579709 6.095471,-0.793209 9.081085,-2.098121 9.081085,-3.975143 0,-1.837823 -1.646927,-2.868934 -4.301202,-2.962279 -0.199053,-0.007 -0.400349,-0.01094 -0.610493,-0.0069 z" /><path
       id="path25"
       style="-inkscape-font-specification:'Yuji Boku';display:inline;fill:#b0b0b0;fill-opacity:1;stroke:none;stroke-width:1.00009;stroke-dasharray:none;stroke-opacity:1"
       d="m 42.975118,30.431179 c -0.07549,0.07947 -0.05742,0.202014 -0.0571,0.394964 0,0.32 0.07793,0.668801 0.23793,1.042134 0.16,0.373332 0.320619,0.717375 0.480619,1.037375 0.08,0.16 0.146531,0.320619 0.199861,0.480619 0.08,0.133332 0.135122,0.254986 0.161792,0.361653 0.10667,0.48 0.173192,1.012224 0.199862,1.59889 0.05333,0.586667 0.02577,1.130292 -0.0809,1.636959 -0.08,0.479999 -0.279584,0.801238 -0.599583,0.961237 -0.24,0.106667 -0.639168,0.200758 -1.199168,0.280758 -0.533332,0.05333 -1.09312,0.0809 -1.679786,0.0809 -0.586666,0 -1.068523,-0.01616 -1.441856,-0.04283 -0.32,-0.02667 -0.641238,-0.07703 -0.961237,-0.157034 L 37.35521,37.787977 c -0.399999,-0.133333 -0.799167,-0.254987 -1.199167,-0.361654 -0.373333,-0.10667 -0.744939,-0.118069 -1.118271,-0.03807 0,0.533333 0.144458,0.971466 0.437791,1.318133 0.293333,0.319999 0.603169,0.625077 0.923169,0.91841 0.293332,0.266666 0.559445,0.548939 0.799445,0.842272 0.239999,0.266667 0.345496,0.599307 0.318826,0.999306 0.346666,0.05333 0.734432,0.04193 1.161098,-0.03807 0.426667,-0.08 0.8648,-0.190252 1.318133,-0.323585 0.479999,-0.133332 0.945696,-0.238826 1.399029,-0.318826 0.479999,-0.08 0.883926,-0.05244 1.203926,0.0809 -0.24,0.8 -0.643927,1.570773 -1.203926,2.317439 -0.56,0.746666 -1.076063,1.467073 -1.556063,2.160405 -2.428551,3.347618 -5.514603,7.543612 -9.483892,9.003273 -0.373332,0.08 -0.556756,0.235861 -0.556756,0.47586 1.532996,0.117923 3.130819,0.492048 4.596809,-0.118965 1.533512,-0.939939 2.833368,-2.193835 4.135224,-3.445227 0.392464,0.364844 1.23997,0.952429 1.346684,1.165857 l 0.480619,0.718549 c 0.239999,0.4 0.450985,0.803927 0.637652,1.203926 0.21333,0.4 0.279861,0.849535 0.199861,1.356202 -0.186666,-0.02667 -0.397652,-0.02667 -0.637652,0 -0.24,0 -0.49471,0.02757 -0.761376,0.0809 -1.497432,0.09514 -2.992917,0.118294 -4.477844,0.280757 -0.186667,0 -0.386251,0.02757 -0.599584,0.0809 0.56,0.666667 1.170154,1.292981 1.83682,1.879648 0.666667,0.586666 1.547692,0.974432 2.641024,1.161098 0.213333,-0.213332 0.468043,-0.401515 0.761376,-0.561514 0.32,-0.16 0.636479,-0.215123 0.956479,-0.161793 0.08,1.013332 -0.05306,2.066379 -0.399723,3.159711 -0.319999,1.093332 -0.652639,2.096011 -0.999306,3.002677 -0.133333,0.346667 -0.266389,0.679307 -0.399722,0.999307 -0.106667,0.319999 -0.1846,0.602272 -0.23793,0.842272 0.08,0.13333 0.15793,0.199861 0.23793,0.199861 0.106667,0 0.212159,-0.01616 0.318826,-0.04283 0.133333,-0.02667 0.216019,-0.02667 0.242689,0 0.453332,-0.32 0.824938,-0.597514 1.118271,-0.837514 0.293333,-0.24 0.53664,-0.494709 0.723307,-0.761376 0.533333,-0.773332 1.065558,-1.720886 1.59889,-2.840885 0.533333,-1.119999 0.827011,-2.544651 0.880341,-4.277982 0.506667,0 1.011328,-0.02757 1.517994,-0.0809 l 1.59889,-0.161793 c 0.933332,-0.106667 1.841921,-0.1846 2.72192,-0.23793 0.906666,-0.08 1.732565,-0.02963 2.479231,0.157034 0.05333,0.373333 0.0809,0.777259 0.0809,1.203926 0,0.426667 -0.0114,0.876202 -0.03807,1.356201 -0.02667,0.32 -0.04283,0.641238 -0.04283,0.961238 v 0.999306 c 0.02667,0.559999 0.06564,1.252842 0.118965,2.079509 0.05333,0.853332 0.18639,1.628865 0.399722,2.322197 0.213333,0.719999 0.562135,1.185696 1.042134,1.399029 0.666666,-0.56 1.081995,-1.330773 1.241995,-2.317439 0.18667,-0.959999 0.275999,-1.990242 0.275999,-3.083574 0,-0.293332 -0.0114,-0.570847 -0.03807,-0.837513 v -0.880342 c -0.02667,-0.559999 -0.03807,-1.119786 -0.03807,-1.679786 0,-0.586666 0.02281,-1.135051 0.07614,-1.641717 0.559999,-0.08 1.096982,-0.107566 1.603648,-0.0809 l 1.517994,0.0809 c 0.533333,0.05333 1.065558,0.0923 1.59889,0.118965 0.685481,0.008 1.507555,0.130359 1.960544,-0.399723 0.08,-0.05333 0.135122,-0.103703 0.161792,-0.157033 0.02667,-0.08 0.0105,-0.185494 -0.04283,-0.318827 -0.906666,-0.773332 -1.932149,-1.349281 -3.078815,-1.722613 -1.146666,-0.373333 -2.227275,-0.572914 -3.240607,-0.599584 0.133332,-0.799999 0.02784,-1.437717 -0.318827,-1.917716 -0.346666,-0.506667 -0.812362,-0.921995 -1.399028,-1.241995 -0.586667,-0.32 -1.185419,-0.613675 -1.798752,-0.880341 -0.159999,-0.08 -0.320618,-0.146532 -0.480618,-0.199862 l -0.480619,-0.23793 c 0,0.213333 0.02757,0.463285 0.0809,0.756618 0.05333,0.293333 0.103704,0.603169 0.157034,0.923169 0.106667,0.533332 0.200758,1.104522 0.280757,1.717855 0.10667,0.586666 0.134227,1.146453 0.0809,1.679786 -1.439999,0.05333 -2.798123,0.147424 -4.078121,0.280757 -1.253332,0.10667 -2.510722,0.161793 -3.764054,0.161793 0.266667,-0.986666 0.149772,-1.801163 -0.356895,-2.441163 -0.479999,-0.613332 -1.161441,-1.028662 -2.04144,-1.241995 -0.511656,-0.127912 -1.797134,-0.715249 -2.526817,-1.151581 0.635662,-0.601378 1.281223,-1.19114 1.965302,-1.727372 0.266667,0.506666 0.643031,0.827904 1.12303,0.961237 0.48,0.13333 0.973259,0.199861 1.479925,0.199861 h 0.199861 c 0.426667,0 0.837237,0.02757 1.237237,0.0809 0.399999,0.02667 0.760202,0.143562 1.080202,0.356895 v 0.68048 c -0.02667,0.506666 -0.02667,1.027488 0,1.560821 0.02667,0.533332 0.136918,0.999029 0.323585,1.399029 0.213333,0.399999 0.557375,0.638548 1.037375,0.718548 0.639999,-0.426666 1.066731,-1.075786 1.280064,-1.955785 0.213329,-0.879999 0.252298,-1.777185 0.118965,-2.683851 0.559999,-0.266666 1.135947,-0.42253 1.722613,-0.47586 0.586667,-0.08 1.185419,-0.123723 1.798751,-0.123723 0.453333,0 0.907628,-0.0114 1.36096,-0.03807 0.48,-0.05333 0.957098,-0.136022 1.437098,-0.242689 2.360924,1.734865 8.298301,7.026181 10.20244,3.921087 3.405409,-5.553224 -10.116492,-7.474089 -14.518491,-13.076635 1.253331,-0.16 2.533525,-0.242689 3.840191,-0.242689 1.333331,-0.02667 2.569801,8.96e-4 3.716467,0.0809 0.05333,-0.08 0.104853,-0.136251 0.161793,-0.199861 0.06288,-0.07025 0.146531,-0.119861 0.199861,-0.199861 0.186667,-0.16 0.331124,-0.332021 0.437791,-0.518688 0.106667,-0.213333 0.0012,-0.534571 -0.318826,-0.961237 -0.666667,-0.453333 -1.370911,-0.763169 -2.117578,-0.923169 -0.746666,-0.16 -1.506037,-0.23793 -2.27937,-0.23793 -0.533332,0 -1.070316,0.02757 -1.603648,0.0809 -0.533333,0.02667 -1.065558,0.07703 -1.59889,0.157034 l -1.917716,0.161793 c -0.64,0.05333 -1.282476,0.0695 -1.922475,0.04283 0.05333,-0.293333 0.108462,-0.720064 0.161792,-1.280064 0.05333,-0.559999 0.213952,-1.014293 0.480619,-1.36096 -0.586666,-0.959999 -1.350796,-1.746933 -2.284128,-2.360266 -0.966445,-0.660365 -1.997768,-1.638701 -3.059781,-1.955785 z m 5.7817,9.874098 c 0.64,1.013331 1.321441,2.016011 2.04144,3.002677 0.746666,0.959999 1.43951,1.836266 2.079509,2.636265 0.639999,0.799999 1.160821,1.442475 1.560821,1.922475 l 0.637653,0.718548 c -0.186667,-0.05333 -0.386251,-0.119861 -0.599584,-0.199861 -0.213333,-0.08 -0.451882,-0.17409 -0.718549,-0.280757 -0.666666,-0.266667 -1.387073,-0.516618 -2.160405,-0.756618 -0.773332,-0.26667 -1.505141,-0.388324 -2.198473,-0.361654 0.133332,-0.746666 0.02308,-1.400544 -0.323585,-1.960543 -0.32,-0.56 -0.758133,-1.025696 -1.318133,-1.399029 -0.559999,-0.373333 -1.092223,-0.667008 -1.59889,-0.880341 -0.08,-0.266667 -0.02963,-0.587905 0.157034,-0.961238 0.186667,-0.373332 0.374848,-0.717375 0.561515,-1.037375 0.10667,-0.133332 0.173191,-0.243585 0.199861,-0.323584 0.24,-0.05333 0.522273,-0.07614 0.842273,-0.07614 0.319999,0 0.597514,-0.01616 0.837513,-0.04283 z m -3.397641,2.878953 c 0.293333,0.666666 0.50432,1.430797 0.637653,2.284129 0.16,0.826666 0.215122,1.475785 0.161792,1.955785 -0.746666,0.02667 -1.439509,0.109355 -2.079508,0.242688 -0.613333,0.13333 -1.310935,0.199862 -2.084268,0.199862 0.16,-0.213333 0.33678,-0.451882 0.523446,-0.718549 z m 10.935265,25.487067 c -1.077648,-0.01064 -2.318908,0.154286 -3.53564,0.523447 -3.853001,1.169093 -14.09126,1.338094 -16.093589,0.266481 -1.162639,-0.622363 -1.351343,-0.549963 -1.15634,0.44255 0.39447,2.007787 3.663584,3.925846 6.70011,3.925846 2.721397,0 2.798058,0.05897 2.798058,2.303163 v 2.31268 l -4.630119,0.02379 -4.634877,0.01903 1.922474,1.698821 c 1.915449,1.685118 2.847078,1.957077 5.800735,1.717855 1.395099,-0.113006 1.541787,0.177634 1.541787,3.012194 v 3.140677 l -2.917023,0.109448 c -3.155897,0.116981 -3.337969,0.10734 -8.318034,-0.556756 -3.284545,-0.437996 -3.32855,-0.423193 -2.531576,1.065926 0.445988,0.833352 1.794665,2.116729 2.997919,2.850402 2.678928,1.633429 3.682973,1.659846 7.080798,0.185586 2.149309,-0.932536 4.668962,-1.133085 13.133739,-1.046893 9.959485,0.101409 10.468922,0.04077 10.468922,-1.232477 0,-2.41967 -3.319328,-3.449886 -9.550512,-2.969367 l -5.562805,0.423515 0.456826,-2.331714 c 0.553034,-2.839292 1.220558,-3.341287 4.487361,-3.354814 3.077395,-0.01277 3.713932,-0.794377 1.941509,-2.398335 -0.981568,-0.888309 -1.945656,-1.087334 -3.683157,-0.761376 -2.281019,0.427929 -2.364689,0.365634 -2.636265,-1.960544 -0.315205,-2.699953 0.242437,-3.126401 4.078121,-3.126401 2.314368,0 4.977496,-1.534631 4.977496,-2.869436 0,-0.885295 -1.33984,-1.395521 -3.135918,-1.413305 z"
       transform="matrix(1.45787,0,0,1.45787,-19.358,-18.55)" /><path
       id="path26"
       style="-inkscape-font-specification:'Yuji Boku';display:inline;fill:#909090;fill-opacity:1"
       d="m 43.44622,30.350283 c -0.134282,-0.0087 -0.268932,0.0098 -0.40924,0.06186 -0.134007,0.04976 -0.119283,0.221048 -0.118965,0.413998 0,0.32 0.07793,0.668801 0.23793,1.042134 0.16,0.373332 0.320619,0.717375 0.480619,1.037375 0.08,0.16 0.146531,0.320619 0.199861,0.480619 0.08,0.133332 0.135122,0.254986 0.161792,0.361653 0.10667,0.48 0.173192,1.012224 0.199862,1.59889 0.05333,0.586667 0.02577,1.130292 -0.0809,1.636959 -0.08,0.479999 -0.279584,0.801238 -0.599583,0.961237 -0.24,0.106667 -0.639168,0.200758 -1.199168,0.280758 -0.533332,0.05333 -1.09312,0.0809 -1.679786,0.0809 -0.586666,0 -1.068523,-0.01616 -1.441856,-0.04283 -0.32,-0.02667 -0.641238,-0.07703 -0.961237,-0.157034 L 37.35521,37.787977 c -0.399999,-0.133333 -0.799167,-0.254987 -1.199167,-0.361654 -0.373333,-0.10667 -0.744939,-0.118069 -1.118271,-0.03807 0,0.533333 0.144458,0.971466 0.437791,1.318133 0.293333,0.319999 0.603169,0.625077 0.923169,0.91841 0.293332,0.266666 0.559445,0.548939 0.799445,0.842272 0.239999,0.266667 0.345496,0.599307 0.318826,0.999306 0.346666,0.05333 0.734432,0.04193 1.161098,-0.03807 0.426667,-0.08 0.8648,-0.190252 1.318133,-0.323585 0.479999,-0.133332 0.945696,-0.238826 1.399029,-0.318826 0.479999,-0.08 0.883926,-0.05244 1.203926,0.0809 -0.24,0.8 -0.643927,1.570773 -1.203926,2.317439 -0.56,0.746666 -1.076063,1.467073 -1.556063,2.160405 -2.428551,3.347618 -5.514603,7.543612 -9.483892,9.003273 -0.373332,0.08 -0.556756,0.235861 -0.556756,0.47586 1.532996,0.117923 3.130819,0.492048 4.596809,-0.118965 1.613721,-0.989102 2.968895,-2.324836 4.339844,-3.64033 0.303878,0.397419 1.03017,1.137171 1.142064,1.36096 l 0.480619,0.718549 c 0.239999,0.4 0.393726,0.794409 0.670962,1.194409 0.34652,0.314758 0.143981,0.854087 0.133241,1.318133 -0.258018,0.08034 -0.865046,0.129582 -1.365718,0.128482 -1.497432,0.09514 -2.935814,0.08023 -4.420741,0.242688 -0.186666,0 -0.443354,-0.02002 -0.656687,0.03331 0.56,0.666666 1.084499,1.416704 1.751166,2.003371 0.666666,0.586666 1.590519,0.855466 2.683851,1.042133 0.213332,-0.213333 0.529905,-0.258757 0.823238,-0.418757 0.319999,-0.159997 0.980271,-0.252205 0.980271,-0.252205 0,0 -0.09588,2.09493 -0.44255,3.188262 -0.319999,1.093332 -0.652639,2.096011 -0.999306,3.002677 -0.133333,0.346667 -0.266389,0.679307 -0.399722,0.999307 -0.106667,0.319999 -0.1846,0.602272 -0.23793,0.842272 0.08,0.13333 0.15793,0.199861 0.23793,0.199861 0.106667,0 0.212159,-0.01616 0.318826,-0.04283 0.133333,-0.02667 0.216019,-0.02667 0.242689,0 0.453332,-0.32 0.824938,-0.597514 1.118271,-0.837514 0.293333,-0.24 0.53664,-0.494709 0.723307,-0.761376 1.422349,-2.154858 2.508701,-4.47598 2.479231,-7.118867 0.506667,0 0.906638,-0.194118 1.413305,-0.247447 l 1.703579,0.0048 c 1.099089,-0.01625 1.841921,-0.351151 2.72192,-0.404481 0.906666,-0.08 1.88484,0.03223 2.631506,0.218896 0.05333,0.373332 -0.07138,0.881948 -0.07138,1.308615 0,0.426667 -0.0114,0.876202 -0.03807,1.356201 -0.02667,0.32 -0.03613,0.64103 -0.04283,0.961238 -0.0069,0.33326 0,0.999306 0,0.999306 0.02667,0.559999 0.06564,1.252842 0.118965,2.079509 0.05333,0.853332 0.18639,1.628865 0.399722,2.322197 0.213333,0.719999 0.315031,1.452959 1.042134,1.399029 0.727103,-0.05393 1.081995,-1.330773 1.241995,-2.317439 0.18667,-0.959999 0.275999,-1.990242 0.275999,-3.083574 0,-0.293332 0.0113,-0.569755 0,-0.837513 l -0.03807,-0.880342 c -0.02667,-0.559999 -0.03807,-1.119786 -0.03807,-1.679786 0,-0.586666 -0.115192,-1.249257 -0.06186,-1.755924 0.56,-0.08 1.382499,-0.07426 1.889165,-0.04759 l 1.370477,0.161793 c 0.532141,0.06414 1.065558,0.0923 1.59889,0.118965 0.685481,0.008 1.373261,-0.08394 1.960544,-0.399723 0.06643,-0.03572 0.135052,-0.0902 0.161792,-0.157033 0.02673,-0.06683 0.01724,-0.229677 -0.04283,-0.318827 -0.362367,-1.108021 -1.960701,-1.230316 -3.107367,-1.603648 -1.146666,-0.373333 -2.37955,-0.44919 -3.392882,-0.47586 0.133333,-0.8 0.208667,-1.680406 -0.138,-2.160405 -0.346666,-0.506667 -0.812362,-0.921995 -1.399028,-1.241995 -0.586667,-0.32 -1.185419,-0.613675 -1.798752,-0.880341 -0.159999,-0.08 -0.320618,-0.146532 -0.480618,-0.199862 l -0.480619,-0.23793 c 0,0.213333 0.02757,0.463285 0.0809,0.756618 0.05333,0.293333 0.103704,0.603169 0.157034,0.923169 0.106667,0.533332 0.200758,1.104522 0.280757,1.717855 0.10667,0.586666 0.286502,1.265418 0.233172,1.798751 -1.439999,0.05333 -2.769571,0.118873 -4.04957,0.252206 -1.253331,0.10667 -2.762927,-0.0048 -4.016259,-0.0048 0.266667,-0.986666 0.335357,-1.71075 -0.171309,-2.350749 -0.48,-0.613332 -1.351785,-1.437902 -2.231784,-1.651234 -1.495103,-0.4377 -2.078916,-0.719679 -2.455438,-0.751859 0.637237,-0.602995 1.284225,-1.194523 1.97006,-1.732131 0.266667,0.506666 0.643031,0.827904 1.12303,0.961237 0.48,0.13333 0.973259,0.199861 1.479925,0.199861 h 0.199861 c 0.426667,0 0.837237,0.02757 1.237237,0.0809 0.399999,0.02667 0.920202,0.250228 1.080202,0.356895 0.16,0.106666 0,0.68048 0,0.68048 -0.02667,0.506666 -0.02667,1.027488 0,1.560821 0.02667,0.533332 0.136918,0.999029 0.323585,1.399029 0.213333,0.399999 0.557375,0.638548 1.037375,0.718548 0.639999,-0.426666 1.066731,-1.075786 1.280064,-1.955785 0.213329,-0.879999 -0.437528,-1.98388 0.118965,-2.683851 0.370427,-0.465929 1.135947,-0.42253 1.722613,-0.47586 0.586667,-0.08 1.185419,-0.123723 1.798751,-0.123723 0.453333,0 0.907628,-0.0114 1.36096,-0.03807 0.48,-0.05333 1.01896,-0.269263 1.49896,-0.37593 2.360924,1.734866 7.485805,8.383487 10.140578,4.054328 2.654774,-4.329158 -10.045113,-7.459813 -14.447112,-13.06236 1.253331,-0.159998 2.462146,-0.256964 3.768812,-0.256964 1.333331,-0.02667 2.569801,8.96e-4 3.716467,0.0809 0.05333,-0.08 0.104853,-0.136251 0.161793,-0.199861 0.06288,-0.07025 0.146531,-0.119861 0.199861,-0.199861 0.186667,-0.16 0.331124,-0.332021 0.437791,-0.518688 0.106667,-0.213333 0.0012,-0.534571 -0.318826,-0.961237 -0.666667,-0.453333 -1.370911,-0.763169 -2.117578,-0.923169 -0.746666,-0.16 -1.506037,-0.23793 -2.27937,-0.23793 -0.533332,0 -1.070316,0.02757 -1.603648,0.0809 -0.533333,0.02667 -1.065558,0.07703 -1.59889,0.157034 l -1.917716,0.161793 c -0.64,0.05333 -1.282476,0.0695 -1.922475,0.04283 0.05333,-0.293333 0.108462,-0.720064 0.161792,-1.280064 0.05333,-0.559999 0.123539,-0.95719 0.390206,-1.303856 -0.586667,-0.959999 -1.260383,-1.804037 -2.193715,-2.41737 -0.84564,-0.577819 -1.648708,-1.975977 -2.588679,-2.036681 z m 4.473085,9.907407 c 0.319999,0 0.597514,0.07426 0.837513,0.04759 0.64,1.013331 1.321441,2.016011 2.04144,3.002677 0.746666,0.959999 1.501371,1.793438 2.141371,2.593437 0.639999,0.8 1.098959,1.485303 1.498959,1.965303 l 0.637653,0.718548 c -0.186667,-0.05333 -0.386251,-0.119861 -0.599584,-0.199861 -0.213333,-0.08 -0.451882,-0.17409 -0.718549,-0.280757 -0.666666,-0.266667 -1.387073,-0.516618 -2.160405,-0.756618 -0.773332,-0.266672 -1.74783,-0.236048 -2.441162,-0.209378 0.133332,-0.746667 0.26577,-1.55282 -0.0809,-2.112819 -0.32,-0.56 -0.758133,-1.025696 -1.318133,-1.399029 -0.559999,-0.373333 -1.092223,-0.667008 -1.59889,-0.880341 -0.08,-0.266667 -0.02963,-0.587905 0.157034,-0.961238 0.186667,-0.373332 0.374848,-0.717375 0.561515,-1.037375 0.10667,-0.133332 0.173191,-0.243585 0.199861,-0.323584 0.24,-0.05333 0.522273,-0.166552 0.842273,-0.166552 z m -2.560128,2.92654 c 0.293333,0.666666 0.50432,1.430797 0.637653,2.284129 0.16,0.826666 0.577646,1.449076 0.161792,1.955785 -0.442769,0.539504 -1.439509,0.109355 -2.079508,0.242688 -0.613333,0.13333 -1.310935,0.199862 -2.084268,0.199862 0.16,-0.213333 0.33678,-0.451882 0.523446,-0.718549 z m 11.739469,25.739273 c -0.455271,0.01051 -1.019358,0.06811 -1.722614,0.157034 -11.106593,1.404148 -14.152298,1.589234 -16.693172,1.018341 -3.572319,-0.802659 -4.121038,-0.196322 -1.703579,1.884406 1.412086,1.215407 2.740766,1.655993 4.977497,1.655993 3.008182,0 3.050263,0.03297 3.050263,2.317439 0,2.00697 -0.262518,2.372801 -1.984337,2.717161 -1.09344,0.218685 -3.179218,0.233278 -4.634877,0.03331 l -2.645782,-0.361654 1.922474,1.765441 c 1.389723,1.275762 2.681293,1.7702 4.634878,1.7702 h 2.707644 v 2.99316 2.99316 l -3.459503,0.413998 c -1.905156,0.225634 -4.244625,0.109629 -5.196392,-0.252206 -0.951768,-0.361834 -2.647172,-0.656686 -3.768812,-0.656686 -1.844273,0 -1.967259,0.133401 -1.284823,1.408545 0.415035,0.775503 1.737562,2.01204 2.940816,2.745713 2.664935,1.624901 2.965233,1.634798 6.738179,0.190344 2.36042,-0.903669 5.173113,-1.135043 13.119463,-1.075444 5.563071,0.04175 10.276452,-0.185292 10.473681,-0.504411 0.619033,-1.001638 -0.342646,-2.551324 -2.07475,-3.340538 -1.05269,-0.479633 -3.705742,-0.59852 -7.209281,-0.328344 l -5.548529,0.428274 0.44255,-1.993853 c 0.803407,-3.63873 0.880928,-3.711709 4.040052,-3.711709 3.587226,0 4.326841,-0.712496 2.474473,-2.388818 -0.981568,-0.888309 -1.945649,-1.087334 -3.683157,-0.761376 -2.286972,0.429049 -2.364133,0.368413 -2.641024,-2.003371 -0.156744,-1.342468 -0.134372,-2.582707 0.04283,-2.759989 0.177281,-0.177281 1.588236,-0.323585 3.140676,-0.323585 3.315093,0 6.013049,-1.588499 5.401012,-3.183504 -0.20671,-0.538642 -0.574584,-0.801644 -1.432339,-0.842272 -0.128661,-0.0062 -0.271762,-0.0043 -0.423515,0 z"
       transform="matrix(1.45787,0,0,1.45787,-19.358,-18.55)" /><path
       id="path27"
       style="-inkscape-font-specification:'Yuji Boku';display:inline;fill:#6f6f6f;fill-opacity:1;stroke-width:1.38498"
       d="m 43.079075,27.049564 c -0.104559,0.110065 -0.07675,0.280826 -0.07631,0.548057 0,0.443191 0.1114,0.918989 0.332996,1.436046 0.221596,0.517057 0.444397,0.999792 0.665993,1.442984 0.110797,0.221596 0.203636,0.444396 0.277496,0.665992 0.110798,0.184663 0.185058,0.351764 0.221998,0.499495 0.147736,0.664788 0.240557,1.400518 0.277497,2.213037 0.07386,0.812519 0.03673,1.566816 -0.110999,2.268537 -0.110798,0.664788 -0.389299,1.110388 -0.832491,1.331985 -0.332394,0.147731 -0.889395,0.277698 -1.664981,0.388496 -0.738653,0.07386 -1.511517,0.110998 -2.324036,0.110998 -0.812519,0 -1.48092,-0.01856 -1.997977,-0.0555 -0.443192,-0.03693 -0.881856,-0.1112 -1.325048,-0.221997 L 35.302226,37.2337 c -0.55399,-0.184663 -1.110992,-0.351764 -1.664981,-0.499495 -0.517058,-0.14774 -1.029989,-0.166297 -1.547045,-0.0555 0,0.738654 0.204233,1.351355 0.610493,1.831479 0.406258,0.443192 0.826355,0.86329 1.269548,1.269548 0.406258,0.369329 0.777594,0.759229 1.109987,1.165487 0.332394,0.369327 0.480935,0.833493 0.443995,1.387485 0.480125,0.07386 1.01856,0.0553 1.609482,-0.0555 0.590924,-0.110799 1.196688,-0.259332 1.824542,-0.443995 0.664788,-0.184663 1.314624,-0.333196 1.942478,-0.443995 0.664788,-0.110797 1.214852,-0.07366 1.658044,0.110999 -0.332394,1.10798 -0.882458,2.17791 -1.658044,3.212026 -0.775585,1.034115 -1.499687,2.029779 -2.164475,2.990029 -3.363487,4.636371 -7.628231,10.444949 -13.125602,12.466547 -0.517058,0.110797 -0.776992,0.333599 -0.776992,0.665992 2.123164,0.163322 4.338193,0.679739 6.368554,-0.166498 3.533651,-2.16589 6.171315,-5.541676 9.421018,-8.089034 0.369328,0.701722 0.882257,1.147322 1.547045,1.331985 0.664789,0.184655 1.351756,0.277497 2.053477,0.277497 h 0.277497 c 0.590923,0 1.159554,0.03714 1.713543,0.110999 0.553991,0.03693 1.055291,0.204033 1.498483,0.499494 v 0.936552 c -0.03694,0.701723 -0.03694,1.425824 0,2.164476 0.03693,0.738653 0.185466,1.38155 0.443995,1.93554 0.295461,0.553991 0.771258,0.888191 1.436046,0.998989 0.886385,-0.590923 1.48052,-1.493754 1.77598,-2.712532 0.295457,-1.218777 0.351161,-2.455809 0.166498,-3.71152 0.775587,-0.369327 1.567017,-0.592133 2.379536,-0.665993 0.812519,-0.110796 1.648021,-0.166498 2.497472,-0.166498 0.627855,0 1.252187,-0.01856 1.880041,-0.0555 0.664789,-0.07386 1.33319,-0.185266 1.997978,-0.332997 3.269825,2.402748 11.487402,9.732483 14.12459,5.432002 4.71641,-7.691086 -14.014919,-10.361151 -20.111585,-18.120546 1.735834,-0.221596 3.511301,-0.332996 5.321002,-0.332996 1.846633,-0.03693 3.559462,2.01e-4 5.147567,0.110999 0.07387,-0.110798 0.143138,-0.189397 0.221997,-0.277497 0.08709,-0.0973 0.203637,-0.166699 0.277497,-0.277497 0.258529,-0.221596 0.462763,-0.456025 0.610493,-0.714555 0.147732,-0.29546 -8.03e-4,-0.741061 -0.443995,-1.331984 -0.923317,-0.627856 -1.900414,-1.05489 -2.934529,-1.276486 -1.034116,-0.221597 -2.08548,-0.332996 -3.156527,-0.332996 -0.738653,0 -1.481322,0.03714 -2.219975,0.110998 -0.738653,0.03693 -1.474384,0.111199 -2.213037,0.221998 l -2.657033,0.221997 c -0.886383,0.07386 -1.777585,0.09244 -2.66397,0.0555 0.07386,-0.406259 0.148138,-0.993457 0.221998,-1.769043 0.07386,-0.775586 0.296665,-1.406853 0.665992,-1.886978 -0.812519,-1.329577 -1.863884,-2.418075 -3.156526,-3.267526 -1.338504,-0.91459 -2.77484,-2.266442 -4.245703,-2.705595 z m 8.012722,13.673659 c 0.886385,1.403441 1.826348,2.789006 2.823531,4.155515 1.034115,1.329576 1.992646,2.548041 2.87903,3.656022 0.886384,1.107979 1.610485,1.992244 2.164476,2.657032 l 0.88799,0.998989 c -0.258529,-0.07386 -0.53703,-0.166699 -0.832491,-0.277497 -0.295461,-0.110798 -0.629662,-0.240765 -0.998989,-0.388496 -0.923317,-0.369327 -1.918982,-0.715157 -2.990028,-1.04755 -1.071047,-0.369332 -2.08528,-0.536435 -3.045529,-0.499495 0.184663,-1.034115 0.03613,-1.943883 -0.443995,-2.719469 -0.443192,-0.775586 -1.055893,-1.418483 -1.831479,-1.935541 -0.775586,-0.517056 -1.511317,-0.925525 -2.213037,-1.220986 -0.110799,-0.369328 -0.03653,-0.80799 0.221997,-1.325048 0.258529,-0.517056 0.518462,-0.999792 0.776991,-1.442983 0.147735,-0.184663 0.240557,-0.333196 0.277497,-0.443995 0.332394,-0.07386 0.715358,-0.110999 1.15855,-0.110999 0.443192,0 0.833093,-0.01856 1.165486,-0.0555 z m -4.710509,3.989017 c 0.40626,0.923317 0.703327,1.974682 0.88799,3.156527 0.221597,1.144913 0.295858,2.054681 0.221998,2.719469 -1.034116,0.03693 -1.992646,0.148334 -2.87903,0.332997 -0.849451,0.184655 -1.814921,0.270559 -2.885968,0.270559 0.221597,-0.295462 0.462963,-0.622724 0.721492,-0.992051 z m 8.366531,9.31002 c 0,0.295461 0.03714,0.641291 0.110998,1.047551 0.07386,0.406258 0.148138,0.833294 0.221998,1.276485 0.147731,0.738654 0.277698,1.537022 0.388496,2.386473 0.147737,0.81252 0.184858,1.585384 0.110998,2.324037 -1.994364,0.07386 -3.88123,0.203833 -5.653998,0.388495 -1.735836,0.147736 -3.467232,0.221998 -5.203067,0.221998 0.369327,-1.36651 0.202227,-2.49214 -0.499494,-3.378525 -0.664788,-0.849451 -1.61169,-1.425018 -2.830468,-1.72048 -1.181845,-0.295457 -2.214643,-0.351161 -3.101027,-0.166498 0.14773,0.369327 0.314831,0.740661 0.499494,1.109987 l 0.665992,0.998989 c 0.332394,0.55399 0.629461,1.104054 0.88799,1.658044 0.295455,0.55399 0.388295,1.185257 0.277497,1.886978 -0.258529,-0.03694 -0.555595,-0.03694 -0.88799,0 -0.332393,0 -0.68516,0.03714 -1.054488,0.110999 -2.073908,0.131763 -4.145466,0.163488 -6.202055,0.388496 -0.258529,0 -0.537029,0.0302 -0.83249,0.104061 0.775586,0.923317 1.622716,1.795952 2.546033,2.608471 0.923317,0.812519 2.141783,1.344014 3.656022,1.602544 0.29546,-0.295462 0.648229,-0.548458 1.054488,-0.770054 0.443192,-0.221596 0.888792,-0.295857 1.331985,-0.221997 0.110797,1.403441 -0.07487,2.856337 -0.554994,4.370576 -0.443192,1.514239 -0.90736,2.899803 -1.387484,4.155515 -0.184663,0.480125 -0.370331,0.944293 -0.554994,1.387484 -0.147731,0.443193 -0.252199,0.833094 -0.326059,1.165487 0.110798,0.184656 0.215261,0.277497 0.326059,0.277497 0.147731,0 0.296264,-0.01856 0.443995,-0.0555 0.184664,-0.03694 0.296056,-0.03694 0.332996,0 0.627854,-0.443194 1.147723,-0.833092 1.553982,-1.165487 0.406259,-0.332395 0.740459,-0.685162 0.998989,-1.054488 0.738652,-1.071048 1.474384,-2.382345 2.213038,-3.933518 0.738653,-1.551173 1.147126,-3.523935 1.220986,-5.924558 0.701721,0 1.400317,-0.03714 2.102039,-0.110999 l 2.219975,-0.221998 c 1.292642,-0.147731 2.548242,-0.259136 3.76702,-0.332996 1.255711,-0.110797 2.399908,-0.03653 3.434023,0.221998 0.07386,0.517057 0.110999,1.074057 0.110999,1.664981 0,0.590923 -0.01856,1.215253 -0.0555,1.880041 -0.03694,0.443192 -0.0555,0.888794 -0.0555,1.331985 v 1.380547 c 0.03694,0.775586 0.09264,1.741055 0.166498,2.885967 0.07387,1.181844 0.252595,2.251778 0.548057,3.212027 0.29546,0.997183 0.778195,1.640078 1.442983,1.93554 0.923317,-0.775587 1.498885,-1.845516 1.720481,-3.212026 0.258534,-1.329576 0.388496,-2.752276 0.388496,-4.266514 0,-0.40626 -0.01856,-0.796159 -0.0555,-1.165487 V 69.09034 c -0.03694,-0.775586 -0.0555,-1.555387 -0.0555,-2.330974 0,-0.812519 0.03714,-1.566815 0.110999,-2.268537 0.775586,-0.110797 1.511316,-0.147938 2.213037,-0.110998 l 2.102039,0.110998 c 0.738653,0.07386 1.481323,0.129559 2.219975,0.166499 0.949376,0.01114 2.085153,0.179155 2.712532,-0.554994 0.110799,-0.07386 0.185057,-0.148138 0.221997,-0.221998 0.03694,-0.110798 0.01836,-0.259332 -0.0555,-0.443995 -1.255712,-1.071047 -2.678409,-1.862478 -4.266515,-2.379535 -1.588105,-0.517057 -3.08507,-0.795551 -4.488511,-0.832491 0.184662,-1.10798 0.03613,-1.992244 -0.443995,-2.657032 -0.480126,-0.701721 -1.123022,-1.277289 -1.935541,-1.720481 -0.812519,-0.443193 -1.641083,-0.844721 -2.490534,-1.214049 -0.221596,-0.110798 -0.444397,-0.203637 -0.665993,-0.277497 z m 8.241657,27.971684 c -0.497948,0.003 -1.049174,0.0525 -1.658044,0.138749 -16.378459,2.321636 -20.403396,2.610278 -24.301788,1.734355 -5.35799,-1.203796 -6.022413,-0.526648 -2.47666,2.525222 2.058638,1.771905 3.995681,2.414223 7.256543,2.414223 4.400254,0 4.446888,0.03526 4.446888,3.434023 0,4.143192 -1.976074,5.071308 -8.85215,4.141641 l -4.65501,-0.631305 2.802718,2.539096 c 1.976254,1.782122 3.948872,2.532162 6.652987,2.532162 3.784196,0 3.849351,0.0635 4.287327,4.25264 0.244619,2.33988 0.37826,4.35907 0.291372,4.48851 -0.426255,0.63529 -12.555512,0.47474 -16.289066,-0.21506 -6.011536,-1.11068 -5.228254,2.61996 1.248735,5.93843 3.740872,1.91661 3.771335,1.91689 8.290219,-0.15262 2.977715,-1.3637 6.823261,-1.71029 19.237471,-1.74823 12.567085,-0.0383 15.519012,-0.32131 15.519012,-1.44992 0,-0.76642 -1.168843,-2.25855 -2.594596,-3.32303 -2.371636,-1.77068 -3.255536,-1.84189 -10.41307,-0.84636 -4.302914,0.59848 -8.031635,0.88295 -8.283281,0.6313 -0.251637,-0.25163 -0.05564,-2.17193 0.437057,-4.26651 0.865903,-3.68128 1.054751,-3.81897 5.619312,-4.11389 3.095114,-0.199988 4.724384,-0.769341 4.724384,-1.637235 0,-2.452099 -2.699087,-3.710955 -6.43099,-3.010841 -3.061119,0.574275 -3.581872,0.393199 -3.593584,-1.200174 -0.008,-1.024755 -0.285483,-2.868192 -0.617431,-4.106954 -0.565756,-2.111101 -0.297725,-2.254662 4.294264,-2.254662 5.971775,0 10.126656,-2.369683 8.20697,-4.68276 -0.63798,-0.768683 -1.655747,-1.140179 -3.149589,-1.1308 z" /><path
       id="path28"
       style="-inkscape-font-specification:'Yuji Boku';display:inline;fill:#4f4f4f;fill-opacity:1;stroke-width:1.38498"
       d="m 44.480435,26.716568 c -0.185977,-0.01201 -0.374546,0.01109 -0.568869,0.08325 -0.185597,0.06892 -0.166938,0.308576 -0.166498,0.575806 0,0.443193 0.111399,0.918989 0.332996,1.436047 0.221596,0.517056 0.444397,0.999792 0.665993,1.442983 0.110798,0.221596 0.203637,0.444397 0.277497,0.665993 0.110797,0.184663 0.185057,0.351763 0.221997,0.499494 0.147735,0.664788 0.240557,1.400518 0.277497,2.213038 0.07386,0.812519 0.03673,1.566815 -0.110999,2.268537 -0.110798,0.664788 -0.389298,1.110389 -0.83249,1.331985 -0.332394,0.14773 -0.889395,0.277697 -1.664982,0.388495 -0.738652,0.07386 -1.511517,0.110999 -2.324036,0.110999 -0.812519,0 -1.473983,-0.01856 -1.99104,-0.0555 -0.443192,-0.03693 -0.888792,-0.1112 -1.331985,-0.221998 L 36.04453,37.011702 c -0.553991,-0.184664 -1.104053,-0.351763 -1.658044,-0.499494 -0.517056,-0.14774 -1.036925,-0.166298 -1.553982,-0.0555 0,0.738654 0.204234,1.351354 0.610493,1.83148 0.406258,0.443191 0.833294,0.863289 1.276485,1.269548 0.40626,0.369327 0.770656,0.759227 1.10305,1.165487 0.332394,0.369326 0.480935,0.833494 0.443995,1.387484 0.480126,0.07386 1.018559,0.0553 1.609482,-0.0555 0.590924,-0.110798 1.196687,-0.259333 1.824542,-0.443995 0.664787,-0.184664 1.314623,-0.333197 1.942478,-0.443995 0.664789,-0.110798 1.214851,-0.07366 1.658044,0.110998 -0.332395,1.10798 -0.882458,2.177911 -1.658044,3.212027 -0.775586,1.034115 -1.499688,2.029779 -2.164475,2.990028 -3.363488,4.636372 -7.62823,10.44495 -13.125602,12.466547 -0.517057,0.110798 -0.776991,0.333599 -0.776991,0.665993 2.123164,0.163321 4.338192,0.67974 6.368553,-0.166498 3.533652,-2.165889 6.171315,-5.541677 9.421018,-8.089034 0.369327,0.701721 0.882258,1.147322 1.547045,1.331985 0.664789,0.184655 1.351757,0.277497 2.053477,0.277497 h 0.277497 c 0.590923,0 1.159553,0.03714 1.713543,0.110998 0.55399,0.03693 1.276887,0.351763 1.498483,0.499495 0.221596,0.147729 0,0.936552 0,0.936552 -0.03694,0.70172 -0.03694,1.425822 0,2.164475 0.03693,0.738654 0.185465,1.381551 0.443995,1.935541 0.295461,0.55399 0.778197,0.888191 1.442984,0.998989 0.886384,-0.590924 1.473582,-1.493754 1.769042,-2.712532 0.295457,-1.218778 -0.60423,-2.742078 0.166499,-3.711521 0.513033,-0.645298 1.567016,-0.592132 2.379535,-0.665992 0.812519,-0.110797 1.648021,-0.166498 2.497472,-0.166498 0.627854,0 1.252186,-0.01856 1.880041,-0.0555 0.664788,-0.07386 1.416439,-0.372576 2.081227,-0.520306 3.269826,2.402747 10.364543,11.615094 14.041341,5.619311 3.6768,-5.995783 -13.910858,-10.340338 -20.007524,-18.099733 1.735835,-0.221595 3.40724,-0.353809 5.216941,-0.353809 1.846633,-0.03693 3.5664,2.01e-4 5.154505,0.110999 0.07386,-0.110798 0.143137,-0.189397 0.221997,-0.277497 0.08708,-0.0973 0.1967,-0.166699 0.270559,-0.277497 0.258529,-0.221595 0.462762,-0.456024 0.610494,-0.714554 0.14773,-0.295461 -8.03e-4,-0.741062 -0.443995,-1.331985 -0.923317,-0.627855 -1.900415,-1.05489 -2.93453,-1.276486 -1.034115,-0.221596 -2.08548,-0.332996 -3.156527,-0.332996 -0.738653,0 -1.474384,0.03714 -2.213037,0.110999 -0.738652,0.03693 -1.481323,0.1112 -2.219975,0.221997 l -2.657033,0.221998 c -0.886384,0.07386 -1.770648,0.09244 -2.657032,0.0555 0.07386,-0.406258 0.1412,-0.993456 0.21506,-1.769042 0.07386,-0.775586 0.171792,-1.323604 0.541119,-1.80373 -0.812519,-1.329576 -1.739011,-2.501323 -3.031653,-3.350775 -1.171191,-0.800266 -2.284809,-2.732519 -3.586647,-2.816593 z m 6.18818,13.715283 c 0.443191,0 0.833093,0.106314 1.165487,0.06937 0.886384,1.403442 1.826348,2.789006 2.82353,4.155516 1.034115,1.329575 2.082833,2.485603 2.969217,3.593584 0.886384,1.10798 1.520299,2.054681 2.074289,2.71947 l 0.88799,0.998988 c -0.25853,-0.07387 -0.53703,-0.166699 -0.832491,-0.277497 -0.295461,-0.110798 -0.629662,-0.240764 -0.998989,-0.388495 -0.923317,-0.369327 -1.918981,-0.715157 -2.990028,-1.047551 -1.071047,-0.369332 -2.418276,-0.328312 -3.378525,-0.291372 0.184662,-1.034115 0.369127,-2.152006 -0.110998,-2.927592 -0.443192,-0.775586 -1.055894,-1.418483 -1.83148,-1.93554 -0.775585,-0.517057 -1.511316,-0.925526 -2.213037,-1.220986 -0.110798,-0.369327 -0.03653,-0.807992 0.221997,-1.325048 0.25853,-0.517057 0.518463,-0.999791 0.776991,-1.442984 0.147736,-0.184663 0.240557,-0.333197 0.277497,-0.443995 0.332395,-0.07386 0.715357,-0.235872 1.15855,-0.235872 z m -3.545023,4.058392 c 0.406259,0.923317 0.703327,1.974682 0.88799,3.156527 0.221596,1.144912 0.797945,2.01769 0.221998,2.719469 -0.613226,0.747201 -1.992646,0.148333 -2.87903,0.332996 -0.849451,0.184656 -1.807983,0.27056 -2.87903,0.27056 0.221596,-0.295462 0.456024,-0.622725 0.714554,-0.992052 z m 8.366531,9.31002 c 0,0.29546 0.03714,0.641292 0.110999,1.04755 0.07386,0.406259 0.148137,0.833293 0.221997,1.276486 0.147731,0.738652 0.277697,1.530084 0.388496,2.379536 0.147735,0.812519 0.392981,1.758818 0.319121,2.497471 -1.994364,0.07386 -3.832668,0.162209 -5.605437,0.346871 -1.735834,0.14776 -3.827978,-0.0069 -5.563812,-0.0069 0.369327,-1.36651 0.465849,-2.367267 -0.235872,-3.253651 -0.664788,-0.849451 -1.722689,-1.348708 -2.941467,-1.644169 -1.181846,-0.29545 -2.186894,-0.552346 -3.073278,-0.367683 0.147731,0.369328 0.238519,0.844721 0.423183,1.214049 l 0.665992,0.998988 c 0.332395,0.55399 0.545664,1.097083 0.929615,1.651107 0.479921,0.435931 0.195243,1.18185 0.180373,1.824542 -0.357349,0.111267 -1.193558,0.181873 -1.886979,0.180373 -2.073907,0.131762 -4.062218,0.107989 -6.118806,0.332996 -0.258529,0 -0.620279,-0.03224 -0.915739,0.04162 0.775586,0.923318 1.511718,1.96245 2.435035,2.774969 0.923318,0.812519 2.197282,1.184454 3.71152,1.442984 0.295462,-0.295462 0.738416,-0.35421 1.144675,-0.575806 0.443191,-0.221593 1.352797,-0.353809 1.352797,-0.353809 0,0 -0.130368,2.9049 -0.610493,4.419138 -0.443192,1.514239 -0.907359,2.899804 -1.387484,4.155516 -0.184663,0.480124 -0.363394,0.944292 -0.548057,1.387484 -0.147731,0.443193 -0.259136,0.833093 -0.332996,1.165487 0.110798,0.184656 0.222198,0.277497 0.332996,0.277497 0.147732,0 0.296264,-0.01856 0.443995,-0.0555 0.184663,-0.03694 0.289119,-0.03694 0.326059,0 0.627855,-0.443192 1.147724,-0.833092 1.553983,-1.165487 0.406258,-0.332393 0.74046,-0.68516 0.998988,-1.054488 1.969919,-2.984427 3.474834,-6.19774 3.434024,-9.858076 0.701721,0 1.254632,-0.266074 1.956353,-0.339934 l 2.365661,0.0069 c 1.522212,-0.02251 2.548242,-0.488071 3.76702,-0.561931 1.255711,-0.110798 2.60803,0.04672 3.642146,0.305246 0.07386,0.517057 -0.09712,1.219745 -0.09712,1.810667 0,0.590924 -0.01856,1.215253 -0.0555,1.880042 -0.03694,0.443191 -0.0462,0.888504 -0.0555,1.331985 -0.0096,0.461558 0,1.380546 0,1.380546 0.03694,0.775587 0.09264,1.741054 0.166499,2.885968 0.07386,1.181845 0.259533,2.251777 0.554993,3.212026 0.295461,0.997182 0.429026,2.010231 1.436047,1.935541 1.007021,-0.07469 1.498883,-1.845518 1.72048,-3.212026 0.258533,-1.329577 0.388496,-2.752275 0.388496,-4.266515 0,-0.406258 0.0087,-0.794647 -0.0069,-1.165487 l -0.04856,-1.214048 c -0.03694,-0.775586 -0.0555,-1.555388 -0.0555,-2.330974 0,-0.812519 -0.157109,-1.726376 -0.08325,-2.428098 0.775586,-0.1108 1.913687,-0.106314 2.615408,-0.06937 l 1.900853,0.228935 c 0.737002,0.08883 1.474385,0.129558 2.213038,0.166498 0.949375,0.01114 1.89916,-0.117637 2.712532,-0.554994 0.092,-0.04947 0.184967,-0.129437 0.221997,-0.221997 0.03702,-0.09255 0.0277,-0.320524 -0.0555,-0.443995 -0.50187,-1.534583 -2.720034,-1.695981 -4.308139,-2.213038 -1.588105,-0.517057 -3.293194,-0.629052 -4.696634,-0.665992 0.184662,-1.10798 0.292815,-2.325241 -0.187311,-2.990029 -0.480125,-0.701721 -1.129959,-1.277289 -1.942478,-1.72048 -0.812519,-0.443193 -1.641083,-0.844723 -2.490534,-1.214049 -0.221596,-0.110798 -0.444397,-0.203637 -0.665993,-0.277497 z m 6.88886,28.644614 c -2.511239,-0.03494 -6.550098,0.427455 -12.848105,1.373609 -6.062718,0.910838 -9.358411,0.958956 -12.480422,0.166499 -2.333207,-0.592244 -4.381776,-0.946164 -4.550949,-0.776992 -0.169172,0.169173 0.527867,1.337585 1.540108,2.587659 1.347363,1.663925 3.226785,2.402819 7.027608,2.768031 l 5.189192,0.499494 v 4.00983 4.016767 l -6.743174,-0.541119 -6.743174,-0.541119 2.795781,2.407286 c 1.931808,1.661678 4.016946,2.407288 6.743174,2.407288 3.695025,0 3.947393,0.18686 3.947393,2.92065 0,1.60662 0.251184,3.56499 0.554993,4.3567 0.800286,2.08551 -9.135731,3.10822 -14.998705,1.54011 -2.477765,-0.66276 -4.781753,-0.94161 -5.11288,-0.61049 -1.050611,1.05057 1.896788,4.72494 5.029631,6.27143 3.716447,1.83456 2.488343,1.90456 9.802576,-0.58275 5.595442,-1.90279 7.562433,-2.04807 19.403969,-1.44992 14.197797,0.71717 16.328787,0.0952 12.556733,-3.67683 -2.275489,-2.27554 -4.768967,-2.50464 -14.110716,-1.2973 l -6.389365,0.82555 0.728429,-3.89189 c 1.00038,-5.332484 1.084656,-5.411189 6.111869,-5.411189 3.236718,0 4.446887,-0.396178 4.446887,-1.463796 0,-2.140441 -3.394333,-3.611239 -6.777861,-2.93453 -2.682663,0.536507 -2.998357,0.305358 -3.586647,-2.63622 -0.979158,-4.895698 -0.931512,-4.974131 3.288338,-4.974131 5.522087,0 9.298526,-1.602785 8.872962,-3.760083 -0.204488,-1.036646 -1.186437,-1.567609 -3.697645,-1.602544 z" /><path
       id="path29"
       style="-inkscape-font-specification:'Yuji Boku';display:inline;fill:#2f2f2f;fill-opacity:1"
       d="m 42.975118,30.431179 c -0.07549,0.07947 -0.05742,0.202014 -0.0571,0.394964 0,0.32 0.07793,0.668801 0.23793,1.042134 0.16,0.373332 0.320619,0.717375 0.480619,1.037375 0.08,0.16 0.146531,0.320619 0.199861,0.480619 0.08,0.133332 0.135122,0.254986 0.161792,0.361653 0.10667,0.48 0.173192,1.012224 0.199862,1.59889 0.05333,0.586667 0.02577,1.130292 -0.0809,1.636959 -0.08,0.479999 -0.279584,0.801238 -0.599583,0.961237 -0.24,0.106667 -0.639168,0.200758 -1.199168,0.280758 -0.533332,0.05333 -1.09312,0.0809 -1.679786,0.0809 -0.586666,0 -1.068523,-0.01616 -1.441856,-0.04283 -0.32,-0.02667 -0.641238,-0.07703 -0.961237,-0.157034 -4.233821,-0.958376 -1.256042,-0.168081 -3.730744,-1.018341 0.896403,1.141753 1.545205,2.431039 2.693369,3.378607 0.239999,0.266667 0.345496,0.599307 0.318826,0.999306 0.346666,0.05333 0.734432,0.04193 1.161098,-0.03807 0.426667,-0.08 0.8648,-0.190252 1.318133,-0.323585 0.479999,-0.133332 0.945696,-0.238826 1.399029,-0.318826 0.479999,-0.08 0.883926,-0.05244 1.203926,0.0809 -3.264452,9.53732 -11.245167,13.499464 -12.800637,13.956977 1.98506,-0.123178 4.339504,-0.802292 5.805493,-1.413304 2.551417,-1.563846 3.74461,-2.013609 5.548529,-4.696739 0.266667,0.506666 0.685858,0.980179 1.165857,1.113512 0.48,0.13333 0.973259,0.199861 1.479925,0.199861 h 0.199861 c 0.426667,0 0.837237,0.02757 1.237237,0.0809 0.399999,0.02667 0.760202,0.143562 1.080202,0.356895 v 0.68048 c -0.02667,0.506666 -0.02667,1.027488 0,1.560821 0.02667,0.533332 0.136918,0.999029 0.323585,1.399029 0.213333,0.399999 0.557375,0.638548 1.037375,0.718548 0.639999,-0.426666 1.066731,-1.075786 1.280064,-1.955785 0.213329,-0.879999 0.252298,-1.777185 0.118965,-2.683851 0.559999,-0.266666 1.135947,-0.42253 1.722613,-0.47586 0.586667,-0.08 1.185419,-0.123723 1.798751,-0.123723 0.453333,0 0.907628,-0.0114 1.36096,-0.03807 0.48,-0.05333 0.766754,-0.326366 1.246754,-0.433033 2.360924,1.734865 8.488645,7.216525 10.392784,4.111431 1.90672,-3.109303 -1.779965,-4.854759 -6.095767,-6.609696 -3.382221,-1.375314 -6.828065,-3.920416 -8.765344,-6.386043 1.253332,-0.16 2.876145,-0.323585 4.182811,-0.323585 1.333331,-0.02667 2.569801,8.96e-4 3.716467,0.0809 0.05333,-0.08 0.104853,-0.136251 0.161793,-0.199861 0.06288,-0.07025 0.146531,-0.119861 0.199861,-0.199861 0.186667,-0.16 0.331124,-0.332021 0.437791,-0.518688 0.106667,-0.213333 0.0012,-0.534571 -0.318826,-0.961237 -0.666667,-0.453333 -1.370911,-0.763169 -2.117578,-0.923169 -0.746666,-0.159997 -1.272866,0.06186 -2.046198,0.06186 -0.533333,0 -1.089351,0.0038 -1.622683,0.0571 -0.533332,0.02667 -1.408177,-0.0039 -1.941509,0.07614 l -1.789234,-0.03331 c -0.642117,-0.01139 -1.453785,0.388323 -2.093785,0.361653 0.05333,-0.293332 -0.08188,-0.786684 -0.02855,-1.346684 0.05333,-0.559999 0.575605,-1.266499 0.842272,-1.613166 C 47.732362,33.787238 46.968232,33.000304 46.0349,32.386971 45.068455,31.726606 44.037132,30.74827 42.975119,30.431186 Z m 6.038665,9.812236 c 0.639999,1.013332 1.211993,1.878012 1.931992,2.864678 0.746666,0.959999 1.291993,2.036127 1.931992,2.836126 0.706821,0.881231 1.563444,1.682897 1.898682,2.783781 -0.213333,-0.08 -0.751674,-0.516709 -1.018341,-0.623376 -0.666666,-0.266667 -1.25859,-0.283447 -2.031923,-0.523446 -0.773332,-0.26667 -1.053626,-0.603926 -2.326955,-0.594826 -0.06323,-1.794026 -0.960293,-2.905289 -1.641718,-3.359572 -0.559999,-0.373333 -1.092223,-0.667008 -1.59889,-0.880341 -0.08,-0.266667 -0.02963,-0.587905 0.157034,-0.961238 0.186667,-0.373332 0.374848,-0.717375 0.561515,-1.037375 0.10667,-0.133332 0.173191,-0.243585 0.199861,-0.323584 0.24,-0.05333 0.522273,-0.07614 0.842273,-0.07614 0.319999,0 0.854478,-0.07802 1.094478,-0.104689 z m -3.654606,2.940815 c 0.215144,0.488965 0.97429,1.566691 1.313374,2.617231 0.329686,1.021414 0.24033,2.024228 0.23793,2.046198 -0.746666,0.02667 -2.191368,-0.31416 -2.831367,-0.180827 -0.613333,0.13333 -1.310935,0.199862 -2.084268,0.199862 0.195513,-0.323571 3.103769,-4.568395 3.364331,-4.682464 z m 6.038665,6.723903 c 0,0.213333 0.02757,0.463285 0.0809,0.756618 0.05333,0.293333 0.103704,0.603169 0.157034,0.923169 0.106667,0.533332 0.200758,1.104522 0.280757,1.717855 0.10667,0.586666 0.134227,1.146453 0.0809,1.679786 -1.439999,0.05333 -2.560193,0.447216 -3.840191,0.580549 -1.253332,0.10667 -2.748652,-0.137999 -4.001984,-0.137999 0.266667,-0.986666 0.149772,-1.801163 -0.356895,-2.441163 -0.479999,-0.613332 -0.828338,-1.119075 -1.708338,-1.332408 l -2.127094,-0.04759 c 0.239999,0.4 0.845949,2.340955 1.032616,2.740954 0.21333,0.4 0.855652,1.244499 0.775652,1.751165 -0.186667,-0.02667 -0.973443,-0.421633 -1.213443,-0.394963 -0.24,0 -0.49471,0.02757 -0.761376,0.0809 -1.497432,0.09514 -2.992917,0.118294 -4.477844,0.280757 -0.186667,0 -0.386251,0.02757 -0.599584,0.0809 0.56,0.666667 1.441394,0.99319 2.108061,1.579856 0.666666,0.586666 1.276451,1.274224 2.369783,1.46089 0.213333,-0.213332 0.468043,-0.401515 0.761376,-0.561514 0.32,-0.16 0.636479,-0.215123 0.956479,-0.161793 0.08,1.013332 -0.05306,2.066379 -0.399723,3.159711 -0.319999,1.093332 -0.652639,2.096011 -0.999306,3.002677 -0.133333,0.346667 -0.266389,0.679307 -0.399722,0.999307 -0.106667,0.319999 -0.1846,0.602272 -0.23793,0.842272 0.08,0.13333 0.15793,0.199861 0.23793,0.199861 0.106667,0 0.212159,-0.01616 0.318826,-0.04283 0.133333,-0.02667 0.216019,-0.02667 0.242689,0 0.453332,-0.32 0.824938,-0.597514 1.118271,-0.837514 0.293333,-0.24 0.53664,-0.494709 0.723307,-0.761376 0.533333,-0.773332 1.065558,-1.720886 1.59889,-2.840885 0.533333,-1.119999 0.827011,-2.544651 0.880341,-4.277982 2.699694,-0.05684 5.180951,-1.097146 8.318035,-0.323585 0.05333,0.373333 0.0809,0.777259 0.0809,1.203926 0,0.426667 -0.0114,0.876202 -0.03807,1.356201 -0.02667,0.32 -0.04283,0.641238 -0.04283,0.961238 v 0.999306 c 0.02667,0.559999 0.06564,1.252842 0.118965,2.079509 0.05333,0.853332 0.18639,1.628865 0.399722,2.322197 0.213333,0.719999 0.562135,1.185696 1.042134,1.399029 0.85613,-2.10561 1.001457,-5.809607 0.927927,-8.717758 0,-0.586666 0.131448,-1.41901 0.361654,-1.884406 2.296485,-0.955777 1.915722,-0.355749 5.044117,-0.0571 0.98158,0.0937 1.394576,0.397068 2.027164,-0.218895 0.02667,-0.08 0.0105,-0.185494 -0.04283,-0.318827 -0.906666,-0.773332 -1.932149,-1.349281 -3.078815,-1.722613 -1.146666,-0.373333 -2.227275,-0.572914 -3.240607,-0.599584 0.133332,-0.799999 0.02784,-1.437717 -0.318827,-1.917716 -0.346666,-0.506667 -0.812362,-0.921995 -1.399028,-1.241995 -0.586667,-0.32 -1.185419,-0.613675 -1.798752,-0.880341 -0.159999,-0.08 -0.320618,-0.146532 -0.480618,-0.199862 z m 5.539012,19.04868 c -1.202204,0.04683 -3.499421,0.447281 -8.113415,1.251513 -4.656435,0.811667 -9.802746,0.671289 -12.229605,-0.337861 -0.936847,-0.389581 -1.116853,-0.248618 -0.78041,0.628135 0.612105,1.595115 3.900573,3.140677 6.676317,3.140677 2.094186,0 2.398705,0.239842 2.78854,2.188956 0.240747,1.203748 0.144882,2.477107 -0.209378,2.831368 -0.354268,0.354227 -2.521736,0.508558 -4.815705,0.342619 -2.293968,-0.165931 -4.173293,-0.200198 -4.173293,-0.07614 0,0.842827 4.901652,2.950971 6.87142,2.955091 2.37907,0.0048 2.401371,0.03226 2.417369,3.021712 l 0.01904,3.021711 -3.383365,0.447309 c -1.988452,0.263783 -4.743031,0.09588 -6.695352,-0.404481 -1.825226,-0.467789 -3.531671,-0.636871 -3.787846,-0.380688 -0.684476,0.684503 1.853575,3.275039 4.173293,4.263706 1.708553,0.728173 2.583488,0.654994 5.834044,-0.490136 3.255267,-1.146833 5.258458,-1.314703 13.43829,-1.12303 8.187062,0.191838 9.612374,0.07299 9.612374,-0.804203 0,-1.835999 -4.083562,-3.325399 -7.375832,-2.68861 -1.609369,0.311292 -4.04201,0.583105 -5.405771,0.599584 l -2.479231,0.02855 0.709032,-3.088333 c 0.702417,-3.069567 0.725948,-3.09309 3.64033,-3.09309 1.613502,0 3.152624,-0.354995 3.421434,-0.789928 0.80384,-1.300618 -1.818643,-2.696731 -4.220879,-2.24606 -2.058042,0.386093 -2.20466,0.268802 -2.85992,-2.31268 l -0.689997,-2.717161 4.106673,-0.371171 c 4.465524,-0.404893 5.740685,-1.139003 5.058393,-2.917022 -0.206642,-0.538546 -0.317653,-0.844115 -1.146823,-0.880342 -0.118451,-0.0055 -0.249446,-0.0055 -0.399722,0 z"
       transform="matrix(1.45787,0,0,1.45787,-19.358,-18.55)" /><path
       id="path49"
       style="font-size:40px;-inkscape-font-specification:'Yuji Boku';white-space:pre;display:inline;fill:#040404;fill-opacity:1;stroke-width:1.32091"
       inkscape:label="path30"
       d="m 43.752005,26.813692 c -0.0046,0.008 -0.007,0.02932 -0.0069,0.06244 0,0.439363 0.289234,1.721263 0.492557,2.23385 0.20333,0.512586 0.407168,0.989746 0.610493,1.429109 0.101661,0.219681 0.181973,0.439374 0.249747,0.659055 0.101662,0.183064 0.174242,0.346108 0.208123,0.492557 0.135563,0.659043 0.215859,1.393666 0.249747,2.199162 0.06773,0.805496 0.03846,1.552071 -0.09712,2.247725 -0.101665,0.659043 -0.356455,1.098429 -0.763116,1.31811 -0.304986,0.14645 -0.814584,0.278655 -1.526233,0.388496 -0.677755,0.07327 -1.391195,0.110998 -2.136726,0.110998 -0.745528,0 -1.357047,-0.01894 -1.831479,-0.0555 -0.406649,-0.03664 -0.814332,-0.112159 -1.220986,-0.221997 l -1.116925,-0.437058 c -0.508325,-0.183072 -1.017921,-0.346097 -1.526233,-0.492557 -0.474434,-0.146456 -2.37685,-0.540013 -2.85128,-0.43012 0,0.732272 1.000844,2.083939 1.373609,2.559908 0.37276,0.439363 1.313832,0.922302 1.720481,1.325048 0.372769,0.366136 0.777242,0.311801 1.082237,0.714554 0.304987,0.36613 0.443202,0.824408 0.409308,1.37361 0.440543,0.07328 0.928525,0.05426 1.470734,-0.0555 0.542206,-0.10984 1.102757,-0.253986 1.678856,-0.437058 0.609979,-0.183062 1.206818,-0.334154 1.782917,-0.443995 0.609977,-0.10984 1.112642,-0.07207 1.519295,0.110999 -1.013724,3.650888 -12.897305,16.646584 -14.110715,17.565552 -1.21341,0.918966 -1.99781,1.088462 -3.14959,1.727418 1.948129,0.161907 3.22216,0.797297 5.08513,-0.04162 7.525579,-5.488985 11.956804,-12.167408 17.579427,-20.840015 1.262968,-0.03462 1.328938,-0.07588 2.885967,0.04162 3.415636,7.852962 9.850869,13.838354 15.414951,17.288055 1.038033,0.643574 2.044585,1.195269 2.996966,1.658043 4.167009,1.860973 6.901076,0.896822 5.848247,-2.788843 -0.407343,-1.425995 -3.054601,-2.971083 -6.451802,-4.800696 -5.128063,-2.761794 -11.952929,-6.167589 -15.317827,-10.794628 4.259905,-0.07773 8.291712,-1.126611 12.424922,-2.095101 0.846749,-1.829689 -7.727581,-2.303224 -7.804599,-2.303224 -0.677762,0 -1.354909,0.03778 -2.032665,0.110998 -0.677756,0.03664 -1.354907,0.112158 -2.032665,0.221998 l -2.441972,0.221997 c -0.813309,0.07327 -1.621726,0.0852 -2.435035,0.04856 0.06773,-0.402746 0.133418,-0.986285 0.201185,-1.755167 0.06773,-0.768885 0.271615,-1.390194 0.610493,-1.866167 -0.745529,-1.318093 -1.713764,-2.397664 -2.899842,-3.239776 -1.228158,-0.90669 -2.542288,-2.249424 -3.891893,-2.684782 -0.08391,0.09548 -0.217568,-0.382093 -0.249748,-0.326059 z m 3.135715,16.219692 -0.0069,0.0069 0.0069,0.0069 z m 0.409308,1.096113 0.548056,3.656021 c 0.203326,1.135014 0.268958,2.032677 0.201185,2.69172 -3.87801,0.78544 -4.967786,1.166127 -6.874984,1.429108 0.0793,0.713068 1.327673,1.664997 1.997977,1.866167 0.609984,0.183066 1.236171,0.270559 1.880041,0.270559 1.044358,0 1.437372,0.05423 1.83148,0.110999 0.508318,0.03664 0.966956,0.199648 1.373609,0.492557 -0.0073,2.386155 -0.031,4.793247 1.595607,6.652987 2.314206,-1.666879 1.998108,-6.371005 1.907791,-7.034545 0.711647,-0.366137 1.439751,-0.585836 2.185288,-0.659055 0.745531,-0.109844 1.509931,-0.166498 2.289349,-0.166498 0.576098,0 1.151326,-0.01889 1.727418,-0.0555 0.609586,-0.07323 2.167331,-0.496296 2.705594,-0.631305 -0.707277,-0.707277 -4.823941,-2.781168 -8.498341,-2.87903 0.169437,-1.025178 0.0312,-1.922836 -0.409308,-2.69172 -0.406655,-0.76888 -0.960269,-1.409073 -1.671919,-1.921666 z m 8.352656,11.640993 -0.07631,0.0069 c 0.0016,0.12582 0.0086,0.262076 0.02775,0.409308 0.01915,0.147231 0.05311,0.301726 0.09019,0.471744 0.07758,0.356723 0.151219,0.734707 0.228935,1.123863 0.15546,0.648594 0.292713,1.34228 0.409308,2.088164 0.07772,0.356726 0.126105,0.707553 0.145686,1.04755 0.01958,0.339998 0.0042,0.674692 -0.03469,0.998989 -1.049318,0.03241 -2.068589,0.07473 -3.059403,0.131811 -0.990815,0.05708 -1.953235,0.12705 -2.885968,0.208123 -1.826596,0.129725 -3.653968,0.194247 -5.480563,0.194247 0.09716,-0.299973 0.16066,-0.586663 0.18731,-0.86024 0.01333,-0.136788 0.01817,-0.272175 0.01387,-0.40237 -0.0043,-0.130195 -0.01278,-0.257953 -0.03469,-0.381558 -0.02191,-0.123606 -0.05761,-0.243726 -0.09712,-0.360746 -0.03951,-0.117021 -0.08857,-0.229495 -0.145686,-0.339934 -0.114231,-0.220879 -0.259392,-0.42979 -0.443995,-0.624368 -0.174886,-0.18647 -0.371645,-0.357318 -0.582743,-0.513369 -0.211098,-0.156052 -0.439346,-0.297539 -0.686805,-0.423183 -0.247459,-0.125644 -0.513834,-0.230812 -0.797803,-0.326059 -0.283969,-0.09525 -0.581237,-0.17795 -0.901865,-0.24281 -0.310902,-0.06486 -0.617226,-0.113878 -0.908802,-0.152623 -0.291577,-0.03875 -0.574184,-0.07078 -0.846366,-0.08325 -0.544362,-0.02495 -1.045991,0.0091 -1.512358,0.09019 0.155476,0.324297 0.332936,0.646943 0.527244,0.971239 l 0.693743,0.874115 c 0.17488,0.243221 0.34431,0.485295 0.499494,0.728429 0.155184,0.243134 0.301036,0.485206 0.437058,0.728429 0.23318,0.364834 0.346802,0.769204 0.339933,1.207112 -0.0023,0.145969 -0.01941,0.296892 -0.04856,0.450932 -0.272043,-0.03241 -0.586771,-0.03241 -0.936552,0 -0.174889,0 -0.349629,0.0045 -0.534181,0.02081 -0.184552,0.01631 -0.374544,0.0439 -0.568869,0.07631 -1.636767,0.08677 -3.276105,0.125749 -4.904757,0.221998 -0.542884,0.03208 -1.082329,0.06854 -1.623356,0.117936 -0.272042,0 -0.563204,0.03228 -0.874116,0.09712 0.408064,0.405367 0.836476,0.798108 1.283423,1.179361 0.446948,0.381254 0.908637,0.753262 1.394422,1.109988 0.485798,0.356726 1.051933,0.653009 1.692731,0.88799 0.640798,0.234981 1.360827,0.406803 2.157538,0.520306 0.155456,-0.129717 0.321392,-0.254024 0.506432,-0.367683 0.18504,-0.113659 0.38286,-0.214897 0.596618,-0.312184 0.233174,-0.09729 0.467662,-0.161636 0.70068,-0.194248 0.233017,-0.03261 0.467486,-0.03242 0.700679,0 -0.06106,1.106246 -0.206978,2.193581 -0.40237,3.274463 -0.0977,0.540441 -0.205744,1.079392 -0.326059,1.61642 -0.120315,0.537027 -0.252872,1.073915 -0.388496,1.609481 -0.271246,1.071133 -0.564683,2.141967 -0.853302,3.218964 -0.14431,0.538499 -0.285495,1.073527 -0.423183,1.616419 -0.137688,0.542893 -0.271678,1.087994 -0.395433,1.637232 0.05623,-0.04879 0.185363,-0.192187 0.360746,-0.416245 0.526149,-0.672175 1.514633,-2.03113 2.525221,-3.454836 0.673726,-0.949138 1.352349,-1.929838 1.914729,-2.754157 0.56238,-0.824318 1.003523,-1.492109 1.193236,-1.824542 0.09716,-0.170256 0.191303,-0.34533 0.277497,-0.527244 0.172388,-0.363827 0.322342,-0.755035 0.450932,-1.165487 0.0643,-0.205225 0.120076,-0.414425 0.173436,-0.631305 0.05336,-0.21688 0.103251,-0.437458 0.145686,-0.665993 0.127303,-0.685602 0.206731,-1.422565 0.235872,-2.213037 0.73841,0 1.474635,-0.03228 2.213038,-0.09712 l 2.330973,-0.194248 c 1.360247,-0.129715 2.685706,-0.233458 3.968206,-0.298309 0.660677,-0.04864 1.291787,-0.05342 1.893916,-0.02081 0.602128,0.03261 1.176394,0.108471 1.72048,0.221997 0.03879,0.227008 0.06365,0.457545 0.08325,0.70068 0.0196,0.243135 0.03469,0.496743 0.03469,0.756179 0,0.518876 -0.02345,1.067371 -0.06244,1.651106 -0.03899,0.389155 -0.0555,0.78327 -0.0555,1.172425 v 1.214048 c 0.03899,0.681018 0.09557,1.519905 0.173436,2.525222 4e-4,0.0054 0.08297,0.487139 0.21506,1.207111 0.132093,0.719973 0.316062,1.682347 0.520306,2.650095 0.102123,0.483874 0.210126,0.970809 0.319122,1.429109 0.108996,0.458301 0.217631,0.888229 0.326059,1.262611 0.216855,0.748764 0.426693,1.268965 0.596618,1.331985 0.174262,-0.267462 0.330762,-0.538269 0.478682,-0.811678 0.14792,-0.27341 0.285714,-0.546784 0.409308,-0.825554 0.123594,-0.27877 0.231713,-0.562821 0.332996,-0.846365 0.101284,-0.283544 0.196509,-0.565571 0.277497,-0.853303 0.08099,-0.287731 0.152351,-0.582783 0.21506,-0.874115 0.06271,-0.291332 0.113116,-0.579769 0.159561,-0.874115 0.04644,-0.294347 0.08574,-0.591216 0.117936,-0.88799 0.289769,-2.670967 0.04804,-5.431252 0,-8.061284 0,-0.356726 0.01676,-0.721483 0.04856,-1.075301 0.0318,-0.353817 0.07911,-0.697846 0.117936,-1.005926 0.204034,-0.02432 0.41508,-0.03817 0.631305,-0.04856 0.216226,-0.01039 0.435068,-0.01353 0.652118,-0.01387 0.434101,-6.83e-4 0.858726,0.01153 1.227924,0.02775 l 2.213037,0.09712 c 0.77726,0.06481 1.553709,0.120186 2.330974,0.152623 0.624381,0.0062 1.328578,0.06504 1.928603,-0.04856 0.24001,-0.04544 0.463265,-0.120533 0.659055,-0.235872 0.09789,-0.05767 0.18804,-0.127543 0.27056,-0.208123 0.0583,-0.03241 0.107015,-0.06499 0.145686,-0.09712 0.03867,-0.03213 0.07075,-0.0647 0.09019,-0.09712 0.039,-0.09728 0.01552,-0.226347 -0.06244,-0.388496 -0.66069,-0.470229 -1.360971,-0.878796 -2.108976,-1.227924 -0.374003,-0.174564 -0.762672,-0.334584 -1.158549,-0.478682 -0.395878,-0.144097 -0.803204,-0.268055 -1.220987,-0.381558 -0.417783,-0.113503 -0.829337,-0.2182 -1.234861,-0.305247 -1.21657,-0.261139 -2.374971,-0.398859 -3.482585,-0.423182 0.14574,-0.729666 0.09527,-1.355118 -0.152624,-1.866167 -0.08263,-0.170349 -0.185844,-0.325812 -0.312184,-0.471744 -0.505231,-0.616271 -1.191537,-1.123203 -2.046539,-1.512358 -0.855001,-0.389175 -1.728482,-0.744068 -2.622345,-1.068363 -0.233161,-0.09728 -0.467501,-0.17796 -0.70068,-0.24281 z m 6.937421,26.313641 c -1.547597,0.06797 -3.62179,0.429082 -6.299179,1.0753 -7.76284,1.873679 -17.58273,2.140191 -21.728004,0.589681 l -2.816594,-1.054488 2.774969,2.795781 c 2.259262,2.283967 3.640573,2.80365 7.540977,2.809656 l 4.779884,0.0069 0.194248,4.211015 0.180373,4.211015 -6.729299,0.291372 -6.736237,0.298309 3.323025,1.810667 c 1.828303,0.997771 4.308531,1.739361 5.508313,1.644171 4.364417,-0.34645 4.68276,-0.0402 4.68276,4.48157 v 4.43301 l -5.543,0.68681 c -3.502519,0.43761 -7.196513,0.23374 -10.038449,-0.56193 -2.473251,-0.69241 -4.765525,-0.99255 -5.092068,-0.666 -0.326523,0.32655 0.779459,1.9658 2.455847,3.64215 3.510808,3.51084 6.088144,3.77566 13.368412,1.39442 4.060277,-1.32804 7.518004,-1.53866 17.780612,-1.08224 14.356298,0.63849 16.482852,0.11752 13.125601,-3.23977 -2.08101,-2.08097 -2.75208,-2.16526 -11.738117,-1.49155 -9.025597,0.67668 -9.501157,0.61388 -8.970086,-1.16549 0.308424,-1.03339 0.852941,-3.12015 1.214049,-4.63419 0.591132,-2.47845 1.090194,-2.754156 4.994943,-2.754156 2.385351,0 4.638981,-0.481165 5.001881,-1.068363 1.109671,-1.79544 -2.733932,-3.778203 -6.222867,-3.212026 -2.912878,0.472701 -3.292181,0.242377 -3.864144,-2.351786 -0.348715,-1.581622 -0.807785,-3.439565 -1.019801,-4.127766 -0.252928,-0.820987 0.723502,-1.251669 2.837406,-1.255674 5.021426,-0.009 10.732191,-1.907685 10.732191,-3.572772 0,-1.358294 -0.86067,-2.064072 -2.802718,-2.143663 -0.277443,-0.01141 -0.572509,-0.01401 -0.894928,0 z" /></g></svg>
