<?xml version="1.0" encoding="UTF-8" standalone="no"?>
<!-- Created with Inkscape (http://www.inkscape.org/) -->

<svg
   viewBox="0 0 39.200001 39.200001"
   version="1.1"
   id="svg1"
   inkscape:version="1.3.2 (091e20e, 2023-11-25, custom)"
   sodipodi:docname="Rook.svg"
   xml:space="preserve"
   xmlns:inkscape="http://www.inkscape.org/namespaces/inkscape"
   xmlns:sodipodi="http://sodipodi.sourceforge.net/DTD/sodipodi-0.dtd"
   xmlns="http://www.w3.org/2000/svg"
   xmlns:svg="http://www.w3.org/2000/svg"><sodipodi:namedview
     id="namedview1"
     pagecolor="#ffffff"
     bordercolor="#111111"
     borderopacity="1"
     inkscape:showpageshadow="0"
     inkscape:pageopacity="0"
     inkscape:pagecheckerboard="1"
     inkscape:deskcolor="#d1d1d1"
     inkscape:document-units="mm"
     showguides="true"
     inkscape:zoom="14.005102"
     inkscape:cx="19.6"
     inkscape:cy="19.6"
     inkscape:window-width="1292"
     inkscape:window-height="745"
     inkscape:window-x="-8"
     inkscape:window-y="-8"
     inkscape:window-maximized="1"
     inkscape:current-layer="layer1"><inkscape:page
       x="0"
       y="0"
       width="39.200001"
       height="39.200001"
       id="page42"
       margin="0"
       bleed="0" /></sodipodi:namedview><defs
     id="defs1"><inkscape:path-effect
       effect="powerstroke"
       id="path-effect13"
       is_visible="true"
       lpeversion="1.3"
       scale_width="1"
       interpolator_type="CubicBezierJohan"
       interpolator_beta="0.2"
       start_linecap_type="zerowidth"
       end_linecap_type="zerowidth"
       offset_points="5,4.9921382"
       linejoin_type="extrp_arc"
       miter_limit="4"
       not_jump="false"
       sort_points="true"
       message="&lt;b&gt;Ctrl + click&lt;/b&gt; on existing node and move it" /><inkscape:path-effect
       effect="powerstroke"
       id="path-effect47"
       is_visible="true"
       lpeversion="1.3"
       scale_width="1"
       interpolator_type="CubicBezierJohan"
       interpolator_beta="0.2"
       start_linecap_type="zerowidth"
       end_linecap_type="zerowidth"
       offset_points="20,4.9921382"
       linejoin_type="extrp_arc"
       miter_limit="4"
       not_jump="false"
       sort_points="true"
       message="&lt;b&gt;Ctrl + click&lt;/b&gt; on existing node and move it" /><inkscape:path-effect
       effect="fill_between_many"
       method="bsplinespiro"
       autoreverse="false"
       close="false"
       join="false"
       linkedpaths="#path41,0,1"
       id="path-effect45" /><inkscape:path-effect
       effect="powerstroke"
       id="path-effect41"
       is_visible="true"
       lpeversion="1.3"
       scale_width="1"
       interpolator_type="CubicBezierJohan"
       interpolator_beta="0.2"
       start_linecap_type="zerowidth"
       end_linecap_type="zerowidth"
       offset_points="14,4.9921382"
       linejoin_type="extrp_arc"
       miter_limit="4"
       not_jump="false"
       sort_points="true"
       message="&lt;b&gt;Ctrl + click&lt;/b&gt; on existing node and move it" /><inkscape:path-effect
       effect="powerstroke"
       id="path-effect38"
       is_visible="true"
       lpeversion="1.3"
       scale_width="1"
       interpolator_type="CubicBezierJohan"
       interpolator_beta="0.2"
       start_linecap_type="zerowidth"
       end_linecap_type="zerowidth"
       offset_points="17,4.9921382"
       linejoin_type="extrp_arc"
       miter_limit="4"
       not_jump="false"
       sort_points="true"
       message="&lt;b&gt;Ctrl + click&lt;/b&gt; on existing node and move it" /><inkscape:path-effect
       effect="powerstroke"
       id="path-effect35"
       is_visible="true"
       lpeversion="1.3"
       scale_width="1"
       interpolator_type="CubicBezierJohan"
       interpolator_beta="0.2"
       start_linecap_type="zerowidth"
       end_linecap_type="zerowidth"
       offset_points="20,4.9921382"
       linejoin_type="extrp_arc"
       miter_limit="4"
       not_jump="false"
       sort_points="true"
       message="&lt;b&gt;Ctrl + click&lt;/b&gt; on existing node and move it" /><inkscape:path-effect
       effect="fill_between_many"
       method="bsplinespiro"
       autoreverse="false"
       close="false"
       join="false"
       linkedpaths="#path31,0,1"
       id="path-effect34"
       is_visible="true"
       lpeversion="0" /><inkscape:path-effect
       effect="powerstroke"
       id="path-effect31"
       is_visible="true"
       lpeversion="1.3"
       scale_width="1"
       interpolator_type="CubicBezierJohan"
       interpolator_beta="0.2"
       start_linecap_type="zerowidth"
       end_linecap_type="zerowidth"
       offset_points="15,4.9921382"
       linejoin_type="extrp_arc"
       miter_limit="4"
       not_jump="false"
       sort_points="true"
       message="&lt;b&gt;Ctrl + click&lt;/b&gt; on existing node and move it" /><inkscape:path-effect
       effect="fill_between_many"
       method="bsplinespiro"
       autoreverse="false"
       close="false"
       join="false"
       linkedpaths="#path31,0,1"
       id="path-effect32"
       is_visible="true"
       lpeversion="0" /><inkscape:path-effect
       effect="fill_between_many"
       method="bsplinespiro"
       autoreverse="false"
       close="false"
       join="false"
       linkedpaths="#path34,0,1"
       id="path-effect36"
       is_visible="true"
       lpeversion="0" /><inkscape:path-effect
       effect="fill_between_many"
       method="bsplinespiro"
       autoreverse="false"
       close="false"
       join="false"
       linkedpaths="#path38,0,1"
       id="path-effect39"
       is_visible="true"
       lpeversion="0" /><inkscape:path-effect
       effect="fill_between_many"
       method="bsplinespiro"
       autoreverse="false"
       close="false"
       join="false"
       linkedpaths="#path41,0,1"
       id="path-effect42" /><inkscape:path-effect
       effect="fill_between_many"
       method="bsplinespiro"
       autoreverse="false"
       close="false"
       join="false"
       linkedpaths="#path47,0,1"
       id="path-effect48" /></defs><g
     inkscape:label="Layer 1"
     inkscape:groupmode="layer"
     id="layer1"
     transform="matrix(0.96515663,0,0,1,-81.241443,-164.07177)"><path
       style="fill:#fff29e;fill-opacity:1;fill-rule:evenodd;stroke:none;stroke-width:0.366709;stroke-linecap:round;stroke-linejoin:round;paint-order:stroke fill markers"
       d="m 104.48195,167.07177 9.39222,2.94539 4.43973,27.05462 -27.663905,-4e-5 4.439742,-27.05462 z"
       id="path13"
       sodipodi:nodetypes="cccccc" /><path
       style="display:inline;fill:#938e5e;fill-opacity:1;fill-rule:evenodd;stroke:none;stroke-width:0.37897;stroke-linecap:round;stroke-linejoin:round;stroke-dasharray:none;stroke-opacity:1;paint-order:stroke fill markers"
       d="m 90.649997,197.07177 -3e-6,3.2 H 118.3139 v -3.2 z"
       id="path45" /><g
       id="g3792"
       transform="matrix(0.25930735,0,0,0.25027219,-77.424962,-10.146976)"><path
         id="path3010"
         style="display:inline;fill:#cfcfcf"
         d="m 706.46726,717.4374 c -0.97415,0.0649 -2.05365,0.35922 -3.14305,0.92256 -1.74415,0.90193 -5.79776,1.8796 -9.00858,2.17075 -3.21082,0.29115 -5.83839,0.88232 -5.83839,1.31601 0,1.07432 4.99851,4.93392 6.39012,4.93392 1.95149,0 3.88377,5.92504 3.3149,10.16631 -0.58384,4.35286 -1.69686,6.13288 -2.46922,3.95708 -0.26846,-0.75625 -1.27676,-2.16316 -2.2431,-3.12949 -1.14472,-1.14474 -1.45556,-2.23362 -0.8909,-3.12496 2.37154,-3.74356 0.45698,-6.8695 -4.20582,-6.8695 -1.57527,0 -1.81636,0.47599 -1.29792,2.54158 0.71899,2.8647 -1.20457,5.57274 -6.10069,8.59704 l -2.99834,1.85418 h 2.99834 c 1.65,-10e-4 4.31701,-0.6904 5.92432,-1.52856 2.33968,-1.22011 3.08513,-1.2691 3.73548,-0.24421 1.964,3.095 0.84447,4.70081 -4.34148,6.24088 -2.84983,0.84631 -6.13812,1.53761 -7.30817,1.53761 -1.17006,0 -3.00252,0.64515 -4.07014,1.42907 -1.87222,1.3747 -1.83783,1.4598 0.87734,2.49636 4.05538,1.54819 6.23738,1.34678 10.8718,-1.01754 l 4.10632,-2.09838 -1.89487,3.24254 c -2.68375,4.58311 -7.04754,7.69995 -8.60157,6.14592 -1.91826,-1.91826 -2.46309,-1.42474 -2.60489,2.34711 -0.16675,4.43556 1.87348,5.41805 6.16852,2.96668 5.26024,-3.00224 8.5188,-6.62481 10.2839,-11.42805 2.67315,-7.27426 3.3556,-7.01651 3.3556,1.28436 0,7.31229 -0.11607,7.72937 -1.99889,7.13179 -2.70561,-0.85873 -2.5177,0.46699 0.53816,3.76262 1.39726,1.50688 3.42203,2.74056 4.49977,2.74056 2.23826,0 2.44023,-1.4691 2.00794,-14.752 -0.22883,-7.03101 -0.0346,-8.24882 1.33862,-8.24882 1.26901,0 1.61449,1.07005 1.61449,5.04697 0,6.4601 2.22701,10.73158 6.53484,12.53152 6.46817,2.70257 15.51463,1.10997 16.28057,-2.86719 0.18429,-0.95697 -0.82165,-3.11886 -2.23858,-4.80277 -1.41692,-1.68392 -2.57775,-3.67707 -2.57775,-4.42741 0,-0.75034 -0.46929,-1.65061 -1.04015,-2.00341 -0.6802,-0.42037 -0.93487,1.19523 -0.74619,4.68971 0.26649,4.93547 0.10991,5.35844 -2.06673,5.66654 -6.77626,0.95916 -10.57758,-3.89126 -9.96733,-12.71694 l 0.32109,-4.61735 -3.80784,0.11759 -3.80332,0.1221 0.66931,-5.37259 c 0.66284,-5.30523 0.63279,-5.38285 -2.45113,-6.67955 l -3.12044,-1.31149 3.54102,-1.68685 c 1.94679,-0.92836 3.72496,-1.69137 3.95256,-1.69137 0.22759,0 0.5483,2.31918 0.71454,5.15099 0.24723,4.21143 0.78672,5.50511 2.94859,7.1137 3.37117,2.50844 12.28509,2.73825 14.64799,0.37536 1.45968,-1.4597 1.42376,-1.78834 -0.44772,-3.86663 -1.12457,-1.24883 -2.28483,-2.95817 -2.57776,-3.7988 -0.7968,-2.28664 -6.1261,-2.33749 -8.17194,-0.0769 -2.15722,2.38372 -0.67936,3.46724 2.88528,2.11195 3.49682,-1.32949 3.51841,-1.32573 3.51841,0.9904 0,1.65751 -0.66743,2.00341 -3.89377,2.00341 -4.22186,0 -5.10576,-1.05486 -5.10576,-6.0826 0,-2.70275 0.2759,-2.92082 3.74905,-2.93502 4.30558,-0.0176 6.81857,-1.25647 5.8203,-2.87171 -0.97302,-1.57438 -4.7431,-1.38009 -7.24937,0.37535 -1.95892,1.37208 -2.08671,1.34236 -1.62806,-0.41153 0.50963,-1.94884 -0.78007,-3.22041 -2.76317,-3.40988 -0.29747,-0.0284 -0.61142,-0.0307 -0.93614,-0.009 z m 11.26073,22.34508 c -2.1759,0 -6.25445,2.70048 -6.25445,4.1425 0,0.91642 7.78203,0.29022 8.87743,-0.71454 0.94953,-0.87097 -1.00803,-3.42796 -2.62298,-3.42796 z m -1.19391,7.22676 c -0.69702,-0.0164 -1.40886,0.0654 -2.05768,0.27135 -2.46691,0.78295 -2.59026,2.19107 -0.24873,2.82648 2.75232,0.74689 5.55486,0.28362 5.97406,-0.9904 0.36953,-1.12304 -1.57657,-2.05816 -3.66765,-2.10743 z m -17.2574,19.78994 c -1.57892,0.0313 -2.81892,0.28405 -2.60037,0.73262 0.20098,0.4125 0.98644,1.99002 1.74564,3.50485 0.75923,1.51482 1.05414,3.07479 0.66027,3.46866 -0.39386,0.39386 -3.84045,0.89211 -7.66091,1.10799 -7.47282,0.42225 -8.89775,1.78284 -4.39576,4.19224 2.08041,1.1134 3.38668,1.13734 7.1318,0.13567 4.9645,-1.32785 5.88878,-1.08435 4.97461,1.29793 -0.61837,1.6115 -6.94509,2.2237 -17.04032,1.65067 l -4.88417,-0.27587 2.04411,3.33299 c 1.1251,1.83394 2.60256,6.19069 3.28325,9.68242 1.54399,7.92019 0.95292,8.46459 -8.30761,7.63378 -7.51732,-0.67442 -8.29613,0.0612 -4.29626,4.0611 2.91205,2.91205 9.21575,3.32517 14.84697,0.97231 1.95159,-0.81543 6.0606,-1.77428 9.12616,-2.13457 l 5.57157,-0.65574 0.009,2.88528 c 0.006,1.58822 0.29222,4.57635 0.63313,6.63885 0.34091,2.0625 0.93861,3.74905 1.32958,3.74905 1.02529,0 3.03,-7.18286 3.03,-10.86275 v -3.13401 l 5.74794,0.0136 c 3.1625,0.009 9.66002,0.83952 14.43996,1.84514 10.09346,2.12348 12.0881,1.59667 9.77739,-2.58681 -1.33145,-2.41051 -2.22483,-2.81516 -6.81523,-3.07974 l -5.28666,-0.303 0.67836,-3.19732 c 0.37188,-1.75747 1.57211,-4.8154 2.6682,-6.79714 1.86401,-3.37012 1.89027,-3.80251 0.40249,-6.67955 -0.87486,-1.69179 -2.54736,-3.37913 -3.71287,-3.74905 -2.00005,-0.63479 -10.71378,0.0439 -15.65196,1.21652 -1.79084,0.42525 -2.24762,0.0998 -2.24762,-1.57831 0,-1.9283 0.55392,-2.10743 6.49866,-2.10743 3.57498,0 6.49309,-0.33822 6.48509,-0.75072 -0.054,-2.64489 -4.91504,-5.53748 -7.04135,-4.19225 -2.95806,1.87148 -4.94296,1.08704 -4.94296,-1.94914 0,-1.71556 -0.64483,-3.14038 -1.58283,-3.50032 -1.12231,-0.43068 -3.03843,-0.61919 -4.61735,-0.58791 z m 11.84411,17.99003 c 3.52257,-0.0529 7.44706,0.33384 7.87799,1.0311 0.35345,0.57191 0.11657,4.172 -0.52912,8.00009 l -1.17582,6.95994 h -6.40821 c -3.60643,0 -6.40821,-0.4368 -6.40821,-0.99944 0,-0.55 2.44788,-0.99945 5.44042,-0.99945 2.99254,0 5.67658,-0.3835 5.96502,-0.85021 0.85366,-1.38124 -3.42041,-5.27442 -5.23692,-4.77111 -0.91931,0.25471 -2.73591,0.7678 -4.03848,1.14416 -1.75045,0.50577 -2.24715,0.33214 -1.90845,-0.66931 0.30633,-0.90574 2.16626,-1.35219 5.6168,-1.35219 4.10215,0 5.16104,-0.33462 5.16004,-1.62806 -0.003,-2.84844 -2.61023,-4.11387 -6.96447,-3.37822 -3.99466,0.67489 -5.70625,-0.64298 -2.45565,-1.89035 0.98208,-0.37686 2.95153,-0.56521 5.06506,-0.59695 z m -16.1268,2.3652 c 1.9551,-0.0382 3.48223,0.0693 3.48223,0.3844 0,0.54251 -2.29949,1.29137 -5.11029,1.66424 -5.06318,0.67165 -5.0929,0.69429 -3.26968,2.7089 1.32536,1.46451 2.75505,1.92563 5.11029,1.65067 1.79865,-0.20998 3.26968,-0.0687 3.26968,0.31205 0,1.03305 -2.78661,1.90392 -6.0826,1.90392 -1.82768,0 -2.91694,0.52044 -2.91694,1.39289 0,1.71024 2.15306,2.60278 6.33133,2.62298 2.41335,0.0117 2.81137,0.24747 1.66876,0.98588 -0.825,0.53316 -3.08729,0.97788 -5.02436,0.98588 l -3.51841,0.0136 -1.26175,-6.63433 c -0.69235,-3.64975 -1.13126,-6.7585 -0.97683,-6.90568 0.5878,-0.56024 5.04005,-1.02174 8.29857,-1.08537 z" /><path
         id="path3006"
         style="display:inline;fill:#8f8f8f"
         d="m 706.10547,717.62734 c -0.81138,0.0702 -1.81566,0.48665 -3.42796,1.28435 -2.06215,1.02027 -6.09839,1.97065 -8.96788,2.11196 -5.67301,0.27936 -6.03811,1.066 -1.91749,4.1425 l 2.69082,2.00793 4.52238,-2.19787 c 2.48791,-1.20872 4.96392,-2.19336 5.49921,-2.19336 0.53529,0 0.97231,1.93543 0.97231,4.30531 0,4.51219 1.15745,6.71014 4.49977,8.53825 2.87732,1.57377 10.78102,1.40069 13.05611,-0.28491 1.77601,-1.31583 1.80396,-1.54937 0.31657,-2.74961 -0.89412,-0.7215 -2.068,-2.15668 -2.60941,-3.18827 -0.90865,-1.73135 -1.03367,-1.68102 -1.61449,0.63313 -0.42917,1.70996 -1.50248,2.67594 -3.37822,3.03452 -5.61903,1.07414 -8.28905,-2.94345 -6.43083,-9.67337 0.86143,-3.11986 0.73261,-3.80397 -0.94517,-4.97914 -0.83629,-0.58576 -1.45433,-0.86165 -2.26572,-0.79142 z m 10.08943,2.38329 c -0.6515,0.0122 -1.48539,0.25814 -2.66368,0.7462 -1.6806,0.69613 -3.05713,1.66033 -3.05713,2.1436 0,1.16778 5.10391,1.09846 6.9916,-0.095 1.15039,-0.7273 1.22219,-1.21084 0.30752,-2.12551 -0.45734,-0.45733 -0.9268,-0.68156 -1.57831,-0.66932 z m -0.19446,6.23637 c -0.93358,0.0123 -2.09264,0.33254 -3.16566,1.03562 -1.29751,0.85015 -2.36069,1.75918 -2.36069,2.0215 0,1.12262 5.86006,0.35543 6.90568,-0.90447 1.11068,-1.33829 0.17664,-2.17316 -1.37933,-2.15265 z m -18.51914,0.68287 c -1.03286,0.10504 -1.14846,1.21804 -0.10854,3.16115 1.68415,3.14685 1.06071,11.08422 -0.89996,11.45519 -0.82602,0.15629 -1.9519,-0.7383 -2.50087,-1.98985 -1.28068,-2.91973 -3.08243,-2.05819 -2.70439,1.2934 0.34717,3.07777 -1.69472,4.22145 -10.71804,5.99668 -6.57416,1.29339 -7.43583,2.82525 -2.40138,4.26912 2.33455,0.66954 3.97509,0.37268 7.26747,-1.30696 2.3391,-1.19332 4.46814,-1.95363 4.7304,-1.69137 0.92198,0.92196 -2.59971,6.38502 -5.22334,8.1041 -1.45925,0.95614 -3.46717,1.52684 -4.46359,1.26627 -2.32046,-0.60681 -3.48134,3.22082 -1.56022,5.14194 1.1489,1.14891 2.08176,0.93977 5.96954,-1.33862 5.45642,-3.19768 8.75465,-7.48519 9.55579,-12.41393 0.37363,-2.29861 1.20057,-3.69263 2.31545,-3.90734 1.52194,-0.2931 1.7366,0.58488 1.7366,7.16797 0,6.85456 -0.18023,7.53181 -2.09839,7.82372 l -2.1029,0.32109 2.21596,2.79935 c 1.21713,1.54085 2.94827,2.65974 3.84855,2.48731 1.3784,-0.26401 1.68013,-2.0716 1.91749,-11.45519 0.21974,-8.68725 0.6056,-11.26924 1.75016,-11.70844 1.16783,-0.44815 1.46977,0.44096 1.46977,4.34148 0,8.9182 3.21291,13.38979 10.39695,14.4671 5.06848,0.76007 11.93831,-1.22457 12.39133,-3.5772 0.17389,-0.90301 -0.83471,-2.88096 -2.23858,-4.39576 -1.40387,-1.5148 -2.61726,-3.47287 -2.69986,-4.35505 -0.0826,-0.88219 -0.42083,0.41933 -0.75072,2.89432 -0.57423,4.30812 -0.75384,4.51097 -4.17868,4.79825 -5.88398,0.49356 -8.38831,-2.32299 -8.58347,-9.65981 -0.19978,-7.51044 -0.77879,-8.50188 -4.53143,-7.75135 l -2.94859,0.59243 0.32109,-5.17813 c 0.29283,-4.73187 0.087,-5.31362 -2.37425,-6.71573 -1.2314,-0.70151 -2.17964,-0.99916 -2.79935,-0.93614 z m -8.70559,0.85021 c -2.35612,0 -3.08391,1.39535 -1.30244,2.49636 1.59311,0.9846 -1.53982,6.01639 -5.20978,8.3664 -2.11721,1.35572 -2.68609,2.1101 -1.60093,2.121 4.68758,0.0469 12.81191,-5.64435 12.81191,-8.97241 0,-2.29125 -2.01519,-4.01135 -4.69876,-4.01135 z m 29.2191,13.00184 c -3.11057,0 -6.79045,1.75352 -6.0826,2.89885 0.27128,0.43893 2.16031,0.52548 4.19677,0.19446 4.39287,-0.71404 5.84389,-3.09331 1.88583,-3.09331 z m -1.90392,6.41274 c -0.34094,0.0166 -0.68113,0.0648 -1.01754,0.14924 -3.19304,0.8014 -3.36614,2.15024 -0.34822,2.73152 3.90908,0.75292 4.62079,0.72821 5.18265,-0.1809 0.85411,-1.38198 -1.43029,-2.8161 -3.81689,-2.69986 z m -15.57056,19.58643 c -3.49938,0 -4.31144,0.87572 -2.49635,2.69081 1.70131,1.7013 1.91117,4.90384 0.3844,5.84744 -0.58647,0.36246 -3.73558,0.66027 -7.00064,0.66027 -6.80893,0 -8.09667,0.9907 -4.41837,3.40083 2.16769,1.42032 3.18557,1.5055 6.39917,0.54268 5.24753,-1.57219 6.08712,-1.45007 6.08712,0.85926 0,1.48658 -0.70556,2.02887 -2.7496,2.11647 -1.5125,0.0648 -4.10247,0.27443 -5.75247,0.46581 -5.11723,0.59355 -6.90088,0.56883 -9.74573,-0.13568 -3.09457,-0.76635 -3.71219,0.81022 -1.35671,3.47319 0.76804,0.86831 2.05997,4.84662 2.87171,8.84125 l 1.47882,7.26295 -2.4647,0.61956 c -1.35369,0.33979 -4.89285,0.36595 -7.86894,0.0588 -6.13007,-0.63268 -7.07355,0.65762 -3.16115,4.32792 2.54746,2.38982 7.35596,2.30888 16.24892,-0.28039 2.74999,-0.80067 6.6883,-1.72291 8.7508,-2.04411 3.54606,-0.55226 3.7477,-0.43356 3.7581,2.10743 0.006,1.47792 0.29222,4.37285 0.63313,6.43534 1.07648,6.51271 2.6141,4.71571 3.92995,-4.59473 l 0.68288,-4.84347 8.62418,0.45224 c 4.74223,0.25058 11.20803,1.06047 14.3676,1.7999 7.05392,1.65084 8.83943,0.59014 5.70724,-3.39178 -1.72585,-2.19407 -2.911,-2.67273 -6.63885,-2.67273 h -4.53595 l 0.66479,-3.74905 c 0.36588,-2.0625 1.55113,-4.98803 2.63655,-6.49866 1.79668,-2.50054 1.84159,-2.99857 0.51103,-5.57157 -2.70018,-5.22158 -3.96448,-5.69346 -11.69035,-4.36862 -9.22091,1.5812 -9.89949,1.5219 -9.89949,-0.81403 0,-1.77557 0.66358,-1.99889 5.93788,-1.99889 6.63514,0 7.94093,-0.89189 5.07863,-3.48224 -1.88063,-1.70194 -3.29901,-1.68321 -9.40655,0.1402 -1.62276,0.48448 -1.78733,0.18474 -1.20295,-2.14361 0.85627,-3.41164 -0.80901,-5.51278 -4.3641,-5.51278 z m 12.39585,17.70059 c 2.38849,0.0198 4.60182,0.33925 5.58062,1.02658 1.77719,1.24799 1.7491,1.95216 -0.58339,13.02446 -0.43251,2.05313 -1.04156,2.24762 -6.95542,2.24762 -3.56452,0 -6.48057,-0.41868 -6.48057,-0.93161 0,-1.48686 3.87373,-2.31506 7.58403,-1.61901 2.58494,0.48494 3.4144,0.29526 3.4144,-0.78237 0,-2.65164 -2.71894,-3.89199 -6.96447,-3.17471 -3.30508,0.55839 -4.03396,0.3963 -4.03396,-0.90448 0,-1.25806 1.14169,-1.58736 5.49921,-1.58736 4.16351,0 5.49922,-0.35638 5.49922,-1.46525 0,-2.23426 -3.30649,-3.52012 -7.35792,-2.86266 -2.86891,0.46556 -3.64051,0.26094 -3.64051,-0.95423 0,-1.26121 4.45794,-2.05005 8.43876,-2.01698 z m -14.16862,1.515 c 0.58874,0.084 0.69571,0.38536 0.51555,0.92709 -0.24839,0.74693 -2.55208,1.74397 -5.11933,2.21596 -2.56725,0.472 -4.6671,1.20491 -4.6671,1.62806 0,1.82115 3.17235,3.22945 6.0012,2.66368 2.24618,-0.44923 2.99834,-0.23246 2.99834,0.87282 0,1.05049 -1.13678,1.4743 -3.94352,1.4743 -2.16753,0 -4.20404,0.42729 -4.5269,0.9497 -0.86789,1.40427 3.32166,3.31336 6.10521,2.78126 2.53925,-0.48541 4.43641,0.99041 2.17979,1.69589 -0.72236,0.22583 -3.13415,0.61546 -5.35902,0.8683 l -4.04753,0.46128 -1.20295,-6.34942 c -1.60913,-8.48258 -1.56166,-8.89495 1.04467,-8.96335 1.2375,-0.0325 4.21762,-0.41983 6.62076,-0.85926 1.74293,-0.31871 2.81209,-0.45033 3.40083,-0.36631 z" /><path
         id="path3008"
         style="display:inline;fill:#b0b0b0"
         d="m 706.38586,717.30173 c -0.86003,0.0461 -2.04365,0.535 -4.22842,1.50143 -2.54781,1.12702 -6.66943,2.08908 -9.15782,2.13908 -5.20026,0.10438 -5.58107,0.86402 -1.89036,3.76715 3.25816,2.56287 3.97122,2.56857 8.6287,0.0724 2.05237,-1.09998 4.18295,-1.99889 4.73493,-1.99889 0.55199,0 1.00397,2.04375 1.00397,4.54499 0,3.63334 0.53161,5.04146 2.6456,7.00065 2.09832,1.94467 3.71594,2.45113 7.81015,2.45113 2.92405,0 6.00074,-0.62359 7.10013,-1.43812 1.81847,-1.34729 1.83449,-1.52068 0.23064,-2.74961 -0.94163,-0.72149 -2.11724,-2.43736 -2.61393,-3.81236 -0.89891,-2.48848 -0.90542,-2.48282 -1.62806,0.80498 -0.69253,3.1508 -0.91715,3.28741 -4.82086,2.99834 -3.54133,-0.26225 -4.19212,-0.68557 -4.84346,-3.13853 -1.12913,-4.25217 -0.165,-5.52448 4.44549,-5.86101 3.01334,-0.21995 4.24546,-0.78395 4.48621,-2.05316 0.40942,-2.15841 -2.2232,-2.30787 -5.99668,-0.33918 -1.93815,1.01117 -2.54935,1.06148 -2.21144,0.1809 0.25721,-0.6703 -0.37781,-1.98193 -1.41099,-2.91694 -0.88596,-0.80177 -1.42377,-1.19932 -2.2838,-1.1532 z m 9.68242,8.54277 c -1.0169,0.0597 -2.28269,0.69739 -3.73097,1.90393 l -2.36068,1.96723 2.99834,0.0181 c 3.61882,0.0217 6.0102,-1.31813 5.06959,-2.84005 -0.38387,-0.62111 -0.90814,-0.96749 -1.5557,-1.04015 -0.13491,-0.0151 -0.27531,-0.0176 -0.42058,-0.009 z m -17.74582,0.93614 c -1.94918,0 -2.54179,2.45207 -0.84569,3.50032 1.41098,0.87203 1.25132,10.22527 -0.18994,11.11601 -0.65504,0.40484 -1.37936,0.18077 -1.60544,-0.49746 -0.22608,-0.67824 -1.29832,-2.05989 -2.3833,-3.0707 -1.71067,-1.59375 -1.7982,-2.11417 -0.65574,-3.94351 1.72171,-2.75689 0.10641,-5.48808 -3.50485,-5.9198 -2.42437,-0.28983 -2.59224,-0.0815 -2.05768,2.59132 0.50205,2.51025 -5.7e-4,3.40826 -3.69026,6.5665 -3.70623,3.1724 -3.97785,3.6586 -2.04412,3.6586 1.22631,0 3.61813,-0.71954 5.3138,-1.5964 2.54758,-1.31739 3.23045,-1.35956 3.93447,-0.24873 2.52982,3.99166 -0.0139,5.9791 -10.03968,7.84633 -6.5089,1.21226 -7.17212,1.72234 -4.63544,3.57721 2.57674,1.88416 5.22993,1.74207 10.05325,-0.53817 2.19691,-1.03859 4.16076,-1.71832 4.36409,-1.51499 0.20333,0.20332 -0.57379,1.88956 -1.72302,3.74905 -2.22671,3.60288 -6.21704,6.01427 -8.50208,5.13742 -1.77673,-0.6818 -3.19812,4.42661 -1.65971,5.96502 0.78254,0.78254 2.35414,0.41455 5.60775,-1.31149 5.24083,-2.78025 9.17877,-7.08242 9.97637,-10.89441 0.73909,-3.53232 1.80853,-5.46139 3.30586,-5.9605 0.90886,-0.30296 1.15119,1.48673 0.93161,6.94185 -0.27663,6.87225 -0.44351,7.33957 -2.52801,7.26747 -2.35334,-0.0815 -2.26644,0.17895 1.62354,4.86608 0.81568,0.98287 2.18925,1.65231 3.04808,1.48786 1.28436,-0.24593 1.60805,-2.29321 1.84061,-11.53659 0.22852,-9.08271 0.56431,-11.23811 1.75016,-11.23811 1.08441,0 1.46977,1.24445 1.46977,4.76659 0,8.86864 4.81299,14.00584 13.28223,14.17766 4.49322,0.0912 9.7186,-2.53993 9.7186,-4.89322 0,-1.12807 -0.44253,-2.05316 -0.98136,-2.05316 -0.53882,0 -1.89859,-1.79778 -3.02095,-3.99778 -1.12236,-2.2 -2.17266,-4.00231 -2.33355,-4.00231 -0.16087,0 -0.26524,2.14052 -0.23064,4.75302 0.0627,4.73903 0.0552,4.7476 -3.51389,5.04698 -5.88397,0.49356 -8.38831,-2.32299 -8.58347,-9.65981 -0.20062,-7.54188 -0.76878,-8.50298 -4.59474,-7.73779 l -3.01643,0.606 0.64218,-4.67162 c 0.70297,-5.12871 -1.03666,-8.33474 -4.52238,-8.33474 z m 19.75375,13.50382 c -2.28307,0.0608 -6.60267,2.23422 -6.60267,3.56816 0,0.93544 6.29616,0.35178 8.25334,-0.76428 1.24993,-0.71275 0.8428,-2.05956 -0.81403,-2.69534 -0.22456,-0.0862 -0.51048,-0.11723 -0.83664,-0.10854 z m -1.04467,6.85141 c -0.6735,-0.0101 -1.40096,0.0691 -2.13456,0.25325 -2.83412,0.71132 -3.16124,2.04173 -0.66931,2.71795 2.72327,0.73901 5.55253,0.2862 5.9605,-0.95422 0.38108,-1.15875 -1.13611,-1.98656 -3.15663,-2.01698 z m -17.18052,19.64522 c -3.6353,0 -4.26935,1.01267 -1.87679,2.99834 1.96448,1.63036 1.91946,4.6274 -0.0814,5.3952 -0.86998,0.33382 -3.99429,0.60599 -6.94185,0.60599 -6.24227,0 -7.58812,1.22362 -3.96161,3.59982 2.16769,1.42032 3.18557,1.5055 6.39917,0.54268 5.24753,-1.57218 6.08712,-1.45007 6.08712,0.85926 0,1.73677 -0.66601,1.99889 -5.06506,1.99889 -2.78616,0 -5.98629,0.48894 -7.10918,1.08989 -1.47648,0.79019 -2.34382,0.79019 -3.13401,0 -1.56381,-1.56381 -5.69368,-1.35718 -5.69368,0.28491 0,0.75765 0.62668,1.90115 1.39289,2.53706 1.66293,1.38012 4.10119,13.36436 3.19733,15.71979 -0.53762,1.401 -1.69767,1.56567 -7.58856,1.0718 -3.91223,-0.32799 -7.20587,-0.17584 -7.52976,0.34823 -0.31667,0.51238 0.55145,2.06192 1.93106,3.44153 2.97126,2.97128 8.05414,3.31499 14.6299,0.99492 2.35468,-0.83078 6.63059,-1.87882 9.50152,-2.32902 l 5.21882,-0.81855 0.61957,5.91527 c 0.33998,3.25278 0.94126,6.43681 1.33862,7.07752 0.88844,1.43257 3.10761,-5.52585 3.21542,-10.0849 l 0.0769,-3.24707 h 6.78809 c 3.73445,0 9.38223,0.67191 12.5496,1.49691 6.4076,1.66895 11.6587,1.95778 11.6587,0.63765 0,-0.47583 -0.93133,-2.05115 -2.07125,-3.50032 -1.68147,-2.13765 -2.90672,-2.63655 -6.49866,-2.63655 -3.05144,0 -4.42741,-0.42121 -4.42741,-1.35219 0,-2.23399 2.18908,-8.03606 3.68574,-9.77286 1.20816,-1.40201 1.15903,-2.13089 -0.3437,-5.28214 -2.13736,-4.48208 -4.38742,-5.14038 -12.66267,-3.69931 -8.39333,1.46164 -8.67844,1.43148 -8.67844,-0.89543 0,-1.79487 0.66533,-1.99889 6.49866,-1.99889 6.82406,0 7.68493,-0.61547 4.66709,-3.34657 -1.40691,-1.27322 -2.90372,-1.51125 -6.43987,-1.02658 -4.34311,0.59529 -4.57339,0.50946 -4.04753,-1.50143 0.79298,-3.03237 -1.37379,-5.12385 -5.30475,-5.12385 z m 12.20591,18.50105 h 6.91924 l -0.0814,3.99779 c -0.0438,2.2 -0.40232,5.68886 -0.79593,7.75136 l -0.71454,3.74905 h -6.45344 c -3.55006,0 -6.45343,-0.39598 -6.45343,-0.88186 0,-1.22248 4.92551,-2.06602 8.24882,-1.41099 2.02036,0.39823 2.74961,0.14515 2.74961,-0.95874 0,-2.71832 -2.75715,-4.04394 -7.00517,-3.36465 -3.17962,0.50844 -3.99326,0.33056 -3.99326,-0.87282 0,-1.16584 1.2579,-1.51048 5.49921,-1.51048 4.00495,0 5.49922,-0.37622 5.49922,-1.37932 0,-2.63863 -2.74426,-3.84051 -7.08657,-3.10688 -3.27185,0.55278 -4.05587,0.41394 -3.69931,-0.65574 0.32319,-0.96955 2.42898,-1.35672 7.36696,-1.35672 z m -14.40831,0.71454 c 0.49637,0.0292 0.8276,0.42165 0.8276,1.06276 0,1.00337 -1.47645,1.71736 -4.49977,2.17074 -2.475,0.37115 -4.49977,1.03891 -4.49977,1.48787 0,1.89013 3.14297,3.28326 6.0826,2.69533 2.20895,-0.44179 2.96065,-0.26661 2.66821,0.62409 -0.22411,0.68259 -1.7209,1.37646 -3.32847,1.53761 -1.60758,0.16114 -3.53778,0.5019 -4.28722,0.75976 -2.50947,0.86343 0.85269,3.44606 4.4862,3.44606 1.85766,0 3.37822,0.44944 3.37822,0.99944 0,0.55 -2.1583,0.99945 -4.79825,0.99945 h -4.80276 l -1.19843,-5.81126 c -1.66395,-8.05598 -1.73231,-7.88201 3.42796,-8.65584 2.54532,-0.3817 5.242,-0.93144 5.99668,-1.22104 0.19633,-0.0753 0.38175,-0.10468 0.5472,-0.095 z" /><path
         id="path3004"
         style="display:inline;fill:#6f6f6f"
         d="m 707.15014,718.13385 c -1.33666,-0.0329 -3.40802,0.54767 -6.5077,1.59187 -3.3562,1.13063 -7.53638,2.05316 -9.28897,2.05316 -3.06747,0 -3.12527,0.0746 -1.46977,1.90393 2.5606,2.82944 4.93593,3.072 9.60553,0.98135 2.31174,-1.035 4.60679,-1.88131 5.09672,-1.88131 0.48994,0 0.90507,1.90902 0.92257,4.24652 0.0335,4.47724 1.17043,6.65156 4.46811,8.54277 2.96796,1.70213 11.06931,1.49838 12.89331,-0.32561 1.38095,-1.38096 1.3367,-1.73399 -0.42963,-3.50032 -1.08036,-1.08036 -2.0074,-2.52791 -2.0622,-3.21541 -0.0548,-0.6875 -0.41236,-0.13498 -0.79142,1.22556 -0.46869,1.68225 -1.76346,2.77872 -4.04301,3.43249 -2.94176,0.84369 -3.58382,0.67199 -5.25953,-1.39742 -1.57677,-1.94721 -1.79201,-3.2811 -1.24365,-7.66995 0.52115,-4.1712 0.33742,-5.93276 -1.89036,-5.98763 z m 8.88648,2.07125 c -2.21885,0.0894 -5.56253,1.52592 -5.56253,2.82648 0,0.60183 1.46654,0.77116 3.62695,0.42058 4.32571,-0.70196 5.12107,-1.32332 3.61338,-2.83101 -0.32513,-0.32513 -0.93818,-0.44585 -1.6778,-0.41605 z m -0.84116,6.27706 c -1.49973,-0.0321 -3.35058,0.88882 -4.22391,2.30189 -0.79409,1.28487 3.53975,1.27118 5.50374,-0.0181 1.3017,-0.8545 1.30919,-1.11025 0.0543,-1.91749 -0.37277,-0.23979 -0.83419,-0.35562 -1.3341,-0.36631 z m -17.62372,0.40249 c -1.00064,0.0274 -1.12077,0.98046 -0.17637,2.74509 0.59456,1.11094 1.08085,4.0566 1.08085,6.5484 0,3.4529 -0.45961,4.77955 -1.93106,5.56705 -1.61814,0.86601 -1.98453,0.66812 -2.25214,-1.20747 -0.17561,-1.23083 -1.02884,-2.37132 -1.8994,-2.53706 -1.23466,-0.23505 -1.4858,0.36398 -1.13964,2.72247 0.51276,3.49369 -1.18208,4.46124 -11.0527,6.32681 -6.18401,1.16879 -6.93814,2.66462 -2.05316,4.06562 2.33455,0.66954 3.97509,0.37268 7.26747,-1.30696 2.3391,-1.19332 4.46814,-1.95363 4.7304,-1.69137 1.03344,1.03343 -2.94175,6.85658 -5.91527,8.66488 -2.31769,1.40946 -3.49086,1.63267 -4.45002,0.83664 -1.0224,-0.84852 -1.30697,-0.42299 -1.30697,1.9808 0,4.53653 1.59168,4.76608 7.14988,1.03562 4.98728,-3.34727 8.8503,-8.926 8.8503,-12.78024 0,-1.10256 0.90342,-2.48652 2.00342,-3.07522 1.92219,-1.02873 1.99889,-0.75911 1.99889,6.89663 0,7.33241 -0.16813,7.99085 -2.10743,8.285 -2.05073,0.31105 -2.03475,0.39242 0.5246,3.14305 4.26973,4.58889 5.0497,3.27149 5.36354,-9.05832 0.21956,-8.62608 0.60653,-11.20176 1.75016,-11.64061 1.15682,-0.44392 1.46977,0.39261 1.46977,3.93899 0,5.76035 2.12201,10.81569 5.45852,13.00185 3.06961,2.01128 12.00506,2.32744 15.33991,0.54268 2.53552,-1.35697 2.92806,-4.61541 0.66027,-5.48565 -0.848,-0.32541 -2.18169,-2.06165 -2.96216,-3.85759 l -1.42003,-3.26515 -0.0407,4.74849 -0.0362,4.75303 h -4.34601 c -5.99528,0 -7.90626,-2.32417 -8.47042,-10.28842 -0.47507,-6.70673 -1.36839,-7.95555 -5.02888,-7.03682 -2.29154,0.57514 -2.35116,0.43356 -2.00794,-4.73946 0.32614,-4.91559 0.14024,-5.44962 -2.34259,-6.85592 -1.19229,-0.67533 -2.10852,-0.99329 -2.70891,-0.97684 z m -8.71915,0.89543 c -2.56614,0 -3.02152,0.95817 -1.28435,2.69534 1.57871,1.57871 -0.35195,4.70881 -4.86608,7.89155 l -3.72644,2.62751 3.50032,-0.61957 c 6.67985,-1.18108 12.74084,-7.79278 10.08038,-10.99843 -0.72824,-0.87748 -2.39618,-1.5964 -3.70383,-1.5964 z m 28.42316,13.23701 c -1.48358,-0.007 -3.23422,0.40169 -4.30078,1.23009 -1.88371,1.46308 -1.73938,1.53869 2.50088,1.2934 2.47499,-0.14318 4.49976,-0.71175 4.49976,-1.26175 0,-0.8333 -1.21627,-1.25494 -2.69986,-1.26174 z m -0.57886,6.29515 c -0.33162,-0.004 -0.66003,0.0302 -0.97684,0.11306 -2.88595,0.75472 -2.88431,2.11479 0.005,2.58228 1.23749,0.20025 2.84703,0.16937 3.5772,-0.0678 2.08061,-0.67597 -0.2836,-2.60125 -2.60489,-2.6275 z m -16.17656,19.46885 c -3.49938,0 -4.31144,0.87592 -2.49635,2.69081 1.70405,1.70404 1.91179,4.90519 0.37988,5.85196 -0.58973,0.36447 -3.62915,0.80769 -6.75191,0.98588 -3.12277,0.17819 -6.1085,0.35817 -6.63886,0.39797 -0.53035,0.0398 -0.24608,0.79406 0.63314,1.67328 1.76852,1.76853 4.44112,2.00087 10.08038,0.88187 3.36505,-0.66772 3.74905,-0.53206 3.74905,1.32505 0,1.67567 -0.80994,2.18195 -4.25103,2.65916 -5.93793,0.82367 -10.77457,0.82229 -13.99677,0 -3.13009,-0.79879 -3.71865,0.80998 -1.27983,3.50485 1.55507,1.71833 4.71792,14.9154 3.89377,16.24891 -0.26553,0.42964 -3.83068,0.77785 -7.92321,0.77785 -4.09254,0 -7.44384,0.42153 -7.44384,0.93161 0,1.70945 5.24339,5.06902 7.88703,5.05602 1.43833,-0.007 5.31514,-0.84154 8.61513,-1.8587 3.3,-1.01717 7.85409,-2.13682 10.12109,-2.48278 l 4.11989,-0.62862 0.66479,5.86101 c 0.3646,3.22266 0.98593,6.18403 1.37932,6.58006 0.7473,0.75228 1.71218,-2.34708 2.71343,-8.70558 l 0.59243,-3.74905 h 7.24486 c 3.98452,0 9.83445,0.67191 13.00184,1.49691 9.75998,2.54214 12.1969,1.72446 8.57443,-2.88076 -1.68288,-2.13943 -2.89058,-2.61846 -6.61624,-2.61846 h -4.55856 l 0.60148,-3.7174 c 0.33175,-2.04431 1.52885,-4.96532 2.65916,-6.49413 1.9282,-2.60803 1.95762,-2.97073 0.47937,-5.82935 -2.26383,-4.37776 -5.15498,-5.40707 -11.40996,-4.06562 -7.66302,1.64343 -10.06682,1.45323 -10.06682,-0.78689 0,-2.32175 3.75244,-3.42923 8.55634,-2.52802 2.66874,0.50066 3.44153,0.30932 3.44153,-0.84568 0,-2.97572 -2.74933,-4.12332 -6.89663,-2.88076 -5.23069,1.56715 -5.4096,1.51125 -4.66709,-1.44716 0.82703,-3.29518 -0.88723,-5.40424 -4.39124,-5.40424 z m 14.74749,17.26192 c 1.53859,-0.004 2.50974,0.43281 3.3963,1.4336 1.39072,1.56991 1.44406,2.64687 0.40702,8.30309 l -1.18939,6.50318 -6.70217,0.29395 c -5.73605,0.25305 -6.70216,0.0542 -6.70216,-1.38837 0,-1.44529 0.78334,-1.60827 5.49921,-1.12155 4.14753,0.42807 5.49922,0.24718 5.49922,-0.73714 0,-2.53934 -2.78582,-3.76311 -6.96447,-3.05713 -3.30508,0.55839 -4.03396,0.3963 -4.03396,-0.90448 0,-1.25806 1.14169,-1.58736 5.49921,-1.58736 5.71525,0 6.5891,-0.76428 3.92543,-3.42796 -1.15289,-1.1529 -2.61786,-1.40593 -5.49922,-0.94518 -3.21942,0.5148 -3.92542,0.33465 -3.92542,-0.99944 0,-1.09997 0.89134,-1.63874 2.7496,-1.66424 1.5125,-0.0208 4.34483,-0.27227 6.29516,-0.55625 0.6557,-0.0955 1.23277,-0.14329 1.74564,-0.14472 z m -17.35238,2.00794 c 1.204,4.5e-4 1.56022,0.33447 1.56022,1.07633 0,1.00255 -1.5857,1.68282 -5.00175,2.15265 -2.74999,0.37822 -4.99723,1.08119 -4.99723,1.56022 0,1.67076 3.85853,2.91765 7.05039,2.27928 2.50017,-0.50004 3.11139,-0.33008 2.74961,0.75976 -0.25593,0.77099 -2.33032,1.65661 -4.61283,1.96723 -2.28252,0.31062 -4.4207,0.83446 -4.75302,1.16678 -1.20044,1.20043 3.75125,2.88791 6.62529,2.25667 2.88819,-0.63436 4.40528,1.12178 1.69137,1.95819 -0.6875,0.21189 -3.07508,0.63958 -5.30475,0.9497 l -4.05658,0.56529 -1.19391,-5.79316 c -1.66461,-8.05927 -1.55481,-10.06872 0.55173,-9.93567 0.9625,0.0608 3.89069,-0.22042 6.50319,-0.62409 1.4408,-0.22263 2.46588,-0.33945 3.18827,-0.33918 z" /><path
         id="path3002"
         style="display:inline;fill:#4f4f4f"
         d="m 707.10492,718.13385 c -1.33188,-0.0183 -3.39233,0.55761 -6.46248,1.59187 -3.3562,1.13063 -7.57909,2.07104 -9.38394,2.08934 l -3.28325,0.0317 2.36068,1.96723 c 2.76116,2.30027 6.62093,2.47703 10.13918,0.46581 4.14659,-2.3704 5.00175,-1.88731 5.00175,2.82649 0,4.32444 2.16676,7.56783 5.99668,8.96788 3.75261,1.37179 12.0024,0.34027 12.0024,-1.50143 0,-0.5366 -0.8989,-2.12 -1.9989,-3.51841 -1.44019,-1.83092 -2.00341,-2.09711 -2.00341,-0.94518 0,0.87982 -0.86722,2.06719 -1.93106,2.63655 -5.77739,3.09196 -9.66629,-0.9646 -8.56991,-8.93623 0.54553,-3.96642 0.35206,-5.6451 -1.86774,-5.67558 z m 9.30706,2.15717 c -1.8281,-0.0146 -4.59999,1.13116 -5.48565,2.56419 -0.55532,0.89853 0.24071,1.01961 3.15662,0.47485 4.57201,-0.85416 5.11238,-1.23252 3.74001,-2.60489 -0.2952,-0.2952 -0.80162,-0.42927 -1.41098,-0.43415 z m -0.13115,6.52127 c -1.18896,-0.0956 -3.02433,0.42476 -4.3641,1.43812 -1.89944,1.4367 -1.89553,1.46581 0.22612,1.49691 2.8061,0.0412 5.33189,-0.94246 5.33189,-2.07577 0,-0.52484 -0.48053,-0.80186 -1.19391,-0.85926 z m -17.71416,0.49746 c -1.54331,-0.14705 -2.5028,1.10068 -1.10799,1.96272 0.55897,0.34546 1.01754,3.24926 1.01754,6.45796 0,4.39734 -0.39057,5.98688 -1.58283,6.44439 -2.2337,0.85715 -2.24608,0.85065 -2.60037,-1.63258 -0.17575,-1.23189 -1.02884,-2.37584 -1.8994,-2.54158 -1.23357,-0.23485 -1.48425,0.36097 -1.13964,2.70891 0.52286,3.56245 -1.12058,4.58173 -10.35173,6.40369 -6.49547,1.28202 -7.52807,2.59398 -2.98929,3.80784 2.10977,0.56424 4.1953,0.22959 7.40313,-1.18938 2.45672,-1.08672 4.65814,-1.78626 4.8887,-1.5557 0.23056,0.23056 -0.31071,1.82916 -1.20296,3.55459 -2.07657,4.01562 -7.38848,7.40909 -9.22113,5.88814 -1.02331,-0.84928 -1.30697,-0.41268 -1.30697,2.03959 0,2.15332 0.4825,3.12044 1.55118,3.12044 5.42363,0 14.449,-9.30465 14.449,-14.89672 0,-1.1168 0.90342,-2.51365 2.00342,-3.10235 1.92219,-1.02873 1.99889,-0.75911 1.99889,6.89663 0,7.33241 -0.16813,7.99085 -2.10743,8.285 -2.05073,0.31105 -2.03475,0.39242 0.5246,3.14305 4.24814,4.56568 5.02558,3.26192 5.58061,-9.32514 0.34441,-7.81071 0.88913,-11.46868 1.75016,-11.75367 0.85398,-0.28265 1.25323,0.80455 1.25723,3.42344 0.0152,10.42743 3.98499,15.3397 12.37775,15.3173 9.38021,-0.025 12.48976,-2.28529 8.78246,-6.39012 -1.04044,-1.152 -2.38995,-2.99728 -2.99834,-4.09728 -0.9544,-1.72561 -1.10891,-1.43172 -1.13511,2.13457 -0.0333,4.52412 -1.49726,5.57383 -6.45344,4.62639 -4.31977,-0.82577 -6.58006,-4.70015 -6.58006,-11.28786 0,-6.30742 -1.4098,-7.8947 -5.20978,-5.861 -1.98655,1.06316 -2.04676,0.91101 -1.57379,-4.01136 0.50703,-5.27675 -0.33374,-7.34102 -3.43249,-8.41614 -0.23922,-0.083 -0.47145,-0.13276 -0.69192,-0.15377 z m -10.4467,0.52008 c -0.59501,-0.035 -1.0816,0.055 -1.3341,0.30752 -0.32776,0.32776 -0.0287,1.27641 0.66479,2.11195 1.63476,1.96978 -0.71705,5.79368 -5.27762,8.57443 -4.07768,2.48629 -1.48722,2.4982 3.97517,0.0181 4.52215,-2.05319 7.88444,-6.16263 6.97803,-8.52468 -0.4501,-1.17296 -3.22126,-2.38227 -5.00627,-2.48731 z m 29.81605,13.01541 c -1.52725,-0.0842 -3.54273,0.43696 -4.90226,1.46525 -1.84082,1.3923 -1.78189,1.46977 1.16677,1.46977 3.89643,0 6.43493,-0.93281 5.71177,-2.1029 -0.31653,-0.51216 -1.05993,-0.78159 -1.97628,-0.83212 z m -1.18034,6.49866 c -1.57794,0.052 -3.27873,0.74451 -3.27873,1.55117 0,0.48585 1.34834,0.88639 2.99834,0.88639 2.99167,0 4.12217,-1.45858 1.75016,-2.25667 -0.43022,-0.14475 -0.94379,-0.19821 -1.46977,-0.18089 z m -17.32072,19.43719 c -1.68771,0 -2.0059,0.39081 -1.42455,1.75016 0.41163,0.9625 0.95056,2.92274 1.19843,4.35505 0.40733,2.35378 0.0808,2.66429 -3.39178,3.23803 -2.11315,0.34912 -5.62527,0.6407 -7.80563,0.6467 -3.5154,0.01 -3.79306,0.17759 -2.46922,1.50143 1.70625,1.70624 4.79466,2.00182 10.1844,0.96778 3.34846,-0.64241 3.74905,-0.50214 3.74905,1.32958 0,1.44157 -0.81709,2.21102 -2.7496,2.58681 -4.75824,0.92528 -11.64348,1.01015 -14.5485,0.18089 -3.6888,-1.053 -4.34494,-0.19067 -2.27023,2.97573 1.82744,2.78903 4.79743,15.28716 3.95708,16.64688 -0.2796,0.45239 -3.85329,0.81855 -7.94582,0.81855 -4.09254,0 -7.44384,0.42153 -7.44384,0.93161 0,1.71368 5.24323,5.06959 7.91869,5.06959 1.45739,0 5.11173,-0.84552 8.11767,-1.88131 3.00594,-1.03578 7.54779,-2.18313 10.09395,-2.5461 l 4.63092,-0.66027 0.71906,5.79317 c 0.3963,3.18625 0.94593,6.16263 1.22104,6.61172 0.92855,1.51575 1.555,-0.21344 2.17979,-6.02833 l 0.61956,-5.78865 7.69709,-0.28943 c 4.64019,-0.1755 10.05864,0.3191 13.64402,1.24817 7.77782,2.01543 9.15782,1.9545 9.15782,-0.40249 0,-2.09076 -3.76887,-5.31753 -5.18717,-4.44098 -0.47378,0.29282 -2.1984,0.23735 -3.83497,-0.1221 -3.64261,-0.80005 -3.85478,-3.04313 -0.87282,-9.20304 2.49178,-5.14734 1.96918,-8.54256 -1.68233,-10.93512 -2.18568,-1.43211 -3.26217,-1.50341 -7.56142,-0.51103 -7.7096,1.77959 -10.85823,1.54149 -10.85823,-0.82307 0,-2.42193 3.57739,-3.51152 8.50659,-2.5868 2.78362,0.52221 3.49128,0.33942 3.49128,-0.909 0,-2.34192 -4.26345,-3.98833 -6.80618,-2.6275 -3.86168,2.06671 -5.5093,1.42975 -4.84799,-1.87679 0.65149,-3.25746 -1.23865,-5.01984 -5.38616,-5.01984 z m 14.48066,17.12625 c 1.36945,-0.0308 2.60003,0.0678 3.4551,0.33918 2.78174,0.88289 3.09682,2.54695 1.84513,9.85427 l -1.12155,6.53031 -6.90567,0.32561 c -6.88513,0.32352 -8.44595,-0.1766 -7.14084,-2.28832 0.42642,-0.68992 2.72634,-0.94539 6.05547,-0.66931 3.78049,0.3135 5.37259,0.0873 5.37259,-0.76428 0,-2.46727 -2.66213,-3.46096 -7.48907,-2.79936 -3.85586,0.52851 -4.69291,0.38189 -4.31887,-0.75071 0.30866,-0.93461 2.3629,-1.50536 6.13687,-1.70494 6.11172,-0.32322 6.49842,-0.62691 4.11084,-3.26516 -1.16704,-1.28957 -2.55538,-1.59328 -5.49921,-1.19843 -3.08552,0.41386 -3.93899,0.1976 -3.93899,-0.9904 0,-1.26754 5.32987,-2.52612 9.4382,-2.61846 z m -15.67457,1.9808 c 0.95088,0.0463 1.23461,0.42041 1.23461,1.22557 0,1.16058 -1.36677,1.77899 -5.00175,2.26119 -2.74999,0.3648 -4.99723,1.04163 -4.99723,1.50143 0,1.55058 3.47526,2.66787 6.74739,2.17074 2.06171,-0.31323 3.25159,-0.0751 3.25159,0.65122 0,1.29707 -0.8969,1.65786 -6.38107,2.57324 -5.1012,0.85145 -3.30529,2.90326 2.34711,2.68177 2.9817,-0.11683 4.03396,0.2309 4.03396,1.3341 0,0.9047 -0.9349,1.49239 -2.37424,1.49239 -1.30625,0 -3.68271,0.2635 -5.28214,0.58338 -2.85216,0.57044 -2.93087,0.46928 -4.12442,-5.30927 -1.8707,-9.0571 -1.69445,-10.27099 1.52857,-10.28389 1.5125,-0.006 4.44068,-0.29223 6.50318,-0.63314 1.13481,-0.18757 1.94392,-0.27653 2.51444,-0.24873 z" /><path
         id="path3000"
         style="display:inline;fill:#2e2e2e"
         d="m 706.89689,717.91677 c -0.93701,0.0343 -2.22282,0.49236 -3.92995,1.30245 -1.92085,0.91151 -5.74334,1.92196 -8.49303,2.24762 -5.31151,0.62907 -6.21426,1.59392 -3.06617,3.27873 2.64651,1.41636 5.05531,1.29073 8.37092,-0.43868 5.23525,-2.73067 6.1771,-2.44293 5.8384,1.7773 -0.34594,4.31052 1.80197,8.33066 5.16908,9.68694 3.35286,1.35055 9.09043,1.16686 11.1748,-0.35727 1.81231,-1.3252 1.80432,-1.44868 -0.30752,-4.13346 -1.5089,-1.91825 -2.17979,-2.27973 -2.17979,-1.17129 0,3.45933 -6.68053,4.8425 -9.54675,1.97628 -1.36773,-1.36774 -1.5785,-2.81628 -1.08537,-7.53429 0.49562,-4.74182 0.11681,-6.70979 -1.94462,-6.63433 z m 10.0623,2.88528 c -1.48796,-0.0854 -3.72104,0.44769 -5.04246,1.44716 -2.14206,1.62017 -1.27761,1.8465 3.43249,0.90448 1.71875,-0.34375 3.12496,-1.01566 3.12496,-1.49691 0,-0.52798 -0.62222,-0.80348 -1.51499,-0.85473 z m -0.63766,6.03285 c -1.15228,-0.0772 -2.94077,0.46043 -4.28722,1.47882 -1.37758,1.04196 -1.52473,1.46169 -0.50198,1.45169 2.61067,-0.0247 5.94241,-1.20355 5.94241,-2.10291 0,-0.51476 -0.46184,-0.7813 -1.15321,-0.8276 z m -17.58301,0.94518 c -2.07264,0 -2.39406,0.2651 -1.46073,1.19843 1.86895,1.86895 1.56022,12.45009 -0.3844,13.19631 -2.2337,0.85715 -2.24608,0.85065 -2.60037,-1.63258 -0.17575,-1.23189 -1.02884,-2.37584 -1.8994,-2.54158 -1.23661,-0.23543 -1.48422,0.36201 -1.13512,2.74056 0.39429,2.68643 0.0514,3.21009 -2.91693,4.43194 -1.8502,0.7616 -5.38943,1.71197 -7.86442,2.11195 -5.5069,0.88996 -6.62174,1.48672 -4.85704,2.60489 2.23641,1.41706 7.49424,1.00385 10.709,-0.84116 1.65906,-0.9523 3.36996,-1.37402 3.80332,-0.94066 2.39449,2.39448 -7.68021,11.73091 -10.30651,9.55127 -1.08731,-0.90239 -1.35219,-0.51167 -1.35219,1.99889 0,3.55169 1.46604,3.96706 5.90171,1.67328 4.43795,-2.29496 9.01711,-8.18881 9.70503,-12.49081 0.42244,-2.64185 1.22805,-4.04245 2.50992,-4.37767 1.72961,-0.45231 1.88583,0.15311 1.88583,7.33983 0,7.20143 -0.17147,7.86473 -2.10743,8.15837 -2.04868,0.31074 -2.03285,0.3979 0.53816,3.16114 2.26166,2.43077 2.87339,2.6516 4.23747,1.51952 1.33633,-1.10906 1.50823,-2.97655 1.07181,-11.52754 -0.42849,-8.39553 -0.25592,-10.30342 0.95422,-10.76779 2.63502,-1.01115 2.83537,-0.64231 2.97573,5.46303 0.22355,9.72465 3.54593,12.97019 13.28223,12.97019 3.26427,0 5.58861,-0.61713 7.18606,-1.91297 l 2.36068,-1.91749 -2.11195,-2.33354 c -1.16239,-1.28422 -2.61155,-3.23697 -3.21994,-4.33697 -0.9527,-1.72254 -1.10891,-1.41803 -1.13511,2.18431 -0.0359,4.9338 -2.06869,6.11997 -7.44384,4.34601 -4.13195,-1.36367 -6.14662,-5.54314 -5.87005,-12.18781 0.21176,-5.0876 -1.32359,-6.65771 -4.73041,-4.83443 -2.50812,1.3423 -3.03691,0.14727 -1.98985,-4.49524 1.10776,-4.91166 -0.18639,-7.51168 -3.73548,-7.51168 z m -10.12109,0.19899 c -1.5228,0.0555 -2.19126,1.03559 -1.12155,2.3245 1.46916,1.77024 0.0173,4.48451 -4.2646,7.97296 -3.00044,2.44441 -3.05888,2.60321 -0.75524,1.97628 8.77146,-2.38712 13.86425,-10.1094 7.91416,-11.99788 -0.66505,-0.21108 -1.26517,-0.29436 -1.77277,-0.27586 z m 29.05177,12.83903 c -1.10675,0.0557 -2.57845,0.56007 -3.75358,1.47882 -1.83201,1.43233 -1.74724,1.50529 1.48334,1.2527 1.88264,-0.1472 3.60929,-0.83202 3.83498,-1.51952 0.28693,-0.87403 -0.458,-1.26772 -1.56474,-1.212 z m -1.19391,6.96447 c -1.65,0 -2.99834,0.44945 -2.99834,0.99945 0,0.54999 1.34834,0.99944 2.99834,0.99944 1.65,0 2.99834,-0.44945 2.99834,-0.99944 0,-0.55 -1.34834,-0.99945 -2.99834,-0.99945 z m -16.01375,18.99852 c -2.19304,0 -3.46799,1.58215 -2.00341,2.48731 0.55897,0.34546 1.01753,1.89726 1.01753,3.44605 0,2.3539 -0.51275,2.91909 -3.12496,3.44153 -1.71875,0.34375 -4.8694,0.62409 -7.00064,0.62409 -2.13125,0 -3.87568,0.44184 -3.87568,0.98136 0,1.66906 5.03832,2.34822 9.62814,1.29792 4.19526,-0.96001 4.37314,-0.9049 4.37314,1.31601 0,1.84218 -0.66645,2.41857 -3.25159,2.82197 -7.24766,1.13096 -11.39072,1.22324 -14.05103,0.31204 -3.76246,-1.28871 -4.13294,-0.60644 -1.8587,3.39631 2.04418,3.59782 4.71225,15.65655 3.69026,16.67854 -0.33606,0.33606 -3.97031,0.54882 -8.07245,0.47032 -4.10212,-0.0785 -7.4574,0.24504 -7.4574,0.71906 0,1.53427 5.20757,5.00628 7.50715,5.00628 1.22917,0 4.94095,-0.86528 8.24882,-1.92201 3.30787,-1.05673 8.05406,-2.22597 10.55071,-2.60037 l 4.54047,-0.68288 0.65123,4.85251 c 0.35818,2.66863 0.89188,5.52895 1.18486,6.35395 0.82901,2.33441 2.16372,-1.67587 2.24762,-6.75192 l 0.0678,-4.24651 h 8.5473 c 4.69946,0 11.46656,0.73121 15.03691,1.62805 3.57036,0.89684 6.77371,1.34849 7.11823,1.00397 0.34452,-0.34452 0.11199,-1.75217 -0.51555,-3.12948 -0.92165,-2.02281 -1.86491,-2.50657 -4.91131,-2.51897 -5.51608,-0.0224 -6.68116,-1.09517 -5.96502,-5.50826 0.33239,-2.04826 1.35201,-4.55291 2.26571,-5.56253 1.79376,-1.98208 1.46632,-5.10667 -0.86829,-8.29856 -1.53322,-2.09623 -4.05957,-2.30863 -13.45408,-1.12155 l -6.24993,0.79141 v -2.76317 c 0,-2.75813 0.006,-2.76232 5.99667,-2.32903 4.55433,0.32943 6.0012,0.11358 6.0012,-0.89995 0,-2.15082 -4.38142,-3.69455 -6.80618,-2.39686 -3.64177,1.94902 -5.48522,1.40862 -4.93844,-1.45169 0.55519,-2.90425 -1.43689,-5.44494 -4.26913,-5.44494 z m 15.18616,17.13982 c 4.65251,0.11581 4.91603,2.28916 3.56363,10.1844 l -1.13964,6.67503 h -3.67217 c -2.01954,0 -5.02751,0.27104 -6.67956,0.60148 -1.84467,0.36894 -3.28461,0.14161 -3.73548,-0.58791 -1.20275,-1.9461 0.6693,-2.881 6.4263,-3.20637 5.15124,-0.29113 5.34578,-0.39663 3.70383,-2.03055 -1.34548,-1.3389 -2.72866,-1.591 -6.18662,-1.11703 -3.57297,0.48973 -4.45454,0.31437 -4.45454,-0.89543 0,-1.72203 6.15405,-3.06148 9.75025,-2.12099 2.82972,0.74004 2.9506,-1.03938 0.19898,-2.96668 -1.45291,-1.01766 -3.06801,-1.21515 -5.50825,-0.66479 -1.89791,0.42802 -3.64443,0.46742 -3.88021,0.0859 -1.1262,-1.82222 1.67579,-3.1951 7.65639,-3.75357 1.57476,-0.14706 2.88343,-0.23024 3.95709,-0.20351 z m -17.69156,1.95367 c 1.17553,0.0313 1.51952,0.38313 1.51952,1.1532 0,1.58159 -2.82894,2.71717 -6.83331,2.74057 -4.08868,0.0239 -1.75924,2.49632 2.65916,2.82196 5.73877,0.42295 5.53029,2.75785 -0.32561,3.63599 -5.81738,0.87237 -5.81738,2.55515 0,2.55515 3.33332,0 4.49976,0.39032 4.49976,1.50143 0,0.825 -0.78766,1.50447 -1.75016,1.51047 -0.9625,0.006 -3.36585,0.27475 -5.34093,0.60148 l -3.59077,0.59695 -1.26174,-6.35394 c -0.69414,-3.49528 -1.47221,-7.14613 -1.72755,-8.10863 -0.34849,-1.31361 0.14031,-1.75016 1.96271,-1.75016 1.3353,0 4.51673,-0.28338 7.06848,-0.63313 1.41098,-0.1934 2.41513,-0.29012 3.12044,-0.27134 z" /><path
         id="path2998"
         style="display:inline;fill:#010101"
         d="m 706.66625,718.23786 c -1.15788,0.0502 -2.81116,0.50267 -4.19677,1.19391 -1.84749,0.92164 -5.54291,1.88708 -8.21264,2.14361 -4.66806,0.44854 -4.78797,0.54045 -3.16115,2.33807 2.00866,2.21954 4.49543,2.36731 8.18099,0.49294 1.48519,-0.75532 3.76865,-1.70268 5.07863,-2.10743 2.26664,-0.70032 2.3544,-0.56769 1.73207,2.7496 -0.90511,4.82472 0.77062,8.5488 4.63092,10.28842 1.84577,0.83179 4.93391,1.28163 7.12727,1.03562 4.26375,-0.47822 6.83317,-2.2021 5.03793,-3.38274 -0.59241,-0.3896 -1.58766,-1.6089 -2.21144,-2.7089 -1.11533,-1.96686 -1.13687,-1.96278 -1.16677,0.14471 -0.0508,3.58212 -6.53369,4.70444 -9.57841,1.65972 -1.36186,-1.36187 -1.57733,-2.81903 -1.09441,-7.43932 0.51931,-4.96851 0.35516,-5.82323 -1.20295,-6.31776 -0.24776,-0.0786 -0.57731,-0.10719 -0.96327,-0.0905 z m 10.30198,2.57776 c -1.47936,-0.11421 -3.70389,0.44472 -5.0515,1.53761 -1.8735,1.51936 -1.85212,1.55405 0.56078,1.01301 1.375,-0.30831 3.28401,-0.56282 4.24651,-0.56982 0.9625,-0.008 1.75016,-0.46754 1.75016,-1.01754 0,-0.58494 -0.61833,-0.89474 -1.50595,-0.96326 z m -0.72358,5.98763 c -1.19667,-0.0961 -2.96711,0.51529 -3.89829,1.65067 -1.23227,1.50251 -1.11407,1.60539 1.13059,1.01301 1.375,-0.36287 2.83457,-0.66683 3.24707,-0.67383 0.4125,-0.008 0.75072,-0.46302 0.75072,-1.01302 0,-0.60785 -0.51209,-0.91917 -1.23009,-0.97683 z m -18.22067,0.99492 c -1.51667,-0.0119 -1.67952,0.24701 -0.74619,1.18034 1.86895,1.86895 1.56022,12.45009 -0.3844,13.19631 -2.22912,0.8554 -2.24557,0.84645 -2.60037,-1.56475 -0.17575,-1.19441 -0.94434,-2.37973 -1.70946,-2.63202 -1.02673,-0.33855 -1.2339,0.16808 -0.79142,1.93106 0.9179,3.65721 -0.31683,4.6773 -7.8599,6.49413 -10.74476,2.58801 -10.13234,2.33764 -8.42971,3.4144 2.41762,1.52893 6.79833,1.09242 11.11149,-1.10798 2.23138,-1.13837 4.26916,-1.85414 4.53142,-1.59188 0.89556,0.89556 -2.59357,6.42098 -5.71177,9.04476 -3.5223,2.96383 -4.07544,3.10158 -5.75699,1.42003 -0.93332,-0.93333 -1.20295,-0.49 -1.20295,1.99889 0,4.1653 2.28235,4.2267 7.82372,0.21255 4.22178,-3.05825 8.17646,-9.33486 8.17646,-12.97471 0,-1.12191 0.19057,-2.03959 0.42058,-2.03959 0.23002,0 1.14627,-0.28129 2.0396,-0.62409 1.43273,-0.54979 1.59206,0.36529 1.3341,7.75136 -0.21112,6.04507 -0.63969,8.30268 -1.54213,8.12219 -1.71662,-0.34332 -1.56847,0.74358 0.40249,2.92146 4.18776,4.62743 5.66337,1.2711 5.17812,-11.80341 -0.31727,-8.54864 -0.25176,-8.87687 1.91749,-9.18495 2.11184,-0.29993 2.25267,0.037 2.25667,5.49921 0.005,7.66981 2.49815,11.94824 7.51167,12.88878 4.93161,0.92518 11.42134,-0.0711 13.37268,-2.05316 1.48363,-1.507 1.47307,-1.74042 -0.11758,-2.92145 -0.95079,-0.70597 -2.40923,-2.5898 -3.24255,-4.18773 l -1.51499,-2.90789 -0.009,4.23295 c -0.005,3.72244 -0.31704,4.30882 -2.60941,4.88417 -1.58697,0.3983 -3.91394,0.031 -5.95145,-0.94066 -3.85906,-1.84025 -5.95761,-7.42609 -4.90226,-13.05158 0.53112,-2.83113 0.30717,-3.42812 -1.45621,-3.88925 -1.14633,-0.29977 -2.33758,-0.1411 -2.64559,0.35727 -0.30801,0.49837 -1.23914,0.90899 -2.07125,0.90899 -1.25413,0 -1.39517,-0.96096 -0.81403,-5.61227 0.74586,-5.96963 3.5e-4,-7.33998 -4.00683,-7.37148 z m -9.39751,0.0724 c -0.83508,-0.1186 -0.99039,0.69896 -0.54268,2.48279 0.51359,2.04631 -0.0336,3.27369 -2.67725,6.00119 -3.9128,4.03699 -2.1043,4.68562 3.17019,1.13964 3.93701,-2.64681 4.97874,-6.44974 2.30189,-8.4071 -1.00675,-0.73616 -1.75109,-1.14536 -2.25215,-1.21652 z m 29.65325,12.94305 c -1.19035,-0.0922 -3.02855,0.42343 -4.3641,1.4336 -1.4734,1.11441 -1.57724,1.47406 -0.43867,1.48786 2.58191,0.0312 5.99668,-1.14875 5.99668,-2.07125 0,-0.52179 -0.4797,-0.7949 -1.19391,-0.85021 z m -1.30244,6.96899 c -1.375,0 -2.50088,0.44945 -2.50088,0.99945 0,0.54999 1.12588,0.99944 2.50088,0.99944 1.37499,0 2.49635,-0.44945 2.49635,-0.99944 0,-0.55 -1.12136,-0.99945 -2.49635,-0.99945 z m -17.13982,19.29699 c -1.80186,0.0122 -2.61594,0.8437 -1.44717,2.01246 0.59792,0.59792 1.08537,2.29582 1.08537,3.77167 0,3.10974 -1.85217,3.88171 -9.37037,3.90281 -4.36113,0.0122 -4.73474,0.18068 -3.54102,1.61902 1.32165,1.59249 6.83574,1.51439 11.20646,-0.16281 1.33575,-0.51257 1.70493,-0.0966 1.70493,1.93106 0,2.83988 -0.68678,3.1218 -9.79547,4.02039 -2.91217,0.28729 -6.35357,0.12107 -7.64735,-0.37083 -3.24691,-1.23448 -3.78429,-0.27588 -1.5964,2.84005 2.00267,2.85214 4.7336,15.77863 3.57721,16.93179 -0.38886,0.38778 -4.03913,0.63703 -8.10863,0.55173 -7.05117,-0.1478 -7.34999,-0.0657 -6.35394,1.79539 1.98274,3.70479 5.73438,4.25612 13.54,1.98984 15.14511,-4.39722 17.33846,-4.07584 17.37046,2.53706 0.008,1.74252 0.29471,3.90002 0.63766,4.79372 0.96712,2.52029 1.57938,1.1217 2.26119,-5.1736 l 0.62409,-5.78865 8.49755,0.2216 c 4.67227,0.12218 11.31113,0.97983 14.75653,1.90392 3.44539,0.92409 6.55827,1.38755 6.91471,1.0311 0.35644,-0.35644 0.13461,-1.77478 -0.49293,-3.15209 -0.93653,-2.05546 -1.84952,-2.5054 -5.08316,-2.5054 -6.41594,0 -6.99731,-0.5127 -5.93788,-5.22787 0.50756,-2.25901 1.6275,-5.30682 2.49183,-6.77001 1.439,-2.43602 1.43035,-2.93665 -0.13567,-5.96502 l -1.70946,-3.30586 -7.65639,0.66932 c -4.20976,0.36928 -8.55529,0.76849 -9.65529,0.88638 -1.52381,0.16332 -1.99889,-0.38354 -1.99889,-2.28832 0,-2.4001 0.248,-2.49636 6.24993,-2.49636 3.43851,0 6.25093,-0.2697 6.24993,-0.59695 -10e-4,-0.32726 -0.86325,-1.37495 -1.91749,-2.32903 -1.50274,-1.35995 -2.35284,-1.50221 -3.93447,-0.65574 -1.1096,0.59383 -2.94755,1.08085 -4.08371,1.08085 -1.6816,0 -2.0622,-0.63089 -2.0622,-3.39179 0,-2.80004 -0.44418,-3.50189 -2.5461,-4.02944 -0.78342,-0.19662 -1.49325,-0.28443 -2.09386,-0.28039 z m 13.5807,16.70115 c 6.80167,0 7.554,1.2322 6.01477,9.84523 l -1.23461,6.91019 -5.11029,0.61505 c -8.44733,1.01503 -9.61458,0.84734 -9.61458,-1.37028 0,-1.78337 0.67117,-1.9989 6.15948,-1.9989 5.95215,0 6.09798,-0.0613 4.45907,-1.87226 -1.33601,-1.47627 -2.63888,-1.76659 -6.15496,-1.37028 -3.56951,0.40234 -4.46359,0.19403 -4.46359,-1.04015 0,-1.77411 6.68179,-3.27397 9.95828,-2.23406 2.39376,0.75975 2.70219,-0.69286 0.52912,-2.49635 -0.9979,-0.82818 -3.04425,-1.04748 -6.0012,-0.64218 -3.60065,0.49352 -4.4862,0.31754 -4.4862,-0.89091 0,-2.0309 4.10219,-3.4551 9.94471,-3.4551 z m -16.00018,2.12552 c 1.69361,0.006 2.05768,0.37906 2.05768,1.23914 0,1.48113 -1.36888,2.08193 -6.49866,2.85814 -3.36984,0.50991 -1.23682,2.27928 2.74961,2.27928 2.85466,0 3.75004,0.40176 3.74905,1.68685 -9.4e-4,1.2345 -1.21015,1.87189 -4.49976,2.3652 -5.81388,0.87185 -5.81388,2.44661 0,2.44661 5.70604,0 6.25362,2.44604 0.75071,3.35561 -7.0757,1.16953 -6.98112,1.24746 -8.79603,-6.9102 -0.92436,-4.15482 -1.51536,-7.70967 -1.31601,-7.9006 0.19934,-0.19093 3.39668,-0.66944 7.10918,-1.06276 2.18054,-0.23101 3.67806,-0.36108 4.69423,-0.35727 z" /></g></g></svg>
