<?xml version="1.0" encoding="UTF-8" standalone="no"?>
<!-- Created with Inkscape (http://www.inkscape.org/) -->

<svg
   viewBox="0 0 39.200001 39.200001"
   version="1.1"
   id="svg1"
   inkscape:version="1.3.2 (091e20e, 2023-11-25, custom)"
   sodipodi:docname="Bishop.svg"
   xml:space="preserve"
   xmlns:inkscape="http://www.inkscape.org/namespaces/inkscape"
   xmlns:sodipodi="http://sodipodi.sourceforge.net/DTD/sodipodi-0.dtd"
   xmlns="http://www.w3.org/2000/svg"
   xmlns:svg="http://www.w3.org/2000/svg"><sodipodi:namedview
     id="namedview1"
     pagecolor="#ffffff"
     bordercolor="#111111"
     borderopacity="1"
     inkscape:showpageshadow="false"
     inkscape:pageopacity="0"
     inkscape:pagecheckerboard="1"
     inkscape:deskcolor="#d1d1d1"
     inkscape:document-units="mm"
     showguides="true"
     inkscape:zoom="3.7055165"
     inkscape:cx="74.078743"
     inkscape:cy="74.078743"
     inkscape:window-width="1292"
     inkscape:window-height="745"
     inkscape:window-x="-8"
     inkscape:window-y="-8"
     inkscape:window-maximized="1"
     inkscape:current-layer="g12"
     labelstyle="default"><inkscape:page
       x="0"
       y="0"
       width="39.200001"
       height="39.200001"
       id="page42"
       margin="0"
       bleed="0" /></sodipodi:namedview><defs
     id="defs1"><inkscape:path-effect
       effect="powerstroke"
       id="path-effect12"
       is_visible="true"
       lpeversion="1.3"
       scale_width="1"
       interpolator_type="CubicBezierJohan"
       interpolator_beta="0.2"
       start_linecap_type="zerowidth"
       end_linecap_type="zerowidth"
       offset_points="7,4.9921382"
       linejoin_type="extrp_arc"
       miter_limit="4"
       not_jump="false"
       sort_points="true"
       message="&lt;b&gt;Ctrl + click&lt;/b&gt; on existing node and move it" /><inkscape:path-effect
       effect="powerstroke"
       id="path-effect13"
       is_visible="true"
       lpeversion="1.3"
       scale_width="1"
       interpolator_type="CubicBezierJohan"
       interpolator_beta="0.2"
       start_linecap_type="zerowidth"
       end_linecap_type="zerowidth"
       offset_points="5,4.9921382"
       linejoin_type="extrp_arc"
       miter_limit="4"
       not_jump="false"
       sort_points="true"
       message="&lt;b&gt;Ctrl + click&lt;/b&gt; on existing node and move it" /></defs><g
     id="g12"
     transform="matrix(0.92057761,0,0,0.93486581,1.4659198,1.1628361)"><path
       style="display:inline;fill:#938e5e;fill-opacity:1;fill-rule:evenodd;stroke:none;stroke-width:0.971808;stroke-linecap:round;stroke-linejoin:round;stroke-dasharray:none;stroke-opacity:1;paint-order:stroke fill markers"
       d="m 5.8485911,2.5 0,6.8459021 4.5086969,24.6087609 9.341301,2.988783 9.341303,-2.988783 4.508697,-24.6087609 0,-6.8459021 z"
       id="path12"
       sodipodi:nodetypes="cccccccc" /><path
       style="display:inline;fill:#fff29e;fill-opacity:1;fill-rule:evenodd;stroke:none;stroke-width:0.373137;stroke-linecap:round;stroke-linejoin:round;paint-order:stroke fill markers"
       d="M 19.698591,33.520495 10.357287,30.53171 5.8485898,2.5 H 33.54859 l -4.508698,28.03171 z"
       id="path13"
       sodipodi:nodetypes="cccccc" /><g
       transform="matrix(-0.38168669,0,0,-0.37585311,279.01789,276.53868)"
       id="g3022"><path
         id="path3010"
         style="display:inline;fill:#cfcfcf"
         d="m 674.64125,663.66384 c -1.78394,-0.12545 -2.55758,0.8886 -2.05475,2.89205 0.43389,1.72869 -0.32533,3.14077 -3.1636,5.89722 -2.05197,1.99284 -4.11004,3.62524 -4.57567,3.62524 -0.46563,0 -0.84634,0.50905 -0.84634,1.13147 0,0.75263 1.4233,0.94302 4.24981,0.57026 3.28972,-0.43387 4.98368,-1.40631 7.49939,-4.29959 3.85294,-4.43122 4.24726,-8.09823 1.00022,-9.30522 -0.80938,-0.30087 -1.51442,-0.46961 -2.10906,-0.51143 z m 9.13776,3.41252 c -3.23187,0 -3.63402,1.46921 -0.81466,2.97803 2.75188,1.47276 1.63361,3.4294 -3.53019,6.16879 -2.43794,1.29332 -4.43537,2.74651 -4.43537,3.23148 0,0.48498 2.02272,0.65422 4.49421,0.37565 5.16139,-0.58177 11.5048,-4.85464 11.5048,-7.74832 0,-2.4508 -3.68271,-5.00563 -7.21879,-5.00563 z m 7.92483,12.28326 c -1.43535,-0.042 -3.83677,0.51031 -8.70328,1.61121 -2.475,0.55989 -6.91104,1.03958 -9.85738,1.06358 -4.61426,0.0375 -5.26682,0.27892 -4.70692,1.73794 0.61087,1.59191 0.53705,1.59191 -1.22199,0 -3.1113,-2.81563 -3.80557,-1.98151 -3.78817,4.55304 0.009,3.4375 -0.36762,9.4633 -0.83728,13.3921 -0.80499,6.73322 -0.73173,7.21372 1.29892,8.30047 2.8717,1.53689 3.90527,0.71963 4.70693,-3.7248 0.88029,-4.88063 1.32105,-5.53021 2.89656,-4.22265 0.72343,0.60039 2.48728,0.79732 3.91489,0.43901 2.51295,-0.63071 2.59334,-0.50143 2.59334,3.96015 0,2.53463 0.36108,4.60735 0.80108,4.60735 1.83633,0 3.1998,-2.64262 3.1998,-6.20046 0,-3.69029 0.10447,-3.80175 3.57092,-3.80175 3.12977,0 3.52977,-0.27657 3.24959,-2.24936 -0.26188,-1.84394 -0.90746,-2.22085 -3.57093,-2.10001 -2.57654,0.11689 -3.24958,-0.24723 -3.24958,-1.75152 0,-1.44161 0.72137,-1.89635 3.00066,-1.89635 1.79487,0 3.00066,-0.52119 3.00066,-1.29892 0,-1.85506 -2.09428,-3.70218 -4.20002,-3.70218 -0.99,0 -1.8013,-0.67307 -1.8013,-1.49807 0,-1.07512 1.09837,-1.50259 3.87416,-1.50259 h 3.86963 l 0.47974,5.0011 c 0.26424,2.75 0.26424,7.24773 0,9.99768 -0.42857,4.46019 -0.73471,5.00111 -2.85131,5.00111 -3.52483,0 -2.8702,2.21034 1.3804,4.66166 2.06102,1.18858 4.64792,2.08904 5.74787,2.00044 1.89653,-0.15273 2.00045,-0.8814 2.00045,-14.08456 0,-12.14906 -0.24275,-14.23255 -1.89635,-16.34297 -0.99693,-1.27234 -1.46574,-1.90869 -2.90109,-1.95065 z m -20.53395,7.21426 c 0.33016,0.009 0.69329,0.046 1.08169,0.11314 5.70694,0.98605 6.41902,1.35172 4.7205,2.42588 -1.7097,1.08123 -6.33182,1.27167 -7.30478,0.29871 -1.62361,-1.62361 -0.80846,-2.90345 1.50259,-2.83773 z m -0.69246,5.92891 c 0.24722,-0.0186 0.62047,0.23985 1.17673,0.70151 0.9095,0.75481 2.48301,1.2311 3.49851,1.05906 1.2718,-0.21546 1.84656,0.29734 1.84656,1.64289 0,1.48802 -0.83246,2.04674 -3.4985,2.35799 -3.39768,0.39666 -3.49851,0.31186 -3.49851,-3.00971 0,-1.91835 0.0632,-2.72072 0.47521,-2.75174 z" /><path
         id="path3008"
         style="display:inline;fill:#afafaf"
         d="m 675.17078,664.0757 c -2.36102,0 -2.68733,0.39112 -2.67933,3.1817 0.008,2.56395 -0.80655,3.80693 -4.18192,6.39507 -2.30395,1.76668 -3.88274,3.52162 -3.50756,3.89679 0.95707,0.95707 6.15195,-0.21154 8.87526,-1.99591 3.00635,-1.96984 5.58341,-7.07907 4.8065,-9.52699 -0.41173,-1.29724 -1.52193,-1.95066 -3.31295,-1.95066 z m 8.89789,3.10023 c -0.61104,0.0303 -1.22073,0.15631 -1.81488,0.39828 -1.56947,0.63918 -1.51746,0.82273 0.49785,1.76057 3.47074,1.61515 2.70551,3.54122 -2.75174,6.93366 -2.75,1.70945 -5.00111,3.26498 -5.00111,3.45777 0,0.19278 1.36949,0.3485 3.0414,0.3485 3.36779,0 9.86352,-2.9689 11.92571,-5.4537 2.5931,-3.12449 -1.61996,-7.65749 -5.89723,-7.44508 z m 7.19163,12.28325 c -1.37164,0.0203 -3.16116,0.42863 -5.51253,1.01833 -3.50664,0.87944 -8.93416,1.59764 -12.06148,1.59764 -3.12736,0 -5.68452,0.30516 -5.68452,0.67435 0,1.7673 3.60756,4.32675 6.09637,4.32675 3.23861,0 4.75438,1.63315 2.1679,2.33536 -6.70423,1.82015 -7.26404,1.77495 -7.26404,-0.59289 0,-2.68897 -2.59037,-6.74257 -4.30865,-6.74357 -0.80581,-5e-4 -1.19336,2.19399 -1.19936,6.75262 -0.005,3.71287 -0.39215,9.47893 -0.85992,12.81731 -0.726,5.18124 -0.59457,6.32551 0.90066,7.82073 1.52105,1.52105 1.94109,1.56646 3.18622,0.32133 0.78862,-0.78861 1.68163,-3.29569 1.98686,-5.57136 0.59399,-4.42853 1.3219,-5.01399 3.2858,-2.64764 0.78266,0.94306 2.11113,1.27045 3.6207,0.8916 2.21993,-0.55717 2.38515,-0.31949 2.38515,3.44872 0,2.22717 0.42802,4.31617 0.95043,4.63903 1.33903,0.82757 3.05045,-2.76551 3.05045,-6.40413 0,-2.726 0.32676,-3.06855 2.94182,-3.06855 3.48844,0 4.72056,-1.49662 2.96898,-3.60713 -0.79133,-0.95354 -2.13144,-1.30268 -3.58902,-0.93685 -1.85745,0.46615 -2.32178,0.17888 -2.32178,-1.43471 0,-1.57672 0.65789,-2.01855 3.00066,-2.01855 1.79487,0 3.00066,-0.52118 3.00066,-1.29892 0,-1.81924 -2.08348,-3.70218 -4.09592,-3.70218 -0.93116,0 -1.93152,-0.62917 -2.22674,-1.3985 -0.62932,-1.63998 6.19592,-2.91315 7.78905,-1.45281 1.17315,1.07537 2.00271,13.83124 1.12694,17.32057 -0.39063,1.55658 -1.57215,2.73929 -3.13643,3.13191 -2.0032,0.50277 -2.27892,0.90952 -1.3623,2.01402 0.63213,0.76167 1.71294,1.38492 2.40325,1.38492 0.69031,0 1.8136,0.67307 2.49829,1.49807 1.66836,2.01026 4.63417,1.90563 5.44011,-0.19462 0.3583,-0.93374 0.34257,-7.67345 -0.0362,-14.97615 -0.65179,-12.56633 -1.02648,-16.00553 -5.14141,-15.9447 z m -20.78739,13.05266 c 0.24185,-0.0299 0.60294,0.21463 1.14052,0.66078 0.88813,0.73708 2.57759,1.35354 3.75196,1.37134 1.20593,0.0182 2.13622,0.67857 2.13622,1.51617 0,0.9387 -1.37836,1.70514 -3.75196,2.09096 -3.7291,0.60615 -3.74743,0.58985 -3.74743,-2.85583 0,-1.92257 0.0676,-2.73365 0.47069,-2.78342 z" /><path
         id="path3006"
         style="display:inline;fill:#8f8f8f"
         d="m 674.55073,664.0757 c -1.85942,0 -2.13928,0.45235 -1.7832,2.87846 0.35217,2.3995 -0.2516,3.41595 -3.64334,6.14163 -2.23607,1.79699 -3.85378,3.60519 -3.59808,4.01899 0.58386,0.94471 7.08327,-0.47005 8.83453,-1.92351 0.71838,-0.59616 2.14069,-2.63034 3.15907,-4.52136 1.54398,-2.86695 1.63426,-3.69993 0.54311,-5.01468 -0.71969,-0.86719 -2.29969,-1.57953 -3.51209,-1.57953 z m 9.37311,3.00066 c -2.63277,0 -3.28883,1.74731 -0.93686,2.49376 1.10799,0.35166 2.01402,1.25243 2.01402,2.00045 0,1.54131 -4.19769,5.11724 -7.08301,6.033 -1.05465,0.33473 -1.91898,1.02586 -1.91898,1.5388 0,0.51293 1.26373,0.93234 2.80605,0.93234 3.36626,0 12.19274,-5.36036 12.19274,-7.40435 0,-1.86064 -4.72068,-5.594 -7.07396,-5.594 z m 6.31814,12.51408 c -0.92244,0.0439 -1.94312,0.24703 -3.0414,0.62004 -2.03557,0.69133 -7.29945,1.50542 -11.69941,1.81036 l -8.00177,0.55668 2.34894,2.34893 c 1.58369,1.58373 3.12731,2.19705 4.74765,1.8873 1.32117,-0.25256 2.40324,-0.0709 2.40324,0.4028 0,0.47373 0.0883,1.19872 0.19462,1.61122 0.10632,0.4125 -1.13292,0.97779 -2.75174,1.25819 -4.0888,0.70824 -3.87064,3.39887 0.30776,3.80175 2.44002,0.23526 3.24959,0.7999 3.24959,2.25389 0,1.38162 -0.69166,1.93708 -2.41683,1.93708 -1.33002,0 -3.06958,0.24689 -3.8651,0.55216 -1.12765,0.43272 -1.60309,-0.83232 -2.1498,-5.74788 -0.71885,-6.46328 -2.66683,-10.81029 -4.8427,-10.80329 -0.86005,0.003 -1.30877,2.76969 -1.50712,9.25091 -0.15563,5.08541 -0.383,10.99191 -0.50237,13.12507 -0.15381,2.74864 0.28642,4.19962 1.50712,4.97847 2.39094,1.52557 3.80367,-0.12197 4.48968,-5.23644 0.53913,-4.01956 1.53975,-5.14251 2.78794,-3.12287 0.33992,0.55 1.93981,1.00022 3.55735,1.00022 2.75714,0 2.94183,0.24742 2.94183,3.94205 0,2.16754 0.44919,4.22153 1.00022,4.56209 1.1595,0.7166 3.00066,-3.55278 3.00066,-6.96081 0,-2.37889 1.66942,-3.54377 5.08257,-3.54377 1.05501,0 1.91897,-0.39083 1.91897,-0.87349 0,-1.68798 -2.62283,-3.03646 -4.80196,-2.46661 -1.7527,0.45834 -2.19958,0.14452 -2.19958,-1.54333 0,-1.57743 0.6203,-2.11359 2.43945,-2.11359 1.34254,0 2.73184,-0.47138 3.08665,-1.04548 0.88396,-1.43023 -1.37912,-3.95562 -3.54376,-3.95562 -0.97381,0 -2.00699,-0.62355 -2.29915,-1.38492 -0.3771,-0.98271 0.62441,-1.57072 3.45325,-2.02307 2.19165,-0.35049 4.40753,-0.37364 4.92416,-0.0543 0.51663,0.31929 0.93686,4.77296 0.93686,9.89811 0,9.58116 -0.51896,10.975 -4.38106,11.70847 -1.52517,0.28965 -1.14463,0.85845 2.00044,3.00518 4.61165,3.1478 6.92825,3.47905 7.83431,1.1179 0.65671,-1.71136 -0.13468,-22.68513 -1.01832,-26.98786 -0.52989,-2.58018 -2.42392,-3.89722 -5.19119,-3.76553 z" /><path
         id="path3004"
         style="display:inline;fill:#6f6f6f"
         d="m 674.75892,664.0757 c -1.56469,0 -1.86981,0.47554 -1.4166,2.20863 0.4464,1.70702 -0.43565,3.18286 -3.89679,6.49917 l -4.48062,4.29507 h 3.37178 c 3.81864,0 8.07823,-3.33441 9.69445,-7.58539 1.19204,-3.13526 -0.18698,-5.41748 -3.27222,-5.41748 z m 9.06082,3.32653 c -0.56745,0.009 -1.01775,0.18122 -1.25819,0.57026 -0.33285,0.53857 0.19361,1.43243 1.16768,1.98686 2.37575,1.35227 0.81124,3.91942 -4.08235,6.69379 -2.01387,1.14169 -3.32294,2.41137 -2.91015,2.82415 2.0135,2.0135 14.26107,-3.79379 14.26107,-6.76167 0,-2.27156 -4.71907,-5.35075 -7.17806,-5.31339 z m 6.92914,11.89402 c -0.11199,-0.008 -0.22602,-0.006 -0.34397,0.005 -0.56617,0.0511 -1.21881,0.3132 -2.14527,0.7513 -1.51794,0.71778 -6.80829,1.57897 -11.75825,1.91445 l -9.00199,0.61099 2.34894,2.34893 c 1.56039,1.56043 3.1347,2.19517 4.69786,1.89635 1.45234,-0.27764 2.56594,0.0969 2.90562,0.98212 0.81347,2.11986 0.81388,2.11856 -2.70195,2.45755 -4.3005,0.41465 -4.51499,3.29853 -0.24892,3.34463 2.2627,0.0245 3.0718,0.54363 3.29937,2.11359 0.25225,1.74022 -0.37646,2.19225 -3.84701,2.74721 -3.50992,0.56126 -3.96138,0.89135 -2.92824,2.13622 0.67204,0.80975 2.51327,1.47091 4.09592,1.47091 2.69049,0 2.87847,0.26094 2.87847,4.00089 0,6.34977 2.84435,4.93812 3.95562,-1.96424 0.5009,-3.11119 0.95515,-3.57112 3.80627,-3.847 1.78117,-0.17235 3.24053,-0.67918 3.24053,-1.12694 0,-1.63196 -2.65866,-2.96373 -4.80196,-2.40325 -1.7527,0.45834 -2.19958,0.14452 -2.19958,-1.54333 0,-1.57743 0.6203,-2.11359 2.43945,-2.11359 1.34254,0 2.73184,-0.47138 3.08665,-1.04548 0.88396,-1.43023 -1.37912,-3.95562 -3.54376,-3.95562 -0.97381,0 -2.00699,-0.62355 -2.29915,-1.38492 -0.3771,-0.98271 0.62441,-1.57072 3.45325,-2.02307 2.19165,-0.35049 4.40753,-0.37364 4.92416,-0.0543 0.51663,0.31929 0.93686,4.77296 0.93686,9.89811 0,9.58116 -0.51896,10.975 -4.38106,11.70847 -1.52517,0.28965 -1.14463,0.85845 2.00044,3.00518 7.57909,5.17331 8.57138,3.43059 7.71211,-13.52334 -0.5799,-11.44169 -0.8451,-12.75938 -2.9735,-14.75891 -1.14424,-1.07496 -1.82299,-1.59204 -2.60691,-1.64743 z m -26.29087,2.94635 c -0.848,-0.17734 -0.87194,1.05831 -0.59742,5.02374 0.19757,2.85395 -0.20552,8.467 -0.8916,12.47786 -1.00141,5.85414 -0.99848,7.59253 0.0136,8.8119 3.5395,4.2649 6.02009,-0.58485 6.16878,-12.07053 0.1003,-7.74824 -0.99203,-11.93566 -3.55282,-13.64555 -0.48452,-0.32352 -0.85786,-0.5383 -1.14052,-0.59742 z" /><path
         id="path3002"
         style="display:inline;fill:#4f4f4f"
         d="m 674.83586,664.0757 c -1.63974,0 -1.95177,0.45635 -1.49354,2.20863 0.4464,1.70702 -0.43565,3.18286 -3.89679,6.49917 l -4.48062,4.29507 h 2.88298 c 5.35881,0 12.08771,-7.58076 10.01579,-11.28303 -0.52913,-0.94551 -1.891,-1.71984 -3.02782,-1.71984 z m 9.75781,4.03256 c -2.88936,0.0297 -2.96828,0.12702 -1.21746,1.45281 2.43435,1.8434 1.58456,3.87501 -2.8151,6.72547 -1.94384,1.25937 -3.5413,2.62889 -3.5483,3.04139 -0.0406,2.45984 12.26171,-2.91349 13.38757,-5.84744 0.95859,-2.49805 -2.1882,-5.40943 -5.80671,-5.37223 z m 6.25025,11.22873 c -0.83217,-0.0639 -1.89014,0.34214 -3.91942,1.1541 -2.29504,0.91829 -7.26577,1.76388 -11.04768,1.87824 -4.79875,0.14511 -6.87482,0.58988 -6.87482,1.47996 0,1.46277 3.79094,3.13615 6.55348,2.89204 1.06514,-0.0941 2.02523,0.58709 2.23126,1.58406 0.26148,1.26534 -0.28435,1.754 -1.96424,1.7651 -1.27778,0.008 -2.90717,0.38923 -3.6207,0.84181 -1.96622,1.24727 1.17909,3.47779 3.75196,2.66123 1.68807,-0.53578 2.0457,-0.21529 2.0457,1.82845 0,2.11788 -0.58791,2.5801 -4.04162,3.1636 -3.43696,0.58067 -3.85712,0.90596 -2.80605,2.17242 0.74881,0.90225 2.34184,1.32663 4.04162,1.07716 2.7068,-0.39728 2.80605,-0.25766 2.80605,3.91489 0,2.37975 0.46376,4.32675 1.02737,4.32675 1.27667,0 2.97351,-4.32112 2.97351,-7.56728 0,-2.12686 0.4545,-2.43493 3.5845,-2.43493 4.55246,0 4.15778,-2.3601 -0.47069,-2.8151 -2.67759,-0.26322 -3.18095,-0.69593 -2.92372,-2.50281 0.21914,-1.53929 1.11991,-2.27511 3.05949,-2.49829 2.4248,-0.27901 2.62259,-0.55614 1.66553,-2.34441 -0.68915,-1.28769 -1.76267,-1.8505 -2.9373,-1.54333 -1.08801,0.28452 -2.08901,-0.14855 -2.43493,-1.05 -0.80553,-2.09919 -0.41845,-2.31309 4.58925,-2.54355 l 4.36748,-0.19914 0.28513,10.2104 0.28513,10.21492 -3.25411,0.84182 -3.24958,0.84181 4.46704,2.59333 c 2.45709,1.42717 4.78899,2.64243 5.18214,2.69743 1.94805,0.27261 2.54896,-4.4638 2.0457,-16.11668 -0.50096,-11.59982 -0.74925,-12.89303 -2.85583,-14.87206 -1.12199,-1.05401 -1.72949,-1.58801 -2.56165,-1.65194 z m -26.39044,2.91014 c -0.84965,-0.15163 -0.8682,1.19224 -0.59289,5.57589 0.19866,3.16325 -0.18214,8.80699 -0.84634,12.5367 -0.9477,5.32153 -0.94296,7.09368 0.0136,8.24617 3.51696,4.23767 5.97417,-1.00322 5.97417,-12.7449 0,-7.56742 -1.01018,-11.42292 -3.40347,-13.02097 -0.488,-0.32584 -0.86183,-0.54235 -1.14505,-0.59289 z" /><path
         id="path3000"
         style="display:inline;fill:#2f2f2f"
         d="m 674.04836,664.17074 c -0.87175,0.0607 -0.91132,0.60595 -0.52501,2.14527 0.48505,1.9326 -0.26647,3.19229 -3.93752,6.57611 l -4.53946,4.18645 h 3.0776 c 4.31711,0 10.14014,-5.8413 9.69445,-9.7216 -0.23148,-2.01534 -0.9488,-2.86957 -2.60691,-3.10476 -0.49117,-0.0697 -0.87257,-0.1016 -1.16315,-0.0815 z m 10.70372,3.90584 c -2.96067,0 -3.02836,0.0777 -1.19484,1.43923 2.39234,1.77649 1.29922,4.08291 -3.35368,7.06039 -1.71897,1.09996 -3.14239,2.33923 -3.16359,2.75173 -0.11771,2.29186 8.9814,-1.40523 12.18821,-4.95131 1.56997,-1.7361 1.58915,-2.114 0.19461,-4.10498 -1.02598,-1.4648 -2.57773,-2.19506 -4.67071,-2.19506 z m 6.2955,11.4867 c -0.87165,-0.0776 -1.99771,0.29692 -4.1276,1.05453 -2.43057,0.86455 -7.45502,1.6587 -11.16536,1.7651 -4.71535,0.13521 -6.74962,0.57979 -6.75262,1.47544 -0.005,1.50368 2.17567,2.48143 5.84744,2.62048 4.25503,0.16114 3.97443,3.22185 -0.37112,4.03709 -2.99882,0.56258 -3.42247,0.92456 -2.43946,2.10907 0.73808,0.88927 2.09318,1.20479 3.57545,0.83276 2.05534,-0.51586 2.38515,-0.2367 2.38515,2.00044 0,2.25765 -0.52407,2.67787 -4.01446,3.23601 -3.369,0.53873 -3.81947,0.87439 -2.80605,2.09548 0.72142,0.86926 2.33759,1.29159 4.01446,1.04548 2.55443,-0.37492 2.81025,-0.13437 2.82415,2.66575 0.008,1.69225 0.43392,3.73897 0.94591,4.54851 1.09886,1.73759 1.47883,0.93848 2.50281,-5.22287 0.57863,-3.48164 0.86779,-3.75196 4.04615,-3.75196 2.63205,0 3.29386,-0.34479 2.8513,-1.49806 -0.32811,-0.85503 -1.82227,-1.49807 -3.47135,-1.49807 -2.39915,0 -2.89204,-0.41877 -2.89204,-2.43946 0,-1.96547 0.57541,-2.49444 2.97351,-2.74721 2.24108,-0.23623 2.75968,-0.65597 2.10906,-1.6972 -0.47468,-0.75969 -1.9183,-1.43277 -3.20886,-1.49807 -1.34554,-0.0681 -2.488,-0.84404 -2.67479,-1.81488 -0.23967,-1.24569 0.61588,-1.8673 3.23148,-2.35799 6.38272,-1.19741 6.67344,-0.7041 6.35434,10.77613 l -0.28513,10.26019 -3.00066,0.60647 -3.00066,0.60194 3.68407,1.63837 c 2.02489,0.90078 3.96357,2.09835 4.30864,2.65669 0.82078,1.32809 2.21706,1.28909 3.06403,-0.0815 0.37123,-0.6012 0.54083,-4.98746 0.37564,-9.74876 -0.16521,-4.7613 -0.22617,-10.72515 -0.13577,-13.25179 0.13014,-3.63824 -0.3148,-5.04656 -2.14527,-6.7662 -1.11399,-1.04654 -1.73073,-1.57431 -2.60239,-1.65195 z m -27.19604,2.01402 0.57026,4.15476 c 0.31366,2.28594 -0.12008,7.79803 -0.96401,12.24705 -1.12733,5.94279 -1.24979,8.62 -0.46165,10.09272 3.07986,5.75477 6.00586,-0.37697 6.00586,-12.59101 0,-7.51759 -0.243,-8.55465 -2.57523,-11.09747 z" /><path
         id="path2998"
         style="display:inline;fill:#030303"
         d="m 674.03931,664.16622 c -0.87443,0.0624 -0.89617,0.63081 -0.4888,2.25389 0.50875,2.02702 -0.16001,3.24827 -3.5845,6.57158 -4.20393,4.07971 -4.20245,4.08688 -1.48449,4.08688 3.95882,0 9.75956,-6.04178 9.3369,-9.7216 -0.23148,-2.01534 -0.9488,-2.86957 -2.60691,-3.10476 -0.49692,-0.0705 -0.88073,-0.10677 -1.1722,-0.086 z m 7.51749,3.91036 2.22221,1.55691 c 2.82119,1.97603 1.77139,4.29234 -3.15001,6.94271 -1.92929,1.03895 -3.28353,2.24986 -3.00972,2.6929 0.66482,1.0757 0.86892,1.05082 5.12783,-0.72867 4.69401,-1.9613 7.25499,-4.2878 7.25499,-6.58516 0,-2.08816 -2.84642,-3.87869 -6.15973,-3.87869 z m 9.36858,11.58174 c -0.76351,-0.0916 -1.70178,0.26313 -3.44419,0.99117 -2.01021,0.83992 -6.98504,1.61873 -11.05674,1.72889 -4.76245,0.12884 -7.4074,0.60436 -7.4134,1.33966 -0.0126,1.44833 2.32555,2.35799 6.06921,2.35799 2.19423,0 2.9192,0.46719 2.9192,1.88729 0,1.37418 -0.971,2.07394 -3.57093,2.56165 -2.95601,0.55455 -3.37223,0.91605 -2.38967,2.10002 0.73808,0.88927 2.09318,1.20479 3.57545,0.83276 2.03789,-0.51148 2.38515,-0.23144 2.38515,1.9054 0,2.55708 -1.60916,3.71122 -5.16404,3.71122 -1.16918,0 -1.81838,0.5235 -1.56143,1.25367 0.24194,0.6875 1.83518,1.18272 3.53924,1.10432 2.93163,-0.13487 3.1316,0.0993 3.76554,4.32675 0.77986,5.20046 2.14599,4.58076 2.60238,-1.18126 0.30347,-3.8313 0.48613,-4.02435 4.23623,-4.50326 3.48057,-0.44449 3.72954,-0.64853 2.25389,-1.86466 -0.91297,-0.75242 -2.56307,-1.13477 -3.66596,-0.84634 -1.66741,0.43603 -2.00497,0.036 -2.00497,-2.38062 0,-2.59437 0.33825,-2.90562 3.15454,-2.90562 3.05494,0 3.10104,-0.0613 1.40755,-1.93255 -0.96192,-1.0629 -2.34646,-1.70169 -3.0776,-1.42113 -0.73115,0.28057 -1.8061,-0.37539 -2.38514,-1.45733 -0.8799,-1.64412 -0.68832,-2.06745 1.1722,-2.56618 1.22436,-0.3282 3.70642,-0.60299 5.51253,-0.61099 l 3.28127,-0.0136 -0.28061,10.70824 c -0.27362,10.32168 -0.36886,10.72533 -2.64311,11.26041 -2.26285,0.53239 -2.20352,0.66127 1.49806,3.18622 2.12253,1.44781 4.3108,2.53132 4.8608,2.40325 0.60758,-0.14152 1.00022,-5.69572 1.00022,-14.14792 0,-12.95072 -0.15018,-14.06118 -2.18147,-16.13479 -1.04023,-1.06185 -1.63065,-1.60107 -2.3942,-1.69268 z m -26.02384,3.59356 c -0.66476,-0.004 -0.74861,0.97622 -0.36659,3.4804 0.32237,2.11321 -0.10711,7.38286 -0.95044,11.70847 -1.07431,5.51024 -1.23191,8.42789 -0.525,9.74876 2.84454,5.3151 5.94878,-1.35538 5.92438,-12.73132 -0.0148,-6.91949 -1.39078,-11.36098 -3.76101,-12.14295 -0.11886,-0.0392 -0.22637,-0.0628 -0.32134,-0.0634 z" /></g></g></svg>
