<?xml version="1.0" encoding="UTF-8" standalone="no"?>
<!-- Created with Inkscape (http://www.inkscape.org/) -->

<svg
   viewBox="0 0 39.200001 39.200001"
   version="1.1"
   id="svg1"
   inkscape:version="1.3.2 (091e20e, 2023-11-25, custom)"
   sodipodi:docname="King White.svg"
   xml:space="preserve"
   xmlns:inkscape="http://www.inkscape.org/namespaces/inkscape"
   xmlns:sodipodi="http://sodipodi.sourceforge.net/DTD/sodipodi-0.dtd"
   xmlns="http://www.w3.org/2000/svg"
   xmlns:svg="http://www.w3.org/2000/svg"><sodipodi:namedview
     id="namedview1"
     pagecolor="#ffffff"
     bordercolor="#111111"
     borderopacity="1"
     inkscape:showpageshadow="false"
     inkscape:pageopacity="0"
     inkscape:pagecheckerboard="1"
     inkscape:deskcolor="#d1d1d1"
     inkscape:document-units="mm"
     showguides="false"
     inkscape:zoom="3.7055165"
     inkscape:cx="63.553894"
     inkscape:cy="72.459535"
     inkscape:window-width="1292"
     inkscape:window-height="745"
     inkscape:window-x="-8"
     inkscape:window-y="-8"
     inkscape:window-maximized="1"
     inkscape:current-layer="layer1"
     labelstyle="default"><inkscape:page
       x="0"
       y="0"
       width="39.200001"
       height="39.200001"
       id="page42"
       margin="0"
       bleed="0" /></sodipodi:namedview><defs
     id="defs1"><inkscape:path-effect
       effect="powerstroke"
       id="path-effect12"
       is_visible="true"
       lpeversion="1.3"
       scale_width="1"
       interpolator_type="CubicBezierJohan"
       interpolator_beta="0.2"
       start_linecap_type="zerowidth"
       end_linecap_type="zerowidth"
       offset_points="7,4.9921382"
       linejoin_type="extrp_arc"
       miter_limit="4"
       not_jump="false"
       sort_points="true"
       message="&lt;b&gt;Ctrl + click&lt;/b&gt; on existing node and move it" /><inkscape:path-effect
       effect="powerstroke"
       id="path-effect13"
       is_visible="true"
       lpeversion="1.3"
       scale_width="1"
       interpolator_type="CubicBezierJohan"
       interpolator_beta="0.2"
       start_linecap_type="zerowidth"
       end_linecap_type="zerowidth"
       offset_points="5,4.9921382"
       linejoin_type="extrp_arc"
       miter_limit="4"
       not_jump="false"
       sort_points="true"
       message="&lt;b&gt;Ctrl + click&lt;/b&gt; on existing node and move it" /></defs><g
     inkscape:label="Layer 1"
     inkscape:groupmode="layer"
     id="layer1"
     transform="rotate(180,62.299999,101)"><path
       style="fill:#938e5e;fill-opacity:1;fill-rule:evenodd;stroke:none;stroke-width:1;stroke-linecap:round;stroke-linejoin:round;stroke-dasharray:none;stroke-opacity:1;paint-order:stroke fill markers"
       d="m 119.35,200 v -6.4 L 114.78527,167.97943 105,164.8 95.21473,167.97943 90.649996,193.6 l 2e-6,6.4 z"
       id="path12"
       sodipodi:nodetypes="cccccccc" /><path
       style="display:inline;fill:#fff29e;fill-opacity:1;fill-rule:evenodd;stroke:none;stroke-width:0.385762;stroke-linecap:round;stroke-linejoin:round;paint-order:stroke fill markers"
       d="m 105,168 9.78527,3.17942 L 119.35,200 h -28.7 l 4.56473,-28.82058 z"
       id="path13" /><g
       id="g3792"
       transform="matrix(0.38389281,0,0,0.38389281,-156.19037,-88.564206)"><path
         id="path3010"
         style="display:inline;fill:#d0d0d0"
         d="m 691.7066,692.33359 c -1.59093,-0.0559 -3.54422,0.222 -5.72452,0.86949 -5.96378,1.77104 -20.09848,2.13358 -22.98739,0.58749 -2.96188,-1.58515 -3.22926,0.49779 -0.42299,3.30405 2.51926,2.51927 9.38718,4.45891 11.39264,3.21946 0.64143,-0.39642 1.03399,0.71664 1.03399,2.91866 v 3.55785 h -6.50001 c -7.28233,0 -8.10703,1.0291 -3.24766,4.04665 2.29457,1.42489 4.20545,1.85108 6.50001,1.44288 l 3.24766,-0.57809 v 4.54484 4.54483 l -5.74802,-0.005 c -3.1625,-0.003 -7.49234,-0.48998 -9.62077,-1.08098 -2.32099,-0.64445 -4.23479,-0.70955 -4.77984,-0.1645 -1.14019,1.14019 2.63569,6.09873 5.53653,7.2708 3.13279,1.26579 4.89979,1.15066 9.73827,-0.63449 3.361,-1.24005 7.79453,-1.58908 19.12404,-1.49928 14.0716,0.11153 14.7531,0.0272 14.7531,-1.86117 0,-3.86466 -3.9951,-5.21471 -13.23032,-4.46494 l -8.39879,0.68149 0.42299,-3.62835 c 0.32553,-2.7884 0.96748,-3.76624 2.75887,-4.21585 1.28301,-0.32202 2.79996,-0.30051 3.36985,0.0517 1.22585,0.75762 5.07593,-1.10615 5.07593,-2.45806 0,-1.76316 -5.43455,-3.8863 -7.2896,-2.84817 -2.32896,1.30335 -3.39321,0.45825 -3.91505,-3.09725 -0.42085,-2.86742 -0.27117,-2.99903 4.13125,-3.57196 6.08934,-0.79244 9.07558,-2.10099 9.07558,-3.97614 0,-1.83595 -1.64418,-2.86301 -4.29575,-2.95626 z m 2.13378,10.37746 2.58026,3.38395 c 1.4195,1.86106 2.58027,3.87934 2.58027,4.48374 0,0.60439 0.95183,1.76557 2.11497,2.58027 4.31341,3.02122 7.32919,-1.19106 3.66125,-5.11353 -2.64062,-2.82386 -4.19571,-3.72122 -8.10739,-4.65764 z" /><path
         id="path3008"
         style="display:inline;fill:#b0b0b0"
         d="m 691.43401,692.55448 c -1.56947,-0.0155 -3.37906,0.22371 -5.15113,0.76139 -5.61145,1.70265 -20.52243,1.95078 -23.43859,0.3901 -1.69325,-0.90644 -1.96657,-0.80159 -1.68257,0.64389 0.5745,2.92415 5.33463,5.71512 9.75706,5.71512 3.9634,0 4.07955,0.092 4.07955,3.36046 v 3.36515 l -6.74911,0.0329 -6.74911,0.0282 2.80586,2.47217 c 2.78967,2.45422 4.14409,2.85351 8.44579,2.50507 2.0318,-0.16458 2.24657,0.26153 2.24657,4.38974 v 4.57303 l -4.24874,0.1551 c -4.59624,0.17037 -4.86347,0.15409 -12.11644,-0.81309 -4.78356,-0.63789 -4.84545,-0.61309 -3.68475,1.55568 0.64953,1.21368 2.61384,3.08154 4.36624,4.15005 3.90155,2.37894 5.36304,2.41968 10.31166,0.27259 3.13022,-1.35813 6.79595,-1.65301 19.12404,-1.52748 14.50496,0.14769 15.2513,0.0637 15.2513,-1.79067 0,-3.52401 -4.83673,-5.02846 -13.91181,-4.32864 l -8.09799,0.62039 0.66269,-3.39806 c 0.80543,-4.13514 1.77985,-4.86353 6.53761,-4.88323 4.48191,-0.0186 5.40599,-1.16069 2.82466,-3.49675 -1.42954,-1.29372 -2.83212,-1.58391 -5.36263,-1.10919 -3.32208,0.62323 -3.44433,0.53499 -3.83985,-2.85286 -0.45906,-3.93217 0.35441,-4.55424 5.94072,-4.55424 3.37061,0 7.24731,-2.23421 7.24731,-4.17824 0,-1.28933 -1.95256,-2.03268 -4.56834,-2.05858 z m 4.28634,11.04016 c -1.16811,0.0229 -1.3445,0.69213 0.2961,1.70607 0.55786,0.34478 1.91404,2.39625 3.01736,4.55894 1.52013,2.97971 2.60939,3.92915 4.48844,3.92915 1.93461,0 2.47686,-0.51572 2.47686,-2.34527 0,-2.81149 -2.27083,-5.0348 -7.2849,-7.1298 -1.23623,-0.51654 -2.293,-0.73282 -2.99386,-0.71909 z" /><path
         id="path3006"
         style="display:inline;fill:#909090"
         d="m 693.21998,692.93048 c -0.74952,-0.0355 -1.75511,0.0435 -3.12075,0.2162 -16.17556,2.04504 -20.61229,2.31662 -24.31278,1.48518 -5.20273,-1.16898 -6.00234,-0.28558 -2.48156,2.74476 2.05657,1.7701 3.99446,2.41577 7.252,2.41577 4.38113,0 4.44144,0.0475 4.44144,3.37455 0,2.92292 -0.38753,3.45113 -2.89516,3.95265 -1.5925,0.31849 -4.62911,0.34308 -6.74911,0.0517 l -3.85395,-0.53109 2.80586,2.57556 c 2.02397,1.858 3.90391,2.57557 6.74911,2.57557 h 3.94325 v 4.36154 4.36154 l -5.04303,0.59689 c -2.77467,0.32861 -6.18076,0.1651 -7.5669,-0.3619 -1.38614,-0.527 -3.85599,-0.95878 -5.48953,-0.95878 -2.686,0 -2.86446,0.19677 -1.87057,2.05387 0.60445,1.12943 2.53394,2.92644 4.28634,3.99495 3.88117,2.36651 4.31388,2.38097 9.80877,0.27729 3.43768,-1.31609 7.53694,-1.65188 19.10994,-1.56508 8.10203,0.0608 14.96406,-0.26843 15.2513,-0.73319 0.90158,-1.4588 -0.49942,-3.71503 -3.02206,-4.86443 -1.53312,-0.69853 -5.3971,-0.87287 -10.49966,-0.47939 l -8.07919,0.62039 0.64389,-2.89986 c 1.17007,-5.29939 1.28339,-5.40493 5.88432,-5.40493 5.22441,0 6.30261,-1.04122 3.60485,-3.48265 -1.42954,-1.29372 -2.83212,-1.58391 -5.36263,-1.10919 -3.33074,0.62486 -3.44129,0.54027 -3.84455,-2.91396 -0.22828,-1.95515 -0.20179,-3.76496 0.0564,-4.02315 0.25819,-0.25819 2.31679,-0.46999 4.57774,-0.46999 4.82808,0 8.75439,-2.3159 7.863,-4.63884 -0.30105,-0.7845 -0.83756,-1.16281 -2.08678,-1.22198 z m 3.47796,10.86155 c -1.82939,0 -1.87324,0.15333 -0.4747,1.74838 0.84392,0.9625 2.29169,3.24024 3.21476,5.06183 2.08062,4.10587 6.06292,4.25797 6.06292,0.2303 0,-2.74785 -5.36697,-7.04051 -8.80298,-7.04051 z" /><path
         id="path3004"
         style="display:inline;fill:#6f6f6f"
         d="m 691.7113,692.98688 c -0.49744,0.003 -1.04612,0.0501 -1.65437,0.1363 -16.36183,2.31933 -20.38073,2.6046 -24.27518,1.72957 -5.35256,-1.20263 -6.01903,-0.52489 -2.47686,2.52387 2.05657,1.7701 3.99446,2.41577 7.252,2.41577 4.39583,0 4.44144,0.0357 4.44144,3.43095 0,4.13897 -1.97618,5.0647 -8.84528,4.13595 l -4.65294,-0.6298 2.80586,2.53327 c 1.97424,1.78031 3.94432,2.52857 6.64571,2.52857 3.78034,0 3.84412,0.0639 4.28165,4.24874 0.24437,2.3375 0.37349,4.35443 0.28669,4.48374 -0.42582,0.63464 -12.5414,0.4776 -16.27118,-0.2115 -6.00544,-1.10955 -5.22027,2.61623 1.25018,5.93132 3.73706,1.91466 3.76698,1.9123 8.28129,-0.1551 2.97471,-1.36231 6.81639,-1.71047 19.21804,-1.74837 12.55437,-0.0383 15.5004,-0.31536 15.5004,-1.44288 0,-0.76564 -1.16537,-2.25947 -2.58967,-3.32286 -2.36922,-1.76888 -3.25536,-1.8405 -10.40566,-0.84599 -4.29853,0.59787 -8.0205,0.88118 -8.27189,0.62979 -0.25138,-0.25138 -0.0551,-2.17039 0.4371,-4.26284 0.86505,-3.67753 1.05178,-3.81312 5.61172,-4.10774 3.09196,-0.19978 4.71874,-0.76387 4.71874,-1.63088 0,-2.4496 -2.69669,-3.71206 -6.42482,-3.01266 -3.05803,0.57369 -3.57435,0.398 -3.58605,-1.19378 -0.008,-1.02371 -0.28875,-2.87025 -0.62039,-4.10775 -0.56518,-2.10898 -0.29633,-2.25127 4.29104,-2.25127 5.96569,0 10.11442,-2.36572 8.19669,-4.67644 -0.63733,-0.7679 -1.65194,-1.13735 -3.14426,-1.12798 z m 4.96784,10.80515 c -2.02255,0 -2.02193,9.3e-4 -0.0423,2.24657 1.09091,1.2375 2.52158,3.52119 3.18185,5.07123 1.57488,3.69712 5.68223,3.49701 5.68223,-0.27729 0,-2.75484 -5.36947,-7.04051 -8.82178,-7.04051 z" /><path
         id="path3002"
         style="display:inline;fill:#4f4f4f"
         d="m 691.10031,693.43807 c -2.50868,-0.0349 -6.53917,0.42246 -12.83082,1.36768 -6.05657,0.90991 -9.35011,0.95615 -12.46894,0.1645 -2.33086,-0.59164 -4.37584,-0.93979 -4.54484,-0.77079 -0.169,0.169 0.52097,1.33147 1.53218,2.58027 1.34602,1.66226 3.22943,2.40342 7.02641,2.76826 l 5.18403,0.49819 v 4.00905 4.00905 l -6.73971,-0.5405 -6.73501,-0.54049 2.79176,2.40167 c 1.92984,1.65999 4.01623,2.40637 6.73971,2.40637 3.69126,0 3.94325,0.18762 3.94325,2.91866 0,1.60501 0.25109,3.56593 0.55459,4.35684 0.79947,2.08338 -9.1311,3.09869 -14.9881,1.53218 -2.47527,-0.66208 -4.77334,-0.93707 -5.10413,-0.60629 -1.04954,1.04953 1.89455,4.7201 5.02423,6.26501 3.71266,1.83269 2.48783,1.90198 9.79467,-0.58279 5.58977,-1.90085 7.55301,-2.04512 19.38254,-1.44758 14.18342,0.71644 16.31237,0.0929 12.54413,-3.67535 -2.2732,-2.27322 -4.76282,-2.50329 -14.09511,-1.29718 l -6.38721,0.82718 0.72849,-3.88684 c 0.99936,-5.32705 1.0831,-5.40493 6.10522,-5.40493 3.23345,0 4.44144,-0.39985 4.44144,-1.46638 0,-2.13826 -3.3925,-3.60408 -6.77261,-2.92806 -2.67993,0.53599 -2.99363,0.30661 -3.58135,-2.63197 -0.97816,-4.89074 -0.92566,-4.97253 3.28995,-4.97253 5.51646,0 9.28921,-1.60012 8.86408,-3.75525 -0.20428,-1.03559 -1.19017,-1.56308 -3.69885,-1.59798 z m 3.44506,10.02027 2.65546,3.16306 c 1.46257,1.73816 2.95792,4.0866 3.31816,5.22162 0.88128,2.77669 4.86714,2.25222 5.28742,-0.69559 0.3483,-2.44289 -3.6563,-5.77858 -8.34708,-6.9559 z" /><path
         id="path3000"
         style="display:inline;fill:#2f2f2f"
         d="m 692.3693,692.97278 c -1.7509,0.0682 -5.09587,0.65227 -11.81565,1.82357 -6.78162,1.1821 -14.27832,0.97155 -17.81276,-0.49819 -1.36444,-0.56738 -1.62267,-0.3604 -1.13268,0.91649 0.89146,2.3231 5.67689,4.57774 9.71947,4.57774 3.04994,0 3.49299,0.34783 4.06074,3.18655 0.35062,1.75312 0.21515,3.61061 -0.30079,4.12655 -0.51595,0.51589 -3.67138,0.73986 -7.01231,0.49819 -3.34093,-0.24166 -6.07702,-0.29348 -6.07702,-0.1128 0,1.22748 7.1327,4.29445 10.00147,4.30045 3.46484,0.007 3.50165,0.05 3.52495,4.40384 l 0.0235,4.39914 -4.92553,0.65329 c -2.89595,0.38417 -6.90904,0.14123 -9.75237,-0.58749 -2.65823,-0.68128 -5.13994,-0.9324 -5.51303,-0.5593 -0.99689,0.9969 2.69386,4.77344 6.07232,6.21332 2.48831,1.0605 3.76343,0.95336 8.49749,-0.71439 4.74098,-1.67023 7.66216,-1.91473 19.57523,-1.63558 11.92357,0.27939 13.99642,0.10255 13.99642,-1.17498 0,-2.67392 -5.94452,-4.83779 -10.73936,-3.91035 -2.34386,0.45336 -5.8862,0.84549 -7.87239,0.86949 l -3.60956,0.0423 1.02929,-4.49784 c 1.02299,-4.4705 1.05704,-4.50254 5.30153,-4.50254 2.34988,0 4.59514,-0.51806 4.98663,-1.15149 1.1707,-1.89423 -2.65357,-3.9275 -6.15221,-3.27115 -2.9973,0.5623 -3.20514,0.3945 -4.15945,-3.36516 l -1.00579,-3.95734 5.97832,-0.5452 c 6.50355,-0.58971 8.35848,-1.65926 7.3648,-4.24874 -0.34397,-0.89638 -0.50037,-1.34653 -2.25126,-1.27838 z m 4.16884,11.05425 c -0.0786,0.007 -0.13248,0.0244 -0.1645,0.0564 -0.25616,0.25616 0.93598,2.54449 2.65077,5.08533 3.13694,4.64807 5.57395,5.83439 6.58461,3.20066 0.87401,-2.27763 -1.25607,-5.18525 -5.15583,-7.03581 -1.7401,-0.82573 -3.3647,-1.35762 -3.91505,-1.30658 z" /><path
         id="path2998"
         style="display:inline;fill:#020202"
         d="m 691.30711,693.07618 c -1.54602,0.0679 -3.61856,0.42602 -6.29322,1.07158 -7.75499,1.87177 -17.55849,2.14116 -21.6996,0.5922 l -2.81527,-1.05749 2.76827,2.79646 c 2.25696,2.28164 3.64227,2.79986 7.5387,2.80586 l 4.77513,0.005 0.188,4.20645 0.1833,4.20644 -6.72561,0.2914 -6.72561,0.29609 3.31815,1.81418 c 1.82644,0.99676 4.30507,1.73538 5.50363,1.64028 4.36003,-0.34609 4.67644,-0.0429 4.67644,4.47434 v 4.42734 l -5.53653,0.69089 c -3.49895,0.43717 -7.19059,0.23089 -10.02966,-0.564 -2.47076,-0.69173 -4.75913,-0.98891 -5.08534,-0.66269 -0.32622,0.32621 0.77869,1.96308 2.45337,3.63775 3.50726,3.50726 6.08431,3.77473 13.35722,1.39589 4.05614,-1.32669 7.50885,-1.53695 17.76106,-1.08099 14.34173,0.63784 16.46669,0.11091 13.11283,-3.24296 -2.07889,-2.07888 -2.74941,-2.16291 -11.72635,-1.48988 -9.01646,0.67599 -9.49331,0.61667 -8.96278,-1.16088 0.30811,-1.03234 0.85655,-3.11694 1.21729,-4.62944 0.59053,-2.47592 1.08586,-2.74946 4.98663,-2.74946 2.38292,0 4.6335,-0.48029 4.99603,-1.06689 1.10854,-1.79364 -2.7326,-3.77565 -6.21801,-3.21005 -2.90994,0.47222 -3.28727,0.24158 -3.85865,-2.34997 -0.34836,-1.58001 -0.80809,-3.43435 -1.01989,-4.12185 -0.25267,-0.82015 0.72228,-1.25088 2.83406,-1.25488 5.01634,-0.009 10.72056,-1.90856 10.72056,-3.57195 0,-1.55076 -1.11746,-2.2517 -3.69415,-2.13847 z m 5.63992,10.85215 c -0.84183,-0.14989 -0.50415,0.65728 0.69559,2.61317 0.92778,1.51249 2.29797,3.76323 3.04556,5.00073 1.56557,2.59154 4.10231,2.95296 4.96314,0.70969 0.69248,-1.80457 -2.02674,-5.08619 -5.85142,-7.06401 -1.42098,-0.73481 -2.34777,-1.16964 -2.85287,-1.25958 z" /></g></g></svg>
