<?xml version="1.0" encoding="UTF-8" standalone="no"?>
<!-- Created with Inkscape (http://www.inkscape.org/) -->

<svg
   viewBox="0 0 39.200001 39.200001"
   version="1.1"
   id="svg1"
   inkscape:version="1.3.2 (091e20e, 2023-11-25, custom)"
   sodipodi:docname="King Black.svg"
   xml:space="preserve"
   xmlns:inkscape="http://www.inkscape.org/namespaces/inkscape"
   xmlns:sodipodi="http://sodipodi.sourceforge.net/DTD/sodipodi-0.dtd"
   xmlns="http://www.w3.org/2000/svg"
   xmlns:svg="http://www.w3.org/2000/svg"><sodipodi:namedview
     id="namedview1"
     pagecolor="#ffffff"
     bordercolor="#111111"
     borderopacity="1"
     inkscape:showpageshadow="false"
     inkscape:pageopacity="0"
     inkscape:pagecheckerboard="1"
     inkscape:deskcolor="#d1d1d1"
     inkscape:document-units="mm"
     showguides="false"
     inkscape:zoom="3.7055165"
     inkscape:cx="74.078743"
     inkscape:cy="74.078743"
     inkscape:window-width="1292"
     inkscape:window-height="745"
     inkscape:window-x="-8"
     inkscape:window-y="-8"
     inkscape:window-maximized="1"
     inkscape:current-layer="layer1"
     labelstyle="default"><inkscape:page
       x="0"
       y="0"
       width="39.200001"
       height="39.200001"
       id="page42"
       margin="0"
       bleed="0" /></sodipodi:namedview><defs
     id="defs1"><inkscape:path-effect
       effect="powerstroke"
       id="path-effect12"
       is_visible="true"
       lpeversion="1.3"
       scale_width="1"
       interpolator_type="CubicBezierJohan"
       interpolator_beta="0.2"
       start_linecap_type="zerowidth"
       end_linecap_type="zerowidth"
       offset_points="7,4.9921382"
       linejoin_type="extrp_arc"
       miter_limit="4"
       not_jump="false"
       sort_points="true"
       message="&lt;b&gt;Ctrl + click&lt;/b&gt; on existing node and move it" /><inkscape:path-effect
       effect="powerstroke"
       id="path-effect13"
       is_visible="true"
       lpeversion="1.3"
       scale_width="1"
       interpolator_type="CubicBezierJohan"
       interpolator_beta="0.2"
       start_linecap_type="zerowidth"
       end_linecap_type="zerowidth"
       offset_points="5,4.9921382"
       linejoin_type="extrp_arc"
       miter_limit="4"
       not_jump="false"
       sort_points="true"
       message="&lt;b&gt;Ctrl + click&lt;/b&gt; on existing node and move it" /></defs><g
     inkscape:label="Layer 1"
     inkscape:groupmode="layer"
     id="layer1"
     transform="rotate(180,62.299999,101)"><path
       style="display:inline;fill:#938e5e;fill-opacity:1;fill-rule:evenodd;stroke:none;stroke-width:1;stroke-linecap:round;stroke-linejoin:round;stroke-dasharray:none;stroke-opacity:1;paint-order:stroke fill markers"
       d="m 119.35,200 v -6.4 L 114.78527,167.97943 105,164.8 95.21473,167.97943 90.649996,193.6 l 2e-6,6.4 z"
       id="path12"
       sodipodi:nodetypes="cccccccc" /><path
       style="display:inline;fill:#fff29e;fill-opacity:1;fill-rule:evenodd;stroke:none;stroke-width:0.385762;stroke-linecap:round;stroke-linejoin:round;paint-order:stroke fill markers"
       d="m 105,168 9.78527,3.17942 L 119.35,200 h -28.7 l 4.56473,-28.82058 z"
       id="path13" /><g
       id="g3792"
       transform="matrix(0.38389281,0,0,0.38389281,-155.72583,-88.564103)"><path
         id="path3010"
         style="display:inline;fill:#d0d0d0"
         d="m 664.08559,727.65664 c 1.56771,10e-4 3.31703,-0.47524 6.03868,-1.47938 3.36099,-1.24005 7.79477,-1.58938 19.12427,-1.49958 14.07158,0.11153 14.75343,0.028 14.75343,-1.86033 0,-3.86465 -3.99576,-5.21484 -13.23097,-4.46507 l -8.39842,0.68114 0.42268,-3.62778 c 0.32553,-2.7884 0.96815,-3.76643 2.75953,-4.21604 1.28301,-0.32202 2.79944,-0.30106 3.36933,0.0512 1.22585,0.75762 5.07621,-1.1061 5.07621,-2.45801 0,-1.76315 -5.43417,-3.88651 -7.28922,-2.84838 -2.32896,1.30335 -3.39401,0.45943 -3.91585,-3.09606 -0.42085,-2.86742 -0.27119,-2.99967 4.13123,-3.5726 6.08933,-0.79244 9.07551,-2.10128 9.07551,-3.97642 0,-1.83595 -1.64389,-2.86283 -4.29545,-2.95608 -1.59093,-0.0559 -3.54474,0.22211 -5.72504,0.8696 -5.96377,1.77103 -20.09737,2.13434 -22.98628,0.58825 -2.96187,-1.58515 -3.23029,0.49711 -0.42402,3.30337 2.51925,2.51926 9.38807,4.45936 11.39352,3.21991 0.64143,-0.39642 1.03382,0.71636 1.03382,2.91838 v 3.55778 h -6.50039 c -7.28233,0 -8.1062,1.02888 -3.24684,4.04643 2.29457,1.42489 4.2045,1.85123 6.49905,1.44303 l 3.24818,-0.57748 v 4.54449 4.54449 l -5.74791,-0.005 c -3.1625,-0.003 -7.49227,-0.48993 -9.6207,-1.08093 -2.32098,-0.64445 -4.23501,-0.70927 -4.78006,-0.16423 -1.14018,1.14019 2.63574,6.09966 5.53658,7.27172 1.37059,0.55379 2.4798,0.84308 3.69913,0.84402 z" /><path
         id="path3008"
         style="display:inline;fill:#b0b0b0"
         d="m 664.07751,727.67279 c 1.47164,0.0392 3.07438,-0.4866 5.54869,-1.56015 3.13022,-1.35812 6.7962,-1.65337 19.12427,-1.52784 14.50495,0.14769 15.2515,0.064 15.2515,-1.79033 0,-3.52401 -4.83704,-5.02893 -13.91211,-4.32911 l -8.09823,0.62056 0.66228,-3.39895 c 0.80543,-4.13513 1.78034,-4.86266 6.53809,-4.88236 4.48191,-0.0186 5.40548,-1.16115 2.82415,-3.49721 -1.42954,-1.29372 -2.83107,-1.58392 -5.36158,-1.1092 -3.32207,0.62323 -3.44495,0.53543 -3.84047,-2.85242 -0.45906,-3.93217 0.35411,-4.55391 5.94041,-4.55391 3.37061,0 7.24749,-2.23432 7.24749,-4.17834 0,-1.28933 -1.95159,-2.03366 -4.56737,-2.05956 -1.56947,-0.0155 -3.37952,0.22422 -5.15159,0.7619 -5.61144,1.70265 -20.52241,1.95105 -23.43857,0.39037 -1.69325,-0.90644 -1.96665,-0.80203 -1.68265,0.64345 0.5745,2.92414 5.33423,5.71561 9.75665,5.71561 3.9634,0 4.08008,0.0915 4.08008,3.3599 v 3.36529 l -6.74942,0.0337 -6.74943,0.0269 2.80665,2.47281 c 2.78967,2.45422 4.14384,2.85356 8.44553,2.50513 2.0318,-0.16458 2.24667,0.26147 2.24667,4.38968 v 4.57276 l -4.24834,0.1548 c -4.59624,0.17037 -4.86343,0.15412 -12.11639,-0.81305 -4.78356,-0.63789 -4.84637,-0.61266 -3.68567,1.55611 0.64953,1.21368 2.6144,3.08156 4.3668,4.15007 1.95078,1.18947 3.29092,1.79425 4.76256,1.83341 z" /><path
         id="path3006"
         style="display:inline;fill:#909090"
         d="m 663.61445,727.65395 c 1.28018,0.0365 2.76086,-0.48543 5.5083,-1.53727 3.43768,-1.31609 7.53783,-1.65233 19.11082,-1.56553 8.10202,0.0608 14.96425,-0.26753 15.25149,-0.73229 0.90158,-1.4588 -0.49939,-3.71546 -3.02203,-4.86486 -1.53312,-0.69853 -5.39715,-0.8727 -10.4997,-0.47922 l -8.07939,0.62056 0.64344,-2.89953 c 1.17007,-5.29939 1.28429,-5.40601 5.88522,-5.40601 5.2244,0 6.30131,-1.04097 3.60355,-3.4824 -1.42954,-1.29372 -2.83107,-1.58392 -5.36158,-1.1092 -3.33073,0.62486 -3.44125,0.53989 -3.84451,-2.91434 -0.22828,-1.95515 -0.20165,-3.76401 0.0565,-4.0222 0.25819,-0.25819 2.31585,-0.46979 4.5768,-0.46979 4.82807,0 8.7554,-2.31712 7.86401,-4.64006 -0.30105,-0.7845 -0.83861,-1.16176 -2.08783,-1.22093 -0.74952,-0.0355 -1.75466,0.0427 -3.1203,0.21538 -16.17554,2.04504 -20.61171,2.31755 -24.3122,1.48611 -5.20273,-1.16898 -6.00302,-0.28561 -2.48224,2.74473 2.05657,1.7701 3.99399,2.41493 7.25153,2.41493 4.38112,0 4.44218,0.0477 4.44218,3.37472 0,2.92291 -0.38787,3.45068 -2.89549,3.95219 -1.5925,0.31849 -4.62943,0.34388 -6.74943,0.0525 l -3.85393,-0.53171 2.80665,2.57646 c 2.02397,1.858 3.90288,2.57512 6.74808,2.57512 h 3.94412 v 4.36142 4.36142 l -5.0439,0.59767 c -2.77466,0.32861 -6.18038,0.1649 -7.56651,-0.3621 -1.38614,-0.527 -3.85593,-0.95844 -5.48947,-0.95844 -2.68599,0 -2.86364,0.19573 -1.86975,2.05283 0.60445,1.12943 2.53363,2.92676 4.28603,3.99527 1.94059,1.18326 3.01931,1.7781 4.2995,1.81457 z" /><path
         id="path3004"
         style="display:inline;fill:#6f6f6f"
         d="m 664.34808,727.65933 c 1.0389,-0.0197 2.17561,-0.53722 4.43276,-1.57092 2.97471,-1.3623 6.81552,-1.7107 19.21716,-1.7486 12.55435,-0.0383 15.50052,-0.31552 15.50052,-1.44304 0,-0.76564 -1.16563,-2.25882 -2.58992,-3.32221 -2.36922,-1.76888 -3.25519,-1.84122 -10.40548,-0.84671 -4.29853,0.59787 -8.0205,0.88137 -8.27189,0.62998 -0.25138,-0.25138 -0.0547,-2.16935 0.43749,-4.2618 0.86505,-3.67753 1.05202,-3.81373 5.61196,-4.10835 3.09196,-0.19978 4.71814,-0.76448 4.71814,-1.63149 0,-2.4496 -2.69689,-3.71201 -6.42502,-3.01261 -3.05802,0.57369 -3.57435,0.39912 -3.58605,-1.19266 -0.008,-1.02371 -0.28892,-2.87084 -0.62056,-4.10834 -0.56518,-2.10898 -0.29595,-2.25071 4.29142,-2.25071 5.96568,0 10.11423,-2.36569 8.1965,-4.67641 -0.63733,-0.7679 -1.65086,-1.13741 -3.14318,-1.12804 -0.49744,0.003 -1.04613,0.0497 -1.65438,0.13595 -16.36181,2.31933 -20.38141,2.60479 -24.27586,1.72976 -5.35255,-1.20262 -6.01902,-0.52479 -2.47685,2.52397 2.05657,1.7701 3.99399,2.41493 7.25153,2.41493 4.39582,0 4.44218,0.036 4.44218,3.43125 0,4.13897 -1.97623,5.06537 -8.84533,4.13662 l -4.65352,-0.62998 2.80665,2.53339 c 1.97424,1.78031 3.94439,2.528 6.64578,2.528 3.78033,0 3.84312,0.0635 4.28065,4.24835 0.24437,2.33749 0.37352,4.3546 0.28672,4.48391 -0.42582,0.63464 -12.54073,0.47776 -16.27051,-0.21134 -6.00543,-1.10955 -5.2199,2.6159 1.25054,5.93099 1.86853,0.95733 2.80965,1.43579 3.84855,1.41611 z" /><path
         id="path3002"
         style="display:inline;fill:#4f4f4f"
         d="m 664.03444,727.5853 c 1.07122,-0.0642 2.59121,-0.66776 6.24463,-1.91014 5.58976,-1.90085 7.55321,-2.04596 19.38273,-1.44842 14.1834,0.71643 16.31269,0.0933 12.54445,-3.6749 -2.2732,-2.27322 -4.7629,-2.50377 -14.09518,-1.29766 l -6.38732,0.82786 0.72825,-3.88623 c 0.99936,-5.32705 1.08387,-5.40601 6.10598,-5.40601 3.23345,0 4.44084,-0.39939 4.44084,-1.46592 0,-2.13825 -3.39221,-3.60382 -6.77231,-2.9278 -2.67993,0.53599 -2.9943,0.30692 -3.58202,-2.63166 -0.97816,-4.89073 -0.92435,-4.97255 3.29126,-4.97255 5.51645,0 9.28795,-1.60054 8.86282,-3.75566 -0.20428,-1.03559 -1.1891,-1.56294 -3.69778,-1.59784 -2.50867,-0.0349 -6.53953,0.42243 -12.83118,1.36765 -6.05656,0.90991 -9.35024,0.95588 -12.46907,0.16423 -2.33086,-0.59164 -4.37549,-0.94033 -4.54449,-0.77133 -0.169,0.169 0.52067,1.33171 1.53188,2.58051 1.34602,1.66225 3.22975,2.40412 7.02673,2.76896 l 5.18389,0.49806 v 4.00873 4.00874 l -6.74,-0.53979 -6.73462,-0.54114 2.79184,2.40147 c 1.92984,1.65999 4.01518,2.40685 6.73866,2.40685 3.69126,0 3.94412,0.18735 3.94412,2.91838 0,1.60501 0.2511,3.56647 0.5546,4.35738 0.79947,2.08338 -9.13201,3.09839 -14.989,1.53188 -2.47527,-0.66208 -4.77234,-0.93653 -5.10313,-0.60575 -1.04954,1.04953 1.89403,4.71992 5.02371,6.26482 1.85633,0.91635 2.47848,1.39146 3.54971,1.32728 z" /><path
         id="path3000"
         style="display:inline;fill:#2f2f2f"
         d="m 663.96309,726.99435 c 1.39715,0.0809 3.00586,-0.35223 5.96464,-1.39458 4.74098,-1.67022 7.66217,-1.91468 19.57522,-1.63553 11.92356,0.27939 13.99557,0.10237 13.99557,-1.17516 0,-2.67391 -5.94448,-4.8379 -10.73931,-3.91046 -2.34386,0.45336 -5.8859,0.84559 -7.87209,0.86959 l -3.61028,0.0431 1.02978,-4.49872 c 1.02299,-4.47049 1.05652,-4.50276 5.301,-4.50276 2.34988,0 4.59587,-0.5175 4.98736,-1.15093 1.1707,-1.89422 -2.65311,-3.92741 -6.15175,-3.27106 -2.9973,0.5623 -3.20519,0.39437 -4.1595,-3.36529 l -1.00689,-3.95758 5.97945,-0.54518 c 6.50354,-0.58971 8.35828,-1.65886 7.3646,-4.24834 -0.34397,-0.89638 -0.50117,-1.34696 -2.25205,-1.27881 -1.7509,0.0682 -5.09509,0.65269 -11.81487,1.82399 -6.78161,1.1821 -14.27872,0.97167 -17.81315,-0.49807 -1.36444,-0.56738 -1.62208,-0.36018 -1.13209,0.91671 0.89146,2.3231 5.67639,4.57679 9.71896,4.57679 3.04994,0 3.49349,0.34754 4.06124,3.18626 0.35062,1.75312 0.21441,3.61125 -0.30153,4.12719 -0.51595,0.51589 -3.671,0.73974 -7.01192,0.49807 -3.34093,-0.24166 -6.07772,-0.29376 -6.07772,-0.11308 0,1.22748 7.13288,4.29484 10.00165,4.30084 3.46483,0.007 3.50217,0.0507 3.52547,4.4045 l 0.0229,4.3991 -4.92544,0.65287 c -2.89595,0.38417 -6.90929,0.14047 -9.75261,-0.58825 -2.65823,-0.68128 -5.13926,-0.93174 -5.51235,-0.55864 -0.99689,0.9969 2.69387,4.77379 6.07233,6.21367 0.93312,0.39769 1.6951,0.63122 2.53339,0.67979 z" /><path
         id="path2998"
         style="display:inline;fill:#020202"
         d="m 663.8379,726.69686 c 1.85539,0.022 4.13829,-0.51133 7.32018,-1.55207 4.05614,-1.32669 7.50981,-1.53824 17.76201,-1.08228 14.34171,0.63784 16.46637,0.11107 13.11251,-3.24279 -2.07888,-2.07888 -2.74908,-2.16184 -11.72601,-1.48881 -9.01646,0.67599 -9.49432,0.61585 -8.96379,-1.1617 0.30811,-1.03234 0.85749,-3.11679 1.21823,-4.62929 0.59053,-2.47592 1.08525,-2.74877 4.98602,-2.74877 2.38291,0 4.63425,-0.48087 4.99678,-1.06747 1.10854,-1.79364 -2.73365,-3.77609 -6.21906,-3.21049 -2.90993,0.47222 -3.28659,0.24258 -3.85797,-2.34897 -0.34836,-1.58001 -0.80855,-3.43431 -1.02035,-4.12181 -0.25267,-0.82015 0.72314,-1.25192 2.83492,-1.25592 5.01633,-0.009 10.72047,-1.90786 10.72047,-3.57125 0,-1.55076 -1.1184,-2.25221 -3.69509,-2.13898 -1.54602,0.0679 -3.61844,0.42595 -6.29309,1.07151 -7.75499,1.87177 -17.55829,2.14125 -21.6994,0.59229 l -2.81473,-1.05805 2.76762,2.79723 c 2.25696,2.28164 3.64182,2.79931 7.53825,2.80531 l 4.77602,0.005 0.18711,4.20662 0.18442,4.20661 -6.72654,0.29076 -6.7252,0.29615 3.31818,1.81456 c 1.82643,0.99676 4.30436,1.73467 5.50292,1.63957 4.36002,-0.34609 4.67775,-0.0427 4.67775,4.47449 v 4.42738 l -5.53657,0.69055 c -3.49895,0.43717 -7.19085,0.23087 -10.02992,-0.56402 -2.47075,-0.69173 -4.75941,-0.98851 -5.08562,-0.66229 -0.32622,0.32621 0.77929,1.96389 2.45397,3.63855 1.97283,1.97284 3.65048,2.91972 6.03598,2.948 z" /></g></g></svg>
