<?xml version="1.0" encoding="UTF-8" standalone="no"?>
<!-- Created with Inkscape (http://www.inkscape.org/) -->

<svg
   viewBox="0 0 39.200001 39.200001"
   version="1.1"
   id="svg1"
   inkscape:version="1.3.2 (091e20e, 2023-11-25, custom)"
   sodipodi:docname="Pawn.svg"
   xml:space="preserve"
   xmlns:inkscape="http://www.inkscape.org/namespaces/inkscape"
   xmlns:sodipodi="http://sodipodi.sourceforge.net/DTD/sodipodi-0.dtd"
   xmlns="http://www.w3.org/2000/svg"
   xmlns:svg="http://www.w3.org/2000/svg"><sodipodi:namedview
     id="namedview1"
     pagecolor="#ffffff"
     bordercolor="#111111"
     borderopacity="1"
     inkscape:showpageshadow="false"
     inkscape:pageopacity="0"
     inkscape:pagecheckerboard="1"
     inkscape:deskcolor="#d1d1d1"
     inkscape:document-units="mm"
     showguides="true"
     inkscape:zoom="14.005102"
     inkscape:cx="19.6"
     inkscape:cy="19.6"
     inkscape:window-width="1292"
     inkscape:window-height="745"
     inkscape:window-x="-8"
     inkscape:window-y="-8"
     inkscape:window-maximized="1"
     inkscape:current-layer="g12"
     labelstyle="default"><inkscape:page
       x="0"
       y="0"
       width="39.200001"
       height="39.200001"
       id="page42"
       margin="0"
       bleed="0" /></sodipodi:namedview><defs
     id="defs1"><inkscape:path-effect
       effect="powerstroke"
       id="path-effect12"
       is_visible="true"
       lpeversion="1.3"
       scale_width="1"
       interpolator_type="CubicBezierJohan"
       interpolator_beta="0.2"
       start_linecap_type="zerowidth"
       end_linecap_type="zerowidth"
       offset_points="7,4.9921382"
       linejoin_type="extrp_arc"
       miter_limit="4"
       not_jump="false"
       sort_points="true"
       message="&lt;b&gt;Ctrl + click&lt;/b&gt; on existing node and move it" /><inkscape:path-effect
       effect="powerstroke"
       id="path-effect13"
       is_visible="true"
       lpeversion="1.3"
       scale_width="1"
       interpolator_type="CubicBezierJohan"
       interpolator_beta="0.2"
       start_linecap_type="zerowidth"
       end_linecap_type="zerowidth"
       offset_points="5,4.9921382"
       linejoin_type="extrp_arc"
       miter_limit="4"
       not_jump="false"
       sort_points="true"
       message="&lt;b&gt;Ctrl + click&lt;/b&gt; on existing node and move it" /></defs><g
     id="g12"
     transform="matrix(0.81227436,0,0,0.87679961,3.5993411,2.3080016)"><path
       style="display:inline;fill:#938e5e;fill-opacity:1;fill-rule:evenodd;stroke:none;stroke-width:0.971808;stroke-linecap:round;stroke-linejoin:round;stroke-dasharray:none;stroke-opacity:1;paint-order:stroke fill markers"
       d="M 5.8485911,2.5 5.8485898,9.7992731 10.6475,34.218991 19.698589,36.943446 28.74968,34.218991 33.548589,9.7992731 V 2.5 Z"
       id="path12"
       sodipodi:nodetypes="cccccccc" /><path
       style="display:inline;fill:#fff29e;fill-opacity:1;fill-rule:evenodd;stroke:none;stroke-width:0.371771;stroke-linecap:round;stroke-linejoin:round;paint-order:stroke fill markers"
       d="M 19.698589,33.293809 10.6475,30.569357 5.8485898,2.5 H 33.54859 l -4.79891,28.069356 z"
       id="path13"
       sodipodi:nodetypes="cccccc" /><g
       id="g6139"
       transform="matrix(-0.4559076,0,0,-0.42235654,314.08194,255.6125)"><path
         id="path5617"
         style="display:inline;fill:#d0d0d0"
         d="m 642.89912,542.08982 c -0.24762,-0.005 -0.48247,-0.004 -0.70751,0.004 -3.1506,0.10944 -3.98187,1.45207 -1.0141,2.54704 2.43987,0.90021 3.2172,2.30552 3.2349,5.84876 0.0122,2.43874 -0.54193,3.25596 -2.73571,4.03282 -2.52123,0.89278 -2.833,0.72346 -3.74981,-2.04392 -1.0144,-3.06199 -3.31519,-4.21224 -6.21038,-3.10126 -1.41756,0.54397 -1.39429,0.75807 0.20832,1.92993 0.99182,0.72523 2.30916,2.84862 2.92831,4.72067 1.12488,3.40132 1.89702,3.69679 6.23003,2.37803 1.64985,-0.50213 2.31153,-0.14912 2.83791,1.50936 0.85342,2.6888 -2.08399,5.28455 -4.99189,4.41015 -5.88078,-1.76838 -8.24774,-1.59199 -9.87764,0.73503 -1.91867,2.7392 -2.09957,5.99742 -0.42451,7.67256 2.04877,2.04877 5.58323,1.33303 9.23696,-1.8749 3.45871,-3.03686 5.56575,-3.17644 5.56575,-0.36555 0,1.95367 3.63147,1.8365 4.3905,-0.1415 0.33384,-0.86998 0.60925,-2.62022 0.60925,-3.89131 0,-2.09406 1.65529,-3.52577 4.07998,-3.52577 0.50501,0 0.91977,1.52334 0.91977,3.38426 0,4.0016 -4.61476,8.6899 -13.48203,13.69428 -3.03457,1.71265 -5.51858,3.33032 -5.51858,3.59651 0,0.2662 1.46312,0.16936 3.25062,-0.21618 12.4173,-2.67828 20.28379,-8.71575 20.01864,-15.36479 -0.13435,-3.36902 0.0967,-3.81075 1.77271,-3.37247 2.79075,0.72982 5.02421,-0.38903 4.3394,-2.17363 -0.83809,-2.18402 -7.18165,-3.6302 -11.54816,-2.63351 -3.14734,0.71842 -3.73259,0.5724 -4.15466,-1.04162 -0.58831,-2.24968 2.81468,-3.4242 7.31881,-2.52346 3.37345,0.67469 4.7527,-0.74325 2.89687,-2.9794 -0.88809,-1.07009 -2.59977,-1.43661 -5.58934,-1.19884 -2.97353,0.2365 -4.30403,-0.0478 -4.30403,-0.91584 0,-0.74858 1.31547,-1.26059 3.25062,-1.26959 3.94263,-0.0186 6.2696,-1.3327 5.25917,-2.96761 -0.44404,-0.71848 -2.29689,-1.05957 -4.58703,-0.84116 -3.24189,0.30916 -3.89059,0.0514 -4.13501,-1.65479 -0.23035,-1.60785 -1.16126,-2.0864 -4.53987,-2.33085 -0.27027,-0.0195 -0.53065,-0.0304 -0.77826,-0.0354 z m -8.96967,23.84313 c 2.97735,0 3.26747,1.51787 0.56601,2.96369 -2.81592,1.50703 -4.37432,1.2757 -3.67513,-0.54636 0.33384,-0.86998 0.60924,-1.76673 0.60924,-1.99675 0,-0.23001 1.12488,-0.42058 2.49988,-0.42058 z" /><path
         id="path5613"
         style="display:inline;fill:#8e8e8e"
         d="m 642.78513,542.04659 c -2.77393,0.0749 -4.05673,1.52971 -1.45826,2.35444 1.18718,0.3768 2.35315,1.83072 2.68461,3.34888 0.32222,1.47584 0.7568,3.24352 0.96694,3.92669 0.32197,1.04674 -5.4309,5.03034 -5.892,4.07998 -2.3677,-4.88 -3.59313,-6.37649 -5.43998,-6.64274 -2.41686,-0.34843 -3.06331,1.28311 -0.84508,2.13432 0.75555,0.28994 1.67424,2.12258 2.03999,4.07212 0.84333,4.4953 1.81808,5.06298 5.45963,3.17987 2.63362,-1.36185 2.99299,-1.35929 3.5297,0.0393 1.8616,4.85142 -1.61052,7.30477 -7.55858,5.34171 -3.59071,-1.18504 -4.04487,-1.10981 -6.35581,1.06127 -2.86088,2.68759 -3.16609,5.17083 -0.91584,7.421 2.26389,2.26389 3.91499,1.95819 7.77477,-1.43074 4.03498,-3.54282 5.20469,-3.70724 6.68598,-0.93942 1.56062,2.91604 3.27042,1.92239 4.54379,-2.64137 0.87376,-3.13157 1.61911,-3.98063 3.70658,-4.22935 2.49198,-0.29691 2.58436,-0.13673 2.07143,3.49825 -0.62235,4.41041 -4.80272,8.70513 -13.09682,13.45058 -2.89209,1.65469 -5.25917,3.17534 -5.25917,3.38033 0,0.88853 10.87918,-2.90607 14.75948,-5.14911 5.33871,-3.08613 7.50043,-6.31285 7.07511,-10.5655 -0.31795,-3.17906 -0.21178,-3.29347 2.91652,-2.9912 2.38575,0.23053 3.25062,-0.0921 3.25062,-1.21456 0,-2.46998 -3.89199,-3.85459 -9.51603,-3.3882 -4.16714,0.34558 -5.44367,0.0848 -6.29685,-1.28138 -1.53695,-2.46105 -0.58127,-2.92831 5.97847,-2.92831 3.20833,0 5.83304,-0.43235 5.83304,-0.963 0,-1.7774 -3.6823,-2.96274 -7.35812,-2.36623 -3.23328,0.52469 -3.63975,0.35163 -3.63975,-1.54081 0,-1.86444 0.57262,-2.13039 4.5831,-2.13039 3.23182,0 4.45328,-0.36854 4.1468,-1.24994 -0.2562,-0.73679 -2.07184,-1.21905 -4.42194,-1.17525 -3.11714,0.0581 -4.18494,-0.37896 -4.89755,-2.00069 -0.55099,-1.25392 -2.0453,-2.20323 -3.78126,-2.40161 -0.45018,-0.0514 -0.87724,-0.0697 -1.27352,-0.0589 z m 1.20277,22.88799 c 0.24254,0 0.44023,0.44837 0.44023,0.99837 0,0.55 -0.47488,1.00231 -1.05734,1.00231 -0.58246,0 -0.78015,-0.45231 -0.44023,-1.00231 0.33992,-0.55 0.8148,-0.99837 1.05734,-0.99837 z m -8.5884,1.10843 c 2.48268,-0.0567 2.56619,0.76377 0.27907,2.49987 -2.58195,1.96004 -5.46706,1.75652 -5.06656,-0.35768 0.21834,-1.15255 1.43788,-1.8572 3.57293,-2.06358 0.45259,-0.0437 0.85989,-0.0705 1.21456,-0.0786 z" /><path
         id="path5615"
         style="display:inline;fill:#b0b0b0"
         d="m 642.45889,542.08589 c -0.22071,-0.005 -0.42899,-0.005 -0.6289,0.004 -2.7987,0.11823 -3.45016,1.51875 -0.65248,2.55097 2.43987,0.90021 3.2172,2.30551 3.2349,5.84876 0.0122,2.43874 -0.54192,3.25596 -2.73571,4.03282 -2.52295,0.89339 -2.83237,0.72087 -3.74981,-2.05965 -0.74324,-2.25251 -1.70597,-3.10977 -3.74981,-3.34495 -1.5125,-0.17403 -2.74751,0.16421 -2.74751,0.75075 0,0.58653 0.41167,1.06519 0.91584,1.06519 0.50416,0 1.56585,1.9115 2.35837,4.249 1.09952,3.24294 1.88927,4.17496 3.33316,3.93455 5.09269,-0.84791 5.89627,-0.65363 6.20252,1.49757 0.4663,3.27535 -2.86125,4.68309 -7.66864,3.24276 -4.62974,-1.38713 -7.80598,-0.10854 -8.71418,3.51004 -0.72127,2.87375 1.06115,6.56413 3.17201,6.56413 2.03183,0 5.35738,-1.76152 8.25823,-4.37478 l 2.35837,-2.12253 1.51329,2.24831 c 2.31134,3.43704 4.05532,2.737 4.98795,-2.00068 0.65191,-3.31141 1.32662,-4.3184 3.05803,-4.56738 1.94634,-0.2799 2.22473,0.12969 2.22473,3.30565 0,4.23612 -3.06797,7.52385 -12.25174,13.14006 -3.1625,1.9339 -5.7505,3.68578 -5.7505,3.89131 0,0.20554 2.36381,-0.32709 5.25131,-1.18312 11.77501,-3.49076 17.08795,-8.07138 16.57935,-14.29566 -0.28092,-3.43783 -0.19687,-3.53189 2.9401,-3.22703 2.29205,0.22275 3.23097,-0.10147 3.23097,-1.12416 0,-2.83546 -2.81933,-3.94029 -8.93037,-3.49825 -5.09624,0.36863 -6.00497,0.17264 -6.41083,-1.37965 -0.63927,-2.44458 0.58529,-3.00732 5.83303,-2.68461 5.14077,0.31613 6.33962,-0.41648 4.43767,-2.7082 -1.03055,-1.24172 -2.37555,-1.48912 -5.64044,-1.04161 -3.76525,0.51609 -4.2883,0.35142 -4.2883,-1.33248 0,-1.59434 0.54906,-1.83604 3.25062,-1.44254 1.7875,0.26036 3.91993,0.0243 4.74033,-0.52277 2.31645,-1.54464 -0.14617,-3.28018 -4.11536,-2.9008 -2.57155,0.24583 -3.6194,-0.15547 -4.39836,-1.67837 -0.68928,-1.34756 -2.24094,-2.10208 -4.75212,-2.3112 -0.2419,-0.0201 -0.47502,-0.0304 -0.69572,-0.0354 z m -6.07674,23.85885 c 1.3718,-0.0397 1.02518,0.35617 -0.38127,1.91029 -2.34983,2.59654 -5.85892,2.81146 -5.38887,0.33017 0.22401,-1.18247 1.45664,-1.86002 3.8009,-2.08323 0.86397,-0.0823 1.51198,-0.14398 1.96924,-0.15723 z" /><path
         id="path5611"
         style="display:inline;fill:#6f6f6f"
         d="m 642.62791,541.9837 c -1.01503,0.0174 -1.93748,0.29054 -2.51953,0.87259 -0.77091,0.77091 -0.62878,1.07699 0.49919,1.07699 2.18164,0 3.52556,1.8809 4.29616,6.00599 0.61101,3.27045 0.43703,3.58827 -2.5942,4.73246 -1.78726,0.67462 -3.27722,1.12239 -3.31352,0.99445 -0.80579,-2.84263 -3.63254,-6.30481 -5.34957,-6.55234 -2.4354,-0.35111 -3.05647,1.28552 -0.81363,2.14611 0.77307,0.29668 1.71635,1.9508 2.09501,3.67513 0.80332,3.6575 2.7032,4.68179 5.93917,3.20739 1.99061,-0.90699 2.46424,-0.71569 3.41178,1.36392 0.95782,2.10219 0.77584,2.62618 -1.41896,4.06426 -2.19612,1.43895 -3.03516,1.48585 -6.48945,0.3459 -3.70817,-1.22383 -4.12683,-1.16051 -6.45407,1.02589 -2.86088,2.68759 -3.16609,5.17083 -0.91584,7.421 2.26389,2.26389 3.91499,1.95819 7.77477,-1.43074 4.03498,-3.54282 5.20469,-3.70723 6.68598,-0.93942 1.55634,2.90806 3.14064,1.97191 4.42194,-2.61779 0.89627,-3.21048 1.60211,-3.99911 3.82056,-4.25686 2.44383,-0.28393 2.72392,-9.4e-4 2.72392,2.76322 0,3.93058 -4.42619,8.75444 -12.49936,13.6196 -5.43146,3.27308 -5.66816,3.54658 -2.49988,2.90866 5.54044,-1.11563 13.75803,-5.35008 16.0723,-8.28575 1.61932,-2.0541 1.99549,-3.59883 1.60369,-6.53662 l -0.51098,-3.84414 3.41571,0.64069 c 2.66453,0.49987 3.41964,0.30866 3.41964,-0.86867 0,-2.5047 -3.92361,-3.87134 -9.48065,-3.29779 -4.32547,0.44643 -5.34252,0.23107 -6.33616,-1.35999 -0.65097,-1.04238 -1.18312,-2.12701 -1.18312,-2.40947 0,-0.28246 2.92625,-0.51491 6.50125,-0.51491 3.57493,0 6.49731,-0.42854 6.49731,-0.95121 0,-1.7582 -3.30285,-2.8175 -7.16552,-2.29941 -3.37836,0.45314 -3.83235,0.2672 -3.83235,-1.56046 0,-1.7253 0.71384,-2.12618 4.249,-2.38195 5.22017,-0.3777 5.13178,-2.37396 -0.0943,-2.13826 -2.98285,0.13453 -3.94794,-0.27639 -4.70495,-2.00068 -0.66142,-1.50654 -2.83719,-2.50571 -4.81107,-2.60993 -0.14805,-0.008 -0.29523,-0.0103 -0.44023,-0.008 z m 1.17918,23.34001 c 0.36444,0.0123 0.62104,0.40638 0.62104,1.04947 0,1.75653 -0.60102,2.01594 -1.45826,0.6289 -0.31643,-0.512 -0.11481,-1.21105 0.44416,-1.55652 0.13974,-0.0864 0.27158,-0.12594 0.39306,-0.12185 z m -9.33129,0.20439 c 0.33146,10e-4 0.66645,0.0429 0.99838,0.12971 1.07443,0.28098 1.95352,0.89619 1.95352,1.36785 0,0.47173 -1.35884,1.55898 -3.01872,2.41734 -2.77148,1.43315 -3.06751,1.42452 -3.6594,-0.11792 -0.71279,-1.8575 1.40606,-3.8045 3.72622,-3.79698 z" /><path
         id="path5609"
         style="display:inline;fill:#4f4f4f"
         d="m 643.68131,541.90508 c -1.01284,-0.0229 -2.08295,0.26851 -3.08553,0.90405 -1.01565,0.64375 -0.84225,0.97504 0.73502,1.3875 2.06589,0.54024 4.09964,4.30956 4.09964,7.60182 0,1.05619 -1.29855,2.20471 -3.32138,2.93617 -4.46799,1.61567 -4.68136,1.56005 -4.68136,-1.17918 0,-2.95779 -2.39804,-5.06735 -4.7364,-4.16646 -1.63064,0.62823 -1.63695,0.75106 -0.0904,1.61942 0.91952,0.51623 1.97281,2.3136 2.34265,3.99743 0.79222,3.60695 2.5054,4.52015 5.48714,2.92438 1.78602,-0.95579 2.40318,-0.83623 3.54935,0.67607 2.00286,2.64264 1.77057,3.81675 -1.04948,5.32599 -1.96596,1.05218 -3.29255,1.09447 -6.21823,0.19653 -3.00177,-0.92127 -4.14144,-0.86102 -5.92345,0.30659 -3.07336,2.01379 -3.90994,5.2327 -1.926,7.42494 2.06315,2.27969 5.68095,1.6412 8.65915,-1.52902 2.78793,-2.96755 4.249,-3.02222 6.10425,-0.22797 1.9144,2.88324 3.39611,1.76739 4.18218,-3.14843 0.58452,-3.65531 0.91626,-4.02102 3.63189,-4.02102 2.65677,0 2.98727,0.33446 2.98727,3.01479 0,3.85151 -4.47181,8.70762 -12.49936,13.57242 -4.54533,2.75454 -5.27168,3.47605 -2.99907,2.97155 1.65,-0.36628 5.77885,-1.9564 9.178,-3.5297 7.12589,-3.2982 9.89322,-7.15036 8.77707,-12.23208 -0.67063,-3.05336 -0.66599,-3.05772 2.93617,-2.38196 2.89976,0.544 3.60831,0.36556 3.60831,-0.89618 0,-2.22826 -4.7473,-3.77435 -9.86192,-3.21524 -3.37673,0.36913 -4.78637,0.0483 -6.24969,-1.41503 -1.03923,-1.03923 -1.88669,-2.11481 -1.88669,-2.38981 0,-0.275 3.1872,-0.49919 7.08297,-0.49919 5.21992,0 6.97412,-0.32878 6.67026,-1.24994 -0.24713,-0.74918 -2.64304,-1.36687 -5.97847,-1.54473 -4.96141,-0.26455 -5.51014,-0.51094 -5.05477,-2.25224 0.39604,-1.51466 1.38305,-1.95352 4.39443,-1.95352 2.8807,0 3.88345,-0.41004 3.88345,-1.58797 0,-1.28559 -0.72506,-1.46502 -3.8127,-0.94335 -3.41652,0.57721 -3.93664,0.37988 -4.9801,-1.91028 -0.74522,-1.63558 -2.26612,-2.54813 -3.9542,-2.58635 z m 0.75861,23.01377 c 0.0559,-0.002 0.11177,9.5e-4 0.16509,0.0118 0.12186,0.0248 0.23477,0.0815 0.3341,0.1808 0.2085,0.20851 0.0111,0.97953 -0.44023,1.70982 -0.53135,0.85973 -1.04695,0.95881 -1.46219,0.28694 -0.50079,-0.81029 0.56501,-2.16585 1.40323,-2.18936 z m -10.24712,0.5896 c 0.53289,0.0141 1.10999,0.0987 1.72554,0.26335 l 2.86935,0.7704 -3.0816,2.19328 c -3.77839,2.69046 -5.27882,2.78426 -5.27882,0.32231 0,-2.13103 1.24092,-3.40743 3.24669,-3.54148 0.16715,-0.0112 0.34121,-0.0123 0.51884,-0.008 z" /><path
         id="path5607"
         style="display:inline;fill:#2f2f2f"
         d="m 644.32986,542.30994 c -0.24978,-0.0163 -0.5059,-0.0152 -0.7704,0.004 -0.70531,0.0499 -1.46059,0.22418 -2.23652,0.53456 -1.64249,0.65702 -1.86095,0.97846 -0.69965,1.02196 2.25505,0.0844 4.80715,3.87154 4.80715,7.13407 0,2.12871 -0.74882,2.91827 -3.94634,4.17432 l -3.94241,1.54866 -0.30659,-3.04622 c -0.16815,-1.67574 -1.07243,-3.52542 -2.00855,-4.11143 -2.47213,-1.54757 -3.25764,-0.12969 -1.3993,2.52346 0.8811,1.25788 1.59976,3.10082 1.59976,4.0957 0,2.38099 2.30943,3.18318 5.00368,1.74126 1.78602,-0.95579 2.40318,-0.83623 3.54935,0.67607 2.02088,2.66641 1.77238,3.70236 -1.3089,5.52252 -2.42481,1.4324 -3.15334,1.46045 -6.08459,0.22798 -3.87725,-1.63026 -6.7801,-0.59267 -8.09708,2.89293 -2.15109,5.69316 3.75605,7.51861 9.15441,2.83005 1.80664,-1.5691 3.90945,-2.63562 4.67351,-2.37017 0.80238,0.27876 1.11363,0.0348 0.73502,-0.5778 -0.36053,-0.58335 -0.17105,-1.36139 0.42451,-1.72947 1.64144,-1.01447 2.3923,0.29399 1.07699,1.87884 -1.34869,1.625 -0.4115,4.91181 1.24601,4.36691 0.61967,-0.20374 1.35227,-2.13528 1.62727,-4.29223 0.45524,-3.57073 0.79076,-3.9519 3.74981,-4.23721 3.01116,-0.29033 3.25062,-0.0904 3.25062,2.67675 0,3.72643 -3.54892,8.05476 -10.06238,12.27532 -2.71523,1.7594 -4.93686,3.34733 -4.93686,3.5297 0,1.01462 3.37873,-0.0165 8.6002,-2.62566 7.01111,-3.50347 9.89885,-7.48867 8.85961,-12.22029 l -0.68393,-3.12091 3.67513,0.59746 c 3.06993,0.49813 3.62408,0.32296 3.35675,-1.0652 -0.47782,-2.48109 -6.24711,-3.79519 -11.04111,-2.5156 -3.59265,0.95894 -4.06083,0.87508 -4.50449,-0.8215 -0.27234,-1.04142 -1.2085,-1.89456 -2.07929,-1.89456 -1.15489,0 -1.28468,-0.29937 -0.47954,-1.1045 0.60713,-0.60713 3.84808,-1.12793 7.20089,-1.15953 4.39713,-0.0414 6.09639,-0.43368 6.09639,-1.3993 0,-0.95602 -1.57125,-1.33641 -5.49893,-1.33641 -3.025,0 -5.50287,-0.19057 -5.50287,-0.42058 0,-2.44031 1.65614,-3.58079 5.19235,-3.58079 2.74257,0 3.84441,-0.38779 3.54935,-1.24994 -0.26458,-0.7731 -1.79159,-1.12826 -3.99744,-0.93155 -2.85712,0.25478 -3.69295,-0.0823 -4.20576,-1.69803 -0.52876,-1.66594 -1.88734,-2.62922 -3.63583,-2.74357 z m -9.95232,23.0177 c 0.15608,-1.6e-4 0.31358,0.007 0.4756,0.0197 0.37034,0.0299 0.75734,0.0966 1.15561,0.19653 l 2.76715,0.69572 -2.72785,2.34658 c -3.29033,2.83023 -5.62078,3.02641 -5.62078,0.47167 0,-2.14864 1.40278,-3.53673 3.49039,-3.7105 0.14911,-0.0124 0.30379,-0.0195 0.45988,-0.0197 z" /><path
         id="path5605"
         style="display:inline;fill:#040404"
         d="m 644.75044,543.03317 c -0.31936,-0.002 -0.67657,0.003 -1.07306,0.0157 -2.06253,0.0638 -3.02412,0.30959 -2.13825,0.54636 1.88798,0.50463 3.89131,4.46713 3.89131,7.70008 0,1.61127 -1.02664,2.75682 -3.53756,3.9542 -4.55231,2.17085 -4.46518,2.1938 -4.46518,-1.28138 0,-1.87181 -0.68737,-3.33465 -1.86705,-3.96599 -2.42553,-1.29814 -3.45228,-0.24491 -1.58403,1.62334 0.79875,0.79881 1.45039,2.558 1.45039,3.91097 0,3.00205 2.08045,3.95946 5.09408,2.34658 1.89356,-1.0134 2.45777,-0.9173 3.57687,0.61317 1.96965,2.69364 1.63405,4.21525 -1.27352,5.73871 -1.96114,1.02748 -3.53109,1.11741 -6.34795,0.36554 -4.67692,-1.24834 -6.808,-0.46989 -7.6254,2.78681 -1.54239,6.1454 3.29892,7.48831 8.98932,2.49201 l 3.4786,-3.05409 2.05571,2.05179 c 2.94287,2.94281 3.89261,2.56451 4.24507,-1.6941 0.29066,-3.51189 0.53474,-3.76714 3.89131,-4.04854 3.52564,-0.29557 3.57971,-0.24743 3.13664,2.99906 -0.53264,3.90285 -3.8584,7.75395 -10.70701,12.40897 -5.78259,3.93042 -5.54119,4.12106 1.76485,1.3875 7.45386,-2.78881 11.21775,-6.91559 11.08041,-12.15347 l -0.10612,-4.06426 3.43929,0.55815 c 4.18187,0.67863 4.08131,-1.14544 -0.17688,-3.21917 -2.18393,-1.0636 -3.86062,-1.14757 -7.29523,-0.36162 -4.00981,0.91759 -4.51247,0.83324 -4.95651,-0.86474 -0.27173,-1.03913 -1.11798,-1.89063 -1.87883,-1.89063 -0.76085,0 -1.38358,-0.38948 -1.38358,-0.86473 0,-1.18084 8.60468,-2.27381 11.72896,-1.48971 1.89803,0.47638 2.4155,0.28809 2.07144,-0.75467 -0.29578,-0.89649 -2.32719,-1.50132 -5.71512,-1.69803 -4.23139,-0.24568 -5.14107,-0.60297 -4.66957,-1.83167 0.32218,-0.83961 0.58566,-1.83875 0.58566,-2.2208 0,-0.38202 1.85599,-0.51495 4.12322,-0.29873 3.161,0.30145 4.01067,0.0732 3.65547,-0.97479 -0.31868,-0.9403 -1.76107,-1.26098 -4.6224,-1.02982 -3.65689,0.29542 -4.1586,0.0811 -4.1586,-1.75306 0,-1.54387 -0.4412,-1.96858 -2.67675,-1.98496 z m -0.8215,21.90141 c 0.825,0 1.5015,0.67256 1.5015,1.49756 0,1.56157 -1.18416,1.98393 -2.33479,0.83329 -1.15064,-1.15063 -0.72828,-2.33085 0.83329,-2.33085 z m -10.29036,0.12578 c 0.89211,0.0183 1.94445,0.27223 3.1838,0.75861 1.74995,0.6867 1.6829,0.90888 -0.88439,2.92831 -4.40605,3.46578 -7.75125,2.3794 -5.51858,-1.79237 0.6961,-1.30063 1.73233,-1.92502 3.21917,-1.89455 z" /></g></g></svg>
